%TF.GenerationSoftware,KiCad,Pcbnew,5.1.6-c6e7f7d~86~ubuntu20.04.1*%
%TF.CreationDate,2020-06-13T16:26:38-04:00*%
%TF.ProjectId,set_board,7365745f-626f-4617-9264-2e6b69636164,rev?*%
%TF.SameCoordinates,Original*%
%TF.FileFunction,Soldermask,Top*%
%TF.FilePolarity,Negative*%
%FSLAX46Y46*%
G04 Gerber Fmt 4.6, Leading zero omitted, Abs format (unit mm)*
G04 Created by KiCad (PCBNEW 5.1.6-c6e7f7d~86~ubuntu20.04.1) date 2020-06-13 16:26:38*
%MOMM*%
%LPD*%
G01*
G04 APERTURE LIST*
%ADD10O,2.640000X1.624000*%
%ADD11C,6.450000*%
%ADD12C,1.700000*%
%ADD13R,1.900000X1.900000*%
%ADD14C,1.900000*%
%ADD15O,2.800000X3.400000*%
%ADD16R,1.800000X1.800000*%
%ADD17O,1.800000X1.800000*%
%ADD18C,1.500000*%
%ADD19O,1.500000X1.500000*%
%ADD20R,2.500000X1.700000*%
%ADD21O,2.500000X1.700000*%
G04 APERTURE END LIST*
D10*
%TO.C,U2*%
X92710000Y-93980000D03*
X92710000Y-96520000D03*
X92710000Y-99060000D03*
X92710000Y-101600000D03*
X92710000Y-104140000D03*
X92710000Y-106680000D03*
X92710000Y-109220000D03*
X92710000Y-111760000D03*
X92710000Y-114300000D03*
X92710000Y-116840000D03*
X92710000Y-119380000D03*
X92710000Y-121920000D03*
X92710000Y-124460000D03*
X92710000Y-127000000D03*
X92710000Y-129540000D03*
X120650000Y-129540000D03*
X120650000Y-127000000D03*
X120650000Y-124460000D03*
X120650000Y-121920000D03*
X120650000Y-119380000D03*
X120650000Y-116840000D03*
X120650000Y-114300000D03*
X120650000Y-111760000D03*
X120650000Y-109220000D03*
X120650000Y-106680000D03*
X120650000Y-104140000D03*
X120650000Y-101600000D03*
X120650000Y-99060000D03*
X120650000Y-96520000D03*
X120650000Y-93980000D03*
%TD*%
D11*
%TO.C,REF\u002A\u002A*%
X149860000Y-132080000D03*
%TD*%
%TO.C,REF\u002A\u002A*%
X149860000Y-91440000D03*
%TD*%
%TO.C,REF\u002A\u002A*%
X83820000Y-91440000D03*
%TD*%
%TO.C,REF\u002A\u002A*%
X83820000Y-132080000D03*
%TD*%
D12*
%TO.C,C1*%
X137160000Y-113030000D03*
X134660000Y-113030000D03*
%TD*%
D13*
%TO.C,D1*%
X83820000Y-102870000D03*
D14*
X83820000Y-100330000D03*
%TD*%
%TO.C,J1*%
G36*
G01*
X85220000Y-119629260D02*
X85220000Y-122510740D01*
G75*
G02*
X84960740Y-122770000I-259260J0D01*
G01*
X82679260Y-122770000D01*
G75*
G02*
X82420000Y-122510740I0J259260D01*
G01*
X82420000Y-119629260D01*
G75*
G02*
X82679260Y-119370000I259260J0D01*
G01*
X84960740Y-119370000D01*
G75*
G02*
X85220000Y-119629260I0J-259260D01*
G01*
G37*
D15*
X83820000Y-115570000D03*
%TD*%
D16*
%TO.C,J2*%
X152400000Y-104140000D03*
D17*
X152400000Y-106680000D03*
X152400000Y-109220000D03*
X152400000Y-111760000D03*
X152400000Y-114300000D03*
X152400000Y-116840000D03*
X152400000Y-119380000D03*
X152400000Y-121920000D03*
X152400000Y-124460000D03*
%TD*%
D18*
%TO.C,R1*%
X87630000Y-105410000D03*
D19*
X87630000Y-97790000D03*
%TD*%
D18*
%TO.C,R2*%
X142875000Y-113030000D03*
D19*
X142875000Y-105410000D03*
%TD*%
D18*
%TO.C,R3*%
X129540000Y-121920000D03*
D19*
X129540000Y-114300000D03*
%TD*%
D18*
%TO.C,R4*%
X125730000Y-127000000D03*
D19*
X125730000Y-134620000D03*
%TD*%
D18*
%TO.C,R5*%
X129540000Y-127000000D03*
D19*
X129540000Y-134620000D03*
%TD*%
%TO.C,R6*%
X148590000Y-113030000D03*
D18*
X148590000Y-105410000D03*
%TD*%
D19*
%TO.C,R7*%
X144780000Y-124460000D03*
D18*
X144780000Y-116840000D03*
%TD*%
D19*
%TO.C,R8*%
X146050000Y-113030000D03*
D18*
X146050000Y-105410000D03*
%TD*%
D19*
%TO.C,R9*%
X148590000Y-124460000D03*
D18*
X148590000Y-116840000D03*
%TD*%
D20*
%TO.C,U1*%
X133350000Y-118110000D03*
D21*
X140970000Y-133350000D03*
X133350000Y-120650000D03*
X140970000Y-130810000D03*
X133350000Y-123190000D03*
X140970000Y-128270000D03*
X133350000Y-125730000D03*
X140970000Y-125730000D03*
X133350000Y-128270000D03*
X140970000Y-123190000D03*
X133350000Y-130810000D03*
X140970000Y-120650000D03*
X133350000Y-133350000D03*
X140970000Y-118110000D03*
%TD*%
D20*
%TO.C,U3*%
X132080000Y-90170000D03*
D21*
X139700000Y-107950000D03*
X132080000Y-92710000D03*
X139700000Y-105410000D03*
X132080000Y-95250000D03*
X139700000Y-102870000D03*
X132080000Y-97790000D03*
X139700000Y-100330000D03*
X132080000Y-100330000D03*
X139700000Y-97790000D03*
X132080000Y-102870000D03*
X139700000Y-95250000D03*
X132080000Y-105410000D03*
X139700000Y-92710000D03*
X132080000Y-107950000D03*
X139700000Y-90170000D03*
%TD*%
M02*
