%TF.GenerationSoftware,KiCad,Pcbnew,10.0.1-10.0.1~ubuntu24.04.1*%
%TF.CreationDate,2026-04-26T18:24:38-04:00*%
%TF.ProjectId,set_board_avr,7365745f-626f-4617-9264-5f6176722e6b,rev?*%
%TF.SameCoordinates,Original*%
%TF.FileFunction,Copper,L2,Bot*%
%TF.FilePolarity,Positive*%
%FSLAX46Y46*%
G04 Gerber Fmt 4.6, Leading zero omitted, Abs format (unit mm)*
G04 Created by KiCad (PCBNEW 10.0.1-10.0.1~ubuntu24.04.1) date 2026-04-26 18:24:38*
%MOMM*%
%LPD*%
G01*
G04 APERTURE LIST*
G04 Aperture macros list*
%AMRoundRect*
0 Rectangle with rounded corners*
0 $1 Rounding radius*
0 $2 $3 $4 $5 $6 $7 $8 $9 X,Y pos of 4 corners*
0 Add a 4 corners polygon primitive as box body*
4,1,4,$2,$3,$4,$5,$6,$7,$8,$9,$2,$3,0*
0 Add four circle primitives for the rounded corners*
1,1,$1+$1,$2,$3*
1,1,$1+$1,$4,$5*
1,1,$1+$1,$6,$7*
1,1,$1+$1,$8,$9*
0 Add four rect primitives between the rounded corners*
20,1,$1+$1,$2,$3,$4,$5,0*
20,1,$1+$1,$4,$5,$6,$7,0*
20,1,$1+$1,$6,$7,$8,$9,0*
20,1,$1+$1,$8,$9,$2,$3,0*%
G04 Aperture macros list end*
%TA.AperFunction,ComponentPad*%
%ADD10RoundRect,0.250000X0.550000X-0.550000X0.550000X0.550000X-0.550000X0.550000X-0.550000X-0.550000X0*%
%TD*%
%TA.AperFunction,ComponentPad*%
%ADD11C,1.600000*%
%TD*%
%TA.AperFunction,ComponentPad*%
%ADD12R,1.574800X1.574800*%
%TD*%
%TA.AperFunction,ComponentPad*%
%ADD13C,1.574800*%
%TD*%
%TA.AperFunction,ComponentPad*%
%ADD14C,9.000000*%
%TD*%
%TA.AperFunction,ComponentPad*%
%ADD15R,1.700000X1.700000*%
%TD*%
%TA.AperFunction,ComponentPad*%
%ADD16C,1.700000*%
%TD*%
%TA.AperFunction,ViaPad*%
%ADD17C,0.600000*%
%TD*%
%TA.AperFunction,Conductor*%
%ADD18C,0.200000*%
%TD*%
%TA.AperFunction,Conductor*%
%ADD19C,1.016000*%
%TD*%
%TA.AperFunction,Conductor*%
%ADD20C,0.508000*%
%TD*%
%TA.AperFunction,Conductor*%
%ADD21C,0.304800*%
%TD*%
G04 APERTURE END LIST*
D10*
%TO.P,C3,1*%
%TO.N,+3.3V*%
X177165000Y-35560000D03*
D11*
%TO.P,C3,2*%
%TO.N,GND*%
X177165000Y-32060000D03*
%TD*%
D12*
%TO.P,U2,1,RXD_1*%
%TO.N,Net-(U1-PD0)*%
X188595000Y-38100000D03*
D13*
%TO.P,U2,2,IO0_2*%
%TO.N,unconnected-(U2-IO0-Pad2)*%
X188595000Y-35560000D03*
%TO.P,U2,3,IO2_3*%
%TO.N,unconnected-(U2-IO2-Pad3)*%
X188595000Y-33020000D03*
%TO.P,U2,4,GND_4*%
%TO.N,GND*%
X188595000Y-30480000D03*
%TO.P,U2,5,VCC_5*%
%TO.N,+3.3V*%
X186055000Y-38100000D03*
%TO.P,U2,6,RST_6*%
%TO.N,Net-(U1-PD6)*%
X186055000Y-35560000D03*
%TO.P,U2,7,EN_7*%
%TO.N,Net-(U1-PD5)*%
X186055000Y-33020000D03*
%TO.P,U2,8,TXD_8*%
%TO.N,Net-(U1-PD1)*%
X186055000Y-30480000D03*
%TD*%
D14*
%TO.P,H1,1,1_1*%
%TO.N,unconnected-(H1-Pad1)*%
X31115000Y-34290000D03*
%TD*%
%TO.P,H2,1,1_1*%
%TO.N,unconnected-(H2-Pad1)*%
X216535000Y-34290000D03*
%TD*%
D15*
%TO.P,J1,1,Pin_1_1*%
%TO.N,+12V*%
X49530000Y-36140000D03*
D16*
%TO.P,J1,2,Pin_2_2*%
%TO.N,Net-(J1-Pin_2)*%
X49530000Y-33600000D03*
%TO.P,J1,3,Pin_3_3*%
%TO.N,Net-(J1-Pin_3)*%
X46990000Y-36140000D03*
%TO.P,J1,4,Pin_4_4*%
%TO.N,Net-(J1-Pin_4)*%
X46990000Y-33600000D03*
%TO.P,J1,5,Pin_5_5*%
%TO.N,Net-(J1-Pin_5)*%
X44450000Y-36140000D03*
%TO.P,J1,6,Pin_6_6*%
%TO.N,Net-(J1-Pin_6)*%
X44450000Y-33600000D03*
%TO.P,J1,7,Pin_7_7*%
%TO.N,Net-(J1-Pin_7)*%
X41910000Y-36140000D03*
%TO.P,J1,8,Pin_8_8*%
%TO.N,Net-(J1-Pin_8)*%
X41910000Y-33600000D03*
%TO.P,J1,9,Pin_9_9*%
%TO.N,GND*%
X39370000Y-36140000D03*
%TO.P,J1,10,Pin_10_10*%
X39370000Y-33600000D03*
%TD*%
D17*
%TO.N,GND*%
X28750000Y-41750000D03*
%TO.N,Net-(U1-PD5)*%
X194825000Y-40850000D03*
X195000000Y-34500000D03*
%TO.N,GND*%
X171075000Y-40375000D03*
X177125000Y-40225000D03*
X186025000Y-40075000D03*
X184800000Y-27875000D03*
X181600000Y-27975000D03*
X92525000Y-40525000D03*
X89825000Y-38025000D03*
X104125000Y-32525000D03*
X116125000Y-40100000D03*
X129725000Y-41500000D03*
X135100000Y-40650000D03*
X139575000Y-41375000D03*
X140825000Y-33125000D03*
X140450000Y-29275000D03*
X135300000Y-28475000D03*
X131750000Y-28525000D03*
X152175000Y-37925000D03*
X154250000Y-28725000D03*
X146525000Y-28675000D03*
X118400000Y-36850000D03*
X131505400Y-40050000D03*
%TO.N,Net-(U1-PD1)*%
X185826400Y-26600000D03*
X140004800Y-27416000D03*
X141020800Y-30505400D03*
%TO.N,Net-(U1-PD0)*%
X191338200Y-26200000D03*
X138430000Y-27416000D03*
X136880600Y-28549600D03*
%TO.N,Net-(U1-PB3)*%
X158318200Y-37896800D03*
X158242000Y-41580000D03*
X143967200Y-41580000D03*
X143357600Y-35102800D03*
%TO.N,Net-(U1-PD6)*%
X141935200Y-42380000D03*
X192354200Y-36830000D03*
X192354200Y-42380000D03*
X141782800Y-40055800D03*
%TO.N,Net-(U1-PD2)*%
X122936000Y-34925000D03*
X122936000Y-41180000D03*
X94081600Y-41732200D03*
X94767400Y-34290000D03*
%TO.N,Net-(U1-PD3)*%
X124917200Y-41580000D03*
X124866400Y-36804600D03*
X91033600Y-42380000D03*
X91008200Y-36906200D03*
%TO.N,Net-(U1-PD4)*%
X127406400Y-37566600D03*
X127355600Y-41980000D03*
X100253800Y-41980000D03*
X100304600Y-38100000D03*
%TO.N,Net-(U1-PB4)*%
X137642600Y-33655000D03*
X137236200Y-42380000D03*
X97078800Y-42380000D03*
X95580200Y-31750000D03*
%TO.N,/SCK*%
X137058400Y-29921200D03*
X136931400Y-35153600D03*
%TO.N,Net-(U1-PB2)*%
X132918200Y-36093400D03*
X132918200Y-27762200D03*
X72085200Y-28270200D03*
X72212200Y-36677600D03*
%TO.N,Net-(U1-PB1)*%
X134493000Y-37439600D03*
X134467600Y-27584400D03*
X73837800Y-27736800D03*
X72758300Y-32321500D03*
%TO.N,Net-(R10-Pad2)*%
X95326200Y-36804600D03*
X95326200Y-39116000D03*
%TO.N,/RST*%
X127762000Y-28575000D03*
X126085600Y-38963600D03*
%TO.N,Net-(U1-PB0)*%
X135991600Y-38760400D03*
X136042400Y-27686000D03*
%TO.N,+3.3V*%
X121666000Y-28575000D03*
X150241000Y-33985200D03*
X62687200Y-26543000D03*
X143433800Y-28549600D03*
X62560200Y-39293800D03*
X161264600Y-33807400D03*
X150774400Y-28702000D03*
X118364000Y-31775400D03*
X62534800Y-29768800D03*
X99542600Y-30480000D03*
%TO.N,+12V*%
X55219600Y-36144200D03*
X55219600Y-33147000D03*
%TO.N,Net-(J1-Pin_5)*%
X82753200Y-29616400D03*
X44424600Y-41780000D03*
X83540600Y-42138600D03*
%TO.N,Net-(J1-Pin_4)*%
X45847000Y-38963600D03*
X65328800Y-38836600D03*
X57226200Y-36779200D03*
X55930800Y-38887400D03*
X65278000Y-36779200D03*
%TO.N,Net-(J1-Pin_3)*%
X46990000Y-41180000D03*
X73482200Y-41580000D03*
X73380600Y-34340800D03*
%TO.N,Net-(J1-Pin_8)*%
X84937600Y-39116000D03*
X40563800Y-41681400D03*
X84378800Y-41986200D03*
%TO.N,Net-(J1-Pin_6)*%
X85471000Y-41986200D03*
X85039200Y-32918400D03*
X43332400Y-39827200D03*
%TO.N,Net-(J1-Pin_2)*%
X67132200Y-29946600D03*
X64135000Y-35204400D03*
%TO.N,Net-(J1-Pin_7)*%
X82778600Y-36042600D03*
X82753200Y-42380000D03*
X41910000Y-42380000D03*
%TO.N,Net-(U1-PD5)*%
X132105400Y-41833800D03*
X131495800Y-38735000D03*
%TD*%
%TO.N,Net-(U1-PD5)*%
D18*
X195000000Y-40675000D02*
X194825000Y-40850000D01*
X195000000Y-34500000D02*
X195000000Y-40675000D01*
%TO.N,Net-(U1-PD1)*%
X141097000Y-28508200D02*
X141097000Y-30429200D01*
X140004800Y-27416000D02*
X141097000Y-28508200D01*
X141097000Y-30429200D02*
X141020800Y-30505400D01*
X185826400Y-26600000D02*
X186055000Y-26828600D01*
X186055000Y-26828600D02*
X186055000Y-30480000D01*
%TO.N,Net-(U1-PD0)*%
X191338200Y-26200000D02*
X191338200Y-35356800D01*
X191338200Y-35356800D02*
X188595000Y-38100000D01*
X138099800Y-27330400D02*
X138430000Y-27330400D01*
X136880600Y-28549600D02*
X138099800Y-27330400D01*
X138430000Y-27330400D02*
X138430000Y-27416000D01*
%TO.N,Net-(U1-PB3)*%
X158242000Y-37973000D02*
X158318200Y-37896800D01*
X158242000Y-41580000D02*
X158242000Y-37973000D01*
X143357600Y-41198800D02*
X143967200Y-41808400D01*
X143357600Y-35102800D02*
X143357600Y-41198800D01*
X143967200Y-41808400D02*
X143967200Y-41580000D01*
%TO.N,Net-(U1-PD6)*%
X141935200Y-42580000D02*
X141935200Y-42380000D01*
X141782800Y-40055800D02*
X141782800Y-42392600D01*
X192354200Y-42380000D02*
X192354200Y-36830000D01*
X141782800Y-42392600D02*
X141970200Y-42580000D01*
X141970200Y-42580000D02*
X141935200Y-42580000D01*
%TO.N,Net-(U1-PD2)*%
X122936000Y-41180000D02*
X122936000Y-34925000D01*
X94005400Y-41656000D02*
X94081600Y-41732200D01*
X94005400Y-35052000D02*
X94005400Y-41656000D01*
X94767400Y-34290000D02*
X94005400Y-35052000D01*
%TO.N,Net-(U1-PD3)*%
X124917200Y-41580000D02*
X124917200Y-36855400D01*
X124917200Y-36855400D02*
X124866400Y-36804600D01*
X91008200Y-42545000D02*
X91033600Y-42570400D01*
X91008200Y-36906200D02*
X91008200Y-42545000D01*
X91033600Y-42570400D02*
X91033600Y-42380000D01*
%TO.N,Net-(U1-PD4)*%
X127355600Y-41980000D02*
X127355600Y-37617400D01*
X127355600Y-37617400D02*
X127406400Y-37566600D01*
X100304600Y-42062400D02*
X100253800Y-42113200D01*
X100304600Y-38100000D02*
X100304600Y-42062400D01*
X100253800Y-42113200D02*
X100253800Y-41980000D01*
%TO.N,Net-(U1-PB4)*%
X137642600Y-42173600D02*
X137642600Y-33655000D01*
X137236200Y-42580000D02*
X137642600Y-42173600D01*
X137236200Y-42380000D02*
X137236200Y-42580000D01*
X95580200Y-31750000D02*
X97078800Y-33248600D01*
X97078800Y-33248600D02*
X97078800Y-42380000D01*
%TO.N,/SCK*%
X136931400Y-30048200D02*
X137058400Y-29921200D01*
X136931400Y-35153600D02*
X136931400Y-30048200D01*
%TO.N,Net-(U1-PB2)*%
X132918200Y-27762200D02*
X132918200Y-36093400D01*
X72085200Y-31978600D02*
X72085200Y-28270200D01*
X70739000Y-33324800D02*
X72085200Y-31978600D01*
X72212200Y-36677600D02*
X72212200Y-34798000D01*
X72212200Y-34798000D02*
X70739000Y-33324800D01*
%TO.N,Net-(U1-PB1)*%
X134467600Y-37414200D02*
X134493000Y-37439600D01*
X134467600Y-27584400D02*
X134467600Y-37414200D01*
X73837800Y-31242000D02*
X73837800Y-27736800D01*
X72758300Y-32321500D02*
X73837800Y-31242000D01*
%TO.N,Net-(R10-Pad2)*%
X95326200Y-39116000D02*
X95326200Y-36804600D01*
%TO.N,/RST*%
X126085600Y-30251400D02*
X127762000Y-28575000D01*
X126085600Y-38963600D02*
X126085600Y-30251400D01*
%TO.N,Net-(U1-PB0)*%
X136042400Y-38709600D02*
X135991600Y-38760400D01*
X136042400Y-27686000D02*
X136042400Y-38709600D01*
%TO.N,+3.3V*%
D19*
X62746000Y-26408000D02*
X121742200Y-26408000D01*
D18*
X121666000Y-28575000D02*
X121666000Y-26484200D01*
X121666000Y-26484200D02*
X121742200Y-26408000D01*
D19*
X142163800Y-26408000D02*
X143535400Y-26408000D01*
X121742200Y-26408000D02*
X122936000Y-26408000D01*
D20*
X62560200Y-39293800D02*
X62560200Y-26670000D01*
X99542600Y-26593800D02*
X99669600Y-26466800D01*
X99542600Y-30480000D02*
X99542600Y-26593800D01*
D21*
X150241000Y-33985200D02*
X150241000Y-28702000D01*
X143433800Y-26509600D02*
X143535400Y-26408000D01*
D19*
X143535400Y-26408000D02*
X149580600Y-26408000D01*
X149580600Y-26408000D02*
X183235600Y-26408000D01*
X122936000Y-26408000D02*
X142163800Y-26408000D01*
D20*
X118364000Y-31775400D02*
X118364000Y-26593800D01*
X62560200Y-26670000D02*
X62687200Y-26543000D01*
D21*
X161264600Y-33807400D02*
X161086800Y-33629600D01*
D19*
X122936000Y-26408000D02*
X122834400Y-26408000D01*
D21*
X143433800Y-28549600D02*
X143433800Y-26509600D01*
D18*
X150774400Y-28702000D02*
X150241000Y-28702000D01*
D21*
X161086800Y-33629600D02*
X161086800Y-26314400D01*
X150241000Y-28702000D02*
X150241000Y-26492200D01*
D19*
X183235600Y-35280600D02*
X186055000Y-38100000D01*
D20*
X118364000Y-26593800D02*
X118186200Y-26416000D01*
D19*
X183235600Y-26408000D02*
X183235600Y-35280600D01*
%TO.N,+12V*%
D20*
X55219600Y-36144200D02*
X55219600Y-33147000D01*
%TO.N,Net-(J1-Pin_5)*%
D18*
X83540600Y-30403800D02*
X82753200Y-29616400D01*
X44450000Y-36140000D02*
X44450000Y-41808400D01*
X83540600Y-42138600D02*
X83540600Y-30403800D01*
X44424600Y-41833800D02*
X44424600Y-41780000D01*
X44450000Y-41808400D02*
X44424600Y-41833800D01*
%TO.N,Net-(J1-Pin_4)*%
X45840000Y-38956600D02*
X45847000Y-38963600D01*
X65278000Y-38785800D02*
X65328800Y-38836600D01*
X55930800Y-38074600D02*
X57226200Y-36779200D01*
X55930800Y-38887400D02*
X55930800Y-38074600D01*
X46990000Y-33600000D02*
X45840000Y-34750000D01*
X45840000Y-34750000D02*
X45840000Y-38956600D01*
X65278000Y-36779200D02*
X65278000Y-38785800D01*
%TO.N,Net-(J1-Pin_3)*%
X73482200Y-41580000D02*
X73406000Y-41503800D01*
X46990000Y-36140000D02*
X46990000Y-41180000D01*
X73406000Y-41503800D02*
X73406000Y-34366200D01*
X73406000Y-34366200D02*
X73380600Y-34340800D01*
%TO.N,Net-(J1-Pin_8)*%
X40563800Y-34946200D02*
X40563800Y-41681400D01*
X41910000Y-33600000D02*
X40563800Y-34946200D01*
X84378800Y-39674800D02*
X84937600Y-39116000D01*
X84378800Y-41986200D02*
X84378800Y-39674800D01*
%TO.N,Net-(J1-Pin_6)*%
X43256200Y-39751000D02*
X43332400Y-39827200D01*
X43256200Y-34793800D02*
X43256200Y-39751000D01*
X85674200Y-41783000D02*
X85674200Y-33553400D01*
X44450000Y-33600000D02*
X43256200Y-34793800D01*
X85471000Y-41986200D02*
X85674200Y-41783000D01*
X85674200Y-33553400D02*
X85039200Y-32918400D01*
%TO.N,Net-(J1-Pin_2)*%
X66548000Y-32867600D02*
X66548000Y-30530800D01*
X66548000Y-30530800D02*
X67132200Y-29946600D01*
X64135000Y-35204400D02*
X66471800Y-32867600D01*
X66471800Y-32867600D02*
X66548000Y-32867600D01*
%TO.N,Net-(J1-Pin_7)*%
X82753200Y-36068000D02*
X82778600Y-36042600D01*
X41910000Y-36140000D02*
X41910000Y-42380000D01*
X82753200Y-42380000D02*
X82753200Y-36068000D01*
%TO.N,Net-(U1-PD5)*%
X131495800Y-38735000D02*
X132105400Y-39344600D01*
X132105400Y-39344600D02*
X132105400Y-41833800D01*
%TD*%
%TA.AperFunction,Conductor*%
%TO.N,GND*%
G36*
X62060103Y-25921065D02*
G01*
X62090167Y-25973136D01*
X62079726Y-26032350D01*
X62076693Y-26037224D01*
X62072798Y-26043054D01*
X62070283Y-26046819D01*
X62012803Y-26185587D01*
X62012800Y-26185595D01*
X61987125Y-26314673D01*
X61983500Y-26332900D01*
X61983500Y-26483100D01*
X62012803Y-26630413D01*
X62045009Y-26708164D01*
X62051700Y-26741802D01*
X62051700Y-29473000D01*
X62039924Y-29516949D01*
X62018087Y-29554772D01*
X61987330Y-29669561D01*
X61980300Y-29695799D01*
X61980300Y-29841801D01*
X61988820Y-29873599D01*
X62018087Y-29982828D01*
X62020330Y-29986713D01*
X62039923Y-30020648D01*
X62051700Y-30064598D01*
X62051700Y-39042460D01*
X62045010Y-39076096D01*
X62043487Y-39079770D01*
X62005700Y-39220799D01*
X62005700Y-39366801D01*
X62012211Y-39391100D01*
X62043486Y-39507825D01*
X62043487Y-39507828D01*
X62043488Y-39507829D01*
X62116489Y-39634271D01*
X62219729Y-39737511D01*
X62346171Y-39810512D01*
X62346173Y-39810512D01*
X62346174Y-39810513D01*
X62487199Y-39848300D01*
X62633200Y-39848300D01*
X62633201Y-39848300D01*
X62774229Y-39810512D01*
X62900671Y-39737511D01*
X63003911Y-39634271D01*
X63076912Y-39507829D01*
X63114700Y-39366801D01*
X63114700Y-39220799D01*
X63103132Y-39177625D01*
X63076912Y-39079770D01*
X63075390Y-39076096D01*
X63068700Y-39042460D01*
X63068700Y-36706199D01*
X64723500Y-36706199D01*
X64723500Y-36852201D01*
X64726313Y-36862698D01*
X64761286Y-36993225D01*
X64761287Y-36993228D01*
X64761288Y-36993229D01*
X64822429Y-37099129D01*
X64834290Y-37119672D01*
X64897755Y-37183137D01*
X64923166Y-37237631D01*
X64923500Y-37245292D01*
X64923500Y-38421308D01*
X64902935Y-38477809D01*
X64897755Y-38483463D01*
X64885090Y-38496127D01*
X64812086Y-38622574D01*
X64778059Y-38749571D01*
X64774300Y-38763599D01*
X64774300Y-38909601D01*
X64775068Y-38912466D01*
X64812086Y-39050625D01*
X64812087Y-39050628D01*
X64812088Y-39050629D01*
X64885089Y-39177071D01*
X64988329Y-39280311D01*
X65114771Y-39353312D01*
X65114773Y-39353312D01*
X65114774Y-39353313D01*
X65255799Y-39391100D01*
X65401800Y-39391100D01*
X65401801Y-39391100D01*
X65542829Y-39353312D01*
X65669271Y-39280311D01*
X65772511Y-39177071D01*
X65845512Y-39050629D01*
X65883300Y-38909601D01*
X65883300Y-38763599D01*
X65867976Y-38706409D01*
X65845513Y-38622574D01*
X65845512Y-38622573D01*
X65845512Y-38622571D01*
X65772511Y-38496129D01*
X65772509Y-38496127D01*
X65772508Y-38496125D01*
X65669267Y-38392885D01*
X65666880Y-38391053D01*
X65665906Y-38389524D01*
X65665198Y-38388816D01*
X65665355Y-38388658D01*
X65634581Y-38340338D01*
X65632500Y-38321325D01*
X65632500Y-37245292D01*
X65653065Y-37188791D01*
X65658245Y-37183137D01*
X65683645Y-37157737D01*
X65721711Y-37119671D01*
X65794712Y-36993229D01*
X65832500Y-36852201D01*
X65832500Y-36706199D01*
X65820366Y-36660913D01*
X65794713Y-36565174D01*
X65794712Y-36565173D01*
X65794712Y-36565171D01*
X65721711Y-36438729D01*
X65618471Y-36335489D01*
X65492029Y-36262488D01*
X65492028Y-36262487D01*
X65492025Y-36262486D01*
X65351001Y-36224700D01*
X65204999Y-36224700D01*
X65063974Y-36262486D01*
X64937527Y-36335490D01*
X64834290Y-36438727D01*
X64761286Y-36565174D01*
X64735634Y-36660913D01*
X64723500Y-36706199D01*
X63068700Y-36706199D01*
X63068700Y-35131399D01*
X63580500Y-35131399D01*
X63580500Y-35277401D01*
X63585895Y-35297535D01*
X63618286Y-35418425D01*
X63618287Y-35418428D01*
X63618288Y-35418429D01*
X63691289Y-35544871D01*
X63794529Y-35648111D01*
X63920971Y-35721112D01*
X63920973Y-35721112D01*
X63920974Y-35721113D01*
X64061999Y-35758900D01*
X64208000Y-35758900D01*
X64208001Y-35758900D01*
X64349029Y-35721112D01*
X64475471Y-35648111D01*
X64578711Y-35544871D01*
X64651712Y-35418429D01*
X64689500Y-35277401D01*
X64689500Y-35187648D01*
X64710065Y-35131147D01*
X64715234Y-35125504D01*
X66610760Y-33229977D01*
X66650161Y-33207230D01*
X66684832Y-33197941D01*
X66765668Y-33151271D01*
X66831671Y-33085268D01*
X66878341Y-33004432D01*
X66902500Y-32914271D01*
X66902500Y-30714049D01*
X66909063Y-30696016D01*
X66910736Y-30676901D01*
X66921742Y-30661180D01*
X66923065Y-30657548D01*
X66928245Y-30651894D01*
X67053294Y-30526845D01*
X67107788Y-30501434D01*
X67115449Y-30501100D01*
X67205200Y-30501100D01*
X67205201Y-30501100D01*
X67346229Y-30463312D01*
X67472671Y-30390311D01*
X67575911Y-30287071D01*
X67648912Y-30160629D01*
X67686700Y-30019601D01*
X67686700Y-29873599D01*
X67671221Y-29815830D01*
X67648913Y-29732574D01*
X67648912Y-29732573D01*
X67648912Y-29732571D01*
X67575911Y-29606129D01*
X67472671Y-29502889D01*
X67346229Y-29429888D01*
X67346228Y-29429887D01*
X67346225Y-29429886D01*
X67205201Y-29392100D01*
X67059199Y-29392100D01*
X66918174Y-29429886D01*
X66791727Y-29502890D01*
X66688490Y-29606127D01*
X66615486Y-29732574D01*
X66577700Y-29873599D01*
X66577700Y-29963351D01*
X66557135Y-30019852D01*
X66551955Y-30025506D01*
X66264329Y-30313131D01*
X66217658Y-30393968D01*
X66193500Y-30484129D01*
X66193500Y-32608151D01*
X66172935Y-32664652D01*
X66167755Y-32670306D01*
X64213906Y-34624155D01*
X64159412Y-34649566D01*
X64151751Y-34649900D01*
X64061999Y-34649900D01*
X63920974Y-34687686D01*
X63794527Y-34760690D01*
X63691290Y-34863927D01*
X63618286Y-34990374D01*
X63584390Y-35116880D01*
X63580500Y-35131399D01*
X63068700Y-35131399D01*
X63068700Y-29930253D01*
X63071695Y-29907503D01*
X63089300Y-29841801D01*
X63089300Y-29695799D01*
X63082270Y-29669561D01*
X63071695Y-29630095D01*
X63068700Y-29607345D01*
X63068700Y-27258400D01*
X63089265Y-27201899D01*
X63141336Y-27171835D01*
X63156600Y-27170500D01*
X73407708Y-27170500D01*
X73464209Y-27191065D01*
X73494273Y-27243136D01*
X73483832Y-27302350D01*
X73469863Y-27320555D01*
X73394090Y-27396327D01*
X73321086Y-27522774D01*
X73285015Y-27657400D01*
X73283300Y-27663799D01*
X73283300Y-27809801D01*
X73287772Y-27826490D01*
X73321086Y-27950825D01*
X73321087Y-27950828D01*
X73321088Y-27950829D01*
X73392699Y-28074864D01*
X73394090Y-28077272D01*
X73457555Y-28140737D01*
X73482966Y-28195231D01*
X73483300Y-28202892D01*
X73483300Y-31058751D01*
X73462735Y-31115252D01*
X73457555Y-31120906D01*
X72837206Y-31741255D01*
X72782712Y-31766666D01*
X72775051Y-31767000D01*
X72685299Y-31767000D01*
X72550350Y-31803159D01*
X72490452Y-31797918D01*
X72447935Y-31755402D01*
X72439700Y-31718254D01*
X72439700Y-28736292D01*
X72460265Y-28679791D01*
X72465445Y-28674137D01*
X72491582Y-28648000D01*
X72528911Y-28610671D01*
X72601912Y-28484229D01*
X72639700Y-28343201D01*
X72639700Y-28197199D01*
X72638275Y-28191882D01*
X72601913Y-28056174D01*
X72601912Y-28056173D01*
X72601912Y-28056171D01*
X72528911Y-27929729D01*
X72425671Y-27826489D01*
X72299229Y-27753488D01*
X72299228Y-27753487D01*
X72299225Y-27753486D01*
X72158201Y-27715700D01*
X72012199Y-27715700D01*
X71871174Y-27753486D01*
X71744727Y-27826490D01*
X71641490Y-27929727D01*
X71568486Y-28056174D01*
X71532125Y-28191882D01*
X71530700Y-28197199D01*
X71530700Y-28343201D01*
X71535611Y-28361529D01*
X71568486Y-28484225D01*
X71568487Y-28484228D01*
X71568488Y-28484229D01*
X71578747Y-28501999D01*
X71641490Y-28610672D01*
X71704955Y-28674137D01*
X71730366Y-28728631D01*
X71730700Y-28736292D01*
X71730700Y-31795351D01*
X71710135Y-31851852D01*
X71704955Y-31857506D01*
X70455329Y-33107131D01*
X70408658Y-33187968D01*
X70384500Y-33278129D01*
X70384500Y-33371470D01*
X70408658Y-33461631D01*
X70455329Y-33542468D01*
X71831955Y-34919093D01*
X71857366Y-34973587D01*
X71857700Y-34981248D01*
X71857700Y-36211508D01*
X71837135Y-36268009D01*
X71831955Y-36273663D01*
X71768490Y-36337127D01*
X71695486Y-36463574D01*
X71668115Y-36565729D01*
X71657700Y-36604599D01*
X71657700Y-36750601D01*
X71665331Y-36779082D01*
X71695486Y-36891625D01*
X71695487Y-36891628D01*
X71695488Y-36891629D01*
X71768489Y-37018071D01*
X71871729Y-37121311D01*
X71998171Y-37194312D01*
X71998173Y-37194312D01*
X71998174Y-37194313D01*
X72139199Y-37232100D01*
X72285200Y-37232100D01*
X72285201Y-37232100D01*
X72426229Y-37194312D01*
X72552671Y-37121311D01*
X72655911Y-37018071D01*
X72728912Y-36891629D01*
X72766700Y-36750601D01*
X72766700Y-36604599D01*
X72755763Y-36563781D01*
X72728913Y-36463574D01*
X72728912Y-36463573D01*
X72728912Y-36463571D01*
X72655911Y-36337129D01*
X72592445Y-36273663D01*
X72567034Y-36219169D01*
X72566700Y-36211508D01*
X72566700Y-34751329D01*
X72542541Y-34661168D01*
X72540116Y-34656968D01*
X72495871Y-34580332D01*
X72495870Y-34580331D01*
X72495868Y-34580328D01*
X72426799Y-34511260D01*
X72426798Y-34511260D01*
X72183337Y-34267799D01*
X72826100Y-34267799D01*
X72826100Y-34413801D01*
X72830148Y-34428909D01*
X72863886Y-34554825D01*
X72863887Y-34554828D01*
X72863888Y-34554829D01*
X72934598Y-34677303D01*
X72936890Y-34681272D01*
X73025755Y-34770137D01*
X73051166Y-34824631D01*
X73051500Y-34832292D01*
X73051500Y-41193440D01*
X73039724Y-41237389D01*
X72965487Y-41365972D01*
X72927700Y-41506999D01*
X72927700Y-41653000D01*
X72965486Y-41794025D01*
X72965487Y-41794028D01*
X72965488Y-41794029D01*
X73038489Y-41920471D01*
X73141729Y-42023711D01*
X73268171Y-42096712D01*
X73268173Y-42096712D01*
X73268174Y-42096713D01*
X73409199Y-42134500D01*
X73555200Y-42134500D01*
X73555201Y-42134500D01*
X73696229Y-42096712D01*
X73822671Y-42023711D01*
X73925911Y-41920471D01*
X73998912Y-41794029D01*
X74036700Y-41653001D01*
X74036700Y-41506999D01*
X74009236Y-41404500D01*
X73998913Y-41365974D01*
X73998912Y-41365972D01*
X73998912Y-41365971D01*
X73925911Y-41239529D01*
X73925909Y-41239527D01*
X73925908Y-41239525D01*
X73822671Y-41136289D01*
X73822664Y-41136284D01*
X73804450Y-41125768D01*
X73765801Y-41079708D01*
X73760500Y-41049645D01*
X73760500Y-34781492D01*
X73781065Y-34724991D01*
X73786245Y-34719337D01*
X73802253Y-34703329D01*
X73824311Y-34681271D01*
X73897312Y-34554829D01*
X73935100Y-34413801D01*
X73935100Y-34267799D01*
X73911276Y-34178884D01*
X73897313Y-34126774D01*
X73897312Y-34126773D01*
X73897312Y-34126771D01*
X73824311Y-34000329D01*
X73721071Y-33897089D01*
X73594629Y-33824088D01*
X73594628Y-33824087D01*
X73594625Y-33824086D01*
X73453601Y-33786300D01*
X73307599Y-33786300D01*
X73166574Y-33824086D01*
X73040127Y-33897090D01*
X72936890Y-34000327D01*
X72863886Y-34126774D01*
X72830572Y-34251109D01*
X72826100Y-34267799D01*
X72183337Y-34267799D01*
X71302493Y-33386955D01*
X71277082Y-33332461D01*
X71292645Y-33274383D01*
X71302493Y-33262645D01*
X71719739Y-32845399D01*
X72089137Y-32476001D01*
X72143630Y-32450591D01*
X72201708Y-32466154D01*
X72236196Y-32515406D01*
X72239162Y-32526477D01*
X72241588Y-32535529D01*
X72314589Y-32661971D01*
X72417829Y-32765211D01*
X72544271Y-32838212D01*
X72544273Y-32838212D01*
X72544274Y-32838213D01*
X72685299Y-32876000D01*
X72831300Y-32876000D01*
X72831301Y-32876000D01*
X72972329Y-32838212D01*
X73098771Y-32765211D01*
X73202011Y-32661971D01*
X73275012Y-32535529D01*
X73312800Y-32394501D01*
X73312800Y-32304749D01*
X73333365Y-32248248D01*
X73338545Y-32242594D01*
X73729287Y-31851852D01*
X74121471Y-31459668D01*
X74168142Y-31378831D01*
X74192301Y-31288671D01*
X74192301Y-31195329D01*
X74192301Y-31189948D01*
X74192300Y-31189930D01*
X74192300Y-28202892D01*
X74212865Y-28146391D01*
X74218045Y-28140737D01*
X74243100Y-28115682D01*
X74281511Y-28077271D01*
X74354512Y-27950829D01*
X74392300Y-27809801D01*
X74392300Y-27663799D01*
X74354512Y-27522771D01*
X74281511Y-27396329D01*
X74205737Y-27320555D01*
X74180326Y-27266061D01*
X74195889Y-27207983D01*
X74245142Y-27173495D01*
X74267892Y-27170500D01*
X98946200Y-27170500D01*
X99002701Y-27191065D01*
X99032765Y-27243136D01*
X99034100Y-27258400D01*
X99034100Y-30228660D01*
X99027410Y-30262296D01*
X99025887Y-30265970D01*
X98988100Y-30406999D01*
X98988100Y-30553000D01*
X99025886Y-30694025D01*
X99025887Y-30694028D01*
X99025888Y-30694029D01*
X99098889Y-30820471D01*
X99202129Y-30923711D01*
X99328571Y-30996712D01*
X99328573Y-30996712D01*
X99328574Y-30996713D01*
X99469599Y-31034500D01*
X99615600Y-31034500D01*
X99615601Y-31034500D01*
X99756629Y-30996712D01*
X99883071Y-30923711D01*
X99986311Y-30820471D01*
X100059312Y-30694029D01*
X100097100Y-30553001D01*
X100097100Y-30406999D01*
X100092628Y-30390309D01*
X100059312Y-30265970D01*
X100057790Y-30262296D01*
X100051100Y-30228660D01*
X100051100Y-27258400D01*
X100071665Y-27201899D01*
X100123736Y-27171835D01*
X100139000Y-27170500D01*
X117767600Y-27170500D01*
X117824101Y-27191065D01*
X117854165Y-27243136D01*
X117855500Y-27258400D01*
X117855500Y-31524060D01*
X117848810Y-31557696D01*
X117847287Y-31561370D01*
X117809500Y-31702399D01*
X117809500Y-31848400D01*
X117847286Y-31989425D01*
X117847287Y-31989428D01*
X117847288Y-31989429D01*
X117920289Y-32115871D01*
X118023529Y-32219111D01*
X118149971Y-32292112D01*
X118149973Y-32292112D01*
X118149974Y-32292113D01*
X118290999Y-32329900D01*
X118437000Y-32329900D01*
X118437001Y-32329900D01*
X118578029Y-32292112D01*
X118704471Y-32219111D01*
X118807711Y-32115871D01*
X118880712Y-31989429D01*
X118918500Y-31848401D01*
X118918500Y-31702399D01*
X118880712Y-31561371D01*
X118880712Y-31561370D01*
X118879190Y-31557696D01*
X118872500Y-31524060D01*
X118872500Y-27258400D01*
X118893065Y-27201899D01*
X118945136Y-27171835D01*
X118960400Y-27170500D01*
X121223600Y-27170500D01*
X121280101Y-27191065D01*
X121310165Y-27243136D01*
X121311500Y-27258400D01*
X121311500Y-28108908D01*
X121290935Y-28165409D01*
X121285755Y-28171063D01*
X121222290Y-28234527D01*
X121149286Y-28360974D01*
X121119888Y-28470693D01*
X121111500Y-28501999D01*
X121111500Y-28648001D01*
X121111615Y-28648431D01*
X121149286Y-28789025D01*
X121149287Y-28789028D01*
X121149288Y-28789029D01*
X121222289Y-28915471D01*
X121325529Y-29018711D01*
X121451971Y-29091712D01*
X121451973Y-29091712D01*
X121451974Y-29091713D01*
X121592999Y-29129500D01*
X121739000Y-29129500D01*
X121739001Y-29129500D01*
X121880029Y-29091712D01*
X122006471Y-29018711D01*
X122109711Y-28915471D01*
X122182712Y-28789029D01*
X122220500Y-28648001D01*
X122220500Y-28501999D01*
X122182712Y-28360971D01*
X122109711Y-28234529D01*
X122046245Y-28171063D01*
X122020834Y-28116569D01*
X122020500Y-28108908D01*
X122020500Y-27258400D01*
X122041065Y-27201899D01*
X122093136Y-27171835D01*
X122108400Y-27170500D01*
X122759300Y-27170500D01*
X122860900Y-27170500D01*
X132513508Y-27170500D01*
X132570009Y-27191065D01*
X132600073Y-27243136D01*
X132589632Y-27302350D01*
X132575663Y-27320555D01*
X132474490Y-27421727D01*
X132401486Y-27548174D01*
X132363700Y-27689199D01*
X132363700Y-27835200D01*
X132401486Y-27976225D01*
X132401487Y-27976228D01*
X132401488Y-27976229D01*
X132459824Y-28077271D01*
X132474490Y-28102672D01*
X132537955Y-28166137D01*
X132563366Y-28220631D01*
X132563700Y-28228292D01*
X132563700Y-35627308D01*
X132543135Y-35683809D01*
X132537955Y-35689463D01*
X132474490Y-35752927D01*
X132401486Y-35879374D01*
X132363700Y-36020399D01*
X132363700Y-36166400D01*
X132401486Y-36307425D01*
X132401487Y-36307428D01*
X132401488Y-36307429D01*
X132474489Y-36433871D01*
X132577729Y-36537111D01*
X132704171Y-36610112D01*
X132704173Y-36610112D01*
X132704174Y-36610113D01*
X132845199Y-36647900D01*
X132991200Y-36647900D01*
X132991201Y-36647900D01*
X133132229Y-36610112D01*
X133258671Y-36537111D01*
X133361911Y-36433871D01*
X133434912Y-36307429D01*
X133472700Y-36166401D01*
X133472700Y-36020399D01*
X133448524Y-35930171D01*
X133434913Y-35879374D01*
X133434912Y-35879373D01*
X133434912Y-35879371D01*
X133361911Y-35752929D01*
X133298445Y-35689463D01*
X133273034Y-35634969D01*
X133272700Y-35627308D01*
X133272700Y-28228292D01*
X133293265Y-28171791D01*
X133298445Y-28166137D01*
X133328674Y-28135908D01*
X133361911Y-28102671D01*
X133434912Y-27976229D01*
X133472700Y-27835201D01*
X133472700Y-27689199D01*
X133456845Y-27630025D01*
X133434913Y-27548174D01*
X133434912Y-27548173D01*
X133434912Y-27548171D01*
X133361911Y-27421729D01*
X133260737Y-27320555D01*
X133235326Y-27266061D01*
X133250889Y-27207983D01*
X133300142Y-27173495D01*
X133322892Y-27170500D01*
X133914037Y-27170500D01*
X133970538Y-27191065D01*
X134000602Y-27243136D01*
X133990161Y-27302346D01*
X133957907Y-27358213D01*
X133950886Y-27370374D01*
X133921122Y-27481460D01*
X133913100Y-27511399D01*
X133913100Y-27657401D01*
X133921564Y-27688990D01*
X133950886Y-27798425D01*
X133950887Y-27798428D01*
X133950888Y-27798429D01*
X134014664Y-27908893D01*
X134023890Y-27924872D01*
X134087355Y-27988337D01*
X134112766Y-28042831D01*
X134113100Y-28050492D01*
X134113100Y-36998908D01*
X134092535Y-37055409D01*
X134087355Y-37061063D01*
X134049290Y-37099127D01*
X133976286Y-37225574D01*
X133938500Y-37366599D01*
X133938500Y-37512600D01*
X133976286Y-37653625D01*
X133976287Y-37653628D01*
X133976288Y-37653629D01*
X134049289Y-37780071D01*
X134152529Y-37883311D01*
X134278971Y-37956312D01*
X134278973Y-37956312D01*
X134278974Y-37956313D01*
X134419999Y-37994100D01*
X134566000Y-37994100D01*
X134566001Y-37994100D01*
X134707029Y-37956312D01*
X134833471Y-37883311D01*
X134936711Y-37780071D01*
X135009712Y-37653629D01*
X135047500Y-37512601D01*
X135047500Y-37366599D01*
X135040989Y-37342300D01*
X135009713Y-37225574D01*
X135009712Y-37225573D01*
X135009712Y-37225571D01*
X134936711Y-37099129D01*
X134847845Y-37010263D01*
X134822434Y-36955769D01*
X134822100Y-36948108D01*
X134822100Y-28050492D01*
X134842665Y-27993991D01*
X134847845Y-27988337D01*
X134866827Y-27969355D01*
X134911311Y-27924871D01*
X134984312Y-27798429D01*
X135022100Y-27657401D01*
X135022100Y-27511399D01*
X135011500Y-27471839D01*
X134984313Y-27370374D01*
X134984312Y-27370373D01*
X134984312Y-27370371D01*
X134945038Y-27302346D01*
X134934598Y-27243136D01*
X134964662Y-27191065D01*
X135021163Y-27170500D01*
X135561508Y-27170500D01*
X135618009Y-27191065D01*
X135648073Y-27243136D01*
X135637632Y-27302350D01*
X135623663Y-27320555D01*
X135598690Y-27345527D01*
X135525686Y-27471974D01*
X135487900Y-27612999D01*
X135487900Y-27759000D01*
X135525686Y-27900025D01*
X135525687Y-27900028D01*
X135525688Y-27900029D01*
X135591536Y-28014082D01*
X135598690Y-28026472D01*
X135662155Y-28089937D01*
X135687566Y-28144431D01*
X135687900Y-28152092D01*
X135687900Y-38245125D01*
X135667335Y-38301626D01*
X135653520Y-38314853D01*
X135651132Y-38316685D01*
X135547891Y-38419925D01*
X135474886Y-38546374D01*
X135437100Y-38687399D01*
X135437100Y-38833400D01*
X135474886Y-38974425D01*
X135474887Y-38974428D01*
X135474888Y-38974429D01*
X135547889Y-39100871D01*
X135651129Y-39204111D01*
X135777571Y-39277112D01*
X135777573Y-39277112D01*
X135777574Y-39277113D01*
X135918599Y-39314900D01*
X136064600Y-39314900D01*
X136064601Y-39314900D01*
X136205629Y-39277112D01*
X136332071Y-39204111D01*
X136435311Y-39100871D01*
X136508312Y-38974429D01*
X136546100Y-38833401D01*
X136546100Y-38687399D01*
X136522491Y-38599287D01*
X136508313Y-38546374D01*
X136508312Y-38546373D01*
X136508312Y-38546371D01*
X136435311Y-38419929D01*
X136422645Y-38407263D01*
X136397234Y-38352769D01*
X136396900Y-38345108D01*
X136396900Y-35615492D01*
X136417465Y-35558991D01*
X136469536Y-35528927D01*
X136528750Y-35539368D01*
X136546955Y-35553337D01*
X136590929Y-35597311D01*
X136717371Y-35670312D01*
X136717373Y-35670312D01*
X136717374Y-35670313D01*
X136858399Y-35708100D01*
X137004400Y-35708100D01*
X137004401Y-35708100D01*
X137145429Y-35670312D01*
X137156252Y-35664063D01*
X137215462Y-35653622D01*
X137267534Y-35683684D01*
X137288100Y-35740185D01*
X137288100Y-41737600D01*
X137267535Y-41794101D01*
X137215464Y-41824165D01*
X137200200Y-41825500D01*
X137163199Y-41825500D01*
X137022174Y-41863286D01*
X136895727Y-41936290D01*
X136792490Y-42039527D01*
X136719486Y-42165974D01*
X136691288Y-42271214D01*
X136681700Y-42306999D01*
X136681700Y-42453001D01*
X136694783Y-42501830D01*
X136712741Y-42568850D01*
X136707500Y-42628749D01*
X136664984Y-42671265D01*
X136627836Y-42679500D01*
X127555122Y-42679500D01*
X127498621Y-42658935D01*
X127468557Y-42606864D01*
X127478998Y-42547650D01*
X127525058Y-42509001D01*
X127532372Y-42506695D01*
X127569625Y-42496713D01*
X127569624Y-42496713D01*
X127569629Y-42496712D01*
X127696071Y-42423711D01*
X127799311Y-42320471D01*
X127872312Y-42194029D01*
X127910100Y-42053001D01*
X127910100Y-41906999D01*
X127895631Y-41853000D01*
X127872313Y-41765974D01*
X127872312Y-41765973D01*
X127872312Y-41765971D01*
X127799311Y-41639529D01*
X127735845Y-41576063D01*
X127710434Y-41521569D01*
X127710100Y-41513908D01*
X127710100Y-38661999D01*
X130941300Y-38661999D01*
X130941300Y-38808001D01*
X130948106Y-38833400D01*
X130979086Y-38949025D01*
X130979087Y-38949028D01*
X130979088Y-38949029D01*
X131052089Y-39075471D01*
X131155329Y-39178711D01*
X131281771Y-39251712D01*
X131281773Y-39251712D01*
X131281774Y-39251713D01*
X131422799Y-39289500D01*
X131512551Y-39289500D01*
X131569052Y-39310065D01*
X131574706Y-39315245D01*
X131725155Y-39465694D01*
X131750566Y-39520188D01*
X131750900Y-39527849D01*
X131750900Y-41367708D01*
X131730335Y-41424209D01*
X131725155Y-41429863D01*
X131661690Y-41493327D01*
X131588686Y-41619774D01*
X131557116Y-41737600D01*
X131550900Y-41760799D01*
X131550900Y-41906801D01*
X131559364Y-41938390D01*
X131588686Y-42047825D01*
X131588687Y-42047828D01*
X131588688Y-42047829D01*
X131661689Y-42174271D01*
X131764929Y-42277511D01*
X131891371Y-42350512D01*
X131891373Y-42350512D01*
X131891374Y-42350513D01*
X132032399Y-42388300D01*
X132178400Y-42388300D01*
X132178401Y-42388300D01*
X132319429Y-42350512D01*
X132445871Y-42277511D01*
X132549111Y-42174271D01*
X132622112Y-42047829D01*
X132659900Y-41906801D01*
X132659900Y-41760799D01*
X132645999Y-41708918D01*
X132622113Y-41619774D01*
X132622112Y-41619773D01*
X132622112Y-41619771D01*
X132549111Y-41493329D01*
X132485645Y-41429863D01*
X132460234Y-41375369D01*
X132459900Y-41367708D01*
X132459900Y-39297929D01*
X132435741Y-39207768D01*
X132433630Y-39204111D01*
X132389071Y-39126932D01*
X132323068Y-39060929D01*
X132076045Y-38813906D01*
X132050634Y-38759412D01*
X132050300Y-38751751D01*
X132050300Y-38661999D01*
X132012513Y-38520974D01*
X132012512Y-38520973D01*
X132012512Y-38520971D01*
X131939511Y-38394529D01*
X131836271Y-38291289D01*
X131709829Y-38218288D01*
X131709828Y-38218287D01*
X131709825Y-38218286D01*
X131568801Y-38180500D01*
X131422799Y-38180500D01*
X131281774Y-38218286D01*
X131155327Y-38291290D01*
X131052090Y-38394527D01*
X130979086Y-38520974D01*
X130951715Y-38623129D01*
X130941300Y-38661999D01*
X127710100Y-38661999D01*
X127710100Y-38081874D01*
X127730665Y-38025373D01*
X127744493Y-38012136D01*
X127746869Y-38010312D01*
X127746868Y-38010312D01*
X127746871Y-38010311D01*
X127850111Y-37907071D01*
X127923112Y-37780629D01*
X127960900Y-37639601D01*
X127960900Y-37493599D01*
X127950046Y-37453090D01*
X127923113Y-37352574D01*
X127923112Y-37352573D01*
X127923112Y-37352571D01*
X127850111Y-37226129D01*
X127746871Y-37122889D01*
X127620429Y-37049888D01*
X127620428Y-37049887D01*
X127620425Y-37049886D01*
X127479401Y-37012100D01*
X127333399Y-37012100D01*
X127192374Y-37049886D01*
X127065927Y-37122890D01*
X126962690Y-37226127D01*
X126889686Y-37352574D01*
X126862754Y-37453090D01*
X126851900Y-37493599D01*
X126851900Y-37639601D01*
X126856372Y-37656290D01*
X126889686Y-37780625D01*
X126889687Y-37780628D01*
X126889688Y-37780629D01*
X126948971Y-37883311D01*
X126962690Y-37907072D01*
X126975355Y-37919737D01*
X127000766Y-37974231D01*
X127001100Y-37981892D01*
X127001100Y-41513908D01*
X126980535Y-41570409D01*
X126975355Y-41576063D01*
X126911890Y-41639527D01*
X126838886Y-41765974D01*
X126801100Y-41906999D01*
X126801100Y-42053000D01*
X126838886Y-42194025D01*
X126838887Y-42194028D01*
X126838888Y-42194029D01*
X126911889Y-42320471D01*
X127015129Y-42423711D01*
X127141571Y-42496712D01*
X127141573Y-42496712D01*
X127141574Y-42496713D01*
X127178828Y-42506695D01*
X127228081Y-42541182D01*
X127243644Y-42599261D01*
X127218233Y-42653755D01*
X127163739Y-42679165D01*
X127156078Y-42679500D01*
X100453322Y-42679500D01*
X100396821Y-42658935D01*
X100366757Y-42606864D01*
X100377198Y-42547650D01*
X100423258Y-42509001D01*
X100430572Y-42506695D01*
X100467825Y-42496713D01*
X100467824Y-42496713D01*
X100467829Y-42496712D01*
X100594271Y-42423711D01*
X100697511Y-42320471D01*
X100770512Y-42194029D01*
X100808300Y-42053001D01*
X100808300Y-41906999D01*
X100793831Y-41853000D01*
X100770513Y-41765974D01*
X100770512Y-41765973D01*
X100770512Y-41765971D01*
X100697511Y-41639529D01*
X100684845Y-41626863D01*
X100659434Y-41572369D01*
X100659100Y-41564708D01*
X100659100Y-38566092D01*
X100679665Y-38509591D01*
X100684845Y-38503937D01*
X100710973Y-38477809D01*
X100748311Y-38440471D01*
X100821312Y-38314029D01*
X100859100Y-38173001D01*
X100859100Y-38026999D01*
X100854629Y-38010311D01*
X100821313Y-37885974D01*
X100821312Y-37885973D01*
X100821312Y-37885971D01*
X100748311Y-37759529D01*
X100645071Y-37656289D01*
X100518629Y-37583288D01*
X100518628Y-37583287D01*
X100518625Y-37583286D01*
X100377601Y-37545500D01*
X100231599Y-37545500D01*
X100090574Y-37583286D01*
X99964127Y-37656290D01*
X99860890Y-37759527D01*
X99787886Y-37885974D01*
X99754571Y-38010311D01*
X99750100Y-38026999D01*
X99750100Y-38173001D01*
X99758035Y-38202616D01*
X99787886Y-38314025D01*
X99787887Y-38314028D01*
X99787888Y-38314029D01*
X99854248Y-38428969D01*
X99860890Y-38440472D01*
X99924355Y-38503937D01*
X99949766Y-38558431D01*
X99950100Y-38566092D01*
X99950100Y-41464725D01*
X99929535Y-41521226D01*
X99915720Y-41534453D01*
X99913332Y-41536285D01*
X99810091Y-41639525D01*
X99737086Y-41765974D01*
X99699300Y-41906999D01*
X99699300Y-42053000D01*
X99737086Y-42194025D01*
X99737087Y-42194028D01*
X99737088Y-42194029D01*
X99810089Y-42320471D01*
X99913329Y-42423711D01*
X100039771Y-42496712D01*
X100039773Y-42496712D01*
X100039774Y-42496713D01*
X100077028Y-42506695D01*
X100126281Y-42541182D01*
X100141844Y-42599261D01*
X100116433Y-42653755D01*
X100061939Y-42679165D01*
X100054278Y-42679500D01*
X97687164Y-42679500D01*
X97630663Y-42658935D01*
X97600599Y-42606864D01*
X97602259Y-42568850D01*
X97620216Y-42501830D01*
X97633300Y-42453001D01*
X97633300Y-42306999D01*
X97620115Y-42257791D01*
X97595513Y-42165974D01*
X97595512Y-42165973D01*
X97595512Y-42165971D01*
X97522511Y-42039529D01*
X97459045Y-41976063D01*
X97433634Y-41921569D01*
X97433300Y-41913908D01*
X97433300Y-34851999D01*
X122381500Y-34851999D01*
X122381500Y-34998000D01*
X122419286Y-35139025D01*
X122419287Y-35139028D01*
X122419288Y-35139029D01*
X122491978Y-35264933D01*
X122492290Y-35265472D01*
X122555755Y-35328937D01*
X122581166Y-35383431D01*
X122581500Y-35391092D01*
X122581500Y-40713908D01*
X122560935Y-40770409D01*
X122555755Y-40776063D01*
X122492290Y-40839527D01*
X122419286Y-40965974D01*
X122381500Y-41106999D01*
X122381500Y-41253000D01*
X122419286Y-41394025D01*
X122419287Y-41394028D01*
X122419288Y-41394029D01*
X122492289Y-41520471D01*
X122595529Y-41623711D01*
X122721971Y-41696712D01*
X122721973Y-41696712D01*
X122721974Y-41696713D01*
X122862999Y-41734500D01*
X123009000Y-41734500D01*
X123009001Y-41734500D01*
X123150029Y-41696712D01*
X123276471Y-41623711D01*
X123379711Y-41520471D01*
X123452712Y-41394029D01*
X123490500Y-41253001D01*
X123490500Y-41106999D01*
X123488730Y-41100394D01*
X123452713Y-40965974D01*
X123452712Y-40965973D01*
X123452712Y-40965971D01*
X123379711Y-40839529D01*
X123316245Y-40776063D01*
X123290834Y-40721569D01*
X123290500Y-40713908D01*
X123290500Y-36731599D01*
X124311900Y-36731599D01*
X124311900Y-36877600D01*
X124349686Y-37018625D01*
X124349687Y-37018628D01*
X124349688Y-37018629D01*
X124413477Y-37129116D01*
X124422690Y-37145072D01*
X124525930Y-37248312D01*
X124528307Y-37250136D01*
X124529278Y-37251660D01*
X124530003Y-37252385D01*
X124529842Y-37252545D01*
X124560616Y-37300845D01*
X124562700Y-37319874D01*
X124562700Y-41113908D01*
X124542135Y-41170409D01*
X124536955Y-41176063D01*
X124473490Y-41239527D01*
X124400486Y-41365974D01*
X124362700Y-41506999D01*
X124362700Y-41653000D01*
X124400486Y-41794025D01*
X124400487Y-41794028D01*
X124400488Y-41794029D01*
X124473489Y-41920471D01*
X124576729Y-42023711D01*
X124703171Y-42096712D01*
X124703173Y-42096712D01*
X124703174Y-42096713D01*
X124844199Y-42134500D01*
X124990200Y-42134500D01*
X124990201Y-42134500D01*
X125131229Y-42096712D01*
X125257671Y-42023711D01*
X125360911Y-41920471D01*
X125433912Y-41794029D01*
X125471700Y-41653001D01*
X125471700Y-41506999D01*
X125444236Y-41404500D01*
X125433913Y-41365974D01*
X125433912Y-41365972D01*
X125433912Y-41365971D01*
X125360911Y-41239529D01*
X125297445Y-41176063D01*
X125272034Y-41121569D01*
X125271700Y-41113908D01*
X125271700Y-38890599D01*
X125531100Y-38890599D01*
X125531100Y-39036601D01*
X125533216Y-39044499D01*
X125568886Y-39177625D01*
X125568887Y-39177628D01*
X125568888Y-39177629D01*
X125641889Y-39304071D01*
X125745129Y-39407311D01*
X125871571Y-39480312D01*
X125871573Y-39480312D01*
X125871574Y-39480313D01*
X126012599Y-39518100D01*
X126158600Y-39518100D01*
X126158601Y-39518100D01*
X126299629Y-39480312D01*
X126426071Y-39407311D01*
X126529311Y-39304071D01*
X126602312Y-39177629D01*
X126640100Y-39036601D01*
X126640100Y-38890599D01*
X126623532Y-38828766D01*
X126602313Y-38749574D01*
X126602312Y-38749573D01*
X126602312Y-38749571D01*
X126529311Y-38623129D01*
X126465845Y-38559663D01*
X126440434Y-38505169D01*
X126440100Y-38497508D01*
X126440100Y-30434649D01*
X126460665Y-30378148D01*
X126465845Y-30372494D01*
X127683094Y-29155245D01*
X127737588Y-29129834D01*
X127745249Y-29129500D01*
X127835000Y-29129500D01*
X127835001Y-29129500D01*
X127976029Y-29091712D01*
X128102471Y-29018711D01*
X128205711Y-28915471D01*
X128278712Y-28789029D01*
X128316500Y-28648001D01*
X128316500Y-28501999D01*
X128278712Y-28360971D01*
X128205711Y-28234529D01*
X128102471Y-28131289D01*
X127976029Y-28058288D01*
X127976028Y-28058287D01*
X127976025Y-28058286D01*
X127835001Y-28020500D01*
X127688999Y-28020500D01*
X127547974Y-28058286D01*
X127421527Y-28131290D01*
X127318290Y-28234527D01*
X127245286Y-28360974D01*
X127207500Y-28501999D01*
X127207500Y-28591751D01*
X127186935Y-28648252D01*
X127181755Y-28653906D01*
X125801929Y-30033731D01*
X125755258Y-30114568D01*
X125731100Y-30204729D01*
X125731100Y-38497508D01*
X125710535Y-38554009D01*
X125705355Y-38559663D01*
X125641890Y-38623127D01*
X125568886Y-38749574D01*
X125547667Y-38828768D01*
X125531100Y-38890599D01*
X125271700Y-38890599D01*
X125271700Y-37219892D01*
X125292265Y-37163391D01*
X125297445Y-37157737D01*
X125310111Y-37145071D01*
X125383112Y-37018629D01*
X125420900Y-36877601D01*
X125420900Y-36731599D01*
X125389918Y-36615971D01*
X125383113Y-36590574D01*
X125383112Y-36590573D01*
X125383112Y-36590571D01*
X125310111Y-36464129D01*
X125206871Y-36360889D01*
X125080429Y-36287888D01*
X125080428Y-36287887D01*
X125080425Y-36287886D01*
X124939401Y-36250100D01*
X124793399Y-36250100D01*
X124652374Y-36287886D01*
X124525927Y-36360890D01*
X124422690Y-36464127D01*
X124349686Y-36590574D01*
X124311900Y-36731599D01*
X123290500Y-36731599D01*
X123290500Y-35391092D01*
X123311065Y-35334591D01*
X123316245Y-35328937D01*
X123347647Y-35297535D01*
X123379711Y-35265471D01*
X123452712Y-35139029D01*
X123490500Y-34998001D01*
X123490500Y-34851999D01*
X123478366Y-34806713D01*
X123452713Y-34710974D01*
X123452712Y-34710973D01*
X123452712Y-34710971D01*
X123379711Y-34584529D01*
X123276471Y-34481289D01*
X123150029Y-34408288D01*
X123150028Y-34408287D01*
X123150025Y-34408286D01*
X123009001Y-34370500D01*
X122862999Y-34370500D01*
X122721974Y-34408286D01*
X122595527Y-34481290D01*
X122492290Y-34584527D01*
X122419286Y-34710974D01*
X122381500Y-34851999D01*
X97433300Y-34851999D01*
X97433300Y-33201929D01*
X97409141Y-33111768D01*
X97406464Y-33107131D01*
X97362471Y-33030932D01*
X97362470Y-33030931D01*
X97362468Y-33030928D01*
X97293399Y-32961860D01*
X97293398Y-32961860D01*
X96160445Y-31828906D01*
X96135034Y-31774412D01*
X96134700Y-31766751D01*
X96134700Y-31676999D01*
X96096913Y-31535974D01*
X96096912Y-31535973D01*
X96096912Y-31535971D01*
X96023911Y-31409529D01*
X95920671Y-31306289D01*
X95794229Y-31233288D01*
X95794228Y-31233287D01*
X95794225Y-31233286D01*
X95653201Y-31195500D01*
X95507199Y-31195500D01*
X95366174Y-31233286D01*
X95239727Y-31306290D01*
X95136490Y-31409527D01*
X95063486Y-31535974D01*
X95025700Y-31676999D01*
X95025700Y-31823000D01*
X95063486Y-31964025D01*
X95063487Y-31964028D01*
X95063488Y-31964029D01*
X95136489Y-32090471D01*
X95239729Y-32193711D01*
X95366171Y-32266712D01*
X95366173Y-32266712D01*
X95366174Y-32266713D01*
X95507199Y-32304500D01*
X95596951Y-32304500D01*
X95653452Y-32325065D01*
X95659106Y-32330245D01*
X96698555Y-33369693D01*
X96723966Y-33424187D01*
X96724300Y-33431848D01*
X96724300Y-41913908D01*
X96703735Y-41970409D01*
X96698555Y-41976063D01*
X96635090Y-42039527D01*
X96562086Y-42165974D01*
X96533888Y-42271214D01*
X96524300Y-42306999D01*
X96524300Y-42453001D01*
X96537383Y-42501830D01*
X96555341Y-42568850D01*
X96550100Y-42628749D01*
X96507584Y-42671265D01*
X96470436Y-42679500D01*
X91641964Y-42679500D01*
X91585463Y-42658935D01*
X91555399Y-42606864D01*
X91557059Y-42568850D01*
X91575016Y-42501830D01*
X91588100Y-42453001D01*
X91588100Y-42306999D01*
X91574915Y-42257791D01*
X91550313Y-42165974D01*
X91550312Y-42165973D01*
X91550312Y-42165971D01*
X91477311Y-42039529D01*
X91388445Y-41950663D01*
X91363034Y-41896169D01*
X91362700Y-41888508D01*
X91362700Y-41659199D01*
X93527100Y-41659199D01*
X93527100Y-41805200D01*
X93564886Y-41946225D01*
X93564887Y-41946228D01*
X93564888Y-41946229D01*
X93637889Y-42072671D01*
X93741129Y-42175911D01*
X93867571Y-42248912D01*
X93867573Y-42248912D01*
X93867574Y-42248913D01*
X94008599Y-42286700D01*
X94154600Y-42286700D01*
X94154601Y-42286700D01*
X94295629Y-42248912D01*
X94422071Y-42175911D01*
X94525311Y-42072671D01*
X94598312Y-41946229D01*
X94636100Y-41805201D01*
X94636100Y-41659199D01*
X94632491Y-41645729D01*
X94598313Y-41518174D01*
X94598312Y-41518172D01*
X94598312Y-41518171D01*
X94525311Y-41391729D01*
X94525309Y-41391727D01*
X94525308Y-41391725D01*
X94422071Y-41288489D01*
X94422064Y-41288484D01*
X94403850Y-41277968D01*
X94365201Y-41231908D01*
X94359900Y-41201845D01*
X94359900Y-36731599D01*
X94771700Y-36731599D01*
X94771700Y-36877600D01*
X94809486Y-37018625D01*
X94809487Y-37018628D01*
X94809488Y-37018629D01*
X94873277Y-37129116D01*
X94882490Y-37145072D01*
X94945955Y-37208537D01*
X94971366Y-37263031D01*
X94971700Y-37270692D01*
X94971700Y-38649908D01*
X94951135Y-38706409D01*
X94945955Y-38712063D01*
X94882490Y-38775527D01*
X94809486Y-38901974D01*
X94773415Y-39036600D01*
X94771700Y-39042999D01*
X94771700Y-39189001D01*
X94773282Y-39194906D01*
X94809486Y-39330025D01*
X94809487Y-39330028D01*
X94809488Y-39330029D01*
X94882489Y-39456471D01*
X94985729Y-39559711D01*
X95112171Y-39632712D01*
X95112173Y-39632712D01*
X95112174Y-39632713D01*
X95253199Y-39670500D01*
X95399200Y-39670500D01*
X95399201Y-39670500D01*
X95540229Y-39632712D01*
X95666671Y-39559711D01*
X95769911Y-39456471D01*
X95842912Y-39330029D01*
X95880700Y-39189001D01*
X95880700Y-39042999D01*
X95855520Y-38949025D01*
X95842913Y-38901974D01*
X95842912Y-38901973D01*
X95842912Y-38901971D01*
X95769911Y-38775529D01*
X95706445Y-38712063D01*
X95681034Y-38657569D01*
X95680700Y-38649908D01*
X95680700Y-37270692D01*
X95701265Y-37214191D01*
X95706445Y-37208537D01*
X95731845Y-37183137D01*
X95769911Y-37145071D01*
X95842912Y-37018629D01*
X95880700Y-36877601D01*
X95880700Y-36731599D01*
X95849718Y-36615971D01*
X95842913Y-36590574D01*
X95842912Y-36590573D01*
X95842912Y-36590571D01*
X95769911Y-36464129D01*
X95666671Y-36360889D01*
X95540229Y-36287888D01*
X95540228Y-36287887D01*
X95540225Y-36287886D01*
X95399201Y-36250100D01*
X95253199Y-36250100D01*
X95112174Y-36287886D01*
X94985727Y-36360890D01*
X94882490Y-36464127D01*
X94809486Y-36590574D01*
X94771700Y-36731599D01*
X94359900Y-36731599D01*
X94359900Y-35235249D01*
X94380465Y-35178748D01*
X94385645Y-35173094D01*
X94688494Y-34870245D01*
X94742988Y-34844834D01*
X94750649Y-34844500D01*
X94840400Y-34844500D01*
X94840401Y-34844500D01*
X94981429Y-34806712D01*
X95107871Y-34733711D01*
X95211111Y-34630471D01*
X95284112Y-34504029D01*
X95321900Y-34363001D01*
X95321900Y-34216999D01*
X95296202Y-34121092D01*
X95284113Y-34075974D01*
X95284112Y-34075973D01*
X95284112Y-34075971D01*
X95211111Y-33949529D01*
X95107871Y-33846289D01*
X94981429Y-33773288D01*
X94981428Y-33773287D01*
X94981425Y-33773286D01*
X94840401Y-33735500D01*
X94694399Y-33735500D01*
X94553374Y-33773286D01*
X94426927Y-33846290D01*
X94323690Y-33949527D01*
X94250686Y-34075974D01*
X94212900Y-34216999D01*
X94212900Y-34306751D01*
X94192335Y-34363252D01*
X94187155Y-34368906D01*
X93721729Y-34834331D01*
X93675058Y-34915168D01*
X93650900Y-35005329D01*
X93650900Y-41345640D01*
X93639124Y-41389589D01*
X93564887Y-41518172D01*
X93527100Y-41659199D01*
X91362700Y-41659199D01*
X91362700Y-37372292D01*
X91383265Y-37315791D01*
X91388445Y-37310137D01*
X91411049Y-37287533D01*
X91451911Y-37246671D01*
X91524912Y-37120229D01*
X91562700Y-36979201D01*
X91562700Y-36833199D01*
X91548200Y-36779082D01*
X91524913Y-36692174D01*
X91524912Y-36692173D01*
X91524912Y-36692171D01*
X91451911Y-36565729D01*
X91348671Y-36462489D01*
X91222229Y-36389488D01*
X91222228Y-36389487D01*
X91222225Y-36389486D01*
X91081201Y-36351700D01*
X90935199Y-36351700D01*
X90794174Y-36389486D01*
X90667727Y-36462490D01*
X90564490Y-36565727D01*
X90491486Y-36692174D01*
X90468200Y-36779082D01*
X90453700Y-36833199D01*
X90453700Y-36979201D01*
X90460376Y-37004115D01*
X90491486Y-37120225D01*
X90491487Y-37120228D01*
X90491488Y-37120229D01*
X90562946Y-37243999D01*
X90564490Y-37246672D01*
X90627955Y-37310137D01*
X90653366Y-37364631D01*
X90653700Y-37372292D01*
X90653700Y-41939308D01*
X90633135Y-41995809D01*
X90627955Y-42001463D01*
X90589890Y-42039527D01*
X90516886Y-42165974D01*
X90488688Y-42271214D01*
X90479100Y-42306999D01*
X90479100Y-42453001D01*
X90492183Y-42501830D01*
X90510141Y-42568850D01*
X90504900Y-42628749D01*
X90462384Y-42671265D01*
X90425236Y-42679500D01*
X85693661Y-42679500D01*
X85637160Y-42658935D01*
X85607096Y-42606864D01*
X85617537Y-42547650D01*
X85663597Y-42509001D01*
X85670911Y-42506695D01*
X85685025Y-42502913D01*
X85685024Y-42502913D01*
X85685029Y-42502912D01*
X85811471Y-42429911D01*
X85914711Y-42326671D01*
X85987712Y-42200229D01*
X86025500Y-42059201D01*
X86025500Y-41913199D01*
X86022005Y-41900154D01*
X86022006Y-41854653D01*
X86024524Y-41845252D01*
X86028700Y-41829671D01*
X86028700Y-41736329D01*
X86028700Y-33506729D01*
X86004541Y-33416568D01*
X85957871Y-33335732D01*
X85891868Y-33269729D01*
X85619445Y-32997306D01*
X85594034Y-32942812D01*
X85593700Y-32935151D01*
X85593700Y-32845399D01*
X85555913Y-32704374D01*
X85555912Y-32704373D01*
X85555912Y-32704371D01*
X85482911Y-32577929D01*
X85379671Y-32474689D01*
X85253229Y-32401688D01*
X85253228Y-32401687D01*
X85253225Y-32401686D01*
X85112201Y-32363900D01*
X84966199Y-32363900D01*
X84825174Y-32401686D01*
X84698727Y-32474690D01*
X84595490Y-32577927D01*
X84522486Y-32704374D01*
X84495115Y-32806529D01*
X84484700Y-32845399D01*
X84484700Y-32991401D01*
X84488192Y-33004432D01*
X84522486Y-33132425D01*
X84522487Y-33132428D01*
X84522488Y-33132429D01*
X84595489Y-33258871D01*
X84698729Y-33362111D01*
X84825171Y-33435112D01*
X84825173Y-33435112D01*
X84825174Y-33435113D01*
X84966199Y-33472900D01*
X85055951Y-33472900D01*
X85112452Y-33493465D01*
X85118106Y-33498645D01*
X85293955Y-33674494D01*
X85319366Y-33728988D01*
X85319700Y-33736649D01*
X85319700Y-38544076D01*
X85299135Y-38600577D01*
X85247064Y-38630641D01*
X85187852Y-38620201D01*
X85178187Y-38614621D01*
X85151629Y-38599288D01*
X85151626Y-38599287D01*
X85010601Y-38561500D01*
X84864599Y-38561500D01*
X84723574Y-38599286D01*
X84597127Y-38672290D01*
X84493890Y-38775527D01*
X84420886Y-38901974D01*
X84383100Y-39042999D01*
X84383100Y-39132751D01*
X84362535Y-39189252D01*
X84357355Y-39194906D01*
X84095130Y-39457130D01*
X84059124Y-39519496D01*
X84013064Y-39558145D01*
X83952937Y-39558145D01*
X83906877Y-39519496D01*
X83895100Y-39475546D01*
X83895100Y-30357129D01*
X83870941Y-30266968D01*
X83839492Y-30212496D01*
X83824271Y-30186132D01*
X83758268Y-30120129D01*
X83333445Y-29695306D01*
X83308034Y-29640812D01*
X83307700Y-29633151D01*
X83307700Y-29543399D01*
X83269913Y-29402374D01*
X83269912Y-29402373D01*
X83269912Y-29402371D01*
X83196911Y-29275929D01*
X83093671Y-29172689D01*
X82967229Y-29099688D01*
X82967228Y-29099687D01*
X82967225Y-29099686D01*
X82826201Y-29061900D01*
X82680199Y-29061900D01*
X82539174Y-29099686D01*
X82412727Y-29172690D01*
X82309490Y-29275927D01*
X82236486Y-29402374D01*
X82198700Y-29543399D01*
X82198700Y-29689401D01*
X82203462Y-29707174D01*
X82236486Y-29830425D01*
X82236487Y-29830428D01*
X82236488Y-29830429D01*
X82309489Y-29956871D01*
X82412729Y-30060111D01*
X82539171Y-30133112D01*
X82539173Y-30133112D01*
X82539174Y-30133113D01*
X82680199Y-30170900D01*
X82769951Y-30170900D01*
X82826452Y-30191465D01*
X82832106Y-30196645D01*
X83160355Y-30524894D01*
X83185766Y-30579388D01*
X83186100Y-30587049D01*
X83186100Y-35485341D01*
X83165535Y-35541842D01*
X83113464Y-35571906D01*
X83054251Y-35561465D01*
X82992627Y-35525887D01*
X82851601Y-35488100D01*
X82705599Y-35488100D01*
X82564574Y-35525886D01*
X82438127Y-35598890D01*
X82334890Y-35702127D01*
X82261886Y-35828574D01*
X82224100Y-35969599D01*
X82224100Y-36115600D01*
X82261886Y-36256625D01*
X82261887Y-36256628D01*
X82261888Y-36256629D01*
X82322082Y-36360889D01*
X82334890Y-36383072D01*
X82372955Y-36421137D01*
X82398366Y-36475631D01*
X82398700Y-36483292D01*
X82398700Y-41913908D01*
X82378135Y-41970409D01*
X82372955Y-41976063D01*
X82309490Y-42039527D01*
X82236486Y-42165974D01*
X82208288Y-42271214D01*
X82198700Y-42306999D01*
X82198700Y-42453001D01*
X82211783Y-42501830D01*
X82229741Y-42568850D01*
X82224500Y-42628749D01*
X82181984Y-42671265D01*
X82144836Y-42679500D01*
X42518364Y-42679500D01*
X42461863Y-42658935D01*
X42431799Y-42606864D01*
X42433459Y-42568850D01*
X42451416Y-42501830D01*
X42464500Y-42453001D01*
X42464500Y-42306999D01*
X42451315Y-42257791D01*
X42426713Y-42165974D01*
X42426712Y-42165973D01*
X42426712Y-42165971D01*
X42353711Y-42039529D01*
X42290245Y-41976063D01*
X42264834Y-41921569D01*
X42264500Y-41913908D01*
X42264500Y-37250018D01*
X42285065Y-37193517D01*
X42325243Y-37166418D01*
X42333981Y-37163580D01*
X42488884Y-37084653D01*
X42629533Y-36982465D01*
X42751645Y-36860353D01*
X42806139Y-36834942D01*
X42864217Y-36850505D01*
X42898705Y-36899758D01*
X42901700Y-36922508D01*
X42901700Y-39440640D01*
X42889924Y-39484589D01*
X42815687Y-39613172D01*
X42777900Y-39754199D01*
X42777900Y-39900200D01*
X42815686Y-40041225D01*
X42815687Y-40041228D01*
X42815688Y-40041229D01*
X42888689Y-40167671D01*
X42991929Y-40270911D01*
X43118371Y-40343912D01*
X43118373Y-40343912D01*
X43118374Y-40343913D01*
X43259399Y-40381700D01*
X43405400Y-40381700D01*
X43405401Y-40381700D01*
X43546429Y-40343912D01*
X43672871Y-40270911D01*
X43776111Y-40167671D01*
X43849112Y-40041229D01*
X43886900Y-39900201D01*
X43886900Y-39754199D01*
X43849112Y-39613171D01*
X43776111Y-39486729D01*
X43776109Y-39486727D01*
X43776108Y-39486725D01*
X43672871Y-39383489D01*
X43672864Y-39383484D01*
X43654650Y-39372968D01*
X43616001Y-39326908D01*
X43610700Y-39296845D01*
X43610700Y-37067962D01*
X43631265Y-37011461D01*
X43683336Y-36981397D01*
X43742550Y-36991838D01*
X43750266Y-36996850D01*
X43762799Y-37005956D01*
X43838647Y-37061063D01*
X43871115Y-37084652D01*
X43871119Y-37084655D01*
X43900814Y-37099785D01*
X44026019Y-37163580D01*
X44034755Y-37166418D01*
X44082139Y-37203432D01*
X44095500Y-37250018D01*
X44095500Y-41288508D01*
X44074935Y-41345009D01*
X44069755Y-41350663D01*
X43980890Y-41439527D01*
X43907886Y-41565974D01*
X43874327Y-41691222D01*
X43870100Y-41706999D01*
X43870100Y-41853001D01*
X43876639Y-41877405D01*
X43907886Y-41994025D01*
X43907887Y-41994028D01*
X43907888Y-41994029D01*
X43980889Y-42120471D01*
X44084129Y-42223711D01*
X44210571Y-42296712D01*
X44210573Y-42296712D01*
X44210574Y-42296713D01*
X44351599Y-42334500D01*
X44497600Y-42334500D01*
X44497601Y-42334500D01*
X44638629Y-42296712D01*
X44765071Y-42223711D01*
X44868311Y-42120471D01*
X44941312Y-41994029D01*
X44979100Y-41853001D01*
X44979100Y-41706999D01*
X44955728Y-41619771D01*
X44941313Y-41565974D01*
X44941312Y-41565973D01*
X44941312Y-41565971D01*
X44868311Y-41439529D01*
X44830245Y-41401463D01*
X44804834Y-41346969D01*
X44804500Y-41339308D01*
X44804500Y-37250018D01*
X44825065Y-37193517D01*
X44865243Y-37166418D01*
X44873981Y-37163580D01*
X45028884Y-37084653D01*
X45169533Y-36982465D01*
X45292465Y-36859533D01*
X45326488Y-36812704D01*
X45376335Y-36779082D01*
X45436132Y-36785367D01*
X45477900Y-36828618D01*
X45485500Y-36864371D01*
X45485500Y-38504508D01*
X45464935Y-38561009D01*
X45459755Y-38566663D01*
X45403290Y-38623127D01*
X45330286Y-38749574D01*
X45309067Y-38828768D01*
X45292500Y-38890599D01*
X45292500Y-39036601D01*
X45294616Y-39044499D01*
X45330286Y-39177625D01*
X45330287Y-39177628D01*
X45330288Y-39177629D01*
X45403289Y-39304071D01*
X45506529Y-39407311D01*
X45632971Y-39480312D01*
X45632973Y-39480312D01*
X45632974Y-39480313D01*
X45773999Y-39518100D01*
X45920000Y-39518100D01*
X45920001Y-39518100D01*
X46061029Y-39480312D01*
X46187471Y-39407311D01*
X46290711Y-39304071D01*
X46363712Y-39177629D01*
X46401500Y-39036601D01*
X46401500Y-38890599D01*
X46384932Y-38828766D01*
X46363713Y-38749574D01*
X46363712Y-38749573D01*
X46363712Y-38749571D01*
X46290711Y-38623129D01*
X46220245Y-38552663D01*
X46194834Y-38498169D01*
X46194500Y-38490508D01*
X46194500Y-37099785D01*
X46215065Y-37043284D01*
X46267136Y-37013220D01*
X46326350Y-37023661D01*
X46334058Y-37028666D01*
X46411116Y-37084653D01*
X46411118Y-37084654D01*
X46411121Y-37084656D01*
X46440814Y-37099785D01*
X46566019Y-37163580D01*
X46574755Y-37166418D01*
X46622139Y-37203432D01*
X46635500Y-37250018D01*
X46635500Y-40713908D01*
X46614935Y-40770409D01*
X46609755Y-40776063D01*
X46546290Y-40839527D01*
X46473286Y-40965974D01*
X46435500Y-41106999D01*
X46435500Y-41253000D01*
X46473286Y-41394025D01*
X46473287Y-41394028D01*
X46473288Y-41394029D01*
X46546289Y-41520471D01*
X46649529Y-41623711D01*
X46775971Y-41696712D01*
X46775973Y-41696712D01*
X46775974Y-41696713D01*
X46916999Y-41734500D01*
X47063000Y-41734500D01*
X47063001Y-41734500D01*
X47204029Y-41696712D01*
X47330471Y-41623711D01*
X47433711Y-41520471D01*
X47506712Y-41394029D01*
X47544500Y-41253001D01*
X47544500Y-41106999D01*
X47542730Y-41100394D01*
X47506713Y-40965974D01*
X47506712Y-40965973D01*
X47506712Y-40965971D01*
X47433711Y-40839529D01*
X47370245Y-40776063D01*
X47344834Y-40721569D01*
X47344500Y-40713908D01*
X47344500Y-38814399D01*
X55376300Y-38814399D01*
X55376300Y-38960400D01*
X55414086Y-39101425D01*
X55414087Y-39101428D01*
X55414088Y-39101429D01*
X55487089Y-39227871D01*
X55590329Y-39331111D01*
X55716771Y-39404112D01*
X55716773Y-39404112D01*
X55716774Y-39404113D01*
X55857799Y-39441900D01*
X56003800Y-39441900D01*
X56003801Y-39441900D01*
X56144829Y-39404112D01*
X56271271Y-39331111D01*
X56374511Y-39227871D01*
X56447512Y-39101429D01*
X56485300Y-38960401D01*
X56485300Y-38814399D01*
X56467930Y-38749571D01*
X56447513Y-38673374D01*
X56447512Y-38673373D01*
X56447512Y-38673371D01*
X56374511Y-38546929D01*
X56311045Y-38483463D01*
X56302934Y-38466071D01*
X56290601Y-38451372D01*
X56287269Y-38432475D01*
X56285634Y-38428969D01*
X56285300Y-38421308D01*
X56285300Y-38257849D01*
X56305865Y-38201348D01*
X56311045Y-38195694D01*
X57147294Y-37359445D01*
X57201788Y-37334034D01*
X57209449Y-37333700D01*
X57299200Y-37333700D01*
X57299201Y-37333700D01*
X57440229Y-37295912D01*
X57566671Y-37222911D01*
X57669911Y-37119671D01*
X57742912Y-36993229D01*
X57780700Y-36852201D01*
X57780700Y-36706199D01*
X57768566Y-36660913D01*
X57742913Y-36565174D01*
X57742912Y-36565173D01*
X57742912Y-36565171D01*
X57669911Y-36438729D01*
X57566671Y-36335489D01*
X57440229Y-36262488D01*
X57440228Y-36262487D01*
X57440225Y-36262486D01*
X57299201Y-36224700D01*
X57153199Y-36224700D01*
X57012174Y-36262486D01*
X56885727Y-36335490D01*
X56782490Y-36438727D01*
X56709486Y-36565174D01*
X56671700Y-36706199D01*
X56671700Y-36795951D01*
X56651135Y-36852452D01*
X56645955Y-36858106D01*
X55647129Y-37856931D01*
X55600458Y-37937768D01*
X55576300Y-38027929D01*
X55576300Y-38421308D01*
X55555735Y-38477809D01*
X55550555Y-38483463D01*
X55487090Y-38546927D01*
X55414086Y-38673374D01*
X55376300Y-38814399D01*
X47344500Y-38814399D01*
X47344500Y-37250018D01*
X47365065Y-37193517D01*
X47405243Y-37166418D01*
X47413981Y-37163580D01*
X47568884Y-37084653D01*
X47709533Y-36982465D01*
X47832465Y-36859533D01*
X47934653Y-36718884D01*
X48013580Y-36563981D01*
X48067303Y-36398638D01*
X48094500Y-36226926D01*
X48094500Y-36053074D01*
X48067303Y-35881362D01*
X48013580Y-35716019D01*
X47934653Y-35561116D01*
X47832465Y-35420467D01*
X47709533Y-35297535D01*
X47664662Y-35264934D01*
X48425500Y-35264934D01*
X48425500Y-37015068D01*
X48435899Y-37067345D01*
X48440266Y-37089301D01*
X48496516Y-37173484D01*
X48516925Y-37187121D01*
X48580698Y-37229734D01*
X48591261Y-37231835D01*
X48654933Y-37244500D01*
X50405066Y-37244499D01*
X50405068Y-37244499D01*
X50429742Y-37239591D01*
X50479301Y-37229734D01*
X50563484Y-37173484D01*
X50619734Y-37089301D01*
X50634500Y-37015067D01*
X50634499Y-35264934D01*
X50634499Y-35264933D01*
X50634499Y-35264931D01*
X50625805Y-35221225D01*
X50619734Y-35190699D01*
X50563484Y-35106516D01*
X50543315Y-35093039D01*
X50479301Y-35050265D01*
X50426192Y-35039702D01*
X50405067Y-35035500D01*
X50405065Y-35035500D01*
X48654931Y-35035500D01*
X48580699Y-35050266D01*
X48496517Y-35106515D01*
X48496514Y-35106518D01*
X48440265Y-35190698D01*
X48428206Y-35251327D01*
X48425501Y-35264931D01*
X48425500Y-35264934D01*
X47664662Y-35264934D01*
X47568884Y-35195347D01*
X47413981Y-35116420D01*
X47413977Y-35116419D01*
X47413974Y-35116417D01*
X47248636Y-35062696D01*
X47131318Y-35044115D01*
X47076926Y-35035500D01*
X46903074Y-35035500D01*
X46856119Y-35042937D01*
X46731363Y-35062696D01*
X46566025Y-35116417D01*
X46411119Y-35195345D01*
X46411116Y-35195346D01*
X46411116Y-35195347D01*
X46406310Y-35198839D01*
X46334066Y-35251327D01*
X46276268Y-35267900D01*
X46221339Y-35243443D01*
X46194981Y-35189401D01*
X46194500Y-35180214D01*
X46194500Y-34933248D01*
X46215065Y-34876747D01*
X46220234Y-34871103D01*
X46455769Y-34635568D01*
X46510261Y-34610160D01*
X46557827Y-34619406D01*
X46566019Y-34623580D01*
X46731362Y-34677303D01*
X46903074Y-34704500D01*
X46903076Y-34704500D01*
X47076924Y-34704500D01*
X47076926Y-34704500D01*
X47248638Y-34677303D01*
X47413981Y-34623580D01*
X47568884Y-34544653D01*
X47709533Y-34442465D01*
X47832465Y-34319533D01*
X47934653Y-34178884D01*
X48013580Y-34023981D01*
X48067303Y-33858638D01*
X48094500Y-33686926D01*
X48094500Y-33513074D01*
X48425500Y-33513074D01*
X48425500Y-33686926D01*
X48434115Y-33741318D01*
X48452696Y-33858636D01*
X48506417Y-34023974D01*
X48506419Y-34023977D01*
X48506420Y-34023981D01*
X48585347Y-34178884D01*
X48687535Y-34319533D01*
X48810467Y-34442465D01*
X48951116Y-34544653D01*
X49106019Y-34623580D01*
X49271362Y-34677303D01*
X49443074Y-34704500D01*
X49443076Y-34704500D01*
X49616924Y-34704500D01*
X49616926Y-34704500D01*
X49788638Y-34677303D01*
X49953981Y-34623580D01*
X50108884Y-34544653D01*
X50249533Y-34442465D01*
X50372465Y-34319533D01*
X50474653Y-34178884D01*
X50553580Y-34023981D01*
X50607303Y-33858638D01*
X50634500Y-33686926D01*
X50634500Y-33513074D01*
X50607303Y-33341362D01*
X50553580Y-33176019D01*
X50501598Y-33073999D01*
X54665100Y-33073999D01*
X54665100Y-33220001D01*
X54702888Y-33361029D01*
X54702890Y-33361033D01*
X54704409Y-33364700D01*
X54711100Y-33398339D01*
X54711100Y-35892860D01*
X54704410Y-35926496D01*
X54702887Y-35930170D01*
X54669956Y-36053075D01*
X54665100Y-36071199D01*
X54665100Y-36217201D01*
X54667695Y-36226885D01*
X54702886Y-36358225D01*
X54702887Y-36358228D01*
X54702888Y-36358229D01*
X54775889Y-36484671D01*
X54879129Y-36587911D01*
X55005571Y-36660912D01*
X55005573Y-36660912D01*
X55005574Y-36660913D01*
X55146599Y-36698700D01*
X55292600Y-36698700D01*
X55292601Y-36698700D01*
X55433629Y-36660912D01*
X55560071Y-36587911D01*
X55663311Y-36484671D01*
X55736312Y-36358229D01*
X55774100Y-36217201D01*
X55774100Y-36071199D01*
X55760273Y-36019595D01*
X55736312Y-35930170D01*
X55734790Y-35926496D01*
X55728100Y-35892860D01*
X55728100Y-33398339D01*
X55734791Y-33364700D01*
X55736306Y-33361039D01*
X55736312Y-33361029D01*
X55774100Y-33220001D01*
X55774100Y-33073999D01*
X55755460Y-33004432D01*
X55736313Y-32932974D01*
X55736312Y-32932973D01*
X55736312Y-32932971D01*
X55663311Y-32806529D01*
X55560071Y-32703289D01*
X55433629Y-32630288D01*
X55433628Y-32630287D01*
X55433625Y-32630286D01*
X55292601Y-32592500D01*
X55146599Y-32592500D01*
X55005574Y-32630286D01*
X54879127Y-32703290D01*
X54775890Y-32806527D01*
X54702886Y-32932974D01*
X54673907Y-33041129D01*
X54665100Y-33073999D01*
X50501598Y-33073999D01*
X50479654Y-33030931D01*
X50474656Y-33021121D01*
X50474654Y-33021118D01*
X50474653Y-33021116D01*
X50372465Y-32880467D01*
X50249533Y-32757535D01*
X50108884Y-32655347D01*
X49953981Y-32576420D01*
X49953977Y-32576419D01*
X49953974Y-32576417D01*
X49788636Y-32522696D01*
X49671318Y-32504115D01*
X49616926Y-32495500D01*
X49443074Y-32495500D01*
X49396119Y-32502937D01*
X49271363Y-32522696D01*
X49106025Y-32576417D01*
X49106019Y-32576419D01*
X49106019Y-32576420D01*
X49089275Y-32584951D01*
X48951119Y-32655345D01*
X48951116Y-32655346D01*
X48951116Y-32655347D01*
X48941999Y-32661971D01*
X48810466Y-32757535D01*
X48687535Y-32880466D01*
X48585345Y-33021119D01*
X48506417Y-33176025D01*
X48452696Y-33341363D01*
X48433648Y-33461631D01*
X48425500Y-33513074D01*
X48094500Y-33513074D01*
X48067303Y-33341362D01*
X48013580Y-33176019D01*
X47934653Y-33021116D01*
X47832465Y-32880467D01*
X47709533Y-32757535D01*
X47568884Y-32655347D01*
X47413981Y-32576420D01*
X47413977Y-32576419D01*
X47413974Y-32576417D01*
X47248636Y-32522696D01*
X47131318Y-32504115D01*
X47076926Y-32495500D01*
X46903074Y-32495500D01*
X46856119Y-32502937D01*
X46731363Y-32522696D01*
X46566025Y-32576417D01*
X46566019Y-32576419D01*
X46566019Y-32576420D01*
X46549275Y-32584951D01*
X46411119Y-32655345D01*
X46411116Y-32655346D01*
X46411116Y-32655347D01*
X46401999Y-32661971D01*
X46270466Y-32757535D01*
X46147535Y-32880466D01*
X46045345Y-33021119D01*
X45966417Y-33176025D01*
X45912696Y-33341363D01*
X45893648Y-33461631D01*
X45885500Y-33513074D01*
X45885500Y-33686926D01*
X45894115Y-33741318D01*
X45912696Y-33858636D01*
X45966419Y-34023979D01*
X45970592Y-34032169D01*
X45977920Y-34091848D01*
X45954428Y-34134230D01*
X45622332Y-34466328D01*
X45622332Y-34466329D01*
X45556329Y-34532331D01*
X45509658Y-34613168D01*
X45485500Y-34703329D01*
X45485500Y-35415628D01*
X45464935Y-35472129D01*
X45412864Y-35502193D01*
X45353650Y-35491752D01*
X45326488Y-35467295D01*
X45292466Y-35420469D01*
X45292464Y-35420466D01*
X45169533Y-35297535D01*
X45141821Y-35277401D01*
X45028884Y-35195347D01*
X44873981Y-35116420D01*
X44873977Y-35116419D01*
X44873974Y-35116417D01*
X44708636Y-35062696D01*
X44591318Y-35044115D01*
X44536926Y-35035500D01*
X44363074Y-35035500D01*
X44316119Y-35042937D01*
X44191363Y-35062696D01*
X44026025Y-35116417D01*
X43871119Y-35195345D01*
X43871116Y-35195346D01*
X43871116Y-35195347D01*
X43866310Y-35198839D01*
X43750266Y-35283150D01*
X43692468Y-35299723D01*
X43637539Y-35275267D01*
X43611181Y-35221225D01*
X43610700Y-35212037D01*
X43610700Y-34977048D01*
X43631265Y-34920547D01*
X43636434Y-34914904D01*
X43915769Y-34635569D01*
X43970261Y-34610159D01*
X44017827Y-34619406D01*
X44026019Y-34623580D01*
X44191362Y-34677303D01*
X44363074Y-34704500D01*
X44363076Y-34704500D01*
X44536924Y-34704500D01*
X44536926Y-34704500D01*
X44708638Y-34677303D01*
X44873981Y-34623580D01*
X45028884Y-34544653D01*
X45169533Y-34442465D01*
X45292465Y-34319533D01*
X45394653Y-34178884D01*
X45473580Y-34023981D01*
X45527303Y-33858638D01*
X45554500Y-33686926D01*
X45554500Y-33513074D01*
X45527303Y-33341362D01*
X45473580Y-33176019D01*
X45394653Y-33021116D01*
X45292465Y-32880467D01*
X45169533Y-32757535D01*
X45028884Y-32655347D01*
X44873981Y-32576420D01*
X44873977Y-32576419D01*
X44873974Y-32576417D01*
X44708636Y-32522696D01*
X44591318Y-32504115D01*
X44536926Y-32495500D01*
X44363074Y-32495500D01*
X44316119Y-32502937D01*
X44191363Y-32522696D01*
X44026025Y-32576417D01*
X44026019Y-32576419D01*
X44026019Y-32576420D01*
X44009275Y-32584951D01*
X43871119Y-32655345D01*
X43871116Y-32655346D01*
X43871116Y-32655347D01*
X43861999Y-32661971D01*
X43730466Y-32757535D01*
X43607535Y-32880466D01*
X43505345Y-33021119D01*
X43426417Y-33176025D01*
X43372696Y-33341363D01*
X43353648Y-33461631D01*
X43345500Y-33513074D01*
X43345500Y-33686926D01*
X43354115Y-33741318D01*
X43372696Y-33858636D01*
X43426419Y-34023979D01*
X43430592Y-34032169D01*
X43437920Y-34091848D01*
X43414428Y-34134231D01*
X43038532Y-34510129D01*
X42972529Y-34576131D01*
X42925858Y-34656968D01*
X42901700Y-34747129D01*
X42901700Y-35357492D01*
X42881135Y-35413993D01*
X42829064Y-35444057D01*
X42769850Y-35433616D01*
X42751645Y-35419647D01*
X42629533Y-35297535D01*
X42601821Y-35277401D01*
X42488884Y-35195347D01*
X42333981Y-35116420D01*
X42333977Y-35116419D01*
X42333974Y-35116417D01*
X42168636Y-35062696D01*
X42051318Y-35044115D01*
X41996926Y-35035500D01*
X41823074Y-35035500D01*
X41776119Y-35042937D01*
X41651363Y-35062696D01*
X41486025Y-35116417D01*
X41331119Y-35195345D01*
X41331116Y-35195346D01*
X41331116Y-35195347D01*
X41326310Y-35198839D01*
X41190466Y-35297535D01*
X41068355Y-35419647D01*
X41013861Y-35445058D01*
X40955783Y-35429495D01*
X40921295Y-35380242D01*
X40918300Y-35357492D01*
X40918300Y-35129448D01*
X40938865Y-35072947D01*
X40944034Y-35067304D01*
X41375769Y-34635569D01*
X41430261Y-34610159D01*
X41477827Y-34619406D01*
X41486019Y-34623580D01*
X41651362Y-34677303D01*
X41823074Y-34704500D01*
X41823076Y-34704500D01*
X41996924Y-34704500D01*
X41996926Y-34704500D01*
X42168638Y-34677303D01*
X42333981Y-34623580D01*
X42488884Y-34544653D01*
X42629533Y-34442465D01*
X42752465Y-34319533D01*
X42854653Y-34178884D01*
X42933580Y-34023981D01*
X42987303Y-33858638D01*
X43014500Y-33686926D01*
X43014500Y-33513074D01*
X42987303Y-33341362D01*
X42933580Y-33176019D01*
X42854653Y-33021116D01*
X42752465Y-32880467D01*
X42629533Y-32757535D01*
X42488884Y-32655347D01*
X42333981Y-32576420D01*
X42333977Y-32576419D01*
X42333974Y-32576417D01*
X42168636Y-32522696D01*
X42051318Y-32504115D01*
X41996926Y-32495500D01*
X41823074Y-32495500D01*
X41776119Y-32502937D01*
X41651363Y-32522696D01*
X41486025Y-32576417D01*
X41486019Y-32576419D01*
X41486019Y-32576420D01*
X41469275Y-32584951D01*
X41331119Y-32655345D01*
X41331116Y-32655346D01*
X41331116Y-32655347D01*
X41321999Y-32661971D01*
X41190466Y-32757535D01*
X41067535Y-32880466D01*
X40965345Y-33021119D01*
X40886417Y-33176025D01*
X40832696Y-33341363D01*
X40813648Y-33461631D01*
X40805500Y-33513074D01*
X40805500Y-33686926D01*
X40814115Y-33741318D01*
X40832696Y-33858636D01*
X40886419Y-34023979D01*
X40890592Y-34032169D01*
X40897920Y-34091848D01*
X40874428Y-34134231D01*
X40346132Y-34662529D01*
X40280129Y-34728531D01*
X40233458Y-34809368D01*
X40209300Y-34899529D01*
X40209300Y-35212654D01*
X40188735Y-35269155D01*
X40136664Y-35299219D01*
X40077450Y-35288778D01*
X40069734Y-35283767D01*
X39948622Y-35195774D01*
X39948618Y-35195772D01*
X39793784Y-35116881D01*
X39793781Y-35116880D01*
X39628518Y-35063183D01*
X39456886Y-35036000D01*
X39283114Y-35036000D01*
X39111481Y-35063183D01*
X38946218Y-35116880D01*
X38946215Y-35116881D01*
X38791381Y-35195772D01*
X38791377Y-35195774D01*
X38683649Y-35274042D01*
X39117840Y-35708234D01*
X39062993Y-35739901D01*
X38969901Y-35832993D01*
X38938234Y-35887841D01*
X38504042Y-35453649D01*
X38425774Y-35561377D01*
X38425772Y-35561381D01*
X38346881Y-35716215D01*
X38346880Y-35716218D01*
X38293183Y-35881481D01*
X38266000Y-36053114D01*
X38266000Y-36226885D01*
X38293183Y-36398518D01*
X38346880Y-36563781D01*
X38346881Y-36563784D01*
X38425772Y-36718618D01*
X38425774Y-36718622D01*
X38504042Y-36826349D01*
X38938233Y-36392157D01*
X38969901Y-36447007D01*
X39062993Y-36540099D01*
X39117840Y-36571764D01*
X38683649Y-37005956D01*
X38683648Y-37005956D01*
X38791377Y-37084225D01*
X38791381Y-37084227D01*
X38946215Y-37163118D01*
X38946218Y-37163119D01*
X39111481Y-37216816D01*
X39283114Y-37243999D01*
X39283115Y-37244000D01*
X39456885Y-37244000D01*
X39456885Y-37243999D01*
X39628518Y-37216816D01*
X39793781Y-37163119D01*
X39793784Y-37163118D01*
X39948618Y-37084227D01*
X39948624Y-37084224D01*
X40069733Y-36996233D01*
X40127531Y-36979659D01*
X40182460Y-37004115D01*
X40208818Y-37058156D01*
X40209300Y-37067345D01*
X40209300Y-41215308D01*
X40188735Y-41271809D01*
X40183555Y-41277463D01*
X40120090Y-41340927D01*
X40047086Y-41467374D01*
X40017964Y-41576063D01*
X40009300Y-41608399D01*
X40009300Y-41754401D01*
X40017091Y-41783476D01*
X40047086Y-41895425D01*
X40047087Y-41895428D01*
X40047088Y-41895429D01*
X40120089Y-42021871D01*
X40223329Y-42125111D01*
X40349771Y-42198112D01*
X40349773Y-42198112D01*
X40349774Y-42198113D01*
X40490799Y-42235900D01*
X40636800Y-42235900D01*
X40636801Y-42235900D01*
X40777829Y-42198112D01*
X40904271Y-42125111D01*
X41007511Y-42021871D01*
X41080512Y-41895429D01*
X41118300Y-41754401D01*
X41118300Y-41608399D01*
X41098977Y-41536285D01*
X41080513Y-41467374D01*
X41080512Y-41467373D01*
X41080512Y-41467371D01*
X41007511Y-41340929D01*
X40944045Y-41277463D01*
X40918634Y-41222969D01*
X40918300Y-41215308D01*
X40918300Y-36922508D01*
X40938865Y-36866007D01*
X40990936Y-36835943D01*
X41050150Y-36846384D01*
X41068355Y-36860353D01*
X41190467Y-36982465D01*
X41331116Y-37084653D01*
X41331118Y-37084654D01*
X41331121Y-37084656D01*
X41360814Y-37099785D01*
X41486019Y-37163580D01*
X41494755Y-37166418D01*
X41542139Y-37203432D01*
X41555500Y-37250018D01*
X41555500Y-41913908D01*
X41534935Y-41970409D01*
X41529755Y-41976063D01*
X41466290Y-42039527D01*
X41393286Y-42165974D01*
X41365088Y-42271214D01*
X41355500Y-42306999D01*
X41355500Y-42453001D01*
X41368583Y-42501830D01*
X41386541Y-42568850D01*
X41381300Y-42628749D01*
X41338784Y-42671265D01*
X41301636Y-42679500D01*
X25988400Y-42679500D01*
X25931899Y-42658935D01*
X25901835Y-42606864D01*
X25900500Y-42591600D01*
X25900500Y-34082414D01*
X26360500Y-34082414D01*
X26360500Y-34497586D01*
X26395341Y-34895830D01*
X26396685Y-34911186D01*
X26468211Y-35316829D01*
X26468778Y-35320043D01*
X26576232Y-35721068D01*
X26714377Y-36100614D01*
X26718231Y-36111204D01*
X26718234Y-36111212D01*
X26893684Y-36487466D01*
X26893689Y-36487477D01*
X27101276Y-36847027D01*
X27249071Y-37058100D01*
X27327754Y-37170471D01*
X27339413Y-37187121D01*
X27442636Y-37310137D01*
X27606275Y-37505154D01*
X27899846Y-37798725D01*
X28028968Y-37907071D01*
X28217878Y-38065586D01*
X28217883Y-38065589D01*
X28217886Y-38065592D01*
X28463069Y-38237271D01*
X28540214Y-38291289D01*
X28557975Y-38303725D01*
X28759246Y-38419929D01*
X28893616Y-38497508D01*
X28917524Y-38511311D01*
X29106190Y-38599287D01*
X29292828Y-38686318D01*
X29293798Y-38686770D01*
X29683932Y-38828768D01*
X30084957Y-38936222D01*
X30493822Y-39008316D01*
X30907414Y-39044500D01*
X30907418Y-39044500D01*
X31322582Y-39044500D01*
X31322586Y-39044500D01*
X31736178Y-39008316D01*
X32145043Y-38936222D01*
X32546068Y-38828768D01*
X32936202Y-38686770D01*
X33312476Y-38511311D01*
X33672025Y-38303725D01*
X34012114Y-38065592D01*
X34330154Y-37798725D01*
X34623725Y-37505154D01*
X34890592Y-37187114D01*
X35128725Y-36847025D01*
X35336311Y-36487476D01*
X35511770Y-36111202D01*
X35653768Y-35721068D01*
X35761222Y-35320043D01*
X35833316Y-34911178D01*
X35869500Y-34497586D01*
X35869500Y-34082414D01*
X35833316Y-33668822D01*
X35821181Y-33599999D01*
X35807943Y-33524922D01*
X35805861Y-33513114D01*
X38266000Y-33513114D01*
X38266000Y-33686885D01*
X38293183Y-33858518D01*
X38346880Y-34023781D01*
X38346881Y-34023784D01*
X38425772Y-34178618D01*
X38425774Y-34178622D01*
X38504042Y-34286349D01*
X38938233Y-33852157D01*
X38969901Y-33907007D01*
X39062993Y-34000099D01*
X39117840Y-34031764D01*
X38683649Y-34465956D01*
X38683648Y-34465956D01*
X38791377Y-34544225D01*
X38791381Y-34544227D01*
X38946215Y-34623118D01*
X38946218Y-34623119D01*
X39111481Y-34676816D01*
X39283114Y-34703999D01*
X39283115Y-34704000D01*
X39456885Y-34704000D01*
X39456885Y-34703999D01*
X39628518Y-34676816D01*
X39793781Y-34623119D01*
X39793784Y-34623118D01*
X39948618Y-34544228D01*
X39948622Y-34544225D01*
X40056349Y-34465956D01*
X39622158Y-34031765D01*
X39677007Y-34000099D01*
X39770099Y-33907007D01*
X39801765Y-33852158D01*
X40235956Y-34286349D01*
X40314225Y-34178622D01*
X40314228Y-34178618D01*
X40393118Y-34023784D01*
X40393119Y-34023781D01*
X40446816Y-33858518D01*
X40473999Y-33686885D01*
X40474000Y-33686885D01*
X40474000Y-33513114D01*
X40446816Y-33341481D01*
X40393119Y-33176218D01*
X40393118Y-33176215D01*
X40314227Y-33021381D01*
X40314225Y-33021377D01*
X40235956Y-32913649D01*
X39801764Y-33347840D01*
X39770099Y-33292993D01*
X39677007Y-33199901D01*
X39622157Y-33168233D01*
X40056349Y-32734042D01*
X39948622Y-32655774D01*
X39948618Y-32655772D01*
X39793784Y-32576881D01*
X39793781Y-32576880D01*
X39628518Y-32523183D01*
X39456886Y-32496000D01*
X39283114Y-32496000D01*
X39111481Y-32523183D01*
X38946218Y-32576880D01*
X38946215Y-32576881D01*
X38791381Y-32655772D01*
X38791377Y-32655774D01*
X38683649Y-32734042D01*
X39117841Y-33168234D01*
X39062993Y-33199901D01*
X38969901Y-33292993D01*
X38938234Y-33347841D01*
X38504042Y-32913649D01*
X38425774Y-33021377D01*
X38425772Y-33021381D01*
X38346881Y-33176215D01*
X38346880Y-33176218D01*
X38293183Y-33341481D01*
X38266000Y-33513114D01*
X35805861Y-33513114D01*
X35785793Y-33399311D01*
X35761222Y-33259957D01*
X35653768Y-32858932D01*
X35634694Y-32806527D01*
X35631448Y-32797607D01*
X35511769Y-32468795D01*
X35511765Y-32468787D01*
X35383494Y-32193709D01*
X35336311Y-32092524D01*
X35128725Y-31732975D01*
X34890592Y-31392886D01*
X34890589Y-31392883D01*
X34890586Y-31392878D01*
X34781730Y-31263149D01*
X34623725Y-31074846D01*
X34330154Y-30781275D01*
X34171134Y-30647841D01*
X34012121Y-30514413D01*
X33672027Y-30276276D01*
X33312477Y-30068689D01*
X33312466Y-30068684D01*
X32936212Y-29893234D01*
X32936204Y-29893231D01*
X32936202Y-29893230D01*
X32546068Y-29751232D01*
X32145043Y-29643778D01*
X32145042Y-29643777D01*
X32145039Y-29643777D01*
X31736186Y-29571685D01*
X31736181Y-29571684D01*
X31736178Y-29571684D01*
X31322586Y-29535500D01*
X30907414Y-29535500D01*
X30907413Y-29535500D01*
X30817126Y-29543399D01*
X30493822Y-29571684D01*
X30493819Y-29571684D01*
X30493813Y-29571685D01*
X30084960Y-29643777D01*
X29914693Y-29689400D01*
X29683932Y-29751232D01*
X29683929Y-29751232D01*
X29683929Y-29751233D01*
X29293795Y-29893231D01*
X29293787Y-29893234D01*
X28917533Y-30068684D01*
X28917522Y-30068689D01*
X28557972Y-30276276D01*
X28217878Y-30514413D01*
X27899852Y-30781270D01*
X27899847Y-30781274D01*
X27606274Y-31074847D01*
X27606270Y-31074852D01*
X27339413Y-31392878D01*
X27101276Y-31732972D01*
X26893689Y-32092522D01*
X26893684Y-32092533D01*
X26718234Y-32468787D01*
X26718231Y-32468795D01*
X26576235Y-32858925D01*
X26576232Y-32858932D01*
X26540029Y-32994043D01*
X26468777Y-33259960D01*
X26396685Y-33668813D01*
X26396684Y-33668819D01*
X26396684Y-33668822D01*
X26375846Y-33907007D01*
X26362786Y-34056290D01*
X26360500Y-34082414D01*
X25900500Y-34082414D01*
X25900500Y-25988400D01*
X25921065Y-25931899D01*
X25973136Y-25901835D01*
X25988400Y-25900500D01*
X62003602Y-25900500D01*
X62060103Y-25921065D01*
G37*
%TD.AperFunction*%
%TA.AperFunction,Conductor*%
G36*
X185683379Y-25921065D02*
G01*
X185713443Y-25973136D01*
X185703002Y-26032350D01*
X185656942Y-26070999D01*
X185649628Y-26073305D01*
X185612374Y-26083286D01*
X185485927Y-26156290D01*
X185382690Y-26259527D01*
X185309686Y-26385974D01*
X185271900Y-26526999D01*
X185271900Y-26673000D01*
X185309686Y-26814025D01*
X185309687Y-26814028D01*
X185309688Y-26814029D01*
X185382689Y-26940471D01*
X185485929Y-27043711D01*
X185612371Y-27116712D01*
X185635349Y-27122868D01*
X185684602Y-27157353D01*
X185700500Y-27207773D01*
X185700500Y-29440361D01*
X185679935Y-29496862D01*
X185646238Y-29521570D01*
X185561475Y-29556679D01*
X185390830Y-29670702D01*
X185245702Y-29815830D01*
X185131678Y-29986477D01*
X185053140Y-30176088D01*
X185053138Y-30176092D01*
X185030208Y-30291374D01*
X185013100Y-30377382D01*
X185013100Y-30582618D01*
X185023041Y-30632597D01*
X185053138Y-30783907D01*
X185053140Y-30783911D01*
X185131678Y-30973522D01*
X185131679Y-30973524D01*
X185131680Y-30973525D01*
X185245704Y-31144172D01*
X185390828Y-31289296D01*
X185561475Y-31403320D01*
X185561476Y-31403320D01*
X185561477Y-31403321D01*
X185576460Y-31409527D01*
X185751089Y-31481860D01*
X185751090Y-31481860D01*
X185751092Y-31481861D01*
X185852420Y-31502016D01*
X185952382Y-31521900D01*
X185952384Y-31521900D01*
X186157616Y-31521900D01*
X186157618Y-31521900D01*
X186290599Y-31495448D01*
X186358907Y-31481861D01*
X186358907Y-31481860D01*
X186358911Y-31481860D01*
X186548525Y-31403320D01*
X186719172Y-31289296D01*
X186864296Y-31144172D01*
X186978320Y-30973525D01*
X187056860Y-30783911D01*
X187057385Y-30781275D01*
X187070757Y-30714049D01*
X187096900Y-30582618D01*
X187096900Y-30377432D01*
X187553600Y-30377432D01*
X187553600Y-30582567D01*
X187593618Y-30783761D01*
X187593619Y-30783765D01*
X187672125Y-30973291D01*
X187772251Y-31123141D01*
X187772252Y-31123141D01*
X188138783Y-30756609D01*
X188168174Y-30807515D01*
X188267485Y-30906826D01*
X188318388Y-30936215D01*
X187951857Y-31302746D01*
X188101710Y-31402875D01*
X188291234Y-31481380D01*
X188291238Y-31481381D01*
X188492433Y-31521400D01*
X188697567Y-31521400D01*
X188898761Y-31481381D01*
X188898765Y-31481380D01*
X189088288Y-31402875D01*
X189238141Y-31302747D01*
X189238141Y-31302746D01*
X188871610Y-30936216D01*
X188922515Y-30906826D01*
X189021826Y-30807515D01*
X189051216Y-30756610D01*
X189417746Y-31123141D01*
X189417747Y-31123141D01*
X189517875Y-30973288D01*
X189596380Y-30783765D01*
X189596381Y-30783761D01*
X189636400Y-30582567D01*
X189636400Y-30377432D01*
X189596381Y-30176238D01*
X189596380Y-30176234D01*
X189517875Y-29986710D01*
X189417746Y-29836857D01*
X189051215Y-30203388D01*
X189021826Y-30152485D01*
X188922515Y-30053174D01*
X188871609Y-30023783D01*
X189238141Y-29657252D01*
X189238141Y-29657251D01*
X189088291Y-29557125D01*
X188898765Y-29478619D01*
X188898761Y-29478618D01*
X188697567Y-29438600D01*
X188492433Y-29438600D01*
X188291238Y-29478618D01*
X188291234Y-29478620D01*
X188101713Y-29557121D01*
X188101710Y-29557123D01*
X187951857Y-29657251D01*
X188318389Y-30023783D01*
X188267485Y-30053174D01*
X188168174Y-30152485D01*
X188138783Y-30203389D01*
X187772251Y-29836857D01*
X187672123Y-29986710D01*
X187672121Y-29986713D01*
X187593620Y-30176234D01*
X187593618Y-30176238D01*
X187553600Y-30377432D01*
X187096900Y-30377432D01*
X187096900Y-30377382D01*
X187076789Y-30276276D01*
X187056861Y-30176092D01*
X187056860Y-30176090D01*
X187056860Y-30176089D01*
X186978419Y-29986713D01*
X186978321Y-29986477D01*
X186975965Y-29982950D01*
X186864296Y-29815828D01*
X186719172Y-29670704D01*
X186622527Y-29606127D01*
X186548524Y-29556679D01*
X186463762Y-29521570D01*
X186419432Y-29480948D01*
X186409500Y-29440361D01*
X186409500Y-26781928D01*
X186383895Y-26686370D01*
X186380900Y-26663620D01*
X186380900Y-26526999D01*
X186343113Y-26385974D01*
X186343112Y-26385973D01*
X186343112Y-26385971D01*
X186270111Y-26259529D01*
X186166871Y-26156289D01*
X186040429Y-26083288D01*
X186040428Y-26083287D01*
X186040425Y-26083286D01*
X186003172Y-26073305D01*
X185953919Y-26038818D01*
X185938356Y-25980739D01*
X185963767Y-25926245D01*
X186018261Y-25900835D01*
X186025922Y-25900500D01*
X190729836Y-25900500D01*
X190786337Y-25921065D01*
X190816401Y-25973136D01*
X190814741Y-26011150D01*
X190783700Y-26126999D01*
X190783700Y-26273000D01*
X190821486Y-26414025D01*
X190894490Y-26540472D01*
X190957955Y-26603937D01*
X190983366Y-26658431D01*
X190983700Y-26666092D01*
X190983700Y-35173550D01*
X190963135Y-35230051D01*
X190957955Y-35235705D01*
X189161304Y-37032355D01*
X189106810Y-37057766D01*
X189099149Y-37058100D01*
X187782531Y-37058100D01*
X187708299Y-37072866D01*
X187624117Y-37129115D01*
X187624114Y-37129118D01*
X187567865Y-37213298D01*
X187553100Y-37287534D01*
X187553100Y-38912468D01*
X187562635Y-38960401D01*
X187567866Y-38986701D01*
X187624116Y-39070884D01*
X187637415Y-39079770D01*
X187708298Y-39127134D01*
X187718861Y-39129235D01*
X187782533Y-39141900D01*
X189407466Y-39141899D01*
X189407468Y-39141899D01*
X189425961Y-39138220D01*
X189481701Y-39127134D01*
X189565884Y-39070884D01*
X189622134Y-38986701D01*
X189636900Y-38912467D01*
X189636899Y-37595847D01*
X189657464Y-37539347D01*
X189662632Y-37533705D01*
X191621871Y-35574468D01*
X191638012Y-35546511D01*
X191638959Y-35544872D01*
X191649919Y-35525887D01*
X191668541Y-35493632D01*
X191692700Y-35403471D01*
X191692700Y-26666092D01*
X191713265Y-26609591D01*
X191718445Y-26603937D01*
X191781911Y-26540471D01*
X191854912Y-26414029D01*
X191892700Y-26273001D01*
X191892700Y-26126999D01*
X191869072Y-26038818D01*
X191861659Y-26011150D01*
X191866900Y-25951251D01*
X191909416Y-25908735D01*
X191946564Y-25900500D01*
X222296600Y-25900500D01*
X222353101Y-25921065D01*
X222383165Y-25973136D01*
X222384500Y-25988400D01*
X222384500Y-42591600D01*
X222363935Y-42648101D01*
X222311864Y-42678165D01*
X222296600Y-42679500D01*
X192962564Y-42679500D01*
X192906063Y-42658935D01*
X192875999Y-42606864D01*
X192877659Y-42568850D01*
X192895616Y-42501830D01*
X192908700Y-42453001D01*
X192908700Y-42306999D01*
X192895515Y-42257791D01*
X192870913Y-42165974D01*
X192870912Y-42165973D01*
X192870912Y-42165971D01*
X192797911Y-42039529D01*
X192734445Y-41976063D01*
X192709034Y-41921569D01*
X192708700Y-41913908D01*
X192708700Y-40776999D01*
X194270500Y-40776999D01*
X194270500Y-40923000D01*
X194308286Y-41064025D01*
X194308287Y-41064028D01*
X194308288Y-41064029D01*
X194381289Y-41190471D01*
X194484529Y-41293711D01*
X194610971Y-41366712D01*
X194610973Y-41366712D01*
X194610974Y-41366713D01*
X194751999Y-41404500D01*
X194898000Y-41404500D01*
X194898001Y-41404500D01*
X195039029Y-41366712D01*
X195165471Y-41293711D01*
X195268711Y-41190471D01*
X195341712Y-41064029D01*
X195379500Y-40923001D01*
X195379500Y-40776999D01*
X195357495Y-40694873D01*
X195354500Y-40672123D01*
X195354500Y-34966092D01*
X195375065Y-34909591D01*
X195380245Y-34903937D01*
X195407435Y-34876747D01*
X195443711Y-34840471D01*
X195516712Y-34714029D01*
X195554500Y-34573001D01*
X195554500Y-34426999D01*
X195527350Y-34325672D01*
X195516713Y-34285974D01*
X195516712Y-34285973D01*
X195516712Y-34285971D01*
X195443711Y-34159529D01*
X195366596Y-34082414D01*
X211780500Y-34082414D01*
X211780500Y-34497586D01*
X211815341Y-34895830D01*
X211816685Y-34911186D01*
X211888211Y-35316829D01*
X211888778Y-35320043D01*
X211996232Y-35721068D01*
X212134377Y-36100614D01*
X212138231Y-36111204D01*
X212138234Y-36111212D01*
X212313684Y-36487466D01*
X212313689Y-36487477D01*
X212521276Y-36847027D01*
X212669071Y-37058100D01*
X212747754Y-37170471D01*
X212759413Y-37187121D01*
X212862636Y-37310137D01*
X213026275Y-37505154D01*
X213319846Y-37798725D01*
X213448968Y-37907071D01*
X213637878Y-38065586D01*
X213637883Y-38065589D01*
X213637886Y-38065592D01*
X213883069Y-38237271D01*
X213960214Y-38291289D01*
X213977975Y-38303725D01*
X214179246Y-38419929D01*
X214313616Y-38497508D01*
X214337524Y-38511311D01*
X214526190Y-38599287D01*
X214712828Y-38686318D01*
X214713798Y-38686770D01*
X215103932Y-38828768D01*
X215504957Y-38936222D01*
X215913822Y-39008316D01*
X216327414Y-39044500D01*
X216327418Y-39044500D01*
X216742582Y-39044500D01*
X216742586Y-39044500D01*
X217156178Y-39008316D01*
X217565043Y-38936222D01*
X217966068Y-38828768D01*
X218356202Y-38686770D01*
X218732476Y-38511311D01*
X219092025Y-38303725D01*
X219432114Y-38065592D01*
X219750154Y-37798725D01*
X220043725Y-37505154D01*
X220310592Y-37187114D01*
X220548725Y-36847025D01*
X220756311Y-36487476D01*
X220931770Y-36111202D01*
X221073768Y-35721068D01*
X221181222Y-35320043D01*
X221253316Y-34911178D01*
X221289500Y-34497586D01*
X221289500Y-34082414D01*
X221253316Y-33668822D01*
X221181222Y-33259957D01*
X221073768Y-32858932D01*
X220931770Y-32468798D01*
X220927667Y-32460000D01*
X220803494Y-32193709D01*
X220756311Y-32092524D01*
X220548725Y-31732975D01*
X220310592Y-31392886D01*
X220310589Y-31392883D01*
X220310586Y-31392878D01*
X220201730Y-31263149D01*
X220043725Y-31074846D01*
X219750154Y-30781275D01*
X219591134Y-30647841D01*
X219432121Y-30514413D01*
X219092027Y-30276276D01*
X218732477Y-30068689D01*
X218732466Y-30068684D01*
X218356212Y-29893234D01*
X218356204Y-29893231D01*
X218356202Y-29893230D01*
X217966068Y-29751232D01*
X217565043Y-29643778D01*
X217565042Y-29643777D01*
X217565039Y-29643777D01*
X217156186Y-29571685D01*
X217156181Y-29571684D01*
X217156178Y-29571684D01*
X216742586Y-29535500D01*
X216327414Y-29535500D01*
X216327413Y-29535500D01*
X216237126Y-29543399D01*
X215913822Y-29571684D01*
X215913819Y-29571684D01*
X215913813Y-29571685D01*
X215504960Y-29643777D01*
X215334693Y-29689400D01*
X215103932Y-29751232D01*
X215103929Y-29751232D01*
X215103929Y-29751233D01*
X214713795Y-29893231D01*
X214713787Y-29893234D01*
X214337533Y-30068684D01*
X214337522Y-30068689D01*
X213977972Y-30276276D01*
X213637878Y-30514413D01*
X213319852Y-30781270D01*
X213319847Y-30781274D01*
X213026274Y-31074847D01*
X213026270Y-31074852D01*
X212759413Y-31392878D01*
X212521276Y-31732972D01*
X212313689Y-32092522D01*
X212313684Y-32092533D01*
X212138234Y-32468787D01*
X212138231Y-32468795D01*
X211996235Y-32858925D01*
X211996232Y-32858932D01*
X211960029Y-32994043D01*
X211888777Y-33259960D01*
X211816685Y-33668813D01*
X211816684Y-33668819D01*
X211816684Y-33668822D01*
X211795846Y-33907007D01*
X211782786Y-34056290D01*
X211780500Y-34082414D01*
X195366596Y-34082414D01*
X195340471Y-34056289D01*
X195214029Y-33983288D01*
X195214028Y-33983287D01*
X195214025Y-33983286D01*
X195073001Y-33945500D01*
X194926999Y-33945500D01*
X194785974Y-33983286D01*
X194659527Y-34056290D01*
X194556290Y-34159527D01*
X194483286Y-34285974D01*
X194449037Y-34413800D01*
X194445500Y-34426999D01*
X194445500Y-34573001D01*
X194453964Y-34604590D01*
X194483286Y-34714025D01*
X194483287Y-34714028D01*
X194483288Y-34714029D01*
X194552744Y-34834331D01*
X194556290Y-34840472D01*
X194619755Y-34903937D01*
X194645166Y-34958431D01*
X194645500Y-34966092D01*
X194645500Y-40262604D01*
X194624935Y-40319105D01*
X194601553Y-40338725D01*
X194527119Y-40381700D01*
X194484527Y-40406290D01*
X194381290Y-40509527D01*
X194308286Y-40635974D01*
X194270500Y-40776999D01*
X192708700Y-40776999D01*
X192708700Y-37296092D01*
X192729265Y-37239591D01*
X192734445Y-37233937D01*
X192764950Y-37203432D01*
X192797911Y-37170471D01*
X192870912Y-37044029D01*
X192908700Y-36903001D01*
X192908700Y-36756999D01*
X192891330Y-36692171D01*
X192870913Y-36615974D01*
X192870912Y-36615973D01*
X192870912Y-36615971D01*
X192797911Y-36489529D01*
X192694671Y-36386289D01*
X192568229Y-36313288D01*
X192568228Y-36313287D01*
X192568225Y-36313286D01*
X192427201Y-36275500D01*
X192281199Y-36275500D01*
X192140174Y-36313286D01*
X192013727Y-36386290D01*
X191910490Y-36489527D01*
X191837486Y-36615974D01*
X191799700Y-36756999D01*
X191799700Y-36903000D01*
X191837486Y-37044025D01*
X191837487Y-37044028D01*
X191837488Y-37044029D01*
X191906510Y-37163580D01*
X191910490Y-37170472D01*
X191973955Y-37233937D01*
X191999366Y-37288431D01*
X191999700Y-37296092D01*
X191999700Y-41913908D01*
X191979135Y-41970409D01*
X191973955Y-41976063D01*
X191910490Y-42039527D01*
X191837486Y-42165974D01*
X191809288Y-42271214D01*
X191799700Y-42306999D01*
X191799700Y-42453001D01*
X191812783Y-42501830D01*
X191830741Y-42568850D01*
X191825500Y-42628749D01*
X191782984Y-42671265D01*
X191745836Y-42679500D01*
X142543564Y-42679500D01*
X142487063Y-42658935D01*
X142456999Y-42606864D01*
X142458659Y-42568850D01*
X142476616Y-42501830D01*
X142489700Y-42453001D01*
X142489700Y-42306999D01*
X142476515Y-42257791D01*
X142451913Y-42165974D01*
X142451912Y-42165973D01*
X142451912Y-42165971D01*
X142378911Y-42039529D01*
X142275671Y-41936289D01*
X142275669Y-41936287D01*
X142181250Y-41881774D01*
X142142601Y-41835714D01*
X142137300Y-41805651D01*
X142137300Y-40521892D01*
X142157865Y-40465391D01*
X142163045Y-40459737D01*
X142226511Y-40396271D01*
X142299512Y-40269829D01*
X142337300Y-40128801D01*
X142337300Y-39982799D01*
X142303874Y-39858049D01*
X142299513Y-39841774D01*
X142299512Y-39841773D01*
X142299512Y-39841771D01*
X142226511Y-39715329D01*
X142123271Y-39612089D01*
X141996829Y-39539088D01*
X141996828Y-39539087D01*
X141996825Y-39539086D01*
X141855801Y-39501300D01*
X141709799Y-39501300D01*
X141568774Y-39539086D01*
X141442327Y-39612090D01*
X141339090Y-39715327D01*
X141266086Y-39841774D01*
X141228300Y-39982799D01*
X141228300Y-40128800D01*
X141266086Y-40269825D01*
X141266087Y-40269828D01*
X141266088Y-40269829D01*
X141330676Y-40381700D01*
X141339090Y-40396272D01*
X141402555Y-40459737D01*
X141427966Y-40514231D01*
X141428300Y-40521892D01*
X141428300Y-42125424D01*
X141419045Y-42159971D01*
X141420691Y-42160653D01*
X141418487Y-42165970D01*
X141388601Y-42277511D01*
X141380700Y-42306999D01*
X141380700Y-42453001D01*
X141393783Y-42501830D01*
X141411741Y-42568850D01*
X141406500Y-42628749D01*
X141363984Y-42671265D01*
X141326836Y-42679500D01*
X137850247Y-42679500D01*
X137825385Y-42670451D01*
X137799830Y-42663604D01*
X137797523Y-42660309D01*
X137793746Y-42658935D01*
X137780518Y-42636024D01*
X137765342Y-42614351D01*
X137765692Y-42610345D01*
X137763682Y-42606864D01*
X137768276Y-42580808D01*
X137770582Y-42554452D01*
X137773711Y-42549982D01*
X137774123Y-42547650D01*
X137788092Y-42529446D01*
X137853025Y-42464512D01*
X137853032Y-42464506D01*
X137860266Y-42457271D01*
X137860268Y-42457271D01*
X137926271Y-42391268D01*
X137972941Y-42310432D01*
X137997100Y-42220271D01*
X137997100Y-35029799D01*
X142803100Y-35029799D01*
X142803100Y-35175801D01*
X142806744Y-35189401D01*
X142840886Y-35316825D01*
X142840887Y-35316828D01*
X142840888Y-35316829D01*
X142905935Y-35429495D01*
X142913890Y-35443272D01*
X142977355Y-35506737D01*
X143002766Y-35561231D01*
X143003100Y-35568892D01*
X143003100Y-41152129D01*
X143003100Y-41245471D01*
X143005118Y-41253001D01*
X143027258Y-41335631D01*
X143073929Y-41416468D01*
X143440937Y-41783476D01*
X143454905Y-41801680D01*
X143523489Y-41920471D01*
X143626729Y-42023711D01*
X143753171Y-42096712D01*
X143753173Y-42096712D01*
X143753176Y-42096714D01*
X143758494Y-42098917D01*
X143758340Y-42099288D01*
X143771400Y-42104696D01*
X143830368Y-42138741D01*
X143920529Y-42162900D01*
X143920530Y-42162900D01*
X144013871Y-42162900D01*
X144104032Y-42138741D01*
X144162997Y-42104696D01*
X144176056Y-42099289D01*
X144175903Y-42098918D01*
X144181225Y-42096713D01*
X144181224Y-42096713D01*
X144181229Y-42096712D01*
X144307671Y-42023711D01*
X144410911Y-41920471D01*
X144483912Y-41794029D01*
X144521700Y-41653001D01*
X144521700Y-41506999D01*
X157687500Y-41506999D01*
X157687500Y-41653000D01*
X157725286Y-41794025D01*
X157725287Y-41794028D01*
X157725288Y-41794029D01*
X157798289Y-41920471D01*
X157901529Y-42023711D01*
X158027971Y-42096712D01*
X158027973Y-42096712D01*
X158027974Y-42096713D01*
X158168999Y-42134500D01*
X158315000Y-42134500D01*
X158315001Y-42134500D01*
X158456029Y-42096712D01*
X158582471Y-42023711D01*
X158685711Y-41920471D01*
X158758712Y-41794029D01*
X158796500Y-41653001D01*
X158796500Y-41506999D01*
X158769036Y-41404500D01*
X158758713Y-41365974D01*
X158758712Y-41365972D01*
X158758712Y-41365971D01*
X158685711Y-41239529D01*
X158622245Y-41176063D01*
X158596834Y-41121569D01*
X158596500Y-41113908D01*
X158596500Y-38427154D01*
X158617065Y-38370653D01*
X158640451Y-38351030D01*
X158658671Y-38340511D01*
X158761911Y-38237271D01*
X158834912Y-38110829D01*
X158872700Y-37969801D01*
X158872700Y-37823799D01*
X158861132Y-37780625D01*
X158834913Y-37682774D01*
X158834912Y-37682773D01*
X158834912Y-37682771D01*
X158761911Y-37556329D01*
X158658671Y-37453089D01*
X158532229Y-37380088D01*
X158532228Y-37380087D01*
X158532225Y-37380086D01*
X158391201Y-37342300D01*
X158245199Y-37342300D01*
X158104174Y-37380086D01*
X157977727Y-37453090D01*
X157874490Y-37556327D01*
X157801486Y-37682774D01*
X157763700Y-37823799D01*
X157763700Y-37969800D01*
X157801486Y-38110825D01*
X157801487Y-38110828D01*
X157801488Y-38110829D01*
X157874489Y-38237271D01*
X157874490Y-38237272D01*
X157875724Y-38239409D01*
X157887500Y-38283359D01*
X157887500Y-41113908D01*
X157866935Y-41170409D01*
X157861755Y-41176063D01*
X157798290Y-41239527D01*
X157725286Y-41365974D01*
X157687500Y-41506999D01*
X144521700Y-41506999D01*
X144494236Y-41404500D01*
X144483913Y-41365974D01*
X144483912Y-41365972D01*
X144483912Y-41365971D01*
X144410911Y-41239529D01*
X144307671Y-41136289D01*
X144181229Y-41063288D01*
X144181228Y-41063287D01*
X144181225Y-41063286D01*
X144040201Y-41025500D01*
X143894199Y-41025500D01*
X143894197Y-41025500D01*
X143822749Y-41044644D01*
X143762851Y-41039403D01*
X143720335Y-40996886D01*
X143712100Y-40959739D01*
X143712100Y-35568892D01*
X143732665Y-35512391D01*
X143737845Y-35506737D01*
X143762183Y-35482399D01*
X143801311Y-35443271D01*
X143874312Y-35316829D01*
X143912100Y-35175801D01*
X143912100Y-35029799D01*
X143893863Y-34961736D01*
X176110500Y-34961736D01*
X176110500Y-36158249D01*
X176116960Y-36218344D01*
X176167657Y-36354265D01*
X176167658Y-36354267D01*
X176254596Y-36470404D01*
X176370733Y-36557342D01*
X176506658Y-36608040D01*
X176566745Y-36614500D01*
X177763254Y-36614499D01*
X177823342Y-36608040D01*
X177959267Y-36557342D01*
X178075404Y-36470404D01*
X178162342Y-36354267D01*
X178213040Y-36218342D01*
X178219500Y-36158255D01*
X178219499Y-34961746D01*
X178213040Y-34901658D01*
X178210865Y-34895828D01*
X178191721Y-34844500D01*
X178162342Y-34765733D01*
X178075404Y-34649596D01*
X177959267Y-34562658D01*
X177959265Y-34562657D01*
X177897715Y-34539700D01*
X177823342Y-34511960D01*
X177823339Y-34511959D01*
X177823331Y-34511958D01*
X177763259Y-34505500D01*
X176566750Y-34505500D01*
X176506655Y-34511960D01*
X176370734Y-34562657D01*
X176254598Y-34649594D01*
X176254594Y-34649598D01*
X176167657Y-34765734D01*
X176116960Y-34901658D01*
X176116958Y-34901668D01*
X176110500Y-34961736D01*
X143893863Y-34961736D01*
X143876474Y-34896839D01*
X143874313Y-34888774D01*
X143874312Y-34888773D01*
X143874312Y-34888771D01*
X143801311Y-34762329D01*
X143698071Y-34659089D01*
X143571629Y-34586088D01*
X143571628Y-34586087D01*
X143571625Y-34586086D01*
X143430601Y-34548300D01*
X143284599Y-34548300D01*
X143143574Y-34586086D01*
X143017127Y-34659090D01*
X142913890Y-34762327D01*
X142840886Y-34888774D01*
X142809488Y-35005957D01*
X142803100Y-35029799D01*
X137997100Y-35029799D01*
X137997100Y-34121092D01*
X138017665Y-34064591D01*
X138022845Y-34058937D01*
X138049613Y-34032169D01*
X138086311Y-33995471D01*
X138159312Y-33869029D01*
X138197100Y-33728001D01*
X138197100Y-33581999D01*
X138186508Y-33542468D01*
X138159313Y-33440974D01*
X138159312Y-33440973D01*
X138159312Y-33440971D01*
X138086311Y-33314529D01*
X137983071Y-33211289D01*
X137856629Y-33138288D01*
X137856628Y-33138287D01*
X137856625Y-33138286D01*
X137715601Y-33100500D01*
X137569599Y-33100500D01*
X137428573Y-33138287D01*
X137428571Y-33138287D01*
X137428571Y-33138288D01*
X137417747Y-33144537D01*
X137358534Y-33154976D01*
X137306463Y-33124911D01*
X137285900Y-33068412D01*
X137285900Y-30480883D01*
X137306465Y-30424382D01*
X137329851Y-30404759D01*
X137341144Y-30398239D01*
X137398871Y-30364911D01*
X137502111Y-30261671D01*
X137575112Y-30135229D01*
X137612900Y-29994201D01*
X137612900Y-29848199D01*
X137575112Y-29707171D01*
X137502111Y-29580729D01*
X137398871Y-29477489D01*
X137272429Y-29404488D01*
X137272428Y-29404487D01*
X137272425Y-29404486D01*
X137131401Y-29366700D01*
X136985399Y-29366700D01*
X136844374Y-29404486D01*
X136717927Y-29477490D01*
X136614690Y-29580727D01*
X136614689Y-29580729D01*
X136560923Y-29673854D01*
X136514864Y-29712503D01*
X136454737Y-29712503D01*
X136408676Y-29673854D01*
X136396900Y-29629904D01*
X136396900Y-29061651D01*
X136417465Y-29005150D01*
X136469536Y-28975086D01*
X136528750Y-28985527D01*
X136538309Y-28991914D01*
X136540127Y-28993309D01*
X136540129Y-28993311D01*
X136666571Y-29066312D01*
X136666573Y-29066312D01*
X136666574Y-29066313D01*
X136807599Y-29104100D01*
X136953600Y-29104100D01*
X136953601Y-29104100D01*
X137094629Y-29066312D01*
X137221071Y-28993311D01*
X137324311Y-28890071D01*
X137397312Y-28763629D01*
X137435100Y-28622601D01*
X137435100Y-28532848D01*
X137455665Y-28476347D01*
X137460834Y-28470704D01*
X138030615Y-27900923D01*
X138085107Y-27875513D01*
X138136716Y-27886954D01*
X138215971Y-27932712D01*
X138215973Y-27932712D01*
X138215974Y-27932713D01*
X138356999Y-27970500D01*
X138503000Y-27970500D01*
X138503001Y-27970500D01*
X138644029Y-27932712D01*
X138770471Y-27859711D01*
X138873711Y-27756471D01*
X138946712Y-27630029D01*
X138984500Y-27489001D01*
X138984500Y-27342999D01*
X138967928Y-27281150D01*
X138973169Y-27221251D01*
X139015685Y-27178735D01*
X139052833Y-27170500D01*
X139381967Y-27170500D01*
X139438468Y-27191065D01*
X139468532Y-27243136D01*
X139466872Y-27281150D01*
X139450300Y-27342999D01*
X139450300Y-27489001D01*
X139458764Y-27520590D01*
X139488086Y-27630025D01*
X139488087Y-27630028D01*
X139488088Y-27630029D01*
X139561089Y-27756471D01*
X139664329Y-27859711D01*
X139790771Y-27932712D01*
X139790773Y-27932712D01*
X139790774Y-27932713D01*
X139931799Y-27970500D01*
X140021551Y-27970500D01*
X140078052Y-27991065D01*
X140083706Y-27996245D01*
X140716755Y-28629294D01*
X140742166Y-28683788D01*
X140742500Y-28691449D01*
X140742500Y-29975045D01*
X140721935Y-30031546D01*
X140698550Y-30051168D01*
X140680335Y-30061684D01*
X140680328Y-30061689D01*
X140577091Y-30164925D01*
X140504086Y-30291374D01*
X140481041Y-30377383D01*
X140466300Y-30432399D01*
X140466300Y-30578401D01*
X140467430Y-30582618D01*
X140504086Y-30719425D01*
X140504087Y-30719428D01*
X140504088Y-30719429D01*
X140577089Y-30845871D01*
X140680329Y-30949111D01*
X140806771Y-31022112D01*
X140806773Y-31022112D01*
X140806774Y-31022113D01*
X140947799Y-31059900D01*
X141093800Y-31059900D01*
X141093801Y-31059900D01*
X141234829Y-31022112D01*
X141361271Y-30949111D01*
X141464511Y-30845871D01*
X141537512Y-30719429D01*
X141575300Y-30578401D01*
X141575300Y-30432399D01*
X141537512Y-30291371D01*
X141491974Y-30212496D01*
X141463276Y-30162789D01*
X141451500Y-30118840D01*
X141451500Y-28461529D01*
X141427341Y-28371368D01*
X141380671Y-28290532D01*
X141314668Y-28224529D01*
X140585045Y-27494906D01*
X140578573Y-27481460D01*
X140568469Y-27471839D01*
X140563264Y-27449653D01*
X140559848Y-27442554D01*
X140559300Y-27437671D01*
X140559300Y-27342999D01*
X140541017Y-27274768D01*
X140540281Y-27268203D01*
X140545889Y-27245012D01*
X140547969Y-27221251D01*
X140552807Y-27216412D01*
X140554416Y-27209761D01*
X140573615Y-27195604D01*
X140590485Y-27178735D01*
X140599077Y-27176830D01*
X140602810Y-27174078D01*
X140609574Y-27174503D01*
X140627633Y-27170500D01*
X142088700Y-27170500D01*
X142939000Y-27170500D01*
X142995501Y-27191065D01*
X143025565Y-27243136D01*
X143026900Y-27258400D01*
X143026900Y-28135908D01*
X143006335Y-28192409D01*
X143001155Y-28198063D01*
X142990090Y-28209127D01*
X142917086Y-28335574D01*
X142883338Y-28461529D01*
X142879300Y-28476599D01*
X142879300Y-28622601D01*
X142886106Y-28648000D01*
X142917086Y-28763625D01*
X142917087Y-28763628D01*
X142917088Y-28763629D01*
X142990089Y-28890071D01*
X143093329Y-28993311D01*
X143219771Y-29066312D01*
X143219773Y-29066312D01*
X143219774Y-29066313D01*
X143360799Y-29104100D01*
X143506800Y-29104100D01*
X143506801Y-29104100D01*
X143647829Y-29066312D01*
X143774271Y-28993311D01*
X143877511Y-28890071D01*
X143950512Y-28763629D01*
X143988300Y-28622601D01*
X143988300Y-28476599D01*
X143960104Y-28371368D01*
X143950513Y-28335574D01*
X143950512Y-28335573D01*
X143950512Y-28335571D01*
X143877511Y-28209129D01*
X143866445Y-28198063D01*
X143841034Y-28143569D01*
X143840700Y-28135908D01*
X143840700Y-27258400D01*
X143861265Y-27201899D01*
X143913336Y-27171835D01*
X143928600Y-27170500D01*
X149505500Y-27170500D01*
X149746200Y-27170500D01*
X149802701Y-27191065D01*
X149832765Y-27243136D01*
X149834100Y-27258400D01*
X149834100Y-33571508D01*
X149813535Y-33628009D01*
X149808355Y-33633663D01*
X149797290Y-33644727D01*
X149724286Y-33771174D01*
X149700852Y-33858636D01*
X149686500Y-33912199D01*
X149686500Y-34058201D01*
X149694772Y-34089074D01*
X149724286Y-34199225D01*
X149724287Y-34199228D01*
X149724288Y-34199229D01*
X149797289Y-34325671D01*
X149900529Y-34428911D01*
X150026971Y-34501912D01*
X150026973Y-34501912D01*
X150026974Y-34501913D01*
X150167999Y-34539700D01*
X150314000Y-34539700D01*
X150314001Y-34539700D01*
X150455029Y-34501912D01*
X150581471Y-34428911D01*
X150684711Y-34325671D01*
X150757712Y-34199229D01*
X150795500Y-34058201D01*
X150795500Y-33912199D01*
X150773287Y-33829297D01*
X150757713Y-33771174D01*
X150757712Y-33771173D01*
X150757712Y-33771171D01*
X150684711Y-33644729D01*
X150673645Y-33633663D01*
X150648234Y-33579169D01*
X150647900Y-33571508D01*
X150647900Y-29344400D01*
X150668465Y-29287899D01*
X150720536Y-29257835D01*
X150735800Y-29256500D01*
X150847400Y-29256500D01*
X150847401Y-29256500D01*
X150988429Y-29218712D01*
X151114871Y-29145711D01*
X151218111Y-29042471D01*
X151291112Y-28916029D01*
X151328900Y-28775001D01*
X151328900Y-28628999D01*
X151291112Y-28487971D01*
X151218111Y-28361529D01*
X151114871Y-28258289D01*
X150988429Y-28185288D01*
X150988428Y-28185287D01*
X150988425Y-28185286D01*
X150847401Y-28147500D01*
X150735800Y-28147500D01*
X150679299Y-28126935D01*
X150649235Y-28074864D01*
X150647900Y-28059600D01*
X150647900Y-27258400D01*
X150668465Y-27201899D01*
X150720536Y-27171835D01*
X150735800Y-27170500D01*
X160592000Y-27170500D01*
X160648501Y-27191065D01*
X160678565Y-27243136D01*
X160679900Y-27258400D01*
X160679900Y-33683170D01*
X160707105Y-33784700D01*
X160710100Y-33807450D01*
X160710100Y-33880401D01*
X160714572Y-33897090D01*
X160747886Y-34021425D01*
X160747887Y-34021428D01*
X160747888Y-34021429D01*
X160820889Y-34147871D01*
X160924129Y-34251111D01*
X161050571Y-34324112D01*
X161050573Y-34324112D01*
X161050574Y-34324113D01*
X161191599Y-34361900D01*
X161337600Y-34361900D01*
X161337601Y-34361900D01*
X161478629Y-34324112D01*
X161605071Y-34251111D01*
X161708311Y-34147871D01*
X161781312Y-34021429D01*
X161819100Y-33880401D01*
X161819100Y-33734399D01*
X161801529Y-33668822D01*
X161781313Y-33593374D01*
X161781312Y-33593373D01*
X161781312Y-33593371D01*
X161708311Y-33466929D01*
X161605071Y-33363689D01*
X161566606Y-33341481D01*
X161537649Y-33324762D01*
X161499001Y-33278702D01*
X161493700Y-33248639D01*
X161493700Y-31956186D01*
X176111000Y-31956186D01*
X176111000Y-32163813D01*
X176151502Y-32367437D01*
X176151503Y-32367441D01*
X176230958Y-32559257D01*
X176230958Y-32559258D01*
X176333167Y-32712225D01*
X176333168Y-32712225D01*
X176806438Y-32238953D01*
X176844920Y-32305606D01*
X176919394Y-32380080D01*
X176986043Y-32418560D01*
X176512773Y-32891830D01*
X176665744Y-32994042D01*
X176857558Y-33073496D01*
X176857562Y-33073497D01*
X177061187Y-33114000D01*
X177268813Y-33114000D01*
X177472437Y-33073497D01*
X177472441Y-33073496D01*
X177664255Y-32994043D01*
X177817225Y-32891831D01*
X177817225Y-32891830D01*
X177343955Y-32418560D01*
X177410606Y-32380080D01*
X177485080Y-32305606D01*
X177523560Y-32238954D01*
X177996831Y-32712225D01*
X178099043Y-32559255D01*
X178178496Y-32367441D01*
X178178497Y-32367437D01*
X178219000Y-32163813D01*
X178219000Y-31956186D01*
X178178497Y-31752562D01*
X178178496Y-31752558D01*
X178099042Y-31560744D01*
X177996830Y-31407773D01*
X177523560Y-31881043D01*
X177485080Y-31814394D01*
X177410606Y-31739920D01*
X177343953Y-31701438D01*
X177817225Y-31228168D01*
X177817225Y-31228167D01*
X177664258Y-31125958D01*
X177472441Y-31046503D01*
X177472437Y-31046502D01*
X177268813Y-31006000D01*
X177061187Y-31006000D01*
X176857562Y-31046502D01*
X176857558Y-31046503D01*
X176665740Y-31125959D01*
X176512773Y-31228167D01*
X176986045Y-31701439D01*
X176919394Y-31739920D01*
X176844920Y-31814394D01*
X176806439Y-31881045D01*
X176333167Y-31407773D01*
X176230959Y-31560740D01*
X176151503Y-31752558D01*
X176151502Y-31752562D01*
X176111000Y-31956186D01*
X161493700Y-31956186D01*
X161493700Y-27258400D01*
X161514265Y-27201899D01*
X161566336Y-27171835D01*
X161581600Y-27170500D01*
X182385200Y-27170500D01*
X182441701Y-27191065D01*
X182471765Y-27243136D01*
X182473100Y-27258400D01*
X182473100Y-35355700D01*
X182488599Y-35433616D01*
X182498303Y-35482399D01*
X182498303Y-35482401D01*
X182502400Y-35503004D01*
X182502404Y-35503018D01*
X182534740Y-35581082D01*
X182559882Y-35641779D01*
X182643327Y-35766665D01*
X184987355Y-38110693D01*
X185012766Y-38165186D01*
X185013100Y-38172847D01*
X185013100Y-38202616D01*
X185053138Y-38403907D01*
X185053140Y-38403911D01*
X185131678Y-38593522D01*
X185131679Y-38593524D01*
X185131680Y-38593525D01*
X185245704Y-38764172D01*
X185390828Y-38909296D01*
X185561475Y-39023320D01*
X185751089Y-39101860D01*
X185751090Y-39101860D01*
X185751092Y-39101861D01*
X185852420Y-39122016D01*
X185952382Y-39141900D01*
X185952384Y-39141900D01*
X186157616Y-39141900D01*
X186157618Y-39141900D01*
X186290599Y-39115448D01*
X186358907Y-39101861D01*
X186358907Y-39101860D01*
X186358911Y-39101860D01*
X186548525Y-39023320D01*
X186719172Y-38909296D01*
X186864296Y-38764172D01*
X186978320Y-38593525D01*
X187056860Y-38403911D01*
X187059053Y-38392889D01*
X187070448Y-38335599D01*
X187096900Y-38202618D01*
X187096900Y-37997382D01*
X187078936Y-37907071D01*
X187056861Y-37796092D01*
X187056860Y-37796090D01*
X187056860Y-37796089D01*
X186978320Y-37606475D01*
X186864296Y-37435828D01*
X186719172Y-37290704D01*
X186548525Y-37176680D01*
X186548524Y-37176679D01*
X186548522Y-37176678D01*
X186358911Y-37098140D01*
X186358907Y-37098138D01*
X186204095Y-37067345D01*
X186157618Y-37058100D01*
X186157616Y-37058100D01*
X186127848Y-37058100D01*
X186071347Y-37037535D01*
X186065693Y-37032355D01*
X185761387Y-36728049D01*
X185735976Y-36673555D01*
X185751539Y-36615477D01*
X185800792Y-36580989D01*
X185840690Y-36579683D01*
X185847256Y-36580989D01*
X185952382Y-36601900D01*
X185952384Y-36601900D01*
X186157616Y-36601900D01*
X186157618Y-36601900D01*
X186290599Y-36575448D01*
X186358907Y-36561861D01*
X186358907Y-36561860D01*
X186358911Y-36561860D01*
X186548525Y-36483320D01*
X186719172Y-36369296D01*
X186864296Y-36224172D01*
X186978320Y-36053525D01*
X187056860Y-35863911D01*
X187096900Y-35662618D01*
X187096900Y-35457382D01*
X187553100Y-35457382D01*
X187553100Y-35662618D01*
X187557315Y-35683809D01*
X187593138Y-35863907D01*
X187593140Y-35863911D01*
X187671678Y-36053522D01*
X187671679Y-36053524D01*
X187671680Y-36053525D01*
X187785704Y-36224172D01*
X187930828Y-36369296D01*
X188101475Y-36483320D01*
X188101476Y-36483320D01*
X188101477Y-36483321D01*
X188111511Y-36487477D01*
X188291089Y-36561860D01*
X188291090Y-36561860D01*
X188291092Y-36561861D01*
X188387256Y-36580989D01*
X188492382Y-36601900D01*
X188492384Y-36601900D01*
X188697616Y-36601900D01*
X188697618Y-36601900D01*
X188830599Y-36575448D01*
X188898907Y-36561861D01*
X188898907Y-36561860D01*
X188898911Y-36561860D01*
X189088525Y-36483320D01*
X189259172Y-36369296D01*
X189404296Y-36224172D01*
X189518320Y-36053525D01*
X189596860Y-35863911D01*
X189636900Y-35662618D01*
X189636900Y-35457382D01*
X189619047Y-35367629D01*
X189596861Y-35256092D01*
X189596860Y-35256090D01*
X189596860Y-35256089D01*
X189518320Y-35066475D01*
X189404296Y-34895828D01*
X189259172Y-34750704D01*
X189088525Y-34636680D01*
X189088524Y-34636679D01*
X189088522Y-34636678D01*
X188898911Y-34558140D01*
X188898907Y-34558138D01*
X188747597Y-34528041D01*
X188697618Y-34518100D01*
X188492382Y-34518100D01*
X188447922Y-34526943D01*
X188291092Y-34558138D01*
X188291088Y-34558140D01*
X188101477Y-34636678D01*
X187930830Y-34750702D01*
X187785702Y-34895830D01*
X187671678Y-35066477D01*
X187593140Y-35256088D01*
X187593138Y-35256092D01*
X187558647Y-35429495D01*
X187553100Y-35457382D01*
X187096900Y-35457382D01*
X187079047Y-35367629D01*
X187056861Y-35256092D01*
X187056860Y-35256090D01*
X187056860Y-35256089D01*
X186978320Y-35066475D01*
X186864296Y-34895828D01*
X186719172Y-34750704D01*
X186548525Y-34636680D01*
X186548524Y-34636679D01*
X186548522Y-34636678D01*
X186358911Y-34558140D01*
X186358907Y-34558138D01*
X186207597Y-34528041D01*
X186157618Y-34518100D01*
X185952382Y-34518100D01*
X185907922Y-34526943D01*
X185751092Y-34558138D01*
X185751088Y-34558140D01*
X185561477Y-34636678D01*
X185390830Y-34750702D01*
X185245702Y-34895830D01*
X185131678Y-35066477D01*
X185053140Y-35256088D01*
X185053138Y-35256092D01*
X185018647Y-35429495D01*
X185013100Y-35457382D01*
X185013100Y-35662618D01*
X185014631Y-35670313D01*
X185035316Y-35774309D01*
X185026169Y-35833737D01*
X184980963Y-35873381D01*
X184920850Y-35874692D01*
X184886950Y-35853612D01*
X184023845Y-34990507D01*
X183998434Y-34936013D01*
X183998100Y-34928352D01*
X183998100Y-32917382D01*
X185013100Y-32917382D01*
X185013100Y-33122618D01*
X185023041Y-33172597D01*
X185053138Y-33323907D01*
X185053140Y-33323911D01*
X185131678Y-33513522D01*
X185131679Y-33513524D01*
X185131680Y-33513525D01*
X185245704Y-33684172D01*
X185390828Y-33829296D01*
X185561475Y-33943320D01*
X185751089Y-34021860D01*
X185751090Y-34021860D01*
X185751092Y-34021861D01*
X185852420Y-34042016D01*
X185952382Y-34061900D01*
X185952384Y-34061900D01*
X186157616Y-34061900D01*
X186157618Y-34061900D01*
X186307085Y-34032169D01*
X186358907Y-34021861D01*
X186358907Y-34021860D01*
X186358911Y-34021860D01*
X186548525Y-33943320D01*
X186719172Y-33829296D01*
X186864296Y-33684172D01*
X186978320Y-33513525D01*
X187056860Y-33323911D01*
X187096900Y-33122618D01*
X187096900Y-32917382D01*
X187553100Y-32917382D01*
X187553100Y-33122618D01*
X187563041Y-33172597D01*
X187593138Y-33323907D01*
X187593140Y-33323911D01*
X187671678Y-33513522D01*
X187671679Y-33513524D01*
X187671680Y-33513525D01*
X187785704Y-33684172D01*
X187930828Y-33829296D01*
X188101475Y-33943320D01*
X188291089Y-34021860D01*
X188291090Y-34021860D01*
X188291092Y-34021861D01*
X188392420Y-34042016D01*
X188492382Y-34061900D01*
X188492384Y-34061900D01*
X188697616Y-34061900D01*
X188697618Y-34061900D01*
X188847085Y-34032169D01*
X188898907Y-34021861D01*
X188898907Y-34021860D01*
X188898911Y-34021860D01*
X189088525Y-33943320D01*
X189259172Y-33829296D01*
X189404296Y-33684172D01*
X189518320Y-33513525D01*
X189596860Y-33323911D01*
X189636900Y-33122618D01*
X189636900Y-32917382D01*
X189614850Y-32806529D01*
X189596861Y-32716092D01*
X189596860Y-32716090D01*
X189596860Y-32716089D01*
X189518320Y-32526475D01*
X189404296Y-32355828D01*
X189259172Y-32210704D01*
X189088525Y-32096680D01*
X189088524Y-32096679D01*
X189088522Y-32096678D01*
X188898911Y-32018140D01*
X188898907Y-32018138D01*
X188747597Y-31988041D01*
X188697618Y-31978100D01*
X188492382Y-31978100D01*
X188447922Y-31986943D01*
X188291092Y-32018138D01*
X188291088Y-32018140D01*
X188101477Y-32096678D01*
X187930830Y-32210702D01*
X187785702Y-32355830D01*
X187671678Y-32526477D01*
X187593140Y-32716088D01*
X187593138Y-32716092D01*
X187561331Y-32876000D01*
X187553100Y-32917382D01*
X187096900Y-32917382D01*
X187074850Y-32806529D01*
X187056861Y-32716092D01*
X187056860Y-32716090D01*
X187056860Y-32716089D01*
X186978320Y-32526475D01*
X186864296Y-32355828D01*
X186719172Y-32210704D01*
X186548525Y-32096680D01*
X186548524Y-32096679D01*
X186548522Y-32096678D01*
X186358911Y-32018140D01*
X186358907Y-32018138D01*
X186207597Y-31988041D01*
X186157618Y-31978100D01*
X185952382Y-31978100D01*
X185907922Y-31986943D01*
X185751092Y-32018138D01*
X185751088Y-32018140D01*
X185561477Y-32096678D01*
X185390830Y-32210702D01*
X185245702Y-32355830D01*
X185131678Y-32526477D01*
X185053140Y-32716088D01*
X185053138Y-32716092D01*
X185021331Y-32876000D01*
X185013100Y-32917382D01*
X183998100Y-32917382D01*
X183998100Y-26332901D01*
X183968799Y-26185595D01*
X183968798Y-26185592D01*
X183968797Y-26185587D01*
X183911318Y-26046821D01*
X183904912Y-26037234D01*
X183890620Y-25978832D01*
X183917213Y-25924906D01*
X183972247Y-25900688D01*
X183977998Y-25900500D01*
X185626878Y-25900500D01*
X185683379Y-25921065D01*
G37*
%TD.AperFunction*%
%TD*%
M02*
