M48
; DRILL file KiCad 10.0.1-10.0.1~ubuntu24.04.1 date 2026-04-26T18:24:41
; FORMAT={-:-/ absolute / metric / decimal}
; #@! TF.CreationDate,2026-04-26T18:24:41-04:00
; #@! TF.GenerationSoftware,Kicad,Pcbnew,10.0.1-10.0.1~ubuntu24.04.1
; #@! TF.FileFunction,Plated,1,2,PTH
FMAT,2
METRIC
; #@! TA.AperFunction,Plated,PTH,ViaDrill
T1C0.300
; #@! TA.AperFunction,Plated,PTH,ComponentDrill
T2C0.800
; #@! TA.AperFunction,Plated,PTH,ComponentDrill
T3C1.000
; #@! TA.AperFunction,Plated,PTH,ComponentDrill
T4C1.067
; #@! TA.AperFunction,Plated,PTH,ComponentDrill
T5C4.500
%
G90
G05
T1
X28.75Y-41.75
X40.564Y-41.681
X41.91Y-42.38
X43.332Y-39.827
X44.425Y-41.78
X45.847Y-38.964
X46.99Y-41.18
X55.22Y-33.147
X55.22Y-36.144
X55.931Y-38.887
X57.226Y-36.779
X62.535Y-29.769
X62.56Y-39.294
X62.687Y-26.543
X64.135Y-35.204
X65.278Y-36.779
X65.329Y-38.837
X67.132Y-29.947
X72.085Y-28.27
X72.212Y-36.678
X72.758Y-32.322
X73.381Y-34.341
X73.482Y-41.58
X73.838Y-27.737
X82.753Y-29.616
X82.753Y-42.38
X82.779Y-36.043
X83.541Y-42.139
X84.379Y-41.986
X84.938Y-39.116
X85.039Y-32.918
X85.471Y-41.986
X89.825Y-38.025
X91.008Y-36.906
X91.034Y-42.38
X92.525Y-40.525
X94.082Y-41.732
X94.767Y-34.29
X95.326Y-36.805
X95.326Y-39.116
X95.58Y-31.75
X97.079Y-42.38
X99.543Y-30.48
X100.254Y-41.98
X100.305Y-38.1
X104.125Y-32.525
X116.125Y-40.1
X118.364Y-31.775
X118.4Y-36.85
X121.666Y-28.575
X122.936Y-34.925
X122.936Y-41.18
X124.866Y-36.805
X124.917Y-41.58
X126.086Y-38.964
X127.356Y-41.98
X127.406Y-37.567
X127.762Y-28.575
X129.725Y-41.5
X131.496Y-38.735
X131.505Y-40.05
X131.75Y-28.525
X132.105Y-41.834
X132.918Y-27.762
X132.918Y-36.093
X134.468Y-27.584
X134.493Y-37.44
X135.1Y-40.65
X135.3Y-28.475
X135.992Y-38.76
X136.042Y-27.686
X136.881Y-28.55
X136.931Y-35.154
X137.058Y-29.921
X137.236Y-42.38
X137.643Y-33.655
X138.43Y-27.416
X139.575Y-41.375
X140.005Y-27.416
X140.45Y-29.275
X140.825Y-33.125
X141.021Y-30.505
X141.783Y-40.056
X141.935Y-42.38
X143.358Y-35.103
X143.434Y-28.55
X143.967Y-41.58
X146.525Y-28.675
X150.241Y-33.985
X150.774Y-28.702
X152.175Y-37.925
X154.25Y-28.725
X158.242Y-41.58
X158.318Y-37.897
X161.265Y-33.807
X171.075Y-40.375
X177.125Y-40.225
X181.6Y-27.975
X184.8Y-27.875
X185.826Y-26.6
X186.025Y-40.075
X191.338Y-26.2
X192.354Y-36.83
X192.354Y-42.38
X194.825Y-40.85
X195.0Y-34.5
T2
X177.165Y-32.06
X177.165Y-35.56
T3
X39.37Y-33.6
X39.37Y-36.14
X41.91Y-33.6
X41.91Y-36.14
X44.45Y-33.6
X44.45Y-36.14
X46.99Y-33.6
X46.99Y-36.14
X49.53Y-33.6
X49.53Y-36.14
T4
X186.055Y-30.48
X186.055Y-33.02
X186.055Y-35.56
X186.055Y-38.1
X188.595Y-30.48
X188.595Y-33.02
X188.595Y-35.56
X188.595Y-38.1
T5
X31.115Y-34.29
X216.535Y-34.29
M30
