%TF.GenerationSoftware,KiCad,Pcbnew,10.0.1-10.0.1~ubuntu24.04.1*%
%TF.CreationDate,2026-04-23T16:40:54-04:00*%
%TF.ProjectId,set_board_avr,7365745f-626f-4617-9264-5f6176722e6b,rev?*%
%TF.SameCoordinates,Original*%
%TF.FileFunction,Copper,L1,Top*%
%TF.FilePolarity,Positive*%
%FSLAX46Y46*%
G04 Gerber Fmt 4.6, Leading zero omitted, Abs format (unit mm)*
G04 Created by KiCad (PCBNEW 10.0.1-10.0.1~ubuntu24.04.1) date 2026-04-23 16:40:54*
%MOMM*%
%LPD*%
G01*
G04 APERTURE LIST*
G04 Aperture macros list*
%AMRoundRect*
0 Rectangle with rounded corners*
0 $1 Rounding radius*
0 $2 $3 $4 $5 $6 $7 $8 $9 X,Y pos of 4 corners*
0 Add a 4 corners polygon primitive as box body*
4,1,4,$2,$3,$4,$5,$6,$7,$8,$9,$2,$3,0*
0 Add four circle primitives for the rounded corners*
1,1,$1+$1,$2,$3*
1,1,$1+$1,$4,$5*
1,1,$1+$1,$6,$7*
1,1,$1+$1,$8,$9*
0 Add four rect primitives between the rounded corners*
20,1,$1+$1,$2,$3,$4,$5,0*
20,1,$1+$1,$4,$5,$6,$7,0*
20,1,$1+$1,$6,$7,$8,$9,0*
20,1,$1+$1,$8,$9,$2,$3,0*%
G04 Aperture macros list end*
%TA.AperFunction,SMDPad,CuDef*%
%ADD10RoundRect,0.250000X0.625000X-0.400000X0.625000X0.400000X-0.625000X0.400000X-0.625000X-0.400000X0*%
%TD*%
%TA.AperFunction,SMDPad,CuDef*%
%ADD11R,3.150000X1.000000*%
%TD*%
%TA.AperFunction,SMDPad,CuDef*%
%ADD12RoundRect,0.375000X-0.375000X0.625000X-0.375000X-0.625000X0.375000X-0.625000X0.375000X0.625000X0*%
%TD*%
%TA.AperFunction,SMDPad,CuDef*%
%ADD13RoundRect,0.500000X-1.400000X0.500000X-1.400000X-0.500000X1.400000X-0.500000X1.400000X0.500000X0*%
%TD*%
%TA.AperFunction,SMDPad,CuDef*%
%ADD14RoundRect,0.250000X0.375000X0.625000X-0.375000X0.625000X-0.375000X-0.625000X0.375000X-0.625000X0*%
%TD*%
%TA.AperFunction,SMDPad,CuDef*%
%ADD15RoundRect,0.250000X-0.650000X-0.750000X0.650000X-0.750000X0.650000X0.750000X-0.650000X0.750000X0*%
%TD*%
%TA.AperFunction,SMDPad,CuDef*%
%ADD16RoundRect,0.150000X-0.825000X-0.150000X0.825000X-0.150000X0.825000X0.150000X-0.825000X0.150000X0*%
%TD*%
%TA.AperFunction,SMDPad,CuDef*%
%ADD17RoundRect,0.150000X-0.875000X-0.150000X0.875000X-0.150000X0.875000X0.150000X-0.875000X0.150000X0*%
%TD*%
%TA.AperFunction,SMDPad,CuDef*%
%ADD18RoundRect,0.250000X-0.400000X-0.625000X0.400000X-0.625000X0.400000X0.625000X-0.400000X0.625000X0*%
%TD*%
%TA.AperFunction,SMDPad,CuDef*%
%ADD19RoundRect,0.200000X-0.750000X-0.200000X0.750000X-0.200000X0.750000X0.200000X-0.750000X0.200000X0*%
%TD*%
%TA.AperFunction,SMDPad,CuDef*%
%ADD20RoundRect,0.250000X-0.412500X-0.650000X0.412500X-0.650000X0.412500X0.650000X-0.412500X0.650000X0*%
%TD*%
%TA.AperFunction,SMDPad,CuDef*%
%ADD21RoundRect,0.250000X-0.650000X0.412500X-0.650000X-0.412500X0.650000X-0.412500X0.650000X0.412500X0*%
%TD*%
%TA.AperFunction,SMDPad,CuDef*%
%ADD22RoundRect,0.250000X0.412500X0.650000X-0.412500X0.650000X-0.412500X-0.650000X0.412500X-0.650000X0*%
%TD*%
%TA.AperFunction,ComponentPad*%
%ADD23C,9.000000*%
%TD*%
%TA.AperFunction,ComponentPad*%
%ADD24C,1.574800*%
%TD*%
%TA.AperFunction,ComponentPad*%
%ADD25R,1.574800X1.574800*%
%TD*%
%TA.AperFunction,ComponentPad*%
%ADD26R,1.700000X1.700000*%
%TD*%
%TA.AperFunction,ComponentPad*%
%ADD27C,1.700000*%
%TD*%
%TA.AperFunction,ComponentPad*%
%ADD28RoundRect,0.250000X0.550000X-0.550000X0.550000X0.550000X-0.550000X0.550000X-0.550000X-0.550000X0*%
%TD*%
%TA.AperFunction,ComponentPad*%
%ADD29C,1.600000*%
%TD*%
G04 APERTURE END LIST*
D10*
%TO.P,R14,2*%
%TO.N,/RST*%
X125095000Y-32105000D03*
%TO.P,R14,1*%
%TO.N,+3.3V*%
X125095000Y-35205000D03*
%TD*%
D11*
%TO.P,J2,1,MISO_1*%
%TO.N,/MISO*%
X111140000Y-31750000D03*
%TO.P,J2,2,VCC_2*%
%TO.N,+3.3V*%
X116190000Y-31750000D03*
%TO.P,J2,3,SCK_3*%
%TO.N,/SCK*%
X111140000Y-34290000D03*
%TO.P,J2,4,MOSI_4*%
%TO.N,/MOSI*%
X116190000Y-34290000D03*
%TO.P,J2,5,~{RST}_5*%
%TO.N,/RST*%
X111140000Y-36830000D03*
%TO.P,J2,6,GND_6*%
%TO.N,GND*%
X116190000Y-36830000D03*
%TD*%
D12*
%TO.P,U5,1,GND_1*%
%TO.N,GND*%
X61990000Y-33045000D03*
%TO.P,U5,2,VO_2*%
%TO.N,+3.3V*%
X59690000Y-33045000D03*
D13*
X59690000Y-39345000D03*
D12*
%TO.P,U5,3,VI_3*%
%TO.N,+12V*%
X57390000Y-33045000D03*
%TD*%
D14*
%TO.P,D3,1,K_1*%
%TO.N,GND*%
X165790000Y-38100000D03*
%TO.P,D3,2,A_2*%
%TO.N,Net-(D3-A)*%
X162990000Y-38100000D03*
%TD*%
%TO.P,D2,1,K_1*%
%TO.N,GND*%
X165790000Y-34290000D03*
%TO.P,D2,2,A_2*%
%TO.N,Net-(D2-A)*%
X162990000Y-34290000D03*
%TD*%
%TO.P,D1,1,K_1*%
%TO.N,GND*%
X165790000Y-30480000D03*
%TO.P,D1,2,A_2*%
%TO.N,Net-(D1-A)*%
X162990000Y-30480000D03*
%TD*%
D15*
%TO.P,Y1,1,EN_1*%
%TO.N,unconnected-(Y1-EN-Pad1)*%
X147320000Y-38100000D03*
%TO.P,Y1,2,GND_2*%
%TO.N,GND*%
X152400000Y-38100000D03*
%TO.P,Y1,3,OUT_3*%
%TO.N,Net-(U1-PA0{slash}XTAL1)*%
X152400000Y-34100000D03*
%TO.P,Y1,4,Vdd_4*%
%TO.N,+3.3V*%
X147320000Y-34100000D03*
%TD*%
D16*
%TO.P,U4,1*%
%TO.N,Net-(R3-Pad1)*%
X92840000Y-30480000D03*
%TO.P,U4,2*%
%TO.N,Net-(U1-PB4)*%
X92840000Y-31750000D03*
%TO.P,U4,3*%
%TO.N,Net-(R4-Pad1)*%
X92840000Y-33020000D03*
%TO.P,U4,4*%
%TO.N,Net-(U1-PD2)*%
X92840000Y-34290000D03*
%TO.P,U4,5*%
%TO.N,Net-(R5-Pad1)*%
X92840000Y-35560000D03*
%TO.P,U4,6*%
%TO.N,Net-(U1-PD3)*%
X92840000Y-36830000D03*
%TO.P,U4,7,GND_7*%
%TO.N,GND*%
X92840000Y-38100000D03*
%TO.P,U4,8*%
%TO.N,Net-(U1-PD4)*%
X97790000Y-38100000D03*
%TO.P,U4,9*%
%TO.N,Net-(R10-Pad2)*%
X97790000Y-36830000D03*
%TO.P,U4,10*%
%TO.N,N/C*%
X97790000Y-35560000D03*
%TO.P,U4,11*%
X97790000Y-34290000D03*
%TO.P,U4,12*%
X97790000Y-33020000D03*
%TO.P,U4,13*%
X97790000Y-31750000D03*
%TO.P,U4,14,VCC_14*%
%TO.N,+3.3V*%
X97790000Y-30480000D03*
%TD*%
D17*
%TO.P,U1,1,PA2/~{RESET}_1*%
%TO.N,/RST*%
X129765000Y-28575000D03*
%TO.P,U1,2,PD0_2*%
%TO.N,Net-(U1-PD0)*%
X129765000Y-29845000D03*
%TO.P,U1,3,PD1_3*%
%TO.N,Net-(U1-PD1)*%
X129765000Y-31115000D03*
%TO.P,U1,4,PA1/XTAL2_4*%
%TO.N,unconnected-(U1-PA1{slash}XTAL2-Pad4)*%
X129765000Y-32385000D03*
%TO.P,U1,5,PA0/XTAL1_5*%
%TO.N,Net-(U1-PA0{slash}XTAL1)*%
X129765000Y-33655000D03*
%TO.P,U1,6,PD2_6*%
%TO.N,Net-(U1-PD2)*%
X129765000Y-34925000D03*
%TO.P,U1,7,PD3_7*%
%TO.N,Net-(U1-PD3)*%
X129765000Y-36195000D03*
%TO.P,U1,8,PD4_8*%
%TO.N,Net-(U1-PD4)*%
X129765000Y-37465000D03*
%TO.P,U1,9,PD5_9*%
%TO.N,Net-(U1-PD5)*%
X129765000Y-38735000D03*
%TO.P,U1,10,GND_10*%
%TO.N,GND*%
X129765000Y-40005000D03*
%TO.P,U1,11,PD6_11*%
%TO.N,Net-(U1-PD6)*%
X139065000Y-40005000D03*
%TO.P,U1,12,PB0_12*%
%TO.N,Net-(Q1-B)*%
X139065000Y-38735000D03*
%TO.P,U1,13,PB1_13*%
%TO.N,Net-(Q2-B)*%
X139065000Y-37465000D03*
%TO.P,U1,14,PB2_14*%
%TO.N,Net-(Q3-B)*%
X139065000Y-36195000D03*
%TO.P,U1,15,PB3_15*%
%TO.N,Net-(U1-PB3)*%
X139065000Y-34925000D03*
%TO.P,U1,16,PB4_16*%
%TO.N,Net-(U1-PB4)*%
X139065000Y-33655000D03*
%TO.P,U1,17,PB5_17*%
%TO.N,/MOSI*%
X139065000Y-32385000D03*
%TO.P,U1,18,PB6_18*%
%TO.N,/MISO*%
X139065000Y-31115000D03*
%TO.P,U1,19,PB7_19*%
%TO.N,/SCK*%
X139065000Y-29845000D03*
%TO.P,U1,20,VCC_20*%
%TO.N,+3.3V*%
X139065000Y-28575000D03*
%TD*%
D18*
%TO.P,R13,1*%
%TO.N,Net-(U1-PB3)*%
X156845000Y-38100000D03*
%TO.P,R13,2*%
%TO.N,Net-(D3-A)*%
X159945000Y-38100000D03*
%TD*%
%TO.P,R12,1*%
%TO.N,+3.3V*%
X156845000Y-34290000D03*
%TO.P,R12,2*%
%TO.N,Net-(D2-A)*%
X159945000Y-34290000D03*
%TD*%
%TO.P,R11,1*%
%TO.N,+12V*%
X156845000Y-30505000D03*
%TO.P,R11,2*%
%TO.N,Net-(D1-A)*%
X159945000Y-30505000D03*
%TD*%
%TO.P,R10,1*%
%TO.N,Net-(J1-Pin_8)*%
X83895000Y-39116000D03*
%TO.P,R10,2*%
%TO.N,Net-(R10-Pad2)*%
X86995000Y-39116000D03*
%TD*%
%TO.P,R9,1*%
%TO.N,Net-(J1-Pin_7)*%
X83895000Y-35966000D03*
%TO.P,R9,2*%
%TO.N,Net-(R5-Pad1)*%
X86995000Y-35966000D03*
%TD*%
%TO.P,R8,1*%
%TO.N,Net-(J1-Pin_6)*%
X83895000Y-32816000D03*
%TO.P,R8,2*%
%TO.N,Net-(R4-Pad1)*%
X86995000Y-32816000D03*
%TD*%
%TO.P,R7,1*%
%TO.N,Net-(J1-Pin_5)*%
X83895000Y-29666000D03*
%TO.P,R7,2*%
%TO.N,Net-(R3-Pad1)*%
X86995000Y-29666000D03*
%TD*%
%TO.P,R6,1*%
%TO.N,Net-(R10-Pad2)*%
X78405000Y-39116000D03*
%TO.P,R6,2*%
%TO.N,GND*%
X81505000Y-39116000D03*
%TD*%
%TO.P,R5,1*%
%TO.N,Net-(R5-Pad1)*%
X78405000Y-35966000D03*
%TO.P,R5,2*%
%TO.N,GND*%
X81505000Y-35966000D03*
%TD*%
%TO.P,R4,1*%
%TO.N,Net-(R4-Pad1)*%
X78405000Y-32766000D03*
%TO.P,R4,2*%
%TO.N,GND*%
X81505000Y-32766000D03*
%TD*%
%TO.P,R3,1*%
%TO.N,Net-(R3-Pad1)*%
X78405000Y-29591000D03*
%TO.P,R3,2*%
%TO.N,GND*%
X81505000Y-29591000D03*
%TD*%
D19*
%TO.P,Q3,1,C_1*%
%TO.N,Net-(J1-Pin_4)*%
X69390000Y-37785000D03*
%TO.P,Q3,2,B_2*%
%TO.N,Net-(Q3-B)*%
X69390000Y-39685000D03*
%TO.P,Q3,3,E_3*%
%TO.N,GND*%
X72390000Y-38735000D03*
%TD*%
%TO.P,Q2,1,C_1*%
%TO.N,Net-(J1-Pin_3)*%
X69390000Y-33340000D03*
%TO.P,Q2,2,B_2*%
%TO.N,Net-(Q2-B)*%
X69390000Y-35240000D03*
%TO.P,Q2,3,E_3*%
%TO.N,GND*%
X72390000Y-34290000D03*
%TD*%
%TO.P,Q1,1,C_1*%
%TO.N,Net-(J1-Pin_2)*%
X69390000Y-28870000D03*
%TO.P,Q1,2,B_2*%
%TO.N,Net-(Q1-B)*%
X69390000Y-30770000D03*
%TO.P,Q1,3,E_3*%
%TO.N,GND*%
X72390000Y-29820000D03*
%TD*%
D20*
%TO.P,C7,1*%
%TO.N,+3.3V*%
X148297500Y-30582500D03*
%TO.P,C7,2*%
%TO.N,GND*%
X151422500Y-30582500D03*
%TD*%
D21*
%TO.P,C6,1*%
%TO.N,+3.3V*%
X143510000Y-30187500D03*
%TO.P,C6,2*%
%TO.N,GND*%
X143510000Y-33312500D03*
%TD*%
%TO.P,C5,1*%
%TO.N,+3.3V*%
X101600000Y-32092500D03*
%TO.P,C5,2*%
%TO.N,GND*%
X101600000Y-35217500D03*
%TD*%
D22*
%TO.P,C4,1*%
%TO.N,+12V*%
X46355000Y-39370000D03*
%TO.P,C4,2*%
%TO.N,GND*%
X43230000Y-39370000D03*
%TD*%
%TO.P,C2,1*%
%TO.N,+12V*%
X58077500Y-29845000D03*
%TO.P,C2,2*%
%TO.N,GND*%
X54952500Y-29845000D03*
%TD*%
D20*
%TO.P,C1,1*%
%TO.N,+3.3V*%
X61302500Y-29845000D03*
%TO.P,C1,2*%
%TO.N,GND*%
X64427500Y-29845000D03*
%TD*%
D23*
%TO.P,H2,1,1_1*%
%TO.N,unconnected-(H2-Pad1)*%
X216535000Y-34290000D03*
%TD*%
%TO.P,H1,1,1_1*%
%TO.N,unconnected-(H1-Pad1)*%
X31115000Y-34290000D03*
%TD*%
D24*
%TO.P,U2,4,GND_4*%
%TO.N,GND*%
X188595000Y-30480000D03*
%TO.P,U2,3,IO2_3*%
%TO.N,unconnected-(U2-IO2-Pad3)*%
X188595000Y-33020000D03*
%TO.P,U2,2,IO0_2*%
%TO.N,unconnected-(U2-IO0-Pad2)*%
X188595000Y-35560000D03*
D25*
%TO.P,U2,1,RXD_1*%
%TO.N,Net-(U1-PD0)*%
X188595000Y-38100000D03*
D24*
%TO.P,U2,8,TXD_8*%
%TO.N,Net-(U1-PD1)*%
X186055000Y-30480000D03*
%TO.P,U2,7,EN_7*%
%TO.N,Net-(U1-PD5)*%
X186055000Y-33020000D03*
%TO.P,U2,6,RST_6*%
%TO.N,Net-(U1-PD6)*%
X186055000Y-35560000D03*
%TO.P,U2,5,VCC_5*%
%TO.N,+3.3V*%
X186055000Y-38100000D03*
%TD*%
D26*
%TO.P,J1,1,Pin_1_1*%
%TO.N,+12V*%
X49530000Y-36140000D03*
D27*
%TO.P,J1,2,Pin_2_2*%
%TO.N,Net-(J1-Pin_2)*%
X49530000Y-33600000D03*
%TO.P,J1,3,Pin_3_3*%
%TO.N,Net-(J1-Pin_3)*%
X46990000Y-36140000D03*
%TO.P,J1,4,Pin_4_4*%
%TO.N,Net-(J1-Pin_4)*%
X46990000Y-33600000D03*
%TO.P,J1,5,Pin_5_5*%
%TO.N,Net-(J1-Pin_5)*%
X44450000Y-36140000D03*
%TO.P,J1,6,Pin_6_6*%
%TO.N,Net-(J1-Pin_6)*%
X44450000Y-33600000D03*
%TO.P,J1,7,Pin_7_7*%
%TO.N,Net-(J1-Pin_7)*%
X41910000Y-36140000D03*
%TO.P,J1,8,Pin_8_8*%
%TO.N,Net-(J1-Pin_8)*%
X41910000Y-33600000D03*
%TO.P,J1,9,Pin_9_9*%
%TO.N,GND*%
X39370000Y-36140000D03*
%TO.P,J1,10,Pin_10_10*%
X39370000Y-33600000D03*
%TD*%
D28*
%TO.P,C3,1*%
%TO.N,+3.3V*%
X177165000Y-35560000D03*
D29*
%TO.P,C3,2*%
%TO.N,GND*%
X177165000Y-32060000D03*
%TD*%
M02*
