%TF.GenerationSoftware,KiCad,Pcbnew,10.0.1-10.0.1~ubuntu24.04.1*%
%TF.CreationDate,2026-04-23T16:40:54-04:00*%
%TF.ProjectId,set_board_avr,7365745f-626f-4617-9264-5f6176722e6b,rev?*%
%TF.SameCoordinates,Original*%
%TF.FileFunction,Legend,Top*%
%TF.FilePolarity,Positive*%
%FSLAX46Y46*%
G04 Gerber Fmt 4.6, Leading zero omitted, Abs format (unit mm)*
G04 Created by KiCad (PCBNEW 10.0.1-10.0.1~ubuntu24.04.1) date 2026-04-23 16:40:54*
%MOMM*%
%LPD*%
G01*
G04 APERTURE LIST*
%ADD10C,0.150000*%
%ADD11C,0.100000*%
%ADD12C,0.120000*%
%ADD13C,0.508000*%
G04 APERTURE END LIST*
D10*
X123719819Y-34297857D02*
X123243628Y-34631190D01*
X123719819Y-34869285D02*
X122719819Y-34869285D01*
X122719819Y-34869285D02*
X122719819Y-34488333D01*
X122719819Y-34488333D02*
X122767438Y-34393095D01*
X122767438Y-34393095D02*
X122815057Y-34345476D01*
X122815057Y-34345476D02*
X122910295Y-34297857D01*
X122910295Y-34297857D02*
X123053152Y-34297857D01*
X123053152Y-34297857D02*
X123148390Y-34345476D01*
X123148390Y-34345476D02*
X123196009Y-34393095D01*
X123196009Y-34393095D02*
X123243628Y-34488333D01*
X123243628Y-34488333D02*
X123243628Y-34869285D01*
X123719819Y-33345476D02*
X123719819Y-33916904D01*
X123719819Y-33631190D02*
X122719819Y-33631190D01*
X122719819Y-33631190D02*
X122862676Y-33726428D01*
X122862676Y-33726428D02*
X122957914Y-33821666D01*
X122957914Y-33821666D02*
X123005533Y-33916904D01*
X123053152Y-32488333D02*
X123719819Y-32488333D01*
X122672200Y-32726428D02*
X123386485Y-32964523D01*
X123386485Y-32964523D02*
X123386485Y-32345476D01*
X113331666Y-28824819D02*
X113331666Y-29539104D01*
X113331666Y-29539104D02*
X113284047Y-29681961D01*
X113284047Y-29681961D02*
X113188809Y-29777200D01*
X113188809Y-29777200D02*
X113045952Y-29824819D01*
X113045952Y-29824819D02*
X112950714Y-29824819D01*
X113760238Y-28920057D02*
X113807857Y-28872438D01*
X113807857Y-28872438D02*
X113903095Y-28824819D01*
X113903095Y-28824819D02*
X114141190Y-28824819D01*
X114141190Y-28824819D02*
X114236428Y-28872438D01*
X114236428Y-28872438D02*
X114284047Y-28920057D01*
X114284047Y-28920057D02*
X114331666Y-29015295D01*
X114331666Y-29015295D02*
X114331666Y-29110533D01*
X114331666Y-29110533D02*
X114284047Y-29253390D01*
X114284047Y-29253390D02*
X113712619Y-29824819D01*
X113712619Y-29824819D02*
X114331666Y-29824819D01*
X63644819Y-36956904D02*
X64454342Y-36956904D01*
X64454342Y-36956904D02*
X64549580Y-36909285D01*
X64549580Y-36909285D02*
X64597200Y-36861666D01*
X64597200Y-36861666D02*
X64644819Y-36766428D01*
X64644819Y-36766428D02*
X64644819Y-36575952D01*
X64644819Y-36575952D02*
X64597200Y-36480714D01*
X64597200Y-36480714D02*
X64549580Y-36433095D01*
X64549580Y-36433095D02*
X64454342Y-36385476D01*
X64454342Y-36385476D02*
X63644819Y-36385476D01*
X63644819Y-35433095D02*
X63644819Y-35909285D01*
X63644819Y-35909285D02*
X64121009Y-35956904D01*
X64121009Y-35956904D02*
X64073390Y-35909285D01*
X64073390Y-35909285D02*
X64025771Y-35814047D01*
X64025771Y-35814047D02*
X64025771Y-35575952D01*
X64025771Y-35575952D02*
X64073390Y-35480714D01*
X64073390Y-35480714D02*
X64121009Y-35433095D01*
X64121009Y-35433095D02*
X64216247Y-35385476D01*
X64216247Y-35385476D02*
X64454342Y-35385476D01*
X64454342Y-35385476D02*
X64549580Y-35433095D01*
X64549580Y-35433095D02*
X64597200Y-35480714D01*
X64597200Y-35480714D02*
X64644819Y-35575952D01*
X64644819Y-35575952D02*
X64644819Y-35814047D01*
X64644819Y-35814047D02*
X64597200Y-35909285D01*
X64597200Y-35909285D02*
X64549580Y-35956904D01*
X163651905Y-40384819D02*
X163651905Y-39384819D01*
X163651905Y-39384819D02*
X163890000Y-39384819D01*
X163890000Y-39384819D02*
X164032857Y-39432438D01*
X164032857Y-39432438D02*
X164128095Y-39527676D01*
X164128095Y-39527676D02*
X164175714Y-39622914D01*
X164175714Y-39622914D02*
X164223333Y-39813390D01*
X164223333Y-39813390D02*
X164223333Y-39956247D01*
X164223333Y-39956247D02*
X164175714Y-40146723D01*
X164175714Y-40146723D02*
X164128095Y-40241961D01*
X164128095Y-40241961D02*
X164032857Y-40337200D01*
X164032857Y-40337200D02*
X163890000Y-40384819D01*
X163890000Y-40384819D02*
X163651905Y-40384819D01*
X164556667Y-39384819D02*
X165175714Y-39384819D01*
X165175714Y-39384819D02*
X164842381Y-39765771D01*
X164842381Y-39765771D02*
X164985238Y-39765771D01*
X164985238Y-39765771D02*
X165080476Y-39813390D01*
X165080476Y-39813390D02*
X165128095Y-39861009D01*
X165128095Y-39861009D02*
X165175714Y-39956247D01*
X165175714Y-39956247D02*
X165175714Y-40194342D01*
X165175714Y-40194342D02*
X165128095Y-40289580D01*
X165128095Y-40289580D02*
X165080476Y-40337200D01*
X165080476Y-40337200D02*
X164985238Y-40384819D01*
X164985238Y-40384819D02*
X164699524Y-40384819D01*
X164699524Y-40384819D02*
X164604286Y-40337200D01*
X164604286Y-40337200D02*
X164556667Y-40289580D01*
X163651905Y-36574819D02*
X163651905Y-35574819D01*
X163651905Y-35574819D02*
X163890000Y-35574819D01*
X163890000Y-35574819D02*
X164032857Y-35622438D01*
X164032857Y-35622438D02*
X164128095Y-35717676D01*
X164128095Y-35717676D02*
X164175714Y-35812914D01*
X164175714Y-35812914D02*
X164223333Y-36003390D01*
X164223333Y-36003390D02*
X164223333Y-36146247D01*
X164223333Y-36146247D02*
X164175714Y-36336723D01*
X164175714Y-36336723D02*
X164128095Y-36431961D01*
X164128095Y-36431961D02*
X164032857Y-36527200D01*
X164032857Y-36527200D02*
X163890000Y-36574819D01*
X163890000Y-36574819D02*
X163651905Y-36574819D01*
X164604286Y-35670057D02*
X164651905Y-35622438D01*
X164651905Y-35622438D02*
X164747143Y-35574819D01*
X164747143Y-35574819D02*
X164985238Y-35574819D01*
X164985238Y-35574819D02*
X165080476Y-35622438D01*
X165080476Y-35622438D02*
X165128095Y-35670057D01*
X165128095Y-35670057D02*
X165175714Y-35765295D01*
X165175714Y-35765295D02*
X165175714Y-35860533D01*
X165175714Y-35860533D02*
X165128095Y-36003390D01*
X165128095Y-36003390D02*
X164556667Y-36574819D01*
X164556667Y-36574819D02*
X165175714Y-36574819D01*
X163651905Y-32764819D02*
X163651905Y-31764819D01*
X163651905Y-31764819D02*
X163890000Y-31764819D01*
X163890000Y-31764819D02*
X164032857Y-31812438D01*
X164032857Y-31812438D02*
X164128095Y-31907676D01*
X164128095Y-31907676D02*
X164175714Y-32002914D01*
X164175714Y-32002914D02*
X164223333Y-32193390D01*
X164223333Y-32193390D02*
X164223333Y-32336247D01*
X164223333Y-32336247D02*
X164175714Y-32526723D01*
X164175714Y-32526723D02*
X164128095Y-32621961D01*
X164128095Y-32621961D02*
X164032857Y-32717200D01*
X164032857Y-32717200D02*
X163890000Y-32764819D01*
X163890000Y-32764819D02*
X163651905Y-32764819D01*
X165175714Y-32764819D02*
X164604286Y-32764819D01*
X164890000Y-32764819D02*
X164890000Y-31764819D01*
X164890000Y-31764819D02*
X164794762Y-31907676D01*
X164794762Y-31907676D02*
X164699524Y-32002914D01*
X164699524Y-32002914D02*
X164604286Y-32050533D01*
X149383809Y-32128628D02*
X149383809Y-32604819D01*
X149050476Y-31604819D02*
X149383809Y-32128628D01*
X149383809Y-32128628D02*
X149717142Y-31604819D01*
X150574285Y-32604819D02*
X150002857Y-32604819D01*
X150288571Y-32604819D02*
X150288571Y-31604819D01*
X150288571Y-31604819D02*
X150193333Y-31747676D01*
X150193333Y-31747676D02*
X150098095Y-31842914D01*
X150098095Y-31842914D02*
X150002857Y-31890533D01*
X94553095Y-28464819D02*
X94553095Y-29274342D01*
X94553095Y-29274342D02*
X94600714Y-29369580D01*
X94600714Y-29369580D02*
X94648333Y-29417200D01*
X94648333Y-29417200D02*
X94743571Y-29464819D01*
X94743571Y-29464819D02*
X94934047Y-29464819D01*
X94934047Y-29464819D02*
X95029285Y-29417200D01*
X95029285Y-29417200D02*
X95076904Y-29369580D01*
X95076904Y-29369580D02*
X95124523Y-29274342D01*
X95124523Y-29274342D02*
X95124523Y-28464819D01*
X96029285Y-28798152D02*
X96029285Y-29464819D01*
X95791190Y-28417200D02*
X95553095Y-29131485D01*
X95553095Y-29131485D02*
X96172142Y-29131485D01*
X129208095Y-25489819D02*
X129208095Y-26299342D01*
X129208095Y-26299342D02*
X129255714Y-26394580D01*
X129255714Y-26394580D02*
X129303333Y-26442200D01*
X129303333Y-26442200D02*
X129398571Y-26489819D01*
X129398571Y-26489819D02*
X129589047Y-26489819D01*
X129589047Y-26489819D02*
X129684285Y-26442200D01*
X129684285Y-26442200D02*
X129731904Y-26394580D01*
X129731904Y-26394580D02*
X129779523Y-26299342D01*
X129779523Y-26299342D02*
X129779523Y-25489819D01*
X130779523Y-26489819D02*
X130208095Y-26489819D01*
X130493809Y-26489819D02*
X130493809Y-25489819D01*
X130493809Y-25489819D02*
X130398571Y-25632676D01*
X130398571Y-25632676D02*
X130303333Y-25727914D01*
X130303333Y-25727914D02*
X130208095Y-25775533D01*
X157752142Y-36724819D02*
X157418809Y-36248628D01*
X157180714Y-36724819D02*
X157180714Y-35724819D01*
X157180714Y-35724819D02*
X157561666Y-35724819D01*
X157561666Y-35724819D02*
X157656904Y-35772438D01*
X157656904Y-35772438D02*
X157704523Y-35820057D01*
X157704523Y-35820057D02*
X157752142Y-35915295D01*
X157752142Y-35915295D02*
X157752142Y-36058152D01*
X157752142Y-36058152D02*
X157704523Y-36153390D01*
X157704523Y-36153390D02*
X157656904Y-36201009D01*
X157656904Y-36201009D02*
X157561666Y-36248628D01*
X157561666Y-36248628D02*
X157180714Y-36248628D01*
X158704523Y-36724819D02*
X158133095Y-36724819D01*
X158418809Y-36724819D02*
X158418809Y-35724819D01*
X158418809Y-35724819D02*
X158323571Y-35867676D01*
X158323571Y-35867676D02*
X158228333Y-35962914D01*
X158228333Y-35962914D02*
X158133095Y-36010533D01*
X159037857Y-35724819D02*
X159656904Y-35724819D01*
X159656904Y-35724819D02*
X159323571Y-36105771D01*
X159323571Y-36105771D02*
X159466428Y-36105771D01*
X159466428Y-36105771D02*
X159561666Y-36153390D01*
X159561666Y-36153390D02*
X159609285Y-36201009D01*
X159609285Y-36201009D02*
X159656904Y-36296247D01*
X159656904Y-36296247D02*
X159656904Y-36534342D01*
X159656904Y-36534342D02*
X159609285Y-36629580D01*
X159609285Y-36629580D02*
X159561666Y-36677200D01*
X159561666Y-36677200D02*
X159466428Y-36724819D01*
X159466428Y-36724819D02*
X159180714Y-36724819D01*
X159180714Y-36724819D02*
X159085476Y-36677200D01*
X159085476Y-36677200D02*
X159037857Y-36629580D01*
X157752142Y-32914819D02*
X157418809Y-32438628D01*
X157180714Y-32914819D02*
X157180714Y-31914819D01*
X157180714Y-31914819D02*
X157561666Y-31914819D01*
X157561666Y-31914819D02*
X157656904Y-31962438D01*
X157656904Y-31962438D02*
X157704523Y-32010057D01*
X157704523Y-32010057D02*
X157752142Y-32105295D01*
X157752142Y-32105295D02*
X157752142Y-32248152D01*
X157752142Y-32248152D02*
X157704523Y-32343390D01*
X157704523Y-32343390D02*
X157656904Y-32391009D01*
X157656904Y-32391009D02*
X157561666Y-32438628D01*
X157561666Y-32438628D02*
X157180714Y-32438628D01*
X158704523Y-32914819D02*
X158133095Y-32914819D01*
X158418809Y-32914819D02*
X158418809Y-31914819D01*
X158418809Y-31914819D02*
X158323571Y-32057676D01*
X158323571Y-32057676D02*
X158228333Y-32152914D01*
X158228333Y-32152914D02*
X158133095Y-32200533D01*
X159085476Y-32010057D02*
X159133095Y-31962438D01*
X159133095Y-31962438D02*
X159228333Y-31914819D01*
X159228333Y-31914819D02*
X159466428Y-31914819D01*
X159466428Y-31914819D02*
X159561666Y-31962438D01*
X159561666Y-31962438D02*
X159609285Y-32010057D01*
X159609285Y-32010057D02*
X159656904Y-32105295D01*
X159656904Y-32105295D02*
X159656904Y-32200533D01*
X159656904Y-32200533D02*
X159609285Y-32343390D01*
X159609285Y-32343390D02*
X159037857Y-32914819D01*
X159037857Y-32914819D02*
X159656904Y-32914819D01*
X157752142Y-29129819D02*
X157418809Y-28653628D01*
X157180714Y-29129819D02*
X157180714Y-28129819D01*
X157180714Y-28129819D02*
X157561666Y-28129819D01*
X157561666Y-28129819D02*
X157656904Y-28177438D01*
X157656904Y-28177438D02*
X157704523Y-28225057D01*
X157704523Y-28225057D02*
X157752142Y-28320295D01*
X157752142Y-28320295D02*
X157752142Y-28463152D01*
X157752142Y-28463152D02*
X157704523Y-28558390D01*
X157704523Y-28558390D02*
X157656904Y-28606009D01*
X157656904Y-28606009D02*
X157561666Y-28653628D01*
X157561666Y-28653628D02*
X157180714Y-28653628D01*
X158704523Y-29129819D02*
X158133095Y-29129819D01*
X158418809Y-29129819D02*
X158418809Y-28129819D01*
X158418809Y-28129819D02*
X158323571Y-28272676D01*
X158323571Y-28272676D02*
X158228333Y-28367914D01*
X158228333Y-28367914D02*
X158133095Y-28415533D01*
X159656904Y-29129819D02*
X159085476Y-29129819D01*
X159371190Y-29129819D02*
X159371190Y-28129819D01*
X159371190Y-28129819D02*
X159275952Y-28272676D01*
X159275952Y-28272676D02*
X159180714Y-28367914D01*
X159180714Y-28367914D02*
X159085476Y-28415533D01*
X84802142Y-37740819D02*
X84468809Y-37264628D01*
X84230714Y-37740819D02*
X84230714Y-36740819D01*
X84230714Y-36740819D02*
X84611666Y-36740819D01*
X84611666Y-36740819D02*
X84706904Y-36788438D01*
X84706904Y-36788438D02*
X84754523Y-36836057D01*
X84754523Y-36836057D02*
X84802142Y-36931295D01*
X84802142Y-36931295D02*
X84802142Y-37074152D01*
X84802142Y-37074152D02*
X84754523Y-37169390D01*
X84754523Y-37169390D02*
X84706904Y-37217009D01*
X84706904Y-37217009D02*
X84611666Y-37264628D01*
X84611666Y-37264628D02*
X84230714Y-37264628D01*
X85754523Y-37740819D02*
X85183095Y-37740819D01*
X85468809Y-37740819D02*
X85468809Y-36740819D01*
X85468809Y-36740819D02*
X85373571Y-36883676D01*
X85373571Y-36883676D02*
X85278333Y-36978914D01*
X85278333Y-36978914D02*
X85183095Y-37026533D01*
X86373571Y-36740819D02*
X86468809Y-36740819D01*
X86468809Y-36740819D02*
X86564047Y-36788438D01*
X86564047Y-36788438D02*
X86611666Y-36836057D01*
X86611666Y-36836057D02*
X86659285Y-36931295D01*
X86659285Y-36931295D02*
X86706904Y-37121771D01*
X86706904Y-37121771D02*
X86706904Y-37359866D01*
X86706904Y-37359866D02*
X86659285Y-37550342D01*
X86659285Y-37550342D02*
X86611666Y-37645580D01*
X86611666Y-37645580D02*
X86564047Y-37693200D01*
X86564047Y-37693200D02*
X86468809Y-37740819D01*
X86468809Y-37740819D02*
X86373571Y-37740819D01*
X86373571Y-37740819D02*
X86278333Y-37693200D01*
X86278333Y-37693200D02*
X86230714Y-37645580D01*
X86230714Y-37645580D02*
X86183095Y-37550342D01*
X86183095Y-37550342D02*
X86135476Y-37359866D01*
X86135476Y-37359866D02*
X86135476Y-37121771D01*
X86135476Y-37121771D02*
X86183095Y-36931295D01*
X86183095Y-36931295D02*
X86230714Y-36836057D01*
X86230714Y-36836057D02*
X86278333Y-36788438D01*
X86278333Y-36788438D02*
X86373571Y-36740819D01*
X85278333Y-34590819D02*
X84945000Y-34114628D01*
X84706905Y-34590819D02*
X84706905Y-33590819D01*
X84706905Y-33590819D02*
X85087857Y-33590819D01*
X85087857Y-33590819D02*
X85183095Y-33638438D01*
X85183095Y-33638438D02*
X85230714Y-33686057D01*
X85230714Y-33686057D02*
X85278333Y-33781295D01*
X85278333Y-33781295D02*
X85278333Y-33924152D01*
X85278333Y-33924152D02*
X85230714Y-34019390D01*
X85230714Y-34019390D02*
X85183095Y-34067009D01*
X85183095Y-34067009D02*
X85087857Y-34114628D01*
X85087857Y-34114628D02*
X84706905Y-34114628D01*
X85754524Y-34590819D02*
X85945000Y-34590819D01*
X85945000Y-34590819D02*
X86040238Y-34543200D01*
X86040238Y-34543200D02*
X86087857Y-34495580D01*
X86087857Y-34495580D02*
X86183095Y-34352723D01*
X86183095Y-34352723D02*
X86230714Y-34162247D01*
X86230714Y-34162247D02*
X86230714Y-33781295D01*
X86230714Y-33781295D02*
X86183095Y-33686057D01*
X86183095Y-33686057D02*
X86135476Y-33638438D01*
X86135476Y-33638438D02*
X86040238Y-33590819D01*
X86040238Y-33590819D02*
X85849762Y-33590819D01*
X85849762Y-33590819D02*
X85754524Y-33638438D01*
X85754524Y-33638438D02*
X85706905Y-33686057D01*
X85706905Y-33686057D02*
X85659286Y-33781295D01*
X85659286Y-33781295D02*
X85659286Y-34019390D01*
X85659286Y-34019390D02*
X85706905Y-34114628D01*
X85706905Y-34114628D02*
X85754524Y-34162247D01*
X85754524Y-34162247D02*
X85849762Y-34209866D01*
X85849762Y-34209866D02*
X86040238Y-34209866D01*
X86040238Y-34209866D02*
X86135476Y-34162247D01*
X86135476Y-34162247D02*
X86183095Y-34114628D01*
X86183095Y-34114628D02*
X86230714Y-34019390D01*
X85278333Y-31440819D02*
X84945000Y-30964628D01*
X84706905Y-31440819D02*
X84706905Y-30440819D01*
X84706905Y-30440819D02*
X85087857Y-30440819D01*
X85087857Y-30440819D02*
X85183095Y-30488438D01*
X85183095Y-30488438D02*
X85230714Y-30536057D01*
X85230714Y-30536057D02*
X85278333Y-30631295D01*
X85278333Y-30631295D02*
X85278333Y-30774152D01*
X85278333Y-30774152D02*
X85230714Y-30869390D01*
X85230714Y-30869390D02*
X85183095Y-30917009D01*
X85183095Y-30917009D02*
X85087857Y-30964628D01*
X85087857Y-30964628D02*
X84706905Y-30964628D01*
X85849762Y-30869390D02*
X85754524Y-30821771D01*
X85754524Y-30821771D02*
X85706905Y-30774152D01*
X85706905Y-30774152D02*
X85659286Y-30678914D01*
X85659286Y-30678914D02*
X85659286Y-30631295D01*
X85659286Y-30631295D02*
X85706905Y-30536057D01*
X85706905Y-30536057D02*
X85754524Y-30488438D01*
X85754524Y-30488438D02*
X85849762Y-30440819D01*
X85849762Y-30440819D02*
X86040238Y-30440819D01*
X86040238Y-30440819D02*
X86135476Y-30488438D01*
X86135476Y-30488438D02*
X86183095Y-30536057D01*
X86183095Y-30536057D02*
X86230714Y-30631295D01*
X86230714Y-30631295D02*
X86230714Y-30678914D01*
X86230714Y-30678914D02*
X86183095Y-30774152D01*
X86183095Y-30774152D02*
X86135476Y-30821771D01*
X86135476Y-30821771D02*
X86040238Y-30869390D01*
X86040238Y-30869390D02*
X85849762Y-30869390D01*
X85849762Y-30869390D02*
X85754524Y-30917009D01*
X85754524Y-30917009D02*
X85706905Y-30964628D01*
X85706905Y-30964628D02*
X85659286Y-31059866D01*
X85659286Y-31059866D02*
X85659286Y-31250342D01*
X85659286Y-31250342D02*
X85706905Y-31345580D01*
X85706905Y-31345580D02*
X85754524Y-31393200D01*
X85754524Y-31393200D02*
X85849762Y-31440819D01*
X85849762Y-31440819D02*
X86040238Y-31440819D01*
X86040238Y-31440819D02*
X86135476Y-31393200D01*
X86135476Y-31393200D02*
X86183095Y-31345580D01*
X86183095Y-31345580D02*
X86230714Y-31250342D01*
X86230714Y-31250342D02*
X86230714Y-31059866D01*
X86230714Y-31059866D02*
X86183095Y-30964628D01*
X86183095Y-30964628D02*
X86135476Y-30917009D01*
X86135476Y-30917009D02*
X86040238Y-30869390D01*
X85278333Y-28290819D02*
X84945000Y-27814628D01*
X84706905Y-28290819D02*
X84706905Y-27290819D01*
X84706905Y-27290819D02*
X85087857Y-27290819D01*
X85087857Y-27290819D02*
X85183095Y-27338438D01*
X85183095Y-27338438D02*
X85230714Y-27386057D01*
X85230714Y-27386057D02*
X85278333Y-27481295D01*
X85278333Y-27481295D02*
X85278333Y-27624152D01*
X85278333Y-27624152D02*
X85230714Y-27719390D01*
X85230714Y-27719390D02*
X85183095Y-27767009D01*
X85183095Y-27767009D02*
X85087857Y-27814628D01*
X85087857Y-27814628D02*
X84706905Y-27814628D01*
X85611667Y-27290819D02*
X86278333Y-27290819D01*
X86278333Y-27290819D02*
X85849762Y-28290819D01*
X79788333Y-37740819D02*
X79455000Y-37264628D01*
X79216905Y-37740819D02*
X79216905Y-36740819D01*
X79216905Y-36740819D02*
X79597857Y-36740819D01*
X79597857Y-36740819D02*
X79693095Y-36788438D01*
X79693095Y-36788438D02*
X79740714Y-36836057D01*
X79740714Y-36836057D02*
X79788333Y-36931295D01*
X79788333Y-36931295D02*
X79788333Y-37074152D01*
X79788333Y-37074152D02*
X79740714Y-37169390D01*
X79740714Y-37169390D02*
X79693095Y-37217009D01*
X79693095Y-37217009D02*
X79597857Y-37264628D01*
X79597857Y-37264628D02*
X79216905Y-37264628D01*
X80645476Y-36740819D02*
X80455000Y-36740819D01*
X80455000Y-36740819D02*
X80359762Y-36788438D01*
X80359762Y-36788438D02*
X80312143Y-36836057D01*
X80312143Y-36836057D02*
X80216905Y-36978914D01*
X80216905Y-36978914D02*
X80169286Y-37169390D01*
X80169286Y-37169390D02*
X80169286Y-37550342D01*
X80169286Y-37550342D02*
X80216905Y-37645580D01*
X80216905Y-37645580D02*
X80264524Y-37693200D01*
X80264524Y-37693200D02*
X80359762Y-37740819D01*
X80359762Y-37740819D02*
X80550238Y-37740819D01*
X80550238Y-37740819D02*
X80645476Y-37693200D01*
X80645476Y-37693200D02*
X80693095Y-37645580D01*
X80693095Y-37645580D02*
X80740714Y-37550342D01*
X80740714Y-37550342D02*
X80740714Y-37312247D01*
X80740714Y-37312247D02*
X80693095Y-37217009D01*
X80693095Y-37217009D02*
X80645476Y-37169390D01*
X80645476Y-37169390D02*
X80550238Y-37121771D01*
X80550238Y-37121771D02*
X80359762Y-37121771D01*
X80359762Y-37121771D02*
X80264524Y-37169390D01*
X80264524Y-37169390D02*
X80216905Y-37217009D01*
X80216905Y-37217009D02*
X80169286Y-37312247D01*
X79788333Y-34590819D02*
X79455000Y-34114628D01*
X79216905Y-34590819D02*
X79216905Y-33590819D01*
X79216905Y-33590819D02*
X79597857Y-33590819D01*
X79597857Y-33590819D02*
X79693095Y-33638438D01*
X79693095Y-33638438D02*
X79740714Y-33686057D01*
X79740714Y-33686057D02*
X79788333Y-33781295D01*
X79788333Y-33781295D02*
X79788333Y-33924152D01*
X79788333Y-33924152D02*
X79740714Y-34019390D01*
X79740714Y-34019390D02*
X79693095Y-34067009D01*
X79693095Y-34067009D02*
X79597857Y-34114628D01*
X79597857Y-34114628D02*
X79216905Y-34114628D01*
X80693095Y-33590819D02*
X80216905Y-33590819D01*
X80216905Y-33590819D02*
X80169286Y-34067009D01*
X80169286Y-34067009D02*
X80216905Y-34019390D01*
X80216905Y-34019390D02*
X80312143Y-33971771D01*
X80312143Y-33971771D02*
X80550238Y-33971771D01*
X80550238Y-33971771D02*
X80645476Y-34019390D01*
X80645476Y-34019390D02*
X80693095Y-34067009D01*
X80693095Y-34067009D02*
X80740714Y-34162247D01*
X80740714Y-34162247D02*
X80740714Y-34400342D01*
X80740714Y-34400342D02*
X80693095Y-34495580D01*
X80693095Y-34495580D02*
X80645476Y-34543200D01*
X80645476Y-34543200D02*
X80550238Y-34590819D01*
X80550238Y-34590819D02*
X80312143Y-34590819D01*
X80312143Y-34590819D02*
X80216905Y-34543200D01*
X80216905Y-34543200D02*
X80169286Y-34495580D01*
X79788333Y-31390819D02*
X79455000Y-30914628D01*
X79216905Y-31390819D02*
X79216905Y-30390819D01*
X79216905Y-30390819D02*
X79597857Y-30390819D01*
X79597857Y-30390819D02*
X79693095Y-30438438D01*
X79693095Y-30438438D02*
X79740714Y-30486057D01*
X79740714Y-30486057D02*
X79788333Y-30581295D01*
X79788333Y-30581295D02*
X79788333Y-30724152D01*
X79788333Y-30724152D02*
X79740714Y-30819390D01*
X79740714Y-30819390D02*
X79693095Y-30867009D01*
X79693095Y-30867009D02*
X79597857Y-30914628D01*
X79597857Y-30914628D02*
X79216905Y-30914628D01*
X80645476Y-30724152D02*
X80645476Y-31390819D01*
X80407381Y-30343200D02*
X80169286Y-31057485D01*
X80169286Y-31057485D02*
X80788333Y-31057485D01*
X79788333Y-28215819D02*
X79455000Y-27739628D01*
X79216905Y-28215819D02*
X79216905Y-27215819D01*
X79216905Y-27215819D02*
X79597857Y-27215819D01*
X79597857Y-27215819D02*
X79693095Y-27263438D01*
X79693095Y-27263438D02*
X79740714Y-27311057D01*
X79740714Y-27311057D02*
X79788333Y-27406295D01*
X79788333Y-27406295D02*
X79788333Y-27549152D01*
X79788333Y-27549152D02*
X79740714Y-27644390D01*
X79740714Y-27644390D02*
X79693095Y-27692009D01*
X79693095Y-27692009D02*
X79597857Y-27739628D01*
X79597857Y-27739628D02*
X79216905Y-27739628D01*
X80121667Y-27215819D02*
X80740714Y-27215819D01*
X80740714Y-27215819D02*
X80407381Y-27596771D01*
X80407381Y-27596771D02*
X80550238Y-27596771D01*
X80550238Y-27596771D02*
X80645476Y-27644390D01*
X80645476Y-27644390D02*
X80693095Y-27692009D01*
X80693095Y-27692009D02*
X80740714Y-27787247D01*
X80740714Y-27787247D02*
X80740714Y-28025342D01*
X80740714Y-28025342D02*
X80693095Y-28120580D01*
X80693095Y-28120580D02*
X80645476Y-28168200D01*
X80645476Y-28168200D02*
X80550238Y-28215819D01*
X80550238Y-28215819D02*
X80264524Y-28215819D01*
X80264524Y-28215819D02*
X80169286Y-28168200D01*
X80169286Y-28168200D02*
X80121667Y-28120580D01*
X74834761Y-38650057D02*
X74739523Y-38602438D01*
X74739523Y-38602438D02*
X74644285Y-38507200D01*
X74644285Y-38507200D02*
X74501428Y-38364342D01*
X74501428Y-38364342D02*
X74406190Y-38316723D01*
X74406190Y-38316723D02*
X74310952Y-38316723D01*
X74358571Y-38554819D02*
X74263333Y-38507200D01*
X74263333Y-38507200D02*
X74168095Y-38411961D01*
X74168095Y-38411961D02*
X74120476Y-38221485D01*
X74120476Y-38221485D02*
X74120476Y-37888152D01*
X74120476Y-37888152D02*
X74168095Y-37697676D01*
X74168095Y-37697676D02*
X74263333Y-37602438D01*
X74263333Y-37602438D02*
X74358571Y-37554819D01*
X74358571Y-37554819D02*
X74549047Y-37554819D01*
X74549047Y-37554819D02*
X74644285Y-37602438D01*
X74644285Y-37602438D02*
X74739523Y-37697676D01*
X74739523Y-37697676D02*
X74787142Y-37888152D01*
X74787142Y-37888152D02*
X74787142Y-38221485D01*
X74787142Y-38221485D02*
X74739523Y-38411961D01*
X74739523Y-38411961D02*
X74644285Y-38507200D01*
X74644285Y-38507200D02*
X74549047Y-38554819D01*
X74549047Y-38554819D02*
X74358571Y-38554819D01*
X75120476Y-37554819D02*
X75739523Y-37554819D01*
X75739523Y-37554819D02*
X75406190Y-37935771D01*
X75406190Y-37935771D02*
X75549047Y-37935771D01*
X75549047Y-37935771D02*
X75644285Y-37983390D01*
X75644285Y-37983390D02*
X75691904Y-38031009D01*
X75691904Y-38031009D02*
X75739523Y-38126247D01*
X75739523Y-38126247D02*
X75739523Y-38364342D01*
X75739523Y-38364342D02*
X75691904Y-38459580D01*
X75691904Y-38459580D02*
X75644285Y-38507200D01*
X75644285Y-38507200D02*
X75549047Y-38554819D01*
X75549047Y-38554819D02*
X75263333Y-38554819D01*
X75263333Y-38554819D02*
X75168095Y-38507200D01*
X75168095Y-38507200D02*
X75120476Y-38459580D01*
X74834761Y-34840057D02*
X74739523Y-34792438D01*
X74739523Y-34792438D02*
X74644285Y-34697200D01*
X74644285Y-34697200D02*
X74501428Y-34554342D01*
X74501428Y-34554342D02*
X74406190Y-34506723D01*
X74406190Y-34506723D02*
X74310952Y-34506723D01*
X74358571Y-34744819D02*
X74263333Y-34697200D01*
X74263333Y-34697200D02*
X74168095Y-34601961D01*
X74168095Y-34601961D02*
X74120476Y-34411485D01*
X74120476Y-34411485D02*
X74120476Y-34078152D01*
X74120476Y-34078152D02*
X74168095Y-33887676D01*
X74168095Y-33887676D02*
X74263333Y-33792438D01*
X74263333Y-33792438D02*
X74358571Y-33744819D01*
X74358571Y-33744819D02*
X74549047Y-33744819D01*
X74549047Y-33744819D02*
X74644285Y-33792438D01*
X74644285Y-33792438D02*
X74739523Y-33887676D01*
X74739523Y-33887676D02*
X74787142Y-34078152D01*
X74787142Y-34078152D02*
X74787142Y-34411485D01*
X74787142Y-34411485D02*
X74739523Y-34601961D01*
X74739523Y-34601961D02*
X74644285Y-34697200D01*
X74644285Y-34697200D02*
X74549047Y-34744819D01*
X74549047Y-34744819D02*
X74358571Y-34744819D01*
X75168095Y-33840057D02*
X75215714Y-33792438D01*
X75215714Y-33792438D02*
X75310952Y-33744819D01*
X75310952Y-33744819D02*
X75549047Y-33744819D01*
X75549047Y-33744819D02*
X75644285Y-33792438D01*
X75644285Y-33792438D02*
X75691904Y-33840057D01*
X75691904Y-33840057D02*
X75739523Y-33935295D01*
X75739523Y-33935295D02*
X75739523Y-34030533D01*
X75739523Y-34030533D02*
X75691904Y-34173390D01*
X75691904Y-34173390D02*
X75120476Y-34744819D01*
X75120476Y-34744819D02*
X75739523Y-34744819D01*
X74834761Y-30395057D02*
X74739523Y-30347438D01*
X74739523Y-30347438D02*
X74644285Y-30252200D01*
X74644285Y-30252200D02*
X74501428Y-30109342D01*
X74501428Y-30109342D02*
X74406190Y-30061723D01*
X74406190Y-30061723D02*
X74310952Y-30061723D01*
X74358571Y-30299819D02*
X74263333Y-30252200D01*
X74263333Y-30252200D02*
X74168095Y-30156961D01*
X74168095Y-30156961D02*
X74120476Y-29966485D01*
X74120476Y-29966485D02*
X74120476Y-29633152D01*
X74120476Y-29633152D02*
X74168095Y-29442676D01*
X74168095Y-29442676D02*
X74263333Y-29347438D01*
X74263333Y-29347438D02*
X74358571Y-29299819D01*
X74358571Y-29299819D02*
X74549047Y-29299819D01*
X74549047Y-29299819D02*
X74644285Y-29347438D01*
X74644285Y-29347438D02*
X74739523Y-29442676D01*
X74739523Y-29442676D02*
X74787142Y-29633152D01*
X74787142Y-29633152D02*
X74787142Y-29966485D01*
X74787142Y-29966485D02*
X74739523Y-30156961D01*
X74739523Y-30156961D02*
X74644285Y-30252200D01*
X74644285Y-30252200D02*
X74549047Y-30299819D01*
X74549047Y-30299819D02*
X74358571Y-30299819D01*
X75739523Y-30299819D02*
X75168095Y-30299819D01*
X75453809Y-30299819D02*
X75453809Y-29299819D01*
X75453809Y-29299819D02*
X75358571Y-29442676D01*
X75358571Y-29442676D02*
X75263333Y-29537914D01*
X75263333Y-29537914D02*
X75168095Y-29585533D01*
X149693333Y-29092080D02*
X149645714Y-29139700D01*
X149645714Y-29139700D02*
X149502857Y-29187319D01*
X149502857Y-29187319D02*
X149407619Y-29187319D01*
X149407619Y-29187319D02*
X149264762Y-29139700D01*
X149264762Y-29139700D02*
X149169524Y-29044461D01*
X149169524Y-29044461D02*
X149121905Y-28949223D01*
X149121905Y-28949223D02*
X149074286Y-28758747D01*
X149074286Y-28758747D02*
X149074286Y-28615890D01*
X149074286Y-28615890D02*
X149121905Y-28425414D01*
X149121905Y-28425414D02*
X149169524Y-28330176D01*
X149169524Y-28330176D02*
X149264762Y-28234938D01*
X149264762Y-28234938D02*
X149407619Y-28187319D01*
X149407619Y-28187319D02*
X149502857Y-28187319D01*
X149502857Y-28187319D02*
X149645714Y-28234938D01*
X149645714Y-28234938D02*
X149693333Y-28282557D01*
X150026667Y-28187319D02*
X150693333Y-28187319D01*
X150693333Y-28187319D02*
X150264762Y-29187319D01*
X145719580Y-31916666D02*
X145767200Y-31964285D01*
X145767200Y-31964285D02*
X145814819Y-32107142D01*
X145814819Y-32107142D02*
X145814819Y-32202380D01*
X145814819Y-32202380D02*
X145767200Y-32345237D01*
X145767200Y-32345237D02*
X145671961Y-32440475D01*
X145671961Y-32440475D02*
X145576723Y-32488094D01*
X145576723Y-32488094D02*
X145386247Y-32535713D01*
X145386247Y-32535713D02*
X145243390Y-32535713D01*
X145243390Y-32535713D02*
X145052914Y-32488094D01*
X145052914Y-32488094D02*
X144957676Y-32440475D01*
X144957676Y-32440475D02*
X144862438Y-32345237D01*
X144862438Y-32345237D02*
X144814819Y-32202380D01*
X144814819Y-32202380D02*
X144814819Y-32107142D01*
X144814819Y-32107142D02*
X144862438Y-31964285D01*
X144862438Y-31964285D02*
X144910057Y-31916666D01*
X144814819Y-31059523D02*
X144814819Y-31249999D01*
X144814819Y-31249999D02*
X144862438Y-31345237D01*
X144862438Y-31345237D02*
X144910057Y-31392856D01*
X144910057Y-31392856D02*
X145052914Y-31488094D01*
X145052914Y-31488094D02*
X145243390Y-31535713D01*
X145243390Y-31535713D02*
X145624342Y-31535713D01*
X145624342Y-31535713D02*
X145719580Y-31488094D01*
X145719580Y-31488094D02*
X145767200Y-31440475D01*
X145767200Y-31440475D02*
X145814819Y-31345237D01*
X145814819Y-31345237D02*
X145814819Y-31154761D01*
X145814819Y-31154761D02*
X145767200Y-31059523D01*
X145767200Y-31059523D02*
X145719580Y-31011904D01*
X145719580Y-31011904D02*
X145624342Y-30964285D01*
X145624342Y-30964285D02*
X145386247Y-30964285D01*
X145386247Y-30964285D02*
X145291009Y-31011904D01*
X145291009Y-31011904D02*
X145243390Y-31059523D01*
X145243390Y-31059523D02*
X145195771Y-31154761D01*
X145195771Y-31154761D02*
X145195771Y-31345237D01*
X145195771Y-31345237D02*
X145243390Y-31440475D01*
X145243390Y-31440475D02*
X145291009Y-31488094D01*
X145291009Y-31488094D02*
X145386247Y-31535713D01*
X103809580Y-33821666D02*
X103857200Y-33869285D01*
X103857200Y-33869285D02*
X103904819Y-34012142D01*
X103904819Y-34012142D02*
X103904819Y-34107380D01*
X103904819Y-34107380D02*
X103857200Y-34250237D01*
X103857200Y-34250237D02*
X103761961Y-34345475D01*
X103761961Y-34345475D02*
X103666723Y-34393094D01*
X103666723Y-34393094D02*
X103476247Y-34440713D01*
X103476247Y-34440713D02*
X103333390Y-34440713D01*
X103333390Y-34440713D02*
X103142914Y-34393094D01*
X103142914Y-34393094D02*
X103047676Y-34345475D01*
X103047676Y-34345475D02*
X102952438Y-34250237D01*
X102952438Y-34250237D02*
X102904819Y-34107380D01*
X102904819Y-34107380D02*
X102904819Y-34012142D01*
X102904819Y-34012142D02*
X102952438Y-33869285D01*
X102952438Y-33869285D02*
X103000057Y-33821666D01*
X102904819Y-32916904D02*
X102904819Y-33393094D01*
X102904819Y-33393094D02*
X103381009Y-33440713D01*
X103381009Y-33440713D02*
X103333390Y-33393094D01*
X103333390Y-33393094D02*
X103285771Y-33297856D01*
X103285771Y-33297856D02*
X103285771Y-33059761D01*
X103285771Y-33059761D02*
X103333390Y-32964523D01*
X103333390Y-32964523D02*
X103381009Y-32916904D01*
X103381009Y-32916904D02*
X103476247Y-32869285D01*
X103476247Y-32869285D02*
X103714342Y-32869285D01*
X103714342Y-32869285D02*
X103809580Y-32916904D01*
X103809580Y-32916904D02*
X103857200Y-32964523D01*
X103857200Y-32964523D02*
X103904819Y-33059761D01*
X103904819Y-33059761D02*
X103904819Y-33297856D01*
X103904819Y-33297856D02*
X103857200Y-33393094D01*
X103857200Y-33393094D02*
X103809580Y-33440713D01*
X44625833Y-41579580D02*
X44578214Y-41627200D01*
X44578214Y-41627200D02*
X44435357Y-41674819D01*
X44435357Y-41674819D02*
X44340119Y-41674819D01*
X44340119Y-41674819D02*
X44197262Y-41627200D01*
X44197262Y-41627200D02*
X44102024Y-41531961D01*
X44102024Y-41531961D02*
X44054405Y-41436723D01*
X44054405Y-41436723D02*
X44006786Y-41246247D01*
X44006786Y-41246247D02*
X44006786Y-41103390D01*
X44006786Y-41103390D02*
X44054405Y-40912914D01*
X44054405Y-40912914D02*
X44102024Y-40817676D01*
X44102024Y-40817676D02*
X44197262Y-40722438D01*
X44197262Y-40722438D02*
X44340119Y-40674819D01*
X44340119Y-40674819D02*
X44435357Y-40674819D01*
X44435357Y-40674819D02*
X44578214Y-40722438D01*
X44578214Y-40722438D02*
X44625833Y-40770057D01*
X45482976Y-41008152D02*
X45482976Y-41674819D01*
X45244881Y-40627200D02*
X45006786Y-41341485D01*
X45006786Y-41341485D02*
X45625833Y-41341485D01*
X53719580Y-30011666D02*
X53767200Y-30059285D01*
X53767200Y-30059285D02*
X53814819Y-30202142D01*
X53814819Y-30202142D02*
X53814819Y-30297380D01*
X53814819Y-30297380D02*
X53767200Y-30440237D01*
X53767200Y-30440237D02*
X53671961Y-30535475D01*
X53671961Y-30535475D02*
X53576723Y-30583094D01*
X53576723Y-30583094D02*
X53386247Y-30630713D01*
X53386247Y-30630713D02*
X53243390Y-30630713D01*
X53243390Y-30630713D02*
X53052914Y-30583094D01*
X53052914Y-30583094D02*
X52957676Y-30535475D01*
X52957676Y-30535475D02*
X52862438Y-30440237D01*
X52862438Y-30440237D02*
X52814819Y-30297380D01*
X52814819Y-30297380D02*
X52814819Y-30202142D01*
X52814819Y-30202142D02*
X52862438Y-30059285D01*
X52862438Y-30059285D02*
X52910057Y-30011666D01*
X52910057Y-29630713D02*
X52862438Y-29583094D01*
X52862438Y-29583094D02*
X52814819Y-29487856D01*
X52814819Y-29487856D02*
X52814819Y-29249761D01*
X52814819Y-29249761D02*
X52862438Y-29154523D01*
X52862438Y-29154523D02*
X52910057Y-29106904D01*
X52910057Y-29106904D02*
X53005295Y-29059285D01*
X53005295Y-29059285D02*
X53100533Y-29059285D01*
X53100533Y-29059285D02*
X53243390Y-29106904D01*
X53243390Y-29106904D02*
X53814819Y-29678332D01*
X53814819Y-29678332D02*
X53814819Y-29059285D01*
X62698333Y-28354580D02*
X62650714Y-28402200D01*
X62650714Y-28402200D02*
X62507857Y-28449819D01*
X62507857Y-28449819D02*
X62412619Y-28449819D01*
X62412619Y-28449819D02*
X62269762Y-28402200D01*
X62269762Y-28402200D02*
X62174524Y-28306961D01*
X62174524Y-28306961D02*
X62126905Y-28211723D01*
X62126905Y-28211723D02*
X62079286Y-28021247D01*
X62079286Y-28021247D02*
X62079286Y-27878390D01*
X62079286Y-27878390D02*
X62126905Y-27687914D01*
X62126905Y-27687914D02*
X62174524Y-27592676D01*
X62174524Y-27592676D02*
X62269762Y-27497438D01*
X62269762Y-27497438D02*
X62412619Y-27449819D01*
X62412619Y-27449819D02*
X62507857Y-27449819D01*
X62507857Y-27449819D02*
X62650714Y-27497438D01*
X62650714Y-27497438D02*
X62698333Y-27545057D01*
X63650714Y-28449819D02*
X63079286Y-28449819D01*
X63365000Y-28449819D02*
X63365000Y-27449819D01*
X63365000Y-27449819D02*
X63269762Y-27592676D01*
X63269762Y-27592676D02*
X63174524Y-27687914D01*
X63174524Y-27687914D02*
X63079286Y-27735533D01*
X215773095Y-29294819D02*
X215773095Y-28294819D01*
X215773095Y-28771009D02*
X216344523Y-28771009D01*
X216344523Y-29294819D02*
X216344523Y-28294819D01*
X216773095Y-28390057D02*
X216820714Y-28342438D01*
X216820714Y-28342438D02*
X216915952Y-28294819D01*
X216915952Y-28294819D02*
X217154047Y-28294819D01*
X217154047Y-28294819D02*
X217249285Y-28342438D01*
X217249285Y-28342438D02*
X217296904Y-28390057D01*
X217296904Y-28390057D02*
X217344523Y-28485295D01*
X217344523Y-28485295D02*
X217344523Y-28580533D01*
X217344523Y-28580533D02*
X217296904Y-28723390D01*
X217296904Y-28723390D02*
X216725476Y-29294819D01*
X216725476Y-29294819D02*
X217344523Y-29294819D01*
X30353095Y-29294819D02*
X30353095Y-28294819D01*
X30353095Y-28771009D02*
X30924523Y-28771009D01*
X30924523Y-29294819D02*
X30924523Y-28294819D01*
X31924523Y-29294819D02*
X31353095Y-29294819D01*
X31638809Y-29294819D02*
X31638809Y-28294819D01*
X31638809Y-28294819D02*
X31543571Y-28437676D01*
X31543571Y-28437676D02*
X31448333Y-28532914D01*
X31448333Y-28532914D02*
X31353095Y-28580533D01*
D11*
X186243095Y-25362419D02*
X186243095Y-26171942D01*
X186243095Y-26171942D02*
X186290714Y-26267180D01*
X186290714Y-26267180D02*
X186338333Y-26314800D01*
X186338333Y-26314800D02*
X186433571Y-26362419D01*
X186433571Y-26362419D02*
X186624047Y-26362419D01*
X186624047Y-26362419D02*
X186719285Y-26314800D01*
X186719285Y-26314800D02*
X186766904Y-26267180D01*
X186766904Y-26267180D02*
X186814523Y-26171942D01*
X186814523Y-26171942D02*
X186814523Y-25362419D01*
X187243095Y-25457657D02*
X187290714Y-25410038D01*
X187290714Y-25410038D02*
X187385952Y-25362419D01*
X187385952Y-25362419D02*
X187624047Y-25362419D01*
X187624047Y-25362419D02*
X187719285Y-25410038D01*
X187719285Y-25410038D02*
X187766904Y-25457657D01*
X187766904Y-25457657D02*
X187814523Y-25552895D01*
X187814523Y-25552895D02*
X187814523Y-25648133D01*
X187814523Y-25648133D02*
X187766904Y-25790990D01*
X187766904Y-25790990D02*
X187195476Y-26362419D01*
X187195476Y-26362419D02*
X187814523Y-26362419D01*
D10*
X172274580Y-33976666D02*
X172322200Y-34024285D01*
X172322200Y-34024285D02*
X172369819Y-34167142D01*
X172369819Y-34167142D02*
X172369819Y-34262380D01*
X172369819Y-34262380D02*
X172322200Y-34405237D01*
X172322200Y-34405237D02*
X172226961Y-34500475D01*
X172226961Y-34500475D02*
X172131723Y-34548094D01*
X172131723Y-34548094D02*
X171941247Y-34595713D01*
X171941247Y-34595713D02*
X171798390Y-34595713D01*
X171798390Y-34595713D02*
X171607914Y-34548094D01*
X171607914Y-34548094D02*
X171512676Y-34500475D01*
X171512676Y-34500475D02*
X171417438Y-34405237D01*
X171417438Y-34405237D02*
X171369819Y-34262380D01*
X171369819Y-34262380D02*
X171369819Y-34167142D01*
X171369819Y-34167142D02*
X171417438Y-34024285D01*
X171417438Y-34024285D02*
X171465057Y-33976666D01*
X171369819Y-33643332D02*
X171369819Y-33024285D01*
X171369819Y-33024285D02*
X171750771Y-33357618D01*
X171750771Y-33357618D02*
X171750771Y-33214761D01*
X171750771Y-33214761D02*
X171798390Y-33119523D01*
X171798390Y-33119523D02*
X171846009Y-33071904D01*
X171846009Y-33071904D02*
X171941247Y-33024285D01*
X171941247Y-33024285D02*
X172179342Y-33024285D01*
X172179342Y-33024285D02*
X172274580Y-33071904D01*
X172274580Y-33071904D02*
X172322200Y-33119523D01*
X172322200Y-33119523D02*
X172369819Y-33214761D01*
X172369819Y-33214761D02*
X172369819Y-33500475D01*
X172369819Y-33500475D02*
X172322200Y-33595713D01*
X172322200Y-33595713D02*
X172274580Y-33643332D01*
%TO.C,R14*%
D12*
X126005000Y-34382064D02*
X126005000Y-32927936D01*
X124185000Y-34382064D02*
X124185000Y-32927936D01*
%TO.C,J2*%
X109625000Y-30940000D02*
X111015000Y-30940000D01*
X111015000Y-30370000D02*
X111015000Y-30940000D01*
X111015000Y-30370000D02*
X116315000Y-30370000D01*
X111015000Y-32560000D02*
X111015000Y-33480000D01*
X111015000Y-35100000D02*
X111015000Y-36020000D01*
X111015000Y-37640000D02*
X111015000Y-38210000D01*
X111015000Y-38210000D02*
X116315000Y-38210000D01*
X116315000Y-30370000D02*
X116315000Y-30940000D01*
X116315000Y-32560000D02*
X116315000Y-33480000D01*
X116315000Y-35100000D02*
X116315000Y-36020000D01*
X116315000Y-37640000D02*
X116315000Y-38210000D01*
%TO.C,U5*%
X63100000Y-34345000D02*
X63100000Y-38105000D01*
X56280000Y-34345000D02*
X56280000Y-38105000D01*
X63100000Y-38105000D02*
X61840000Y-38105000D01*
X56280000Y-38105000D02*
X57540000Y-38105000D01*
X63330000Y-33305000D02*
X63000000Y-33065000D01*
X63330000Y-32825000D01*
X63330000Y-33305000D01*
G36*
X63330000Y-33305000D02*
G01*
X63000000Y-33065000D01*
X63330000Y-32825000D01*
X63330000Y-33305000D01*
G37*
%TO.C,D3*%
X166675000Y-39235000D02*
X166675000Y-36965000D01*
X166675000Y-36965000D02*
X162790000Y-36965000D01*
X162790000Y-39235000D02*
X166675000Y-39235000D01*
%TO.C,D2*%
X166675000Y-35425000D02*
X166675000Y-33155000D01*
X166675000Y-33155000D02*
X162790000Y-33155000D01*
X162790000Y-35425000D02*
X166675000Y-35425000D01*
%TO.C,D1*%
X166675000Y-31615000D02*
X166675000Y-29345000D01*
X166675000Y-29345000D02*
X162790000Y-29345000D01*
X162790000Y-31615000D02*
X166675000Y-31615000D01*
%TO.C,Y1*%
X146100000Y-33300000D02*
X146160000Y-33300000D01*
X146100000Y-38900000D02*
X146100000Y-33300000D01*
X146160000Y-38900000D02*
X146100000Y-38900000D01*
X146160000Y-39360000D02*
X146160000Y-38900000D01*
X148480000Y-33300000D02*
X151240000Y-33300000D01*
X148480000Y-38900000D02*
X148480000Y-39360000D01*
X151240000Y-38900000D02*
X148480000Y-38900000D01*
X153560000Y-33300000D02*
X153620000Y-33300000D01*
X153620000Y-33300000D02*
X153620000Y-38900000D01*
X153620000Y-38900000D02*
X153560000Y-38900000D01*
%TO.C,U4*%
X93255000Y-29855000D02*
X97375000Y-29855000D01*
X93255000Y-29920000D02*
X93255000Y-29855000D01*
X93255000Y-38725000D02*
X93255000Y-38660000D01*
X97375000Y-29855000D02*
X97375000Y-29920000D01*
X97375000Y-38660000D02*
X97375000Y-38725000D01*
X97375000Y-38725000D02*
X93255000Y-38725000D01*
X92715000Y-29920000D02*
X92475000Y-29590000D01*
X92955000Y-29590000D01*
X92715000Y-29920000D01*
G36*
X92715000Y-29920000D02*
G01*
X92475000Y-29590000D01*
X92955000Y-29590000D01*
X92715000Y-29920000D01*
G37*
%TO.C,U1*%
X130555000Y-27780000D02*
X138275000Y-27780000D01*
X130555000Y-28015000D02*
X130555000Y-27780000D01*
X130555000Y-40800000D02*
X130555000Y-40565000D01*
X138275000Y-27780000D02*
X138275000Y-28015000D01*
X138275000Y-40565000D02*
X138275000Y-40800000D01*
X138275000Y-40800000D02*
X130555000Y-40800000D01*
X129765000Y-28010000D02*
X129425000Y-27540000D01*
X130105000Y-27540000D01*
X129765000Y-28010000D01*
G36*
X129765000Y-28010000D02*
G01*
X129425000Y-27540000D01*
X130105000Y-27540000D01*
X129765000Y-28010000D01*
G37*
%TO.C,R13*%
X157667936Y-37190000D02*
X159122064Y-37190000D01*
X157667936Y-39010000D02*
X159122064Y-39010000D01*
%TO.C,R12*%
X157667936Y-33380000D02*
X159122064Y-33380000D01*
X157667936Y-35200000D02*
X159122064Y-35200000D01*
%TO.C,R11*%
X157667936Y-29595000D02*
X159122064Y-29595000D01*
X157667936Y-31415000D02*
X159122064Y-31415000D01*
%TO.C,R10*%
X84717936Y-38206000D02*
X86172064Y-38206000D01*
X84717936Y-40026000D02*
X86172064Y-40026000D01*
%TO.C,R9*%
X84717936Y-35056000D02*
X86172064Y-35056000D01*
X84717936Y-36876000D02*
X86172064Y-36876000D01*
%TO.C,R8*%
X84717936Y-31906000D02*
X86172064Y-31906000D01*
X84717936Y-33726000D02*
X86172064Y-33726000D01*
%TO.C,R7*%
X84717936Y-28756000D02*
X86172064Y-28756000D01*
X84717936Y-30576000D02*
X86172064Y-30576000D01*
%TO.C,R6*%
X79227936Y-38206000D02*
X80682064Y-38206000D01*
X79227936Y-40026000D02*
X80682064Y-40026000D01*
%TO.C,R5*%
X79227936Y-35056000D02*
X80682064Y-35056000D01*
X79227936Y-36876000D02*
X80682064Y-36876000D01*
%TO.C,R4*%
X79227936Y-31856000D02*
X80682064Y-31856000D01*
X79227936Y-33676000D02*
X80682064Y-33676000D01*
%TO.C,R3*%
X79227936Y-28681000D02*
X80682064Y-28681000D01*
X79227936Y-30501000D02*
X80682064Y-30501000D01*
%TO.C,Q3*%
X70850000Y-37155000D02*
X70050000Y-37155000D01*
X70850000Y-37155000D02*
X71650000Y-37155000D01*
X71650000Y-37155000D02*
X71650000Y-38085000D01*
X71650000Y-40315000D02*
X70190000Y-40315000D01*
X71650000Y-40315000D02*
X71650000Y-39385000D01*
X69550000Y-37125000D02*
X69310000Y-36795000D01*
X69790000Y-36795000D01*
X69550000Y-37125000D01*
G36*
X69550000Y-37125000D02*
G01*
X69310000Y-36795000D01*
X69790000Y-36795000D01*
X69550000Y-37125000D01*
G37*
%TO.C,Q2*%
X70850000Y-32710000D02*
X70050000Y-32710000D01*
X70850000Y-32710000D02*
X71650000Y-32710000D01*
X71650000Y-32710000D02*
X71650000Y-33640000D01*
X71650000Y-35870000D02*
X70190000Y-35870000D01*
X71650000Y-35870000D02*
X71650000Y-34940000D01*
X69550000Y-32680000D02*
X69310000Y-32350000D01*
X69790000Y-32350000D01*
X69550000Y-32680000D01*
G36*
X69550000Y-32680000D02*
G01*
X69310000Y-32350000D01*
X69790000Y-32350000D01*
X69550000Y-32680000D01*
G37*
%TO.C,Q1*%
X70850000Y-28240000D02*
X70050000Y-28240000D01*
X70850000Y-28240000D02*
X71650000Y-28240000D01*
X71650000Y-28240000D02*
X71650000Y-29170000D01*
X71650000Y-31400000D02*
X70190000Y-31400000D01*
X71650000Y-31400000D02*
X71650000Y-30470000D01*
X69550000Y-28210000D02*
X69310000Y-27880000D01*
X69790000Y-27880000D01*
X69550000Y-28210000D01*
G36*
X69550000Y-28210000D02*
G01*
X69310000Y-27880000D01*
X69790000Y-27880000D01*
X69550000Y-28210000D01*
G37*
%TO.C,C7*%
X149148748Y-29672500D02*
X150571252Y-29672500D01*
X149148748Y-31492500D02*
X150571252Y-31492500D01*
%TO.C,C6*%
X144420000Y-31038748D02*
X144420000Y-32461252D01*
X142600000Y-31038748D02*
X142600000Y-32461252D01*
%TO.C,C5*%
X102510000Y-32943748D02*
X102510000Y-34366252D01*
X100690000Y-32943748D02*
X100690000Y-34366252D01*
%TO.C,C4*%
X45503752Y-40280000D02*
X44081248Y-40280000D01*
X45503752Y-38460000D02*
X44081248Y-38460000D01*
%TO.C,C2*%
X57226252Y-30755000D02*
X55803748Y-30755000D01*
X57226252Y-28935000D02*
X55803748Y-28935000D01*
%TO.C,C1*%
X62153748Y-28935000D02*
X63576252Y-28935000D01*
X62153748Y-30755000D02*
X63576252Y-30755000D01*
%TO.C,U2*%
D13*
X208534000Y-35814000D02*
X208534000Y-38989000D01*
X204851000Y-35814000D02*
X208534000Y-35814000D01*
X204851000Y-34671000D02*
X204851000Y-35814000D01*
X208534000Y-34671000D02*
X204851000Y-34671000D01*
X208534000Y-33274000D02*
X208534000Y-34671000D01*
X204851000Y-33274000D02*
X208534000Y-33274000D01*
X204851000Y-31877000D02*
X204851000Y-33274000D01*
X208534000Y-31877000D02*
X204851000Y-31877000D01*
X208534000Y-30480000D02*
X208534000Y-31877000D01*
X204851000Y-30480000D02*
X208534000Y-30480000D01*
X204851000Y-29083000D02*
X204851000Y-30480000D01*
X208534000Y-29083000D02*
X204851000Y-29083000D01*
X208534000Y-28067000D02*
X208534000Y-29083000D01*
X201930000Y-28067000D02*
X208534000Y-28067000D01*
X201930000Y-34417000D02*
X201930000Y-28067000D01*
D11*
X184556400Y-27090000D02*
X209256400Y-27090000D01*
X209256400Y-41490000D01*
X184556400Y-41490000D01*
X184556400Y-27090000D01*
%TO.C,C3*%
D12*
X174850000Y-38219698D02*
X174850000Y-37419698D01*
X174450000Y-37819698D02*
X175250000Y-37819698D01*
X173085000Y-33810000D02*
X181245000Y-33810000D01*
X173085000Y-33770000D02*
X181245000Y-33770000D01*
X173086000Y-33730000D02*
X181244000Y-33730000D01*
X173087000Y-33690000D02*
X181243000Y-33690000D01*
X173088000Y-33650000D02*
X181242000Y-33650000D01*
X173090000Y-33610000D02*
X181240000Y-33610000D01*
X173092000Y-33570000D02*
X181238000Y-33570000D01*
X173095000Y-33530000D02*
X181235000Y-33530000D01*
X173097000Y-33490000D02*
X181233000Y-33490000D01*
X173101000Y-33450000D02*
X181229000Y-33450000D01*
X173104000Y-33410000D02*
X181226000Y-33410000D01*
X173109000Y-33370000D02*
X181221000Y-33370000D01*
X173113000Y-33330000D02*
X181217000Y-33330000D01*
X173118000Y-33290000D02*
X181212000Y-33290000D01*
X173123000Y-33250000D02*
X181207000Y-33250000D01*
X173129000Y-33210000D02*
X181201000Y-33210000D01*
X173135000Y-33170000D02*
X181195000Y-33170000D01*
X173142000Y-33130000D02*
X181188000Y-33130000D01*
X173148000Y-33090000D02*
X176125000Y-33090000D01*
X178205000Y-33090000D02*
X181182000Y-33090000D01*
X173156000Y-33050000D02*
X176125000Y-33050000D01*
X178205000Y-33050000D02*
X181174000Y-33050000D01*
X173163000Y-33010000D02*
X176125000Y-33010000D01*
X178205000Y-33010000D02*
X181167000Y-33010000D01*
X173172000Y-32970000D02*
X176125000Y-32970000D01*
X178205000Y-32970000D02*
X181158000Y-32970000D01*
X173180000Y-32930000D02*
X176125000Y-32930000D01*
X178205000Y-32930000D02*
X181150000Y-32930000D01*
X173189000Y-32890000D02*
X176125000Y-32890000D01*
X178205000Y-32890000D02*
X181141000Y-32890000D01*
X173198000Y-32850000D02*
X176125000Y-32850000D01*
X178205000Y-32850000D02*
X181132000Y-32850000D01*
X173208000Y-32810000D02*
X176125000Y-32810000D01*
X178205000Y-32810000D02*
X181122000Y-32810000D01*
X173218000Y-32770000D02*
X176125000Y-32770000D01*
X178205000Y-32770000D02*
X181112000Y-32770000D01*
X173229000Y-32730000D02*
X176125000Y-32730000D01*
X178205000Y-32730000D02*
X181101000Y-32730000D01*
X173240000Y-32690000D02*
X176125000Y-32690000D01*
X178205000Y-32690000D02*
X181090000Y-32690000D01*
X173252000Y-32650000D02*
X176125000Y-32650000D01*
X178205000Y-32650000D02*
X181078000Y-32650000D01*
X173264000Y-32610000D02*
X176125000Y-32610000D01*
X178205000Y-32610000D02*
X181066000Y-32610000D01*
X173276000Y-32570000D02*
X176125000Y-32570000D01*
X178205000Y-32570000D02*
X181054000Y-32570000D01*
X173289000Y-32530000D02*
X176125000Y-32530000D01*
X178205000Y-32530000D02*
X181041000Y-32530000D01*
X173302000Y-32490000D02*
X176125000Y-32490000D01*
X178205000Y-32490000D02*
X181028000Y-32490000D01*
X173316000Y-32450000D02*
X176125000Y-32450000D01*
X178205000Y-32450000D02*
X181014000Y-32450000D01*
X173330000Y-32410000D02*
X176125000Y-32410000D01*
X178205000Y-32410000D02*
X181000000Y-32410000D01*
X173345000Y-32370000D02*
X176125000Y-32370000D01*
X178205000Y-32370000D02*
X180985000Y-32370000D01*
X173360000Y-32330000D02*
X176125000Y-32330000D01*
X178205000Y-32330000D02*
X180970000Y-32330000D01*
X173376000Y-32290000D02*
X176125000Y-32290000D01*
X178205000Y-32290000D02*
X180954000Y-32290000D01*
X173392000Y-32250000D02*
X176125000Y-32250000D01*
X178205000Y-32250000D02*
X180938000Y-32250000D01*
X173408000Y-32210000D02*
X176125000Y-32210000D01*
X178205000Y-32210000D02*
X180922000Y-32210000D01*
X173425000Y-32170000D02*
X176125000Y-32170000D01*
X178205000Y-32170000D02*
X180905000Y-32170000D01*
X173443000Y-32130000D02*
X176125000Y-32130000D01*
X178205000Y-32130000D02*
X180887000Y-32130000D01*
X173461000Y-32090000D02*
X176125000Y-32090000D01*
X178205000Y-32090000D02*
X180869000Y-32090000D01*
X173480000Y-32050000D02*
X176125000Y-32050000D01*
X178205000Y-32050000D02*
X180850000Y-32050000D01*
X173499000Y-32010000D02*
X176125000Y-32010000D01*
X178205000Y-32010000D02*
X180831000Y-32010000D01*
X173519000Y-31970000D02*
X176125000Y-31970000D01*
X178205000Y-31970000D02*
X180811000Y-31970000D01*
X173539000Y-31930000D02*
X176125000Y-31930000D01*
X178205000Y-31930000D02*
X180791000Y-31930000D01*
X173560000Y-31890000D02*
X176125000Y-31890000D01*
X178205000Y-31890000D02*
X180770000Y-31890000D01*
X173581000Y-31850000D02*
X176125000Y-31850000D01*
X178205000Y-31850000D02*
X180749000Y-31850000D01*
X173603000Y-31810000D02*
X176125000Y-31810000D01*
X178205000Y-31810000D02*
X180727000Y-31810000D01*
X173626000Y-31770000D02*
X176125000Y-31770000D01*
X178205000Y-31770000D02*
X180704000Y-31770000D01*
X173649000Y-31730000D02*
X176125000Y-31730000D01*
X178205000Y-31730000D02*
X180681000Y-31730000D01*
X173672000Y-31690000D02*
X176125000Y-31690000D01*
X178205000Y-31690000D02*
X180658000Y-31690000D01*
X173697000Y-31650000D02*
X176125000Y-31650000D01*
X178205000Y-31650000D02*
X180633000Y-31650000D01*
X173722000Y-31610000D02*
X176125000Y-31610000D01*
X178205000Y-31610000D02*
X180608000Y-31610000D01*
X173747000Y-31570000D02*
X176125000Y-31570000D01*
X178205000Y-31570000D02*
X180583000Y-31570000D01*
X173773000Y-31530000D02*
X176125000Y-31530000D01*
X178205000Y-31530000D02*
X180557000Y-31530000D01*
X173800000Y-31490000D02*
X176125000Y-31490000D01*
X178205000Y-31490000D02*
X180530000Y-31490000D01*
X173828000Y-31450000D02*
X176125000Y-31450000D01*
X178205000Y-31450000D02*
X180502000Y-31450000D01*
X173856000Y-31410000D02*
X176125000Y-31410000D01*
X178205000Y-31410000D02*
X180474000Y-31410000D01*
X173885000Y-31370000D02*
X176125000Y-31370000D01*
X178205000Y-31370000D02*
X180445000Y-31370000D01*
X173915000Y-31330000D02*
X176125000Y-31330000D01*
X178205000Y-31330000D02*
X180415000Y-31330000D01*
X173946000Y-31290000D02*
X176125000Y-31290000D01*
X178205000Y-31290000D02*
X180384000Y-31290000D01*
X173977000Y-31250000D02*
X176125000Y-31250000D01*
X178205000Y-31250000D02*
X180353000Y-31250000D01*
X174009000Y-31210000D02*
X176125000Y-31210000D01*
X178205000Y-31210000D02*
X180321000Y-31210000D01*
X174042000Y-31170000D02*
X176125000Y-31170000D01*
X178205000Y-31170000D02*
X180288000Y-31170000D01*
X174076000Y-31130000D02*
X176125000Y-31130000D01*
X178205000Y-31130000D02*
X180254000Y-31130000D01*
X174110000Y-31090000D02*
X176125000Y-31090000D01*
X178205000Y-31090000D02*
X180220000Y-31090000D01*
X174146000Y-31050000D02*
X176125000Y-31050000D01*
X178205000Y-31050000D02*
X180184000Y-31050000D01*
X174183000Y-31010000D02*
X180147000Y-31010000D01*
X174220000Y-30970000D02*
X180110000Y-30970000D01*
X174259000Y-30930000D02*
X180071000Y-30930000D01*
X174298000Y-30890000D02*
X180032000Y-30890000D01*
X174339000Y-30850000D02*
X179991000Y-30850000D01*
X174381000Y-30810000D02*
X179949000Y-30810000D01*
X174424000Y-30770000D02*
X179906000Y-30770000D01*
X174469000Y-30730000D02*
X179861000Y-30730000D01*
X174514000Y-30690000D02*
X179816000Y-30690000D01*
X174561000Y-30650000D02*
X179769000Y-30650000D01*
X174610000Y-30610000D02*
X179720000Y-30610000D01*
X174660000Y-30570000D02*
X179670000Y-30570000D01*
X174712000Y-30530000D02*
X179618000Y-30530000D01*
X174765000Y-30490000D02*
X179565000Y-30490000D01*
X174821000Y-30450000D02*
X179509000Y-30450000D01*
X174878000Y-30410000D02*
X179452000Y-30410000D01*
X174938000Y-30370000D02*
X179392000Y-30370000D01*
X175000000Y-30330000D02*
X179330000Y-30330000D01*
X175064000Y-30290000D02*
X179266000Y-30290000D01*
X175131000Y-30250000D02*
X179199000Y-30250000D01*
X175201000Y-30210000D02*
X179129000Y-30210000D01*
X175275000Y-30170000D02*
X179055000Y-30170000D01*
X175352000Y-30130000D02*
X178978000Y-30130000D01*
X175434000Y-30090000D02*
X178896000Y-30090000D01*
X175521000Y-30050000D02*
X178809000Y-30050000D01*
X175613000Y-30010000D02*
X178717000Y-30010000D01*
X175712000Y-29970000D02*
X178618000Y-29970000D01*
X175819000Y-29930000D02*
X178511000Y-29930000D01*
X175937000Y-29890000D02*
X178393000Y-29890000D01*
X176068000Y-29850000D02*
X178262000Y-29850000D01*
X176218000Y-29810000D02*
X178112000Y-29810000D01*
X176397000Y-29770000D02*
X177933000Y-29770000D01*
X176632000Y-29730000D02*
X177698000Y-29730000D01*
X181285000Y-33810000D02*
G75*
G02*
X173045000Y-33810000I-4120000J0D01*
G01*
X173045000Y-33810000D02*
G75*
G02*
X181285000Y-33810000I4120000J0D01*
G01*
%TD*%
M02*
