%TF.GenerationSoftware,KiCad,Pcbnew,10.0.1-10.0.1~ubuntu24.04.1*%
%TF.CreationDate,2026-04-26T18:24:39-04:00*%
%TF.ProjectId,set_board_avr,7365745f-626f-4617-9264-5f6176722e6b,rev?*%
%TF.SameCoordinates,Original*%
%TF.FileFunction,Soldermask,Top*%
%TF.FilePolarity,Negative*%
%FSLAX46Y46*%
G04 Gerber Fmt 4.6, Leading zero omitted, Abs format (unit mm)*
G04 Created by KiCad (PCBNEW 10.0.1-10.0.1~ubuntu24.04.1) date 2026-04-26 18:24:39*
%MOMM*%
%LPD*%
G01*
G04 APERTURE LIST*
G04 Aperture macros list*
%AMRoundRect*
0 Rectangle with rounded corners*
0 $1 Rounding radius*
0 $2 $3 $4 $5 $6 $7 $8 $9 X,Y pos of 4 corners*
0 Add a 4 corners polygon primitive as box body*
4,1,4,$2,$3,$4,$5,$6,$7,$8,$9,$2,$3,0*
0 Add four circle primitives for the rounded corners*
1,1,$1+$1,$2,$3*
1,1,$1+$1,$4,$5*
1,1,$1+$1,$6,$7*
1,1,$1+$1,$8,$9*
0 Add four rect primitives between the rounded corners*
20,1,$1+$1,$2,$3,$4,$5,0*
20,1,$1+$1,$4,$5,$6,$7,0*
20,1,$1+$1,$6,$7,$8,$9,0*
20,1,$1+$1,$8,$9,$2,$3,0*%
G04 Aperture macros list end*
%ADD10RoundRect,0.250000X-0.400000X-0.625000X0.400000X-0.625000X0.400000X0.625000X-0.400000X0.625000X0*%
%ADD11RoundRect,0.150000X-0.875000X-0.150000X0.875000X-0.150000X0.875000X0.150000X-0.875000X0.150000X0*%
%ADD12RoundRect,0.250000X-0.412500X-0.650000X0.412500X-0.650000X0.412500X0.650000X-0.412500X0.650000X0*%
%ADD13RoundRect,0.375000X-0.375000X0.625000X-0.375000X-0.625000X0.375000X-0.625000X0.375000X0.625000X0*%
%ADD14RoundRect,0.500000X-1.400000X0.500000X-1.400000X-0.500000X1.400000X-0.500000X1.400000X0.500000X0*%
%ADD15RoundRect,0.150000X-0.825000X-0.150000X0.825000X-0.150000X0.825000X0.150000X-0.825000X0.150000X0*%
%ADD16RoundRect,0.200000X-0.750000X-0.200000X0.750000X-0.200000X0.750000X0.200000X-0.750000X0.200000X0*%
%ADD17RoundRect,0.250000X0.550000X-0.550000X0.550000X0.550000X-0.550000X0.550000X-0.550000X-0.550000X0*%
%ADD18C,1.600000*%
%ADD19RoundRect,0.250000X0.412500X0.650000X-0.412500X0.650000X-0.412500X-0.650000X0.412500X-0.650000X0*%
%ADD20RoundRect,0.250000X-0.650000X-0.750000X0.650000X-0.750000X0.650000X0.750000X-0.650000X0.750000X0*%
%ADD21RoundRect,0.250000X0.375000X0.625000X-0.375000X0.625000X-0.375000X-0.625000X0.375000X-0.625000X0*%
%ADD22R,1.574800X1.574800*%
%ADD23C,1.574800*%
%ADD24RoundRect,0.250000X-0.375000X-0.625000X0.375000X-0.625000X0.375000X0.625000X-0.375000X0.625000X0*%
%ADD25R,3.150000X1.000000*%
%ADD26C,9.000000*%
%ADD27RoundRect,0.250000X0.400000X0.625000X-0.400000X0.625000X-0.400000X-0.625000X0.400000X-0.625000X0*%
%ADD28R,1.700000X1.700000*%
%ADD29C,1.700000*%
G04 APERTURE END LIST*
D10*
%TO.C,R12*%
X159942600Y-33858200D03*
X163042600Y-33858200D03*
%TD*%
D11*
%TO.C,U1*%
X129765000Y-28575000D03*
X129765000Y-29845000D03*
X129765000Y-31115000D03*
X129765000Y-32385000D03*
X129765000Y-33655000D03*
X129765000Y-34925000D03*
X129765000Y-36195000D03*
X129765000Y-37465000D03*
X129765000Y-38735000D03*
X129765000Y-40005000D03*
X139065000Y-40005000D03*
X139065000Y-38735000D03*
X139065000Y-37465000D03*
X139065000Y-36195000D03*
X139065000Y-34925000D03*
X139065000Y-33655000D03*
X139065000Y-32385000D03*
X139065000Y-31115000D03*
X139065000Y-29845000D03*
X139065000Y-28575000D03*
%TD*%
D12*
%TO.C,C1*%
X61302500Y-29845000D03*
X64427500Y-29845000D03*
%TD*%
D13*
%TO.C,U5*%
X61990000Y-33045000D03*
X59690000Y-33045000D03*
D14*
X59690000Y-39345000D03*
D13*
X57390000Y-33045000D03*
%TD*%
D10*
%TO.C,R3*%
X78405000Y-29591000D03*
X81505000Y-29591000D03*
%TD*%
%TO.C,R7*%
X83895000Y-29666000D03*
X86995000Y-29666000D03*
%TD*%
D15*
%TO.C,U4*%
X92840000Y-30480000D03*
X92840000Y-31750000D03*
X92840000Y-33020000D03*
X92840000Y-34290000D03*
X92840000Y-35560000D03*
X92840000Y-36830000D03*
X92840000Y-38100000D03*
X97790000Y-38100000D03*
X97790000Y-36830000D03*
X97790000Y-35560000D03*
X97790000Y-34290000D03*
X97790000Y-33020000D03*
X97790000Y-31750000D03*
X97790000Y-30480000D03*
%TD*%
D16*
%TO.C,Q3*%
X68985000Y-37785000D03*
X71985000Y-38735000D03*
X68985000Y-39685000D03*
%TD*%
%TO.C,Q2*%
X68985000Y-33340000D03*
X71985000Y-34290000D03*
X68985000Y-35240000D03*
%TD*%
D10*
%TO.C,R6*%
X78405000Y-39116000D03*
X81505000Y-39116000D03*
%TD*%
D17*
%TO.C,C3*%
X177165000Y-35560000D03*
D18*
X177165000Y-32060000D03*
%TD*%
D10*
%TO.C,R14*%
X123037000Y-28549600D03*
X126137000Y-28549600D03*
%TD*%
D19*
%TO.C,C2*%
X58077500Y-29845000D03*
X54952500Y-29845000D03*
%TD*%
D20*
%TO.C,Y1*%
X148717000Y-37966400D03*
X153797000Y-37966400D03*
X153797000Y-33966400D03*
X148717000Y-33966400D03*
%TD*%
D10*
%TO.C,R5*%
X78405000Y-35966000D03*
X81505000Y-35966000D03*
%TD*%
D21*
%TO.C,D2*%
X168887600Y-33858200D03*
X166087600Y-33858200D03*
%TD*%
D12*
%TO.C,C5*%
X101078900Y-30429200D03*
X104203900Y-30429200D03*
%TD*%
D10*
%TO.C,R13*%
X159942600Y-37668200D03*
X163042600Y-37668200D03*
%TD*%
D22*
%TO.C,U2*%
X188595000Y-38100000D03*
D23*
X188595000Y-35560000D03*
X188595000Y-33020000D03*
X188595000Y-30480000D03*
X186055000Y-38100000D03*
X186055000Y-35560000D03*
X186055000Y-33020000D03*
X186055000Y-30480000D03*
%TD*%
D12*
%TO.C,C6*%
X142252300Y-28600400D03*
X145377300Y-28600400D03*
%TD*%
D10*
%TO.C,R10*%
X83895000Y-39116000D03*
X86995000Y-39116000D03*
%TD*%
D24*
%TO.C,D1*%
X32900000Y-41800000D03*
X30100000Y-41800000D03*
%TD*%
D25*
%TO.C,J2*%
X111140000Y-31750000D03*
X116190000Y-31750000D03*
X111140000Y-34290000D03*
X116190000Y-34290000D03*
X111140000Y-36830000D03*
X116190000Y-36830000D03*
%TD*%
D10*
%TO.C,R8*%
X83895000Y-32816000D03*
X86995000Y-32816000D03*
%TD*%
D26*
%TO.C,H1*%
X31115000Y-34290000D03*
%TD*%
D10*
%TO.C,R4*%
X78405000Y-32766000D03*
X81505000Y-32766000D03*
%TD*%
D26*
%TO.C,H2*%
X216535000Y-34290000D03*
%TD*%
D27*
%TO.C,R11*%
X38475000Y-41800000D03*
X35375000Y-41800000D03*
%TD*%
D16*
%TO.C,Q1*%
X68985000Y-28895000D03*
X71985000Y-29845000D03*
X68985000Y-30795000D03*
%TD*%
D10*
%TO.C,R9*%
X83895000Y-35966000D03*
X86995000Y-35966000D03*
%TD*%
D12*
%TO.C,C7*%
X149745300Y-28651200D03*
X152870300Y-28651200D03*
%TD*%
D21*
%TO.C,D3*%
X168887600Y-37668200D03*
X166087600Y-37668200D03*
%TD*%
D28*
%TO.C,J1*%
X49530000Y-36140000D03*
D29*
X49530000Y-33600000D03*
X46990000Y-36140000D03*
X46990000Y-33600000D03*
X44450000Y-36140000D03*
X44450000Y-33600000D03*
X41910000Y-36140000D03*
X41910000Y-33600000D03*
X39370000Y-36140000D03*
X39370000Y-33600000D03*
%TD*%
M02*
