%TF.GenerationSoftware,KiCad,Pcbnew,10.0.1-10.0.1~ubuntu24.04.1*%
%TF.CreationDate,2026-04-26T18:24:38-04:00*%
%TF.ProjectId,set_board_avr,7365745f-626f-4617-9264-5f6176722e6b,rev?*%
%TF.SameCoordinates,Original*%
%TF.FileFunction,Legend,Bot*%
%TF.FilePolarity,Positive*%
%FSLAX46Y46*%
G04 Gerber Fmt 4.6, Leading zero omitted, Abs format (unit mm)*
G04 Created by KiCad (PCBNEW 10.0.1-10.0.1~ubuntu24.04.1) date 2026-04-26 18:24:38*
%MOMM*%
%LPD*%
G01*
G04 APERTURE LIST*
%ADD10C,0.150000*%
%ADD11C,0.120000*%
G04 APERTURE END LIST*
D10*
X51254819Y-30151666D02*
X51969104Y-30151666D01*
X51969104Y-30151666D02*
X52111961Y-30104047D01*
X52111961Y-30104047D02*
X52207200Y-30008809D01*
X52207200Y-30008809D02*
X52254819Y-29865952D01*
X52254819Y-29865952D02*
X52254819Y-29770714D01*
X52254819Y-31151666D02*
X52254819Y-30580238D01*
X52254819Y-30865952D02*
X51254819Y-30865952D01*
X51254819Y-30865952D02*
X51397676Y-30770714D01*
X51397676Y-30770714D02*
X51492914Y-30675476D01*
X51492914Y-30675476D02*
X51540533Y-30580238D01*
%TO.C,J1*%
D11*
X38940000Y-23450000D02*
X38940000Y-29450000D01*
X38940000Y-32522642D02*
X38940000Y-32210000D01*
X38940000Y-35062642D02*
X38940000Y-34677358D01*
X39800000Y-23450000D02*
X38940000Y-23450000D01*
X39800000Y-29450000D02*
X39800000Y-23450000D01*
X39800000Y-32522642D02*
X39800000Y-32210000D01*
X39800000Y-35062642D02*
X39800000Y-34677358D01*
X40640000Y-32210000D02*
X40640000Y-29450000D01*
X41480000Y-23450000D02*
X41480000Y-29450000D01*
X41480000Y-32522642D02*
X41480000Y-32210000D01*
X41480000Y-35062642D02*
X41480000Y-34677358D01*
X42340000Y-23450000D02*
X41480000Y-23450000D01*
X42340000Y-29450000D02*
X42340000Y-23450000D01*
X42340000Y-32522642D02*
X42340000Y-32210000D01*
X42340000Y-35062642D02*
X42340000Y-34677358D01*
X43180000Y-32210000D02*
X43180000Y-29450000D01*
X44020000Y-23450000D02*
X44020000Y-29450000D01*
X44020000Y-32522642D02*
X44020000Y-32210000D01*
X44020000Y-35062642D02*
X44020000Y-34677358D01*
X44880000Y-23450000D02*
X44020000Y-23450000D01*
X44880000Y-29450000D02*
X44880000Y-23450000D01*
X44880000Y-32522642D02*
X44880000Y-32210000D01*
X44880000Y-35062642D02*
X44880000Y-34677358D01*
X45720000Y-32210000D02*
X45720000Y-29450000D01*
X46560000Y-23450000D02*
X46560000Y-29450000D01*
X46560000Y-32522642D02*
X46560000Y-32210000D01*
X46560000Y-35062642D02*
X46560000Y-34677358D01*
X47420000Y-23450000D02*
X46560000Y-23450000D01*
X47420000Y-29450000D02*
X47420000Y-23450000D01*
X47420000Y-32522642D02*
X47420000Y-32210000D01*
X47420000Y-35062642D02*
X47420000Y-34677358D01*
X48260000Y-32210000D02*
X48260000Y-29450000D01*
X49100000Y-32522642D02*
X49100000Y-32210000D01*
X49100000Y-34980000D02*
X49100000Y-34677358D01*
X49530000Y-37410000D02*
X50800000Y-37410000D01*
X49960000Y-32522642D02*
X49960000Y-32210000D01*
X49960000Y-34980000D02*
X49960000Y-34677358D01*
X50800000Y-37410000D02*
X50800000Y-36140000D01*
X49100000Y-23450000D02*
X49960000Y-23450000D01*
X49960000Y-29450000D01*
X49100000Y-29450000D01*
X49100000Y-23450000D01*
G36*
X49100000Y-23450000D02*
G01*
X49960000Y-23450000D01*
X49960000Y-29450000D01*
X49100000Y-29450000D01*
X49100000Y-23450000D01*
G37*
X37990000Y-29450000D02*
X50910000Y-29450000D01*
X50910000Y-32210000D01*
X37990000Y-32210000D01*
X37990000Y-29450000D01*
%TD*%
M02*
