M48
; DRILL file KiCad 10.0.1-10.0.1~ubuntu24.04.1 date 2026-04-23T16:40:57
; FORMAT={-:-/ absolute / metric / decimal}
; #@! TF.CreationDate,2026-04-23T16:40:57-04:00
; #@! TF.GenerationSoftware,Kicad,Pcbnew,10.0.1-10.0.1~ubuntu24.04.1
; #@! TF.FileFunction,Plated,1,2,PTH
FMAT,2
METRIC
; #@! TA.AperFunction,Plated,PTH,ComponentDrill
T1C0.800
; #@! TA.AperFunction,Plated,PTH,ComponentDrill
T2C1.000
; #@! TA.AperFunction,Plated,PTH,ComponentDrill
T3C1.067
; #@! TA.AperFunction,Plated,PTH,ComponentDrill
T4C4.500
%
G90
G05
T1
X177.165Y-32.06
X177.165Y-35.56
T2
X39.37Y-33.6
X39.37Y-36.14
X41.91Y-33.6
X41.91Y-36.14
X44.45Y-33.6
X44.45Y-36.14
X46.99Y-33.6
X46.99Y-36.14
X49.53Y-33.6
X49.53Y-36.14
T3
X186.055Y-30.48
X186.055Y-33.02
X186.055Y-35.56
X186.055Y-38.1
X188.595Y-30.48
X188.595Y-33.02
X188.595Y-35.56
X188.595Y-38.1
T4
X31.115Y-34.29
X216.535Y-34.29
M30
