999
dxfrw 0.6.3
  0
SECTION
  2
HEADER
  9
$ACADVER
  1
AC1021
  9
$DWGCODEPAGE
  3
ANSI_1252
  9
$INSBASE
 10
0
 20
0
 30
0
  9
$EXTMIN
 10
0
 20
3
 30
0
  9
$EXTMAX
 10
964.5114326816824
 20
781.3482382594466
 30
0
  9
$LIMMIN
 10
0
 20
0
  9
$LIMMAX
 10
420
 20
297
  9
$ORTHOMODE
 70
    0
  9
$REGENMODE
 70
    1
  9
$FILLMODE
 70
    1
  9
$QTEXTMODE
 70
    0
  9
$MIRRTEXT
 70
    0
  9
$LTSCALE
 40
1
  9
$ATTMODE
 70
    0
  9
$TEXTSIZE
 40
2.5
  9
$TRACEWID
 40
15.68
  9
$TEXTSTYLE
  7
STANDARD
  9
$CLAYER
  8
DIM
  9
$CELTYPE
  6
BYLAYER
  9
$CECOLOR
 62
  256
  9
$CELTSCALE
 40
1
  9
$DISPSILH
 70
    0
  9
$DIMSCALE
 40
1
  9
$DIMASZ
 40
2.5
  9
$DIMEXO
 40
0.625
  9
$DIMDLI
 40
3.75
  9
$DIMRND
 40
0
  9
$DIMDLE
 40
0
  9
$DIMEXE
 40
1.25
  9
$DIMTP
 40
0
  9
$DIMTM
 40
0
  9
$DIMTXT
 40
2.5
  9
$DIMCEN
 40
2.5
  9
$DIMTSZ
 40
0
  9
$DIMTOL
 70
    0
  9
$DIMLIM
 70
    0
  9
$DIMTIH
 70
    0
  9
$DIMTOH
 70
    0
  9
$DIMSE1
 70
    0
  9
$DIMSE2
 70
    0
  9
$DIMTAD
 70
    1
  9
$DIMZIN
 70
    8
  9
$DIMBLK
  1

  9
$DIMASO
 70
    1
  9
$DIMSHO
 70
    1
  9
$DIMPOST
  1

  9
$DIMAPOST
  1

  9
$DIMALT
 70
    0
  9
$DIMALTD
 70
    3
  9
$DIMALTF
 40
0.03937
  9
$DIMLFAC
 40
1
  9
$DIMTOFL
 70
    1
  9
$DIMTVP
 40
0
  9
$DIMTIX
 70
    0
  9
$DIMSOXD
 70
    0
  9
$DIMSAH
 70
    0
  9
$DIMBLK1
  1

  9
$DIMBLK2
  1

  9
$DIMSTYLE
  2
Standard
  9
$DIMCLRD
 70
    0
  9
$DIMCLRE
 70
    0
  9
$DIMCLRT
 70
    0
  9
$DIMTFAC
 40
1
  9
$DIMGAP
 40
0.625
  9
$DIMJUST
 70
    0
  9
$DIMSD1
 70
    0
  9
$DIMSD2
 70
    0
  9
$DIMTOLJ
 70
    0
  9
$DIMTZIN
 70
    8
  9
$DIMALTZ
 70
    0
  9
$DIMALTTZ
 70
    0
  9
$DIMUPT
 70
    0
  9
$DIMDEC
 70
    2
  9
$DIMTDEC
 70
    2
  9
$DIMALTU
 70
    2
  9
$DIMALTTD
 70
    3
  9
$DIMTXSTY
  7
STANDARD
  9
$DIMAUNIT
 70
    0
  9
$DIMADEC
 70
    0
  9
$DIMALTRND
 40
0
  9
$DIMAZIN
 70
    0
  9
$DIMDSEP
 70
   44
  9
$DIMATFIT
 70
    3
  9
$DIMFRAC
 70
    0
  9
$DIMLDRBLK
  1
STANDARD
  9
$DIMLUNIT
 70
    2
  9
$DIMLWD
 70
   -2
  9
$DIMLWE
 70
   -2
  9
$DIMTMOVE
 70
    0
  9
$DIMFXL
 40
1
  9
$DIMFXLON
 70
    0
  9
$DIMJOGANG
 40
0.7854
  9
$DIMTFILL
 70
    0
  9
$DIMTFILLCLR
 70
    0
  9
$DIMARCSYM
 70
    0
  9
$DIMLTYPE
  6

  9
$DIMLTEX1
  6

  9
$DIMLTEX2
  6

  9
$LUNITS
 70
    2
  9
$LUPREC
 70
    4
  9
$SKETCHINC
 40
1
  9
$FILLETRAD
 40
0
  9
$AUNITS
 70
    0
  9
$AUPREC
 70
    2
  9
$MENU
  1
.
  9
$ELEVATION
 40
0
  9
$PELEVATION
 40
0
  9
$THICKNESS
 40
0
  9
$LIMCHECK
 70
    0
  9
$CHAMFERA
 40
0
  9
$CHAMFERB
 40
0
  9
$CHAMFERC
 40
0
  9
$CHAMFERD
 40
0
  9
$SKPOLY
 70
    0
  9
$USRTIMER
 70
    1
  9
$ANGBASE
 50
0
  9
$ANGDIR
 70
    0
  9
$PDMODE
 70
   34
  9
$PDSIZE
 40
0
  9
$PLINEWID
 40
0
  9
$SPLFRAME
 70
    0
  9
$SPLINETYPE
 70
    2
  9
$SPLINESEGS
 70
    8
  9
$HANDSEED
  5
20000
  9
$SURFTAB1
 70
    6
  9
$SURFTAB2
 70
    6
  9
$SURFTYPE
 70
    6
  9
$SURFU
 70
    6
  9
$SURFV
 70
    6
  9
$UCSBASE
  2

  9
$UCSNAME
  2

  9
$UCSORG
 10
0
 20
0
 30
0
  9
$UCSXDIR
 10
1
 20
0
 30
0
  9
$UCSYDIR
 10
0
 20
1
 30
0
  9
$UCSORTHOREF
  2

  9
$UCSORTHOVIEW
 70
    0
  9
$UCSORGTOP
 10
0
 20
0
 30
0
  9
$UCSORGBOTTOM
 10
0
 20
0
 30
0
  9
$UCSORGLEFT
 10
0
 20
0
 30
0
  9
$UCSORGRIGHT
 10
0
 20
0
 30
0
  9
$UCSORGFRONT
 10
0
 20
0
 30
0
  9
$UCSORGBACK
 10
0
 20
0
 30
0
  9
$PUCSBASE
  2

  9
$PUCSNAME
  2

  9
$PUCSORG
 10
0
 20
0
 30
0
  9
$PUCSXDIR
 10
1
 20
0
 30
0
  9
$PUCSYDIR
 10
0
 20
1
 30
0
  9
$PUCSORTHOREF
  2

  9
$PUCSORTHOVIEW
 70
    0
  9
$PUCSORGTOP
 10
0
 20
0
 30
0
  9
$PUCSORGBOTTOM
 10
0
 20
0
 30
0
  9
$PUCSORGLEFT
 10
0
 20
0
 30
0
  9
$PUCSORGRIGHT
 10
0
 20
0
 30
0
  9
$PUCSORGFRONT
 10
0
 20
0
 30
0
  9
$PUCSORGBACK
 10
0
 20
0
 30
0
  9
$USERI1
 70
    0
  9
$USERI2
 70
    0
  9
$USERI3
 70
    0
  9
$USERI4
 70
    0
  9
$USERI5
 70
    0
  9
$USERR1
 40
0
  9
$USERR2
 40
0
  9
$USERR3
 40
0
  9
$USERR4
 40
0
  9
$USERR5
 40
0
  9
$WORLDVIEW
 70
    1
  9
$SHADEDGE
 70
    3
  9
$SHADEDIF
 70
   70
  9
$TILEMODE
 70
    1
  9
$MAXACTVP
 70
   64
  9
$PINSBASE
 10
0
 20
0
 30
0
  9
$PLIMCHECK
 70
    0
  9
$PEXTMIN
 10
0
 20
0
 30
0
  9
$PEXTMAX
 10
0
 20
0
 30
0
  9
$GRIDMODE
 70
    1
  9
$SNAPSTYLE
 70
    0
  9
$PLIMMIN
 10
0
 20
0
  9
$PLIMMAX
 10
8.5
 20
11
  9
$UNITMODE
 70
    0
  9
$VISRETAIN
 70
    1
  9
$PLINEGEN
 70
    0
  9
$PSLTSCALE
 70
    1
  9
$TREEDEPTH
 70
 3020
  9
$CMLSTYLE
  2
Standard
  9
$CMLJUST
 70
    0
  9
$CMLSCALE
 40
20
  9
$PROXYGRAPHICS
 70
    1
  9
$MEASUREMENT
 70
    1
  9
$CELWEIGHT
370
   -1
  9
$ENDCAPS
280
    0
  9
$JOINSTYLE
280
    0
  9
$LWDISPLAY
290
    0
  9
$INSUNITS
 70
    4
  9
$HYPERLINKBASE
  1

  9
$STYLESHEET
  1

  9
$XEDIT
290
    1
  9
$CEPSNTYPE
380
    0
  9
$PSTYLEMODE
290
    1
  9
$EXTNAMES
290
    1
  9
$PSVPSCALE
 40
1
  9
$OLESTARTUP
290
    0
  9
$SORTENTS
280
  127
  9
$INDEXCTL
280
    0
  9
$HIDETEXT
280
    1
  9
$XCLIPFRAME
290
    0
  9
$HALOGAP
280
    0
  9
$OBSCOLOR
 70
  257
  9
$OBSLTYPE
280
    0
  9
$INTERSECTIONDISPLAY
280
    0
  9
$INTERSECTIONCOLOR
 70
  257
  9
$DIMASSOC
280
    1
  9
$PROJECTNAME
  1

  9
$CAMERADISPLAY
290
    0
  9
$LENSLENGTH
 40
50
  9
$CAMERAHEIGHT
 40
0
  9
$STEPSPERSEC
 40
2
  9
$STEPSIZE
 40
50
  9
$3DDWFPREC
 40
2
  9
$PSOLWIDTH
 40
5
  9
$PSOLHEIGHT
 40
80
  9
$LOFTANG1
 40
1.570796326794897
  9
$LOFTANG2
 40
1.570796326794897
  9
$LOFTMAG1
 40
0
  9
$LOFTMAG2
 40
0
  9
$LOFTPARAM
 70
    7
  9
$LOFTNORMALS
280
    1
  9
$LATITUDE
 40
1
  9
$LONGITUDE
 40
1
  9
$NORTHDIRECTION
 40
0
  9
$TIMEZONE
 70
-8000
  9
$LIGHTGLYPHDISPLAY
280
    1
  9
$TILEMODELIGHTSYNCH
280
    1
  9
$SOLIDHIST
280
    1
  9
$SHOWHIST
280
    1
  9
$DWFFRAME
280
    2
  9
$DGNFRAME
280
    0
  9
$REALWORLDSCALE
290
    1
  9
$INTERFERECOLOR
 62
    1
  9
$CSHADOW
280
    0
  9
$SHADOWPLANELOCATION
 40
0
  0
ENDSEC
  0
SECTION
  2
CLASSES
  0
ENDSEC
  0
SECTION
  2
TABLES
  0
TABLE
  2
VPORT
  5
8
330
0
100
AcDbSymbolTable
 70
    1
  0
VPORT
  5
31
330
2
100
AcDbSymbolTableRecord
100
AcDbViewportTableRecord
  2
*ACTIVE
 70
    0
 10
0
 20
0
 11
1
 21
1
 12
731.7203032097959
 22
433.5970089419467
 13
0
 23
0
 14
10
 24
10
 15
10
 25
10
 16
0
 26
0
 36
1
 17
0
 27
0
 37
0
 40
664.3890557969211
 41
1.931623931623932
 42
50
 43
0
 44
0
 50
0
 51
0
 71
    0
 72
  100
 73
    1
 74
    3
 75
    0
 76
    1
 77
    0
 78
    0
281
    0
 65
    1
110
0
120
0
130
0
111
1
121
0
131
0
112
0
122
1
132
0
 79
    0
146
0
348
10020
 60
    7
 61
    5
292
1
282
    1
141
0
142
0
 63
  250
421
3358443
  0
ENDTAB
  0
TABLE
  2
LTYPE
  5
5
330
0
100
AcDbSymbolTable
 70
    4
  0
LTYPE
  5
14
330
5
100
AcDbSymbolTableRecord
100
AcDbLinetypeTableRecord
  2
ByBlock
 70
    0
  3

 72
   65
 73
    0
 40
0
  0
LTYPE
  5
15
330
5
100
AcDbSymbolTableRecord
100
AcDbLinetypeTableRecord
  2
ByLayer
 70
    0
  3

 72
   65
 73
    0
 40
0
  0
LTYPE
  5
16
330
5
100
AcDbSymbolTableRecord
100
AcDbLinetypeTableRecord
  2
Continuous
 70
    0
  3
Solid line
 72
   65
 73
    0
 40
0
  0
LTYPE
  5
32
330
5
100
AcDbSymbolTableRecord
100
AcDbLinetypeTableRecord
  2
DOT
 70
    0
  3
Dot . . . . . . . . . . . . . . . . . . . . . .
 72
   65
 73
    2
 40
6.35
 49
0
 74
    0
 49
-6.35
 74
    0
  0
LTYPE
  5
33
330
5
100
AcDbSymbolTableRecord
100
AcDbLinetypeTableRecord
  2
DOTTINY
 70
    0
  3
Dot (.15x) .....................................
 72
   65
 73
    2
 40
0.9525
 49
0
 74
    0
 49
-0.9525
 74
    0
  0
LTYPE
  5
34
330
5
100
AcDbSymbolTableRecord
100
AcDbLinetypeTableRecord
  2
DOT2
 70
    0
  3
Dot (.5x) .....................................
 72
   65
 73
    2
 40
3.175
 49
0
 74
    0
 49
-3.175
 74
    0
  0
LTYPE
  5
35
330
5
100
AcDbSymbolTableRecord
100
AcDbLinetypeTableRecord
  2
DOTX2
 70
    0
  3
Dot (2x) .  .  .  .  .  .  .  .  .  .  .  .  .
 72
   65
 73
    2
 40
12.7
 49
0
 74
    0
 49
-12.7
 74
    0
  0
LTYPE
  5
36
330
5
100
AcDbSymbolTableRecord
100
AcDbLinetypeTableRecord
  2
DASHED
 70
    0
  3
Dashed _ _ _ _ _ _ _ _ _ _ _ _ _ _ _ _ _
 72
   65
 73
    2
 40
19.05
 49
12.7
 74
    0
 49
-6.35
 74
    0
  0
LTYPE
  5
37
330
5
100
AcDbSymbolTableRecord
100
AcDbLinetypeTableRecord
  2
DASHEDTINY
 70
    0
  3
Dashed (.15x) _ _ _ _ _ _ _ _ _ _ _ _ _ _ _ _ _
 72
   65
 73
    2
 40
2.8575
 49
1.905
 74
    0
 49
-0.9525
 74
    0
  0
LTYPE
  5
38
330
5
100
AcDbSymbolTableRecord
100
AcDbLinetypeTableRecord
  2
DASHED2
 70
    0
  3
Dashed (.5x) _ _ _ _ _ _ _ _ _ _ _ _ _ _ _ _ _
 72
   65
 73
    2
 40
9.524999999999999
 49
6.35
 74
    0
 49
-3.175
 74
    0
  0
LTYPE
  5
39
330
5
100
AcDbSymbolTableRecord
100
AcDbLinetypeTableRecord
  2
DASHEDX2
 70
    0
  3
Dashed (2x) ____  ____  ____  ____  ____  ___
 72
   65
 73
    2
 40
38.09999999999999
 49
25.4
 74
    0
 49
-12.7
 74
    0
  0
LTYPE
  5
3A
330
5
100
AcDbSymbolTableRecord
100
AcDbLinetypeTableRecord
  2
DASHDOT
 70
    0
  3
Dash dot __ . __ . __ . __ . __ . __ . __ . __
 72
   65
 73
    4
 40
25.4
 49
12.7
 74
    0
 49
-6.35
 74
    0
 49
0
 74
    0
 49
-6.35
 74
    0
  0
LTYPE
  5
3B
330
5
100
AcDbSymbolTableRecord
100
AcDbLinetypeTableRecord
  2
DASHDOTTINY
 70
    0
  3
Dash dot (.15x) _._._._._._._._._._._._._._._.
 72
   65
 73
    4
 40
3.81
 49
1.905
 74
    0
 49
-0.9525
 74
    0
 49
0
 74
    0
 49
-0.9525
 74
    0
  0
LTYPE
  5
3C
330
5
100
AcDbSymbolTableRecord
100
AcDbLinetypeTableRecord
  2
DASHDOT2
 70
    0
  3
Dash dot (.5x) _._._._._._._._._._._._._._._.
 72
   65
 73
    4
 40
12.7
 49
6.35
 74
    0
 49
-3.175
 74
    0
 49
0
 74
    0
 49
-3.175
 74
    0
  0
LTYPE
  5
3D
330
5
100
AcDbSymbolTableRecord
100
AcDbLinetypeTableRecord
  2
DASHDOTX2
 70
    0
  3
Dash dot (2x) ____  .  ____  .  ____  .  ___
 72
   65
 73
    4
 40
50.8
 49
25.4
 74
    0
 49
-12.7
 74
    0
 49
0
 74
    0
 49
-12.7
 74
    0
  0
LTYPE
  5
3E
330
5
100
AcDbSymbolTableRecord
100
AcDbLinetypeTableRecord
  2
DIVIDE
 70
    0
  3
Divide ____ . . ____ . . ____ . . ____ . . ____
 72
   65
 73
    6
 40
31.75
 49
12.7
 74
    0
 49
-6.35
 74
    0
 49
0
 74
    0
 49
-6.35
 74
    0
 49
0
 74
    0
 49
-6.35
 74
    0
  0
LTYPE
  5
3F
330
5
100
AcDbSymbolTableRecord
100
AcDbLinetypeTableRecord
  2
DIVIDETINY
 70
    0
  3
Divide (.15x) __..__..__..__..__..__..__..__.._
 72
   65
 73
    6
 40
4.7625
 49
1.905
 74
    0
 49
-0.9525
 74
    0
 49
0
 74
    0
 49
-0.9525
 74
    0
 49
0
 74
    0
 49
-0.9525
 74
    0
  0
LTYPE
  5
40
330
5
100
AcDbSymbolTableRecord
100
AcDbLinetypeTableRecord
  2
DIVIDE2
 70
    0
  3
Divide (.5x) __..__..__..__..__..__..__..__.._
 72
   65
 73
    6
 40
15.875
 49
6.35
 74
    0
 49
-3.175
 74
    0
 49
0
 74
    0
 49
-3.175
 74
    0
 49
0
 74
    0
 49
-3.175
 74
    0
  0
LTYPE
  5
41
330
5
100
AcDbSymbolTableRecord
100
AcDbLinetypeTableRecord
  2
DIVIDEX2
 70
    0
  3
Divide (2x) ________  .  .  ________  .  .  _
 72
   65
 73
    6
 40
63.5
 49
25.4
 74
    0
 49
-12.7
 74
    0
 49
0
 74
    0
 49
-12.7
 74
    0
 49
0
 74
    0
 49
-12.7
 74
    0
  0
LTYPE
  5
42
330
5
100
AcDbSymbolTableRecord
100
AcDbLinetypeTableRecord
  2
BORDER
 70
    0
  3
Border __ __ . __ __ . __ __ . __ __ . __ __ .
 72
   65
 73
    6
 40
44.45
 49
12.7
 74
    0
 49
-6.35
 74
    0
 49
12.7
 74
    0
 49
-6.35
 74
    0
 49
0
 74
    0
 49
-6.35
 74
    0
  0
LTYPE
  5
43
330
5
100
AcDbSymbolTableRecord
100
AcDbLinetypeTableRecord
  2
BORDERTINY
 70
    0
  3
Border (.15x) __.__.__.__.__.__.__.__.__.__.__.
 72
   65
 73
    6
 40
6.6675
 49
1.905
 74
    0
 49
-0.9525
 74
    0
 49
1.905
 74
    0
 49
-0.9525
 74
    0
 49
0
 74
    0
 49
-0.9525
 74
    0
  0
LTYPE
  5
44
330
5
100
AcDbSymbolTableRecord
100
AcDbLinetypeTableRecord
  2
BORDER2
 70
    0
  3
Border (.5x) __.__.__.__.__.__.__.__.__.__.__.
 72
   65
 73
    6
 40
22.225
 49
6.35
 74
    0
 49
-3.175
 74
    0
 49
6.35
 74
    0
 49
-3.175
 74
    0
 49
0
 74
    0
 49
-3.175
 74
    0
  0
LTYPE
  5
45
330
5
100
AcDbSymbolTableRecord
100
AcDbLinetypeTableRecord
  2
BORDERX2
 70
    0
  3
Border (2x) ____  ____  .  ____  ____  .  ___
 72
   65
 73
    6
 40
88.89999999999999
 49
25.4
 74
    0
 49
-12.7
 74
    0
 49
25.4
 74
    0
 49
-12.7
 74
    0
 49
0
 74
    0
 49
-12.7
 74
    0
  0
LTYPE
  5
46
330
5
100
AcDbSymbolTableRecord
100
AcDbLinetypeTableRecord
  2
CENTER
 70
    0
  3
Center ____ _ ____ _ ____ _ ____ _ ____ _ ____
 72
   65
 73
    4
 40
50.8
 49
31.75
 74
    0
 49
-6.35
 74
    0
 49
6.35
 74
    0
 49
-6.35
 74
    0
  0
LTYPE
  5
47
330
5
100
AcDbSymbolTableRecord
100
AcDbLinetypeTableRecord
  2
CENTERTINY
 70
    0
  3
Center (.15x) ___ _ ___ _ ___ _ ___ _ ___ _ ___
 72
   65
 73
    4
 40
7.619999999999999
 49
4.7625
 74
    0
 49
-0.9525
 74
    0
 49
0.9525
 74
    0
 49
-0.9525
 74
    0
  0
LTYPE
  5
48
330
5
100
AcDbSymbolTableRecord
100
AcDbLinetypeTableRecord
  2
CENTER2
 70
    0
  3
Center (.5x) ___ _ ___ _ ___ _ ___ _ ___ _ ___
 72
   65
 73
    4
 40
28.575
 49
19.05
 74
    0
 49
-3.175
 74
    0
 49
3.175
 74
    0
 49
-3.175
 74
    0
  0
LTYPE
  5
49
330
5
100
AcDbSymbolTableRecord
100
AcDbLinetypeTableRecord
  2
CENTERX2
 70
    0
  3
Center (2x) ________  __  ________  __  _____
 72
   65
 73
    4
 40
101.6
 49
63.5
 74
    0
 49
-12.7
 74
    0
 49
12.7
 74
    0
 49
-12.7
 74
    0
  0
ENDTAB
  0
TABLE
  2
LAYER
  5
2
330
0
100
AcDbSymbolTable
 70
    1
  0
LAYER
  5
10
330
2
100
AcDbSymbolTableRecord
100
AcDbLayerTableRecord
  2
0
 70
    1
 62
    7
  6
CONTINUOUS
370
    0
390
F
  0
LAYER
  5
4A
330
2
100
AcDbSymbolTableRecord
100
AcDbLayerTableRecord
  2
BOARD
 70
    1
 62
    4
  6
CONTINUOUS
370
    0
390
F
  0
LAYER
  5
4B
330
2
100
AcDbSymbolTableRecord
100
AcDbLayerTableRecord
  2
DIM
 70
    0
 62
    3
  6
CONTINUOUS
370
    0
390
F
  0
LAYER
  5
4C
330
2
100
AcDbSymbolTableRecord
100
AcDbLayerTableRecord
  2
back_outsideCutPath
 70
    0
 62
    7
  6
CONTINUOUS
370
   -3
390
F
  0
LAYER
  5
4D
330
2
100
AcDbSymbolTableRecord
100
AcDbLayerTableRecord
  2
bottom_outsideCutPath
 70
    0
 62
    7
  6
CONTINUOUS
370
   -3
390
F
  0
LAYER
  5
4E
330
2
100
AcDbSymbolTableRecord
100
AcDbLayerTableRecord
  2
front_outsideCutPath
 70
    1
 62
    7
  6
CONTINUOUS
370
   -3
390
F
  0
LAYER
  5
4F
330
2
100
AcDbSymbolTableRecord
100
AcDbLayerTableRecord
  2
left_outsideCutPath
 70
    0
 62
    7
  6
CONTINUOUS
370
   -3
390
F
  0
LAYER
  5
50
330
2
100
AcDbSymbolTableRecord
100
AcDbLayerTableRecord
  2
right_outsideCutPath
 70
    1
 62
    7
  6
CONTINUOUS
370
   -3
390
F
  0
LAYER
  5
51
330
2
100
AcDbSymbolTableRecord
100
AcDbLayerTableRecord
  2
top_outsideCutPath
 70
    1
 62
    7
  6
CONTINUOUS
370
   -3
390
F
  0
ENDTAB
  0
TABLE
  2
STYLE
  5
3
330
0
100
AcDbSymbolTable
 70
    3
  0
STYLE
  5
52
330
2
100
AcDbSymbolTableRecord
100
AcDbTextStyleTableRecord
  2
Standard
 70
    0
 40
0
 41
1
 50
0
 71
    0
 42
1
  3
txt
  4

  0
ENDTAB
  0
TABLE
  2
VIEW
  5
6
330
0
100
AcDbSymbolTable
 70
    0
  0
ENDTAB
  0
TABLE
  2
UCS
  5
7
330
0
100
AcDbSymbolTable
 70
    0
  0
ENDTAB
  0
TABLE
  2
APPID
  5
9
330
0
100
AcDbSymbolTable
 70
    1
  0
APPID
  5
12
330
9
100
AcDbSymbolTableRecord
100
AcDbRegAppTableRecord
  2
ACAD
 70
    0
  0
APPID
  5
53
330
9
100
AcDbSymbolTableRecord
100
AcDbRegAppTableRecord
  2
LibreCad
 70
    0
  0
ENDTAB
  0
TABLE
  2
DIMSTYLE
  5
A
330
0
100
AcDbSymbolTable
 70
    1
100
AcDbDimStyleTable
 71
    1
  0
DIMSTYLE
105
54
330
A
100
AcDbSymbolTableRecord
100
AcDbDimStyleTableRecord
  2
Standard
 70
    0
 40
1
 41
2.5
 42
0.625
 43
0.38
 44
1.25
 45
0
 46
0
 47
0
 48
0
 49
1
140
2.5
141
0.09
142
0
143
25.4
144
1
145
0
146
1
147
0.625
148
0
 71
    0
 72
    0
 73
    0
 74
    1
 75
    0
 76
    0
 77
    0
 78
    8
 79
    0
170
    0
171
    2
172
    0
173
    0
174
    0
175
    0
176
    0
177
    0
178
    0
179
    0
271
    2
272
    4
273
    2
274
    2
275
    0
276
    0
277
    2
278
   44
279
    0
280
    0
281
    0
282
    0
283
    1
284
    0
285
    0
286
    0
288
    0
289
    3
340
STANDARD
341

371
   -2
372
   -2
  0
ENDTAB
  0
TABLE
  2
BLOCK_RECORD
  5
1
330
0
100
AcDbSymbolTable
 70
    2
  0
BLOCK_RECORD
  5
1F
330
1
100
AcDbSymbolTableRecord
100
AcDbBlockTableRecord
  2
*Model_Space
 70
    0
280
    1
281
    0
  0
BLOCK_RECORD
  5
1E
330
1
100
AcDbSymbolTableRecord
100
AcDbBlockTableRecord
  2
*Paper_Space
 70
    0
280
    1
281
    0
  0
BLOCK_RECORD
  5
55
330
1
100
AcDbSymbolTableRecord
100
AcDbBlockTableRecord
  2
board
 70
    0
280
    1
281
    0
  0
ENDTAB
  0
ENDSEC
  0
SECTION
  2
BLOCKS
  0
BLOCK
  5
20
330
1F
100
AcDbEntity
  8
0
100
AcDbBlockBegin
  2
*Model_Space
 70
    0
 10
0
 20
0
 30
0
  3
*Model_Space
  1

  0
ENDBLK
  5
21
330
1F
100
AcDbEntity
  8
0
100
AcDbBlockEnd
  0
BLOCK
  5
1C
330
1B
100
AcDbEntity
  8
0
100
AcDbBlockBegin
  2
*Paper_Space
 70
    0
 10
0
 20
0
 30
0
  3
*Paper_Space
  1

  0
ENDBLK
  5
1D
330
1F
100
AcDbEntity
  8
0
100
AcDbBlockEnd
  0
BLOCK
  5
56
330
55
100
AcDbEntity
  8
0
100
AcDbBlockBegin
  2
board
 70
    0
 10
0
 20
0
  3
board
  1

  0
LWPOLYLINE
  5
58
100
AcDbEntity
  8
BOARD
  6
ByLayer
 62
  256
370
   -1
100
AcDbPolyline
 90
    4
 70
    1
 43
0
 10
0
 20
0
 10
254
 20
0
 10
254
 20
355.6
 10
0
 20
355.6
  0
CIRCLE
  5
59
100
AcDbEntity
  8
BOARD
  6
ByLayer
 62
  256
370
   -1
100
AcDbCircle
 10
38.1
 20
12.07
 40
2.25
  0
CIRCLE
  5
5A
100
AcDbEntity
  8
BOARD
  6
ByLayer
 62
  256
370
   -1
100
AcDbCircle
 10
223.52
 20
12.07
 40
2.25
  0
CIRCLE
  5
5B
100
AcDbEntity
  8
BOARD
  6
ByLayer
 62
  256
370
   -1
100
AcDbCircle
 10
127
 20
231.14
 40
2.25
  0
CIRCLE
  5
5C
100
AcDbEntity
  8
BOARD
  6
ByLayer
 62
  256
370
   -1
100
AcDbCircle
 10
7.62
 20
347.98
 40
2.25
  0
CIRCLE
  5
5D
100
AcDbEntity
  8
BOARD
  6
ByLayer
 62
  256
370
   -1
100
AcDbCircle
 10
246.38
 20
347.98
 40
2.25
  0
ENDBLK
  5
57
330
55
100
AcDbEntity
  8
0
100
AcDbBlockEnd
  0
ENDSEC
  0
SECTION
  2
ENTITIES
  0
LINE
  5
5E
100
AcDbEntity
  8
front_outsideCutPath
  6
ByLayer
 62
  256
370
   -1
100
AcDbLine
 10
35.3755
 20
6
 11
65.8968
 21
6
  0
LINE
  5
5F
100
AcDbEntity
  8
front_outsideCutPath
  6
ByLayer
 62
  256
370
   -1
100
AcDbLine
 10
65.8968
 20
6
 11
65.8968
 21
3
  0
LINE
  5
60
100
AcDbEntity
  8
front_outsideCutPath
  6
ByLayer
 62
  256
370
   -1
100
AcDbLine
 10
65.8968
 20
3
 11
96.818
 21
3
  0
LINE
  5
61
100
AcDbEntity
  8
front_outsideCutPath
  6
ByLayer
 62
  256
370
   -1
100
AcDbLine
 10
96.818
 20
3
 11
96.818
 21
6
  0
LINE
  5
62
100
AcDbEntity
  8
front_outsideCutPath
  6
ByLayer
 62
  256
370
   -1
100
AcDbLine
 10
96.818
 20
6
 11
127.3393
 21
6
  0
LINE
  5
63
100
AcDbEntity
  8
front_outsideCutPath
  6
ByLayer
 62
  256
370
   -1
100
AcDbLine
 10
127.3393
 20
6
 11
127.3393
 21
3
  0
LINE
  5
64
100
AcDbEntity
  8
front_outsideCutPath
  6
ByLayer
 62
  256
370
   -1
100
AcDbLine
 10
127.3393
 20
3
 11
158.2606
 21
3
  0
LINE
  5
65
100
AcDbEntity
  8
front_outsideCutPath
  6
ByLayer
 62
  256
370
   -1
100
AcDbLine
 10
158.2606
 20
3
 11
158.2606
 21
6
  0
LINE
  5
66
100
AcDbEntity
  8
front_outsideCutPath
  6
ByLayer
 62
  256
370
   -1
100
AcDbLine
 10
158.2606
 20
6
 11
188.7819
 21
6
  0
LINE
  5
67
100
AcDbEntity
  8
front_outsideCutPath
  6
ByLayer
 62
  256
370
   -1
100
AcDbLine
 10
188.7819
 20
6
 11
188.7819
 21
3
  0
LINE
  5
68
100
AcDbEntity
  8
front_outsideCutPath
  6
ByLayer
 62
  256
370
   -1
100
AcDbLine
 10
188.7819
 20
3
 11
219.7032
 21
3
  0
LINE
  5
69
100
AcDbEntity
  8
front_outsideCutPath
  6
ByLayer
 62
  256
370
   -1
100
AcDbLine
 10
219.7032
 20
3
 11
219.7032
 21
6
  0
LINE
  5
6A
100
AcDbEntity
  8
front_outsideCutPath
  6
ByLayer
 62
  256
370
   -1
100
AcDbLine
 10
219.7032
 20
6
 11
250.2246
 21
6
  0
LINE
  5
6B
100
AcDbEntity
  8
front_outsideCutPath
  6
ByLayer
 62
  256
370
   -1
100
AcDbLine
 10
250.2246
 20
6
 11
250.2246
 21
3
  0
LINE
  5
6C
100
AcDbEntity
  8
front_outsideCutPath
  6
ByLayer
 62
  256
370
   -1
100
AcDbLine
 10
250.2246
 20
3
 11
285.6
 21
3
  0
LINE
  5
6D
100
AcDbEntity
  8
front_outsideCutPath
  6
ByLayer
 62
  256
370
   -1
100
AcDbLine
 10
285.6
 20
3
 11
285.6
 21
22.5894
  0
LINE
  5
6E
100
AcDbEntity
  8
front_outsideCutPath
  6
ByLayer
 62
  256
370
   -1
100
AcDbLine
 10
285.6
 20
22.5894
 11
282.6
 21
22.5894
  0
LINE
  5
6F
100
AcDbEntity
  8
front_outsideCutPath
  6
ByLayer
 62
  256
370
   -1
100
AcDbLine
 10
282.6
 20
22.5894
 11
282.6
 21
53.1107
  0
LINE
  5
70
100
AcDbEntity
  8
front_outsideCutPath
  6
ByLayer
 62
  256
370
   -1
100
AcDbLine
 10
282.6
 20
53.1107
 11
285.6
 21
53.1107
  0
LINE
  5
71
100
AcDbEntity
  8
front_outsideCutPath
  6
ByLayer
 62
  256
370
   -1
100
AcDbLine
 10
285.6
 20
53.1107
 11
285.6
 21
72.7
  0
LINE
  5
72
100
AcDbEntity
  8
front_outsideCutPath
  6
ByLayer
 62
  256
370
   -1
100
AcDbLine
 10
285.6
 20
72.7
 11
250.2246
 21
72.7
  0
LINE
  5
73
100
AcDbEntity
  8
front_outsideCutPath
  6
ByLayer
 62
  256
370
   -1
100
AcDbLine
 10
250.2246
 20
72.7
 11
250.2246
 21
69.7
  0
LINE
  5
74
100
AcDbEntity
  8
front_outsideCutPath
  6
ByLayer
 62
  256
370
   -1
100
AcDbLine
 10
250.2246
 20
69.7
 11
219.7033
 21
69.7
  0
LINE
  5
75
100
AcDbEntity
  8
front_outsideCutPath
  6
ByLayer
 62
  256
370
   -1
100
AcDbLine
 10
219.7033
 20
69.7
 11
219.7033
 21
72.7
  0
LINE
  5
76
100
AcDbEntity
  8
front_outsideCutPath
  6
ByLayer
 62
  256
370
   -1
100
AcDbLine
 10
219.7033
 20
72.7
 11
188.782
 21
72.7
  0
LINE
  5
77
100
AcDbEntity
  8
front_outsideCutPath
  6
ByLayer
 62
  256
370
   -1
100
AcDbLine
 10
188.782
 20
72.7
 11
188.782
 21
69.7
  0
LINE
  5
78
100
AcDbEntity
  8
front_outsideCutPath
  6
ByLayer
 62
  256
370
   -1
100
AcDbLine
 10
188.782
 20
69.7
 11
158.2607
 21
69.7
  0
LINE
  5
79
100
AcDbEntity
  8
front_outsideCutPath
  6
ByLayer
 62
  256
370
   -1
100
AcDbLine
 10
158.2607
 20
69.7
 11
158.2607
 21
72.7
  0
LINE
  5
7A
100
AcDbEntity
  8
front_outsideCutPath
  6
ByLayer
 62
  256
370
   -1
100
AcDbLine
 10
158.2607
 20
72.7
 11
127.3394
 21
72.7
  0
LINE
  5
7B
100
AcDbEntity
  8
front_outsideCutPath
  6
ByLayer
 62
  256
370
   -1
100
AcDbLine
 10
127.3394
 20
72.7
 11
127.3394
 21
69.7
  0
LINE
  5
7C
100
AcDbEntity
  8
front_outsideCutPath
  6
ByLayer
 62
  256
370
   -1
100
AcDbLine
 10
127.3394
 20
69.7
 11
96.8181
 21
69.7
  0
LINE
  5
7D
100
AcDbEntity
  8
front_outsideCutPath
  6
ByLayer
 62
  256
370
   -1
100
AcDbLine
 10
96.8181
 20
69.7
 11
96.8181
 21
72.7
  0
LINE
  5
7E
100
AcDbEntity
  8
front_outsideCutPath
  6
ByLayer
 62
  256
370
   -1
100
AcDbLine
 10
96.8181
 20
72.7
 11
65.8968
 21
72.7
  0
LINE
  5
7F
100
AcDbEntity
  8
front_outsideCutPath
  6
ByLayer
 62
  256
370
   -1
100
AcDbLine
 10
65.8968
 20
72.7
 11
65.8968
 21
69.7
  0
LINE
  5
80
100
AcDbEntity
  8
front_outsideCutPath
  6
ByLayer
 62
  256
370
   -1
100
AcDbLine
 10
65.8968
 20
69.7
 11
35.3755
 21
69.7
  0
LINE
  5
81
100
AcDbEntity
  8
front_outsideCutPath
  6
ByLayer
 62
  256
370
   -1
100
AcDbLine
 10
35.3755
 20
69.7
 11
35.3755
 21
72.7
  0
LINE
  5
82
100
AcDbEntity
  8
front_outsideCutPath
  6
ByLayer
 62
  256
370
   -1
100
AcDbLine
 10
35.3755
 20
72.7
 11
0
 21
72.7
  0
LINE
  5
83
100
AcDbEntity
  8
front_outsideCutPath
  6
ByLayer
 62
  256
370
   -1
100
AcDbLine
 10
0
 20
72.7
 11
0
 21
53.1107
  0
LINE
  5
84
100
AcDbEntity
  8
front_outsideCutPath
  6
ByLayer
 62
  256
370
   -1
100
AcDbLine
 10
0
 20
53.1107
 11
3
 21
53.1107
  0
LINE
  5
85
100
AcDbEntity
  8
front_outsideCutPath
  6
ByLayer
 62
  256
370
   -1
100
AcDbLine
 10
3
 20
53.1107
 11
3
 21
22.5894
  0
LINE
  5
86
100
AcDbEntity
  8
front_outsideCutPath
  6
ByLayer
 62
  256
370
   -1
100
AcDbLine
 10
3
 20
22.5894
 11
0
 21
22.5894
  0
LINE
  5
87
100
AcDbEntity
  8
front_outsideCutPath
  6
ByLayer
 62
  256
370
   -1
100
AcDbLine
 10
0
 20
22.5894
 11
0
 21
3
  0
LINE
  5
88
100
AcDbEntity
  8
front_outsideCutPath
  6
ByLayer
 62
  256
370
   -1
100
AcDbLine
 10
0
 20
3
 11
35.3755
 21
3
  0
LINE
  5
89
100
AcDbEntity
  8
front_outsideCutPath
  6
ByLayer
 62
  256
370
   -1
100
AcDbLine
 10
35.3755
 20
3
 11
35.3755
 21
6
  0
LINE
  5
8A
100
AcDbEntity
  8
right_outsideCutPath
  6
ByLayer
 62
  256
370
   -1
100
AcDbLine
 10
313.3329
 20
78.7
 11
343.8541
 21
78.7
  0
LINE
  5
8B
100
AcDbEntity
  8
right_outsideCutPath
  6
ByLayer
 62
  256
370
   -1
100
AcDbLine
 10
343.8541
 20
78.7
 11
343.8541
 21
75.7
  0
LINE
  5
8C
100
AcDbEntity
  8
right_outsideCutPath
  6
ByLayer
 62
  256
370
   -1
100
AcDbLine
 10
343.8541
 20
75.7
 11
374.7754
 21
75.7
  0
LINE
  5
8D
100
AcDbEntity
  8
right_outsideCutPath
  6
ByLayer
 62
  256
370
   -1
100
AcDbLine
 10
374.7754
 20
75.7
 11
374.7754
 21
78.7
  0
LINE
  5
8E
100
AcDbEntity
  8
right_outsideCutPath
  6
ByLayer
 62
  256
370
   -1
100
AcDbLine
 10
374.7754
 20
78.7
 11
405.2967
 21
78.7
  0
LINE
  5
8F
100
AcDbEntity
  8
right_outsideCutPath
  6
ByLayer
 62
  256
370
   -1
100
AcDbLine
 10
405.2967
 20
78.7
 11
405.2967
 21
75.7
  0
LINE
  5
90
100
AcDbEntity
  8
right_outsideCutPath
  6
ByLayer
 62
  256
370
   -1
100
AcDbLine
 10
405.2967
 20
75.7
 11
436.218
 21
75.7
  0
LINE
  5
91
100
AcDbEntity
  8
right_outsideCutPath
  6
ByLayer
 62
  256
370
   -1
100
AcDbLine
 10
436.218
 20
75.7
 11
436.218
 21
78.7
  0
LINE
  5
92
100
AcDbEntity
  8
right_outsideCutPath
  6
ByLayer
 62
  256
370
   -1
100
AcDbLine
 10
436.218
 20
78.7
 11
466.7393
 21
78.7
  0
LINE
  5
93
100
AcDbEntity
  8
right_outsideCutPath
  6
ByLayer
 62
  256
370
   -1
100
AcDbLine
 10
466.7393
 20
78.7
 11
466.7393
 21
75.7
  0
LINE
  5
94
100
AcDbEntity
  8
right_outsideCutPath
  6
ByLayer
 62
  256
370
   -1
100
AcDbLine
 10
466.7393
 20
75.7
 11
497.6606
 21
75.7
  0
LINE
  5
95
100
AcDbEntity
  8
right_outsideCutPath
  6
ByLayer
 62
  256
370
   -1
100
AcDbLine
 10
497.6606
 20
75.7
 11
497.6606
 21
78.7
  0
LINE
  5
96
100
AcDbEntity
  8
right_outsideCutPath
  6
ByLayer
 62
  256
370
   -1
100
AcDbLine
 10
497.6606
 20
78.7
 11
528.1819
 21
78.7
  0
LINE
  5
97
100
AcDbEntity
  8
right_outsideCutPath
  6
ByLayer
 62
  256
370
   -1
100
AcDbLine
 10
528.1819
 20
78.7
 11
528.1819
 21
75.7
  0
LINE
  5
98
100
AcDbEntity
  8
right_outsideCutPath
  6
ByLayer
 62
  256
370
   -1
100
AcDbLine
 10
528.1819
 20
75.7
 11
559.1032
 21
75.7
  0
LINE
  5
99
100
AcDbEntity
  8
right_outsideCutPath
  6
ByLayer
 62
  256
370
   -1
100
AcDbLine
 10
559.1032
 20
75.7
 11
559.1032
 21
78.7
  0
LINE
  5
9A
100
AcDbEntity
  8
right_outsideCutPath
  6
ByLayer
 62
  256
370
   -1
100
AcDbLine
 10
559.1032
 20
78.7
 11
589.6245
 21
78.7
  0
LINE
  5
9B
100
AcDbEntity
  8
right_outsideCutPath
  6
ByLayer
 62
  256
370
   -1
100
AcDbLine
 10
589.6245
 20
78.7
 11
589.6245
 21
75.7
  0
LINE
  5
9C
100
AcDbEntity
  8
right_outsideCutPath
  6
ByLayer
 62
  256
370
   -1
100
AcDbLine
 10
589.6245
 20
75.7
 11
620.5458
 21
75.7
  0
LINE
  5
9D
100
AcDbEntity
  8
right_outsideCutPath
  6
ByLayer
 62
  256
370
   -1
100
AcDbLine
 10
620.5458
 20
75.7
 11
620.5458
 21
78.7
  0
LINE
  5
9E
100
AcDbEntity
  8
right_outsideCutPath
  6
ByLayer
 62
  256
370
   -1
100
AcDbLine
 10
620.5458
 20
78.7
 11
651.0671
 21
78.7
  0
LINE
  5
9F
100
AcDbEntity
  8
right_outsideCutPath
  6
ByLayer
 62
  256
370
   -1
100
AcDbLine
 10
651.0671
 20
78.7
 11
651.0671
 21
75.7
  0
LINE
  5
A0
100
AcDbEntity
  8
right_outsideCutPath
  6
ByLayer
 62
  256
370
   -1
100
AcDbLine
 10
651.0671
 20
75.7
 11
672.8
 21
75.7
  0
LINE
  5
A1
100
AcDbEntity
  8
right_outsideCutPath
  6
ByLayer
 62
  256
370
   -1
100
AcDbLine
 10
672.8
 20
75.7
 11
672.8
 21
95.0894
  0
LINE
  5
A2
100
AcDbEntity
  8
right_outsideCutPath
  6
ByLayer
 62
  256
370
   -1
100
AcDbLine
 10
672.8
 20
95.0894
 11
675.8
 21
95.0894
  0
LINE
  5
A3
100
AcDbEntity
  8
right_outsideCutPath
  6
ByLayer
 62
  256
370
   -1
100
AcDbLine
 10
675.8
 20
95.0894
 11
675.8
 21
126.0107
  0
LINE
  5
A4
100
AcDbEntity
  8
right_outsideCutPath
  6
ByLayer
 62
  256
370
   -1
100
AcDbLine
 10
675.8
 20
126.0107
 11
672.8
 21
126.0107
  0
LINE
  5
A5
100
AcDbEntity
  8
right_outsideCutPath
  6
ByLayer
 62
  256
370
   -1
100
AcDbLine
 10
672.8
 20
126.0107
 11
672.8
 21
145.4
  0
LINE
  5
A6
100
AcDbEntity
  8
right_outsideCutPath
  6
ByLayer
 62
  256
370
   -1
100
AcDbLine
 10
672.8
 20
145.4
 11
651.0672
 21
145.4
  0
LINE
  5
A7
100
AcDbEntity
  8
right_outsideCutPath
  6
ByLayer
 62
  256
370
   -1
100
AcDbLine
 10
651.0672
 20
145.4
 11
651.0672
 21
142.4
  0
LINE
  5
A8
100
AcDbEntity
  8
right_outsideCutPath
  6
ByLayer
 62
  256
370
   -1
100
AcDbLine
 10
651.0672
 20
142.4
 11
620.5459
 21
142.4
  0
LINE
  5
A9
100
AcDbEntity
  8
right_outsideCutPath
  6
ByLayer
 62
  256
370
   -1
100
AcDbLine
 10
620.5459
 20
142.4
 11
620.5459
 21
145.4
  0
LINE
  5
AA
100
AcDbEntity
  8
right_outsideCutPath
  6
ByLayer
 62
  256
370
   -1
100
AcDbLine
 10
620.5459
 20
145.4
 11
589.6246
 21
145.4
  0
LINE
  5
AB
100
AcDbEntity
  8
right_outsideCutPath
  6
ByLayer
 62
  256
370
   -1
100
AcDbLine
 10
589.6246
 20
145.4
 11
589.6246
 21
142.4
  0
LINE
  5
AC
100
AcDbEntity
  8
right_outsideCutPath
  6
ByLayer
 62
  256
370
   -1
100
AcDbLine
 10
589.6246
 20
142.4
 11
559.1033
 21
142.4
  0
LINE
  5
AD
100
AcDbEntity
  8
right_outsideCutPath
  6
ByLayer
 62
  256
370
   -1
100
AcDbLine
 10
559.1033
 20
142.4
 11
559.1033
 21
145.4
  0
LINE
  5
AE
100
AcDbEntity
  8
right_outsideCutPath
  6
ByLayer
 62
  256
370
   -1
100
AcDbLine
 10
559.1033
 20
145.4
 11
528.182
 21
145.4
  0
LINE
  5
AF
100
AcDbEntity
  8
right_outsideCutPath
  6
ByLayer
 62
  256
370
   -1
100
AcDbLine
 10
528.182
 20
145.4
 11
528.182
 21
142.4
  0
LINE
  5
B0
100
AcDbEntity
  8
right_outsideCutPath
  6
ByLayer
 62
  256
370
   -1
100
AcDbLine
 10
528.182
 20
142.4
 11
497.6607
 21
142.4
  0
LINE
  5
B1
100
AcDbEntity
  8
right_outsideCutPath
  6
ByLayer
 62
  256
370
   -1
100
AcDbLine
 10
497.6607
 20
142.4
 11
497.6607
 21
145.4
  0
LINE
  5
B2
100
AcDbEntity
  8
right_outsideCutPath
  6
ByLayer
 62
  256
370
   -1
100
AcDbLine
 10
497.6607
 20
145.4
 11
466.7394
 21
145.4
  0
LINE
  5
B3
100
AcDbEntity
  8
right_outsideCutPath
  6
ByLayer
 62
  256
370
   -1
100
AcDbLine
 10
466.7394
 20
145.4
 11
466.7394
 21
142.4
  0
LINE
  5
B4
100
AcDbEntity
  8
right_outsideCutPath
  6
ByLayer
 62
  256
370
   -1
100
AcDbLine
 10
466.7394
 20
142.4
 11
436.2181
 21
142.4
  0
LINE
  5
B5
100
AcDbEntity
  8
right_outsideCutPath
  6
ByLayer
 62
  256
370
   -1
100
AcDbLine
 10
436.2181
 20
142.4
 11
436.2181
 21
145.4
  0
LINE
  5
B6
100
AcDbEntity
  8
right_outsideCutPath
  6
ByLayer
 62
  256
370
   -1
100
AcDbLine
 10
436.2181
 20
145.4
 11
405.2968
 21
145.4
  0
LINE
  5
B7
100
AcDbEntity
  8
right_outsideCutPath
  6
ByLayer
 62
  256
370
   -1
100
AcDbLine
 10
405.2968
 20
145.4
 11
405.2968
 21
142.4
  0
LINE
  5
B8
100
AcDbEntity
  8
right_outsideCutPath
  6
ByLayer
 62
  256
370
   -1
100
AcDbLine
 10
405.2968
 20
142.4
 11
374.7755
 21
142.4
  0
LINE
  5
B9
100
AcDbEntity
  8
right_outsideCutPath
  6
ByLayer
 62
  256
370
   -1
100
AcDbLine
 10
374.7755
 20
142.4
 11
374.7755
 21
145.4
  0
LINE
  5
BA
100
AcDbEntity
  8
right_outsideCutPath
  6
ByLayer
 62
  256
370
   -1
100
AcDbLine
 10
374.7755
 20
145.4
 11
343.8542
 21
145.4
  0
LINE
  5
BB
100
AcDbEntity
  8
right_outsideCutPath
  6
ByLayer
 62
  256
370
   -1
100
AcDbLine
 10
343.8542
 20
145.4
 11
343.8542
 21
142.4
  0
LINE
  5
BC
100
AcDbEntity
  8
right_outsideCutPath
  6
ByLayer
 62
  256
370
   -1
100
AcDbLine
 10
343.8542
 20
142.4
 11
313.3329
 21
142.4
  0
LINE
  5
BD
100
AcDbEntity
  8
right_outsideCutPath
  6
ByLayer
 62
  256
370
   -1
100
AcDbLine
 10
313.3329
 20
142.4
 11
313.3329
 21
145.4
  0
LINE
  5
BE
100
AcDbEntity
  8
right_outsideCutPath
  6
ByLayer
 62
  256
370
   -1
100
AcDbLine
 10
313.3329
 20
145.4
 11
291.6
 21
145.4
  0
LINE
  5
BF
100
AcDbEntity
  8
right_outsideCutPath
  6
ByLayer
 62
  256
370
   -1
100
AcDbLine
 10
291.6
 20
145.4
 11
291.6
 21
126.0107
  0
LINE
  5
C0
100
AcDbEntity
  8
right_outsideCutPath
  6
ByLayer
 62
  256
370
   -1
100
AcDbLine
 10
291.6
 20
126.0107
 11
288.6
 21
126.0107
  0
LINE
  5
C1
100
AcDbEntity
  8
right_outsideCutPath
  6
ByLayer
 62
  256
370
   -1
100
AcDbLine
 10
288.6
 20
126.0107
 11
288.6
 21
95.0894
  0
LINE
  5
C2
100
AcDbEntity
  8
right_outsideCutPath
  6
ByLayer
 62
  256
370
   -1
100
AcDbLine
 10
288.6
 20
95.0894
 11
291.6
 21
95.0894
  0
LINE
  5
C3
100
AcDbEntity
  8
right_outsideCutPath
  6
ByLayer
 62
  256
370
   -1
100
AcDbLine
 10
291.6
 20
95.0894
 11
291.6
 21
75.7
  0
LINE
  5
C4
100
AcDbEntity
  8
right_outsideCutPath
  6
ByLayer
 62
  256
370
   -1
100
AcDbLine
 10
291.6
 20
75.7
 11
313.3329
 21
75.7
  0
LINE
  5
C5
100
AcDbEntity
  8
right_outsideCutPath
  6
ByLayer
 62
  256
370
   -1
100
AcDbLine
 10
313.3329
 20
75.7
 11
313.3329
 21
78.7
  0
LINE
  5
C6
100
AcDbEntity
  8
bottom_outsideCutPath
  6
ByLayer
 62
  256
370
   -1
100
AcDbLine
 10
744.8968
 20
396.2
 11
775.418
 21
396.2
  0
LINE
  5
C7
100
AcDbEntity
  8
bottom_outsideCutPath
  6
ByLayer
 62
  256
370
   -1
100
AcDbLine
 10
775.418
 20
396.2
 11
775.418
 21
393.2
  0
LINE
  5
C8
100
AcDbEntity
  8
bottom_outsideCutPath
  6
ByLayer
 62
  256
370
   -1
100
AcDbLine
 10
775.418
 20
393.2
 11
806.3393
 21
393.2
  0
LINE
  5
C9
100
AcDbEntity
  8
bottom_outsideCutPath
  6
ByLayer
 62
  256
370
   -1
100
AcDbLine
 10
806.3393
 20
393.2
 11
806.3393
 21
396.2
  0
LINE
  5
CA
100
AcDbEntity
  8
bottom_outsideCutPath
  6
ByLayer
 62
  256
370
   -1
100
AcDbLine
 10
806.3393
 20
396.2
 11
836.8606
 21
396.2
  0
LINE
  5
CB
100
AcDbEntity
  8
bottom_outsideCutPath
  6
ByLayer
 62
  256
370
   -1
100
AcDbLine
 10
836.8606
 20
396.2
 11
836.8606
 21
393.2
  0
LINE
  5
CC
100
AcDbEntity
  8
bottom_outsideCutPath
  6
ByLayer
 62
  256
370
   -1
100
AcDbLine
 10
836.8606
 20
393.2
 11
867.7819
 21
393.2
  0
LINE
  5
CD
100
AcDbEntity
  8
bottom_outsideCutPath
  6
ByLayer
 62
  256
370
   -1
100
AcDbLine
 10
867.7819
 20
393.2
 11
867.7819
 21
396.2
  0
LINE
  5
CE
100
AcDbEntity
  8
bottom_outsideCutPath
  6
ByLayer
 62
  256
370
   -1
100
AcDbLine
 10
867.7819
 20
396.2
 11
898.3031999999999
 21
396.2
  0
LINE
  5
CF
100
AcDbEntity
  8
bottom_outsideCutPath
  6
ByLayer
 62
  256
370
   -1
100
AcDbLine
 10
898.3031999999999
 20
396.2
 11
898.3031999999999
 21
393.2
  0
LINE
  5
D0
100
AcDbEntity
  8
bottom_outsideCutPath
  6
ByLayer
 62
  256
370
   -1
100
AcDbLine
 10
898.3031999999999
 20
393.2
 11
929.2246
 21
393.2
  0
LINE
  5
D1
100
AcDbEntity
  8
bottom_outsideCutPath
  6
ByLayer
 62
  256
370
   -1
100
AcDbLine
 10
929.2246
 20
393.2
 11
929.2246
 21
396.2
  0
LINE
  5
D2
100
AcDbEntity
  8
bottom_outsideCutPath
  6
ByLayer
 62
  256
370
   -1
100
AcDbLine
 10
929.2246
 20
396.2
 11
961.4
 21
396.2
  0
LINE
  5
D3
100
AcDbEntity
  8
bottom_outsideCutPath
  6
ByLayer
 62
  256
370
   -1
100
AcDbLine
 10
961.4
 20
396.2
 11
961.4
 21
417.7329
  0
LINE
  5
D4
100
AcDbEntity
  8
bottom_outsideCutPath
  6
ByLayer
 62
  256
370
   -1
100
AcDbLine
 10
961.4
 20
417.7329
 11
964.4
 21
417.7329
  0
LINE
  5
D5
100
AcDbEntity
  8
bottom_outsideCutPath
  6
ByLayer
 62
  256
370
   -1
100
AcDbLine
 10
964.4
 20
417.7329
 11
964.4
 21
448.6541
  0
LINE
  5
D6
100
AcDbEntity
  8
bottom_outsideCutPath
  6
ByLayer
 62
  256
370
   -1
100
AcDbLine
 10
964.4
 20
448.6541
 11
961.4
 21
448.6541
  0
LINE
  5
D7
100
AcDbEntity
  8
bottom_outsideCutPath
  6
ByLayer
 62
  256
370
   -1
100
AcDbLine
 10
961.4
 20
448.6541
 11
961.4
 21
479.1754
  0
LINE
  5
D8
100
AcDbEntity
  8
bottom_outsideCutPath
  6
ByLayer
 62
  256
370
   -1
100
AcDbLine
 10
961.4
 20
479.1754
 11
964.4
 21
479.1754
  0
LINE
  5
D9
100
AcDbEntity
  8
bottom_outsideCutPath
  6
ByLayer
 62
  256
370
   -1
100
AcDbLine
 10
964.4
 20
479.1754
 11
964.4
 21
510.0967
  0
LINE
  5
DA
100
AcDbEntity
  8
bottom_outsideCutPath
  6
ByLayer
 62
  256
370
   -1
100
AcDbLine
 10
964.4
 20
510.0967
 11
961.4
 21
510.0967
  0
LINE
  5
DB
100
AcDbEntity
  8
bottom_outsideCutPath
  6
ByLayer
 62
  256
370
   -1
100
AcDbLine
 10
961.4
 20
510.0967
 11
961.4
 21
540.6180000000001
  0
LINE
  5
DC
100
AcDbEntity
  8
bottom_outsideCutPath
  6
ByLayer
 62
  256
370
   -1
100
AcDbLine
 10
961.4
 20
540.6180000000001
 11
964.4
 21
540.6180000000001
  0
LINE
  5
DD
100
AcDbEntity
  8
bottom_outsideCutPath
  6
ByLayer
 62
  256
370
   -1
100
AcDbLine
 10
964.4
 20
540.6180000000001
 11
964.4
 21
571.5393
  0
LINE
  5
DE
100
AcDbEntity
  8
bottom_outsideCutPath
  6
ByLayer
 62
  256
370
   -1
100
AcDbLine
 10
964.4
 20
571.5393
 11
961.4
 21
571.5393
  0
LINE
  5
DF
100
AcDbEntity
  8
bottom_outsideCutPath
  6
ByLayer
 62
  256
370
   -1
100
AcDbLine
 10
961.4
 20
571.5393
 11
961.4
 21
602.0606
  0
LINE
  5
E0
100
AcDbEntity
  8
bottom_outsideCutPath
  6
ByLayer
 62
  256
370
   -1
100
AcDbLine
 10
961.4
 20
602.0606
 11
964.4
 21
602.0606
  0
LINE
  5
E1
100
AcDbEntity
  8
bottom_outsideCutPath
  6
ByLayer
 62
  256
370
   -1
100
AcDbLine
 10
964.4
 20
602.0606
 11
964.4
 21
632.9819
  0
LINE
  5
E2
100
AcDbEntity
  8
bottom_outsideCutPath
  6
ByLayer
 62
  256
370
   -1
100
AcDbLine
 10
964.4
 20
632.9819
 11
961.4
 21
632.9819
  0
LINE
  5
E3
100
AcDbEntity
  8
bottom_outsideCutPath
  6
ByLayer
 62
  256
370
   -1
100
AcDbLine
 10
961.4
 20
632.9819
 11
961.4
 21
663.5032
  0
LINE
  5
E4
100
AcDbEntity
  8
bottom_outsideCutPath
  6
ByLayer
 62
  256
370
   -1
100
AcDbLine
 10
961.4
 20
663.5032
 11
964.4
 21
663.5032
  0
LINE
  5
E5
100
AcDbEntity
  8
bottom_outsideCutPath
  6
ByLayer
 62
  256
370
   -1
100
AcDbLine
 10
964.4
 20
663.5032
 11
964.4
 21
694.4245
  0
LINE
  5
E6
100
AcDbEntity
  8
bottom_outsideCutPath
  6
ByLayer
 62
  256
370
   -1
100
AcDbLine
 10
964.4
 20
694.4245
 11
961.4
 21
694.4245
  0
LINE
  5
E7
100
AcDbEntity
  8
bottom_outsideCutPath
  6
ByLayer
 62
  256
370
   -1
100
AcDbLine
 10
961.4
 20
694.4245
 11
961.4
 21
724.9458
  0
LINE
  5
E8
100
AcDbEntity
  8
bottom_outsideCutPath
  6
ByLayer
 62
  256
370
   -1
100
AcDbLine
 10
961.4
 20
724.9458
 11
964.4
 21
724.9458
  0
LINE
  5
E9
100
AcDbEntity
  8
bottom_outsideCutPath
  6
ByLayer
 62
  256
370
   -1
100
AcDbLine
 10
964.4
 20
724.9458
 11
964.4
 21
755.8671000000001
  0
LINE
  5
EA
100
AcDbEntity
  8
bottom_outsideCutPath
  6
ByLayer
 62
  256
370
   -1
100
AcDbLine
 10
964.4
 20
755.8671000000001
 11
961.4
 21
755.8671000000001
  0
LINE
  5
EB
100
AcDbEntity
  8
bottom_outsideCutPath
  6
ByLayer
 62
  256
370
   -1
100
AcDbLine
 10
961.4
 20
755.8671000000001
 11
961.4
 21
777.4
  0
LINE
  5
EC
100
AcDbEntity
  8
bottom_outsideCutPath
  6
ByLayer
 62
  256
370
   -1
100
AcDbLine
 10
961.4
 20
777.4
 11
929.2246
 21
777.4
  0
LINE
  5
ED
100
AcDbEntity
  8
bottom_outsideCutPath
  6
ByLayer
 62
  256
370
   -1
100
AcDbLine
 10
929.2246
 20
777.4
 11
929.2246
 21
780.4
  0
LINE
  5
EE
100
AcDbEntity
  8
bottom_outsideCutPath
  6
ByLayer
 62
  256
370
   -1
100
AcDbLine
 10
929.2246
 20
780.4
 11
898.3033
 21
780.4
  0
LINE
  5
EF
100
AcDbEntity
  8
bottom_outsideCutPath
  6
ByLayer
 62
  256
370
   -1
100
AcDbLine
 10
898.3033
 20
780.4
 11
898.3033
 21
777.4
  0
LINE
  5
F0
100
AcDbEntity
  8
bottom_outsideCutPath
  6
ByLayer
 62
  256
370
   -1
100
AcDbLine
 10
898.3033
 20
777.4
 11
867.782
 21
777.4
  0
LINE
  5
F1
100
AcDbEntity
  8
bottom_outsideCutPath
  6
ByLayer
 62
  256
370
   -1
100
AcDbLine
 10
867.782
 20
777.4
 11
867.782
 21
780.4
  0
LINE
  5
F2
100
AcDbEntity
  8
bottom_outsideCutPath
  6
ByLayer
 62
  256
370
   -1
100
AcDbLine
 10
867.782
 20
780.4
 11
836.8607
 21
780.4
  0
LINE
  5
F3
100
AcDbEntity
  8
bottom_outsideCutPath
  6
ByLayer
 62
  256
370
   -1
100
AcDbLine
 10
836.8607
 20
780.4
 11
836.8607
 21
777.4
  0
LINE
  5
F4
100
AcDbEntity
  8
bottom_outsideCutPath
  6
ByLayer
 62
  256
370
   -1
100
AcDbLine
 10
836.8607
 20
777.4
 11
806.3394
 21
777.4
  0
LINE
  5
F5
100
AcDbEntity
  8
bottom_outsideCutPath
  6
ByLayer
 62
  256
370
   -1
100
AcDbLine
 10
806.3394
 20
777.4
 11
806.3394
 21
780.4
  0
LINE
  5
F6
100
AcDbEntity
  8
bottom_outsideCutPath
  6
ByLayer
 62
  256
370
   -1
100
AcDbLine
 10
806.3394
 20
780.4
 11
775.4181
 21
780.4
  0
LINE
  5
F7
100
AcDbEntity
  8
bottom_outsideCutPath
  6
ByLayer
 62
  256
370
   -1
100
AcDbLine
 10
775.4181
 20
780.4
 11
775.4181
 21
777.4
  0
LINE
  5
F8
100
AcDbEntity
  8
bottom_outsideCutPath
  6
ByLayer
 62
  256
370
   -1
100
AcDbLine
 10
775.4181
 20
777.4
 11
744.8968
 21
777.4
  0
LINE
  5
F9
100
AcDbEntity
  8
bottom_outsideCutPath
  6
ByLayer
 62
  256
370
   -1
100
AcDbLine
 10
744.8968
 20
777.4
 11
744.8968
 21
780.4
  0
LINE
  5
FA
100
AcDbEntity
  8
bottom_outsideCutPath
  6
ByLayer
 62
  256
370
   -1
100
AcDbLine
 10
744.8968
 20
780.4
 11
713.9755
 21
780.4
  0
LINE
  5
FB
100
AcDbEntity
  8
bottom_outsideCutPath
  6
ByLayer
 62
  256
370
   -1
100
AcDbLine
 10
713.9755
 20
780.4
 11
713.9755
 21
777.4
  0
LINE
  5
FC
100
AcDbEntity
  8
bottom_outsideCutPath
  6
ByLayer
 62
  256
370
   -1
100
AcDbLine
 10
713.9755
 20
777.4
 11
681.8
 21
777.4
  0
LINE
  5
FD
100
AcDbEntity
  8
bottom_outsideCutPath
  6
ByLayer
 62
  256
370
   -1
100
AcDbLine
 10
681.8
 20
777.4
 11
681.8
 21
755.8672
  0
LINE
  5
FE
100
AcDbEntity
  8
bottom_outsideCutPath
  6
ByLayer
 62
  256
370
   -1
100
AcDbLine
 10
681.8
 20
755.8672
 11
678.8
 21
755.8672
  0
LINE
  5
FF
100
AcDbEntity
  8
bottom_outsideCutPath
  6
ByLayer
 62
  256
370
   -1
100
AcDbLine
 10
678.8
 20
755.8672
 11
678.8
 21
724.9459000000001
  0
LINE
  5
100
100
AcDbEntity
  8
bottom_outsideCutPath
  6
ByLayer
 62
  256
370
   -1
100
AcDbLine
 10
678.8
 20
724.9459000000001
 11
681.8
 21
724.9459000000001
  0
LINE
  5
101
100
AcDbEntity
  8
bottom_outsideCutPath
  6
ByLayer
 62
  256
370
   -1
100
AcDbLine
 10
681.8
 20
724.9459000000001
 11
681.8
 21
694.4246000000001
  0
LINE
  5
102
100
AcDbEntity
  8
bottom_outsideCutPath
  6
ByLayer
 62
  256
370
   -1
100
AcDbLine
 10
681.8
 20
694.4246000000001
 11
678.8
 21
694.4246000000001
  0
LINE
  5
103
100
AcDbEntity
  8
bottom_outsideCutPath
  6
ByLayer
 62
  256
370
   -1
100
AcDbLine
 10
678.8
 20
694.4246000000001
 11
678.8
 21
663.5033
  0
LINE
  5
104
100
AcDbEntity
  8
bottom_outsideCutPath
  6
ByLayer
 62
  256
370
   -1
100
AcDbLine
 10
678.8
 20
663.5033
 11
681.8
 21
663.5033
  0
LINE
  5
105
100
AcDbEntity
  8
bottom_outsideCutPath
  6
ByLayer
 62
  256
370
   -1
100
AcDbLine
 10
681.8
 20
663.5033
 11
681.8
 21
632.982
  0
LINE
  5
106
100
AcDbEntity
  8
bottom_outsideCutPath
  6
ByLayer
 62
  256
370
   -1
100
AcDbLine
 10
681.8
 20
632.982
 11
678.8
 21
632.982
  0
LINE
  5
107
100
AcDbEntity
  8
bottom_outsideCutPath
  6
ByLayer
 62
  256
370
   -1
100
AcDbLine
 10
678.8
 20
632.982
 11
678.8
 21
602.0607
  0
LINE
  5
108
100
AcDbEntity
  8
bottom_outsideCutPath
  6
ByLayer
 62
  256
370
   -1
100
AcDbLine
 10
678.8
 20
602.0607
 11
681.8
 21
602.0607
  0
LINE
  5
109
100
AcDbEntity
  8
bottom_outsideCutPath
  6
ByLayer
 62
  256
370
   -1
100
AcDbLine
 10
681.8
 20
602.0607
 11
681.8
 21
571.5394
  0
LINE
  5
10A
100
AcDbEntity
  8
bottom_outsideCutPath
  6
ByLayer
 62
  256
370
   -1
100
AcDbLine
 10
681.8
 20
571.5394
 11
678.8
 21
571.5394
  0
LINE
  5
10B
100
AcDbEntity
  8
bottom_outsideCutPath
  6
ByLayer
 62
  256
370
   -1
100
AcDbLine
 10
678.8
 20
571.5394
 11
678.8
 21
540.6181
  0
LINE
  5
10C
100
AcDbEntity
  8
bottom_outsideCutPath
  6
ByLayer
 62
  256
370
   -1
100
AcDbLine
 10
678.8
 20
540.6181
 11
681.8
 21
540.6181
  0
LINE
  5
10D
100
AcDbEntity
  8
bottom_outsideCutPath
  6
ByLayer
 62
  256
370
   -1
100
AcDbLine
 10
681.8
 20
540.6181
 11
681.8
 21
510.0968
  0
LINE
  5
10E
100
AcDbEntity
  8
bottom_outsideCutPath
  6
ByLayer
 62
  256
370
   -1
100
AcDbLine
 10
681.8
 20
510.0968
 11
678.8
 21
510.0968
  0
LINE
  5
10F
100
AcDbEntity
  8
bottom_outsideCutPath
  6
ByLayer
 62
  256
370
   -1
100
AcDbLine
 10
678.8
 20
510.0968
 11
678.8
 21
479.1755
  0
LINE
  5
110
100
AcDbEntity
  8
bottom_outsideCutPath
  6
ByLayer
 62
  256
370
   -1
100
AcDbLine
 10
678.8
 20
479.1755
 11
681.8
 21
479.1755
  0
LINE
  5
111
100
AcDbEntity
  8
bottom_outsideCutPath
  6
ByLayer
 62
  256
370
   -1
100
AcDbLine
 10
681.8
 20
479.1755
 11
681.8
 21
448.6542
  0
LINE
  5
112
100
AcDbEntity
  8
bottom_outsideCutPath
  6
ByLayer
 62
  256
370
   -1
100
AcDbLine
 10
681.8
 20
448.6542
 11
678.8
 21
448.6542
  0
LINE
  5
113
100
AcDbEntity
  8
bottom_outsideCutPath
  6
ByLayer
 62
  256
370
   -1
100
AcDbLine
 10
678.8
 20
448.6542
 11
678.8
 21
417.7329
  0
LINE
  5
114
100
AcDbEntity
  8
bottom_outsideCutPath
  6
ByLayer
 62
  256
370
   -1
100
AcDbLine
 10
678.8
 20
417.7329
 11
681.8
 21
417.7329
  0
LINE
  5
115
100
AcDbEntity
  8
bottom_outsideCutPath
  6
ByLayer
 62
  256
370
   -1
100
AcDbLine
 10
681.8
 20
417.7329
 11
681.8
 21
396.2
  0
LINE
  5
116
100
AcDbEntity
  8
bottom_outsideCutPath
  6
ByLayer
 62
  256
370
   -1
100
AcDbLine
 10
681.8
 20
396.2
 11
713.9755
 21
396.2
  0
LINE
  5
117
100
AcDbEntity
  8
bottom_outsideCutPath
  6
ByLayer
 62
  256
370
   -1
100
AcDbLine
 10
713.9755
 20
396.2
 11
713.9755
 21
393.2
  0
LINE
  5
118
100
AcDbEntity
  8
bottom_outsideCutPath
  6
ByLayer
 62
  256
370
   -1
100
AcDbLine
 10
713.9755
 20
393.2
 11
744.8968
 21
393.2
  0
LINE
  5
119
100
AcDbEntity
  8
bottom_outsideCutPath
  6
ByLayer
 62
  256
370
   -1
100
AcDbLine
 10
744.8968
 20
393.2
 11
744.8968
 21
396.2
  0
CIRCLE
  5
11A
100
AcDbEntity
  8
bottom_outsideCutPath
  6
ByLayer
 62
  256
370
   -1
100
AcDbCircle
 10
732.6999999999999
 20
421.0699999999999
 40
2.25
  0
CIRCLE
  5
11B
100
AcDbEntity
  8
bottom_outsideCutPath
  6
ByLayer
 62
  256
370
   -1
100
AcDbCircle
 10
918.1199999999999
 20
421.0699999999999
 40
2.25
  0
CIRCLE
  5
11C
100
AcDbEntity
  8
bottom_outsideCutPath
  6
ByLayer
 62
  256
370
   -1
100
AcDbCircle
 10
821.5999999999999
 20
640.1399999999999
 40
2.25
  0
CIRCLE
  5
11D
100
AcDbEntity
  8
bottom_outsideCutPath
  6
ByLayer
 62
  256
370
   -1
100
AcDbCircle
 10
702.2199999999999
 20
756.9799999999999
 40
2.25
  0
CIRCLE
  5
11E
100
AcDbEntity
  8
bottom_outsideCutPath
  6
ByLayer
 62
  256
370
   -1
100
AcDbCircle
 10
940.9799999999999
 20
756.9799999999999
 40
2.25
  0
LINE
  5
11F
100
AcDbEntity
  8
left_outsideCutPath
  6
ByLayer
 62
  256
370
   -1
100
AcDbLine
 10
670.4548469261604
 20
418.8811382594466
 11
670.4548469261604
 21
449.4023382594467
  0
LINE
  5
120
100
AcDbEntity
  8
left_outsideCutPath
  6
ByLayer
 62
  256
370
   -1
100
AcDbLine
 10
670.4548469261604
 20
449.4023382594467
 11
673.4548469261604
 21
449.4023382594467
  0
LINE
  5
121
100
AcDbEntity
  8
left_outsideCutPath
  6
ByLayer
 62
  256
370
   -1
100
AcDbLine
 10
673.4548469261604
 20
449.4023382594467
 11
673.4548469261604
 21
480.3236382594466
  0
LINE
  5
122
100
AcDbEntity
  8
left_outsideCutPath
  6
ByLayer
 62
  256
370
   -1
100
AcDbLine
 10
673.4548469261604
 20
480.3236382594466
 11
670.4548469261604
 21
480.3236382594466
  0
LINE
  5
123
100
AcDbEntity
  8
left_outsideCutPath
  6
ByLayer
 62
  256
370
   -1
100
AcDbLine
 10
670.4548469261604
 20
480.3236382594466
 11
670.4548469261604
 21
510.8449382594466
  0
LINE
  5
124
100
AcDbEntity
  8
left_outsideCutPath
  6
ByLayer
 62
  256
370
   -1
100
AcDbLine
 10
670.4548469261604
 20
510.8449382594466
 11
673.4548469261604
 21
510.8449382594466
  0
LINE
  5
125
100
AcDbEntity
  8
left_outsideCutPath
  6
ByLayer
 62
  256
370
   -1
100
AcDbLine
 10
673.4548469261604
 20
510.8449382594466
 11
673.4548469261604
 21
541.7662382594466
  0
LINE
  5
126
100
AcDbEntity
  8
left_outsideCutPath
  6
ByLayer
 62
  256
370
   -1
100
AcDbLine
 10
673.4548469261604
 20
541.7662382594466
 11
670.4548469261604
 21
541.7662382594466
  0
LINE
  5
127
100
AcDbEntity
  8
left_outsideCutPath
  6
ByLayer
 62
  256
370
   -1
100
AcDbLine
 10
670.4548469261604
 20
541.7662382594466
 11
670.4548469261604
 21
572.2875382594467
  0
LINE
  5
128
100
AcDbEntity
  8
left_outsideCutPath
  6
ByLayer
 62
  256
370
   -1
100
AcDbLine
 10
670.4548469261604
 20
572.2875382594467
 11
673.4548469261604
 21
572.2875382594467
  0
LINE
  5
129
100
AcDbEntity
  8
left_outsideCutPath
  6
ByLayer
 62
  256
370
   -1
100
AcDbLine
 10
673.4548469261604
 20
572.2875382594467
 11
673.4548469261604
 21
603.2088382594467
  0
LINE
  5
12A
100
AcDbEntity
  8
left_outsideCutPath
  6
ByLayer
 62
  256
370
   -1
100
AcDbLine
 10
673.4548469261604
 20
603.2088382594467
 11
670.4548469261604
 21
603.2088382594467
  0
LINE
  5
12B
100
AcDbEntity
  8
left_outsideCutPath
  6
ByLayer
 62
  256
370
   -1
100
AcDbLine
 10
670.4548469261604
 20
603.2088382594467
 11
670.4548469261604
 21
633.7301382594467
  0
LINE
  5
12C
100
AcDbEntity
  8
left_outsideCutPath
  6
ByLayer
 62
  256
370
   -1
100
AcDbLine
 10
670.4548469261604
 20
633.7301382594467
 11
673.4548469261604
 21
633.7301382594467
  0
LINE
  5
12D
100
AcDbEntity
  8
left_outsideCutPath
  6
ByLayer
 62
  256
370
   -1
100
AcDbLine
 10
673.4548469261604
 20
633.7301382594467
 11
673.4548469261604
 21
664.6514382594466
  0
LINE
  5
12E
100
AcDbEntity
  8
left_outsideCutPath
  6
ByLayer
 62
  256
370
   -1
100
AcDbLine
 10
673.4548469261604
 20
664.6514382594466
 11
670.4548469261604
 21
664.6514382594466
  0
LINE
  5
12F
100
AcDbEntity
  8
left_outsideCutPath
  6
ByLayer
 62
  256
370
   -1
100
AcDbLine
 10
670.4548469261604
 20
664.6514382594466
 11
670.4548469261604
 21
695.1727382594466
  0
LINE
  5
130
100
AcDbEntity
  8
left_outsideCutPath
  6
ByLayer
 62
  256
370
   -1
100
AcDbLine
 10
670.4548469261604
 20
695.1727382594466
 11
673.4548469261604
 21
695.1727382594466
  0
LINE
  5
131
100
AcDbEntity
  8
left_outsideCutPath
  6
ByLayer
 62
  256
370
   -1
100
AcDbLine
 10
673.4548469261604
 20
695.1727382594466
 11
673.4548469261604
 21
726.0940382594466
  0
LINE
  5
132
100
AcDbEntity
  8
left_outsideCutPath
  6
ByLayer
 62
  256
370
   -1
100
AcDbLine
 10
673.4548469261604
 20
726.0940382594466
 11
670.4548469261604
 21
726.0940382594466
  0
LINE
  5
133
100
AcDbEntity
  8
left_outsideCutPath
  6
ByLayer
 62
  256
370
   -1
100
AcDbLine
 10
670.4548469261604
 20
726.0940382594466
 11
670.4548469261604
 21
756.6153382594466
  0
LINE
  5
134
100
AcDbEntity
  8
left_outsideCutPath
  6
ByLayer
 62
  256
370
   -1
100
AcDbLine
 10
670.4548469261604
 20
756.6153382594466
 11
673.4548469261604
 21
756.6153382594466
  0
LINE
  5
135
100
AcDbEntity
  8
left_outsideCutPath
  6
ByLayer
 62
  256
370
   -1
100
AcDbLine
 10
673.4548469261604
 20
756.6153382594466
 11
673.4548469261604
 21
778.3482382594466
  0
LINE
  5
136
100
AcDbEntity
  8
left_outsideCutPath
  6
ByLayer
 62
  256
370
   -1
100
AcDbLine
 10
673.4548469261604
 20
778.3482382594466
 11
654.0654469261605
 21
778.3482382594466
  0
LINE
  5
137
100
AcDbEntity
  8
left_outsideCutPath
  6
ByLayer
 62
  256
370
   -1
100
AcDbLine
 10
654.0654469261605
 20
778.3482382594466
 11
654.0654469261605
 21
781.3482382594466
  0
LINE
  5
138
100
AcDbEntity
  8
left_outsideCutPath
  6
ByLayer
 62
  256
370
   -1
100
AcDbLine
 10
654.0654469261605
 20
781.3482382594466
 11
623.1441469261604
 21
781.3482382594466
  0
LINE
  5
139
100
AcDbEntity
  8
left_outsideCutPath
  6
ByLayer
 62
  256
370
   -1
100
AcDbLine
 10
623.1441469261604
 20
781.3482382594466
 11
623.1441469261604
 21
778.3482382594466
  0
LINE
  5
13A
100
AcDbEntity
  8
left_outsideCutPath
  6
ByLayer
 62
  256
370
   -1
100
AcDbLine
 10
623.1441469261604
 20
778.3482382594466
 11
603.7548469261604
 21
778.3482382594466
  0
LINE
  5
13B
100
AcDbEntity
  8
left_outsideCutPath
  6
ByLayer
 62
  256
370
   -1
100
AcDbLine
 10
603.7548469261604
 20
778.3482382594466
 11
603.7548469261604
 21
756.6154382594466
  0
LINE
  5
13C
100
AcDbEntity
  8
left_outsideCutPath
  6
ByLayer
 62
  256
370
   -1
100
AcDbLine
 10
603.7548469261604
 20
756.6154382594466
 11
606.7548469261604
 21
756.6154382594466
  0
LINE
  5
13D
100
AcDbEntity
  8
left_outsideCutPath
  6
ByLayer
 62
  256
370
   -1
100
AcDbLine
 10
606.7548469261604
 20
756.6154382594466
 11
606.7548469261604
 21
726.0941382594466
  0
LINE
  5
13E
100
AcDbEntity
  8
left_outsideCutPath
  6
ByLayer
 62
  256
370
   -1
100
AcDbLine
 10
606.7548469261604
 20
726.0941382594466
 11
603.7548469261604
 21
726.0941382594466
  0
LINE
  5
13F
100
AcDbEntity
  8
left_outsideCutPath
  6
ByLayer
 62
  256
370
   -1
100
AcDbLine
 10
603.7548469261604
 20
726.0941382594466
 11
603.7548469261604
 21
695.1728382594466
  0
LINE
  5
140
100
AcDbEntity
  8
left_outsideCutPath
  6
ByLayer
 62
  256
370
   -1
100
AcDbLine
 10
603.7548469261604
 20
695.1728382594466
 11
606.7548469261604
 21
695.1728382594466
  0
LINE
  5
141
100
AcDbEntity
  8
left_outsideCutPath
  6
ByLayer
 62
  256
370
   -1
100
AcDbLine
 10
606.7548469261604
 20
695.1728382594466
 11
606.7548469261604
 21
664.6515382594466
  0
LINE
  5
142
100
AcDbEntity
  8
left_outsideCutPath
  6
ByLayer
 62
  256
370
   -1
100
AcDbLine
 10
606.7548469261604
 20
664.6515382594466
 11
603.7548469261604
 21
664.6515382594466
  0
LINE
  5
143
100
AcDbEntity
  8
left_outsideCutPath
  6
ByLayer
 62
  256
370
   -1
100
AcDbLine
 10
603.7548469261604
 20
664.6515382594466
 11
603.7548469261604
 21
633.7302382594467
  0
LINE
  5
144
100
AcDbEntity
  8
left_outsideCutPath
  6
ByLayer
 62
  256
370
   -1
100
AcDbLine
 10
603.7548469261604
 20
633.7302382594467
 11
606.7548469261604
 21
633.7302382594467
  0
LINE
  5
145
100
AcDbEntity
  8
left_outsideCutPath
  6
ByLayer
 62
  256
370
   -1
100
AcDbLine
 10
606.7548469261604
 20
633.7302382594467
 11
606.7548469261604
 21
603.2089382594467
  0
LINE
  5
146
100
AcDbEntity
  8
left_outsideCutPath
  6
ByLayer
 62
  256
370
   -1
100
AcDbLine
 10
606.7548469261604
 20
603.2089382594467
 11
603.7548469261604
 21
603.2089382594467
  0
LINE
  5
147
100
AcDbEntity
  8
left_outsideCutPath
  6
ByLayer
 62
  256
370
   -1
100
AcDbLine
 10
603.7548469261604
 20
603.2089382594467
 11
603.7548469261604
 21
572.2876382594467
  0
LINE
  5
148
100
AcDbEntity
  8
left_outsideCutPath
  6
ByLayer
 62
  256
370
   -1
100
AcDbLine
 10
603.7548469261604
 20
572.2876382594467
 11
606.7548469261604
 21
572.2876382594467
  0
LINE
  5
149
100
AcDbEntity
  8
left_outsideCutPath
  6
ByLayer
 62
  256
370
   -1
100
AcDbLine
 10
606.7548469261604
 20
572.2876382594467
 11
606.7548469261604
 21
541.7663382594466
  0
LINE
  5
14A
100
AcDbEntity
  8
left_outsideCutPath
  6
ByLayer
 62
  256
370
   -1
100
AcDbLine
 10
606.7548469261604
 20
541.7663382594466
 11
603.7548469261604
 21
541.7663382594466
  0
LINE
  5
14B
100
AcDbEntity
  8
left_outsideCutPath
  6
ByLayer
 62
  256
370
   -1
100
AcDbLine
 10
603.7548469261604
 20
541.7663382594466
 11
603.7548469261604
 21
510.8450382594466
  0
LINE
  5
14C
100
AcDbEntity
  8
left_outsideCutPath
  6
ByLayer
 62
  256
370
   -1
100
AcDbLine
 10
603.7548469261604
 20
510.8450382594466
 11
606.7548469261604
 21
510.8450382594466
  0
LINE
  5
14D
100
AcDbEntity
  8
left_outsideCutPath
  6
ByLayer
 62
  256
370
   -1
100
AcDbLine
 10
606.7548469261604
 20
510.8450382594466
 11
606.7548469261604
 21
480.3237382594467
  0
LINE
  5
14E
100
AcDbEntity
  8
left_outsideCutPath
  6
ByLayer
 62
  256
370
   -1
100
AcDbLine
 10
606.7548469261604
 20
480.3237382594467
 11
603.7548469261604
 21
480.3237382594467
  0
LINE
  5
14F
100
AcDbEntity
  8
left_outsideCutPath
  6
ByLayer
 62
  256
370
   -1
100
AcDbLine
 10
603.7548469261604
 20
480.3237382594467
 11
603.7548469261604
 21
449.4024382594466
  0
LINE
  5
150
100
AcDbEntity
  8
left_outsideCutPath
  6
ByLayer
 62
  256
370
   -1
100
AcDbLine
 10
603.7548469261604
 20
449.4024382594466
 11
606.7548469261604
 21
449.4024382594466
  0
LINE
  5
151
100
AcDbEntity
  8
left_outsideCutPath
  6
ByLayer
 62
  256
370
   -1
100
AcDbLine
 10
606.7548469261604
 20
449.4024382594466
 11
606.7548469261604
 21
418.8811382594466
  0
LINE
  5
152
100
AcDbEntity
  8
left_outsideCutPath
  6
ByLayer
 62
  256
370
   -1
100
AcDbLine
 10
606.7548469261604
 20
418.8811382594466
 11
603.7548469261604
 21
418.8811382594466
  0
LINE
  5
153
100
AcDbEntity
  8
left_outsideCutPath
  6
ByLayer
 62
  256
370
   -1
100
AcDbLine
 10
603.7548469261604
 20
418.8811382594466
 11
603.7548469261604
 21
397.1482382594467
  0
LINE
  5
154
100
AcDbEntity
  8
left_outsideCutPath
  6
ByLayer
 62
  256
370
   -1
100
AcDbLine
 10
603.7548469261604
 20
397.1482382594467
 11
623.1441469261604
 21
397.1482382594467
  0
LINE
  5
155
100
AcDbEntity
  8
left_outsideCutPath
  6
ByLayer
 62
  256
370
   -1
100
AcDbLine
 10
623.1441469261604
 20
397.1482382594467
 11
623.1441469261604
 21
394.1482382594467
  0
LINE
  5
156
100
AcDbEntity
  8
left_outsideCutPath
  6
ByLayer
 62
  256
370
   -1
100
AcDbLine
 10
623.1441469261604
 20
394.1482382594467
 11
654.0654469261605
 21
394.1482382594467
  0
LINE
  5
157
100
AcDbEntity
  8
left_outsideCutPath
  6
ByLayer
 62
  256
370
   -1
100
AcDbLine
 10
654.0654469261605
 20
394.1482382594467
 11
654.0654469261605
 21
397.1482382594467
  0
LINE
  5
158
100
AcDbEntity
  8
left_outsideCutPath
  6
ByLayer
 62
  256
370
   -1
100
AcDbLine
 10
654.0654469261605
 20
397.1482382594467
 11
673.4548469261604
 21
397.1482382594467
  0
LINE
  5
159
100
AcDbEntity
  8
left_outsideCutPath
  6
ByLayer
 62
  256
370
   -1
100
AcDbLine
 10
673.4548469261604
 20
397.1482382594467
 11
673.4548469261604
 21
418.8811382594466
  0
LINE
  5
15A
100
AcDbEntity
  8
left_outsideCutPath
  6
ByLayer
 62
  256
370
   -1
100
AcDbLine
 10
673.4548469261604
 20
418.8811382594466
 11
670.4548469261604
 21
418.8811382594466
  0
LINE
  5
15B
100
AcDbEntity
  8
back_outsideCutPath
  6
ByLayer
 62
  256
370
   -1
100
AcDbLine
 10
714.2869326816824
 20
323.1959852974397
 11
744.8082326816824
 21
323.1959852974397
  0
LINE
  5
15C
100
AcDbEntity
  8
back_outsideCutPath
  6
ByLayer
 62
  256
370
   -1
100
AcDbLine
 10
744.8082326816824
 20
323.1959852974397
 11
744.8082326816824
 21
320.1959852974397
  0
LINE
  5
15D
100
AcDbEntity
  8
back_outsideCutPath
  6
ByLayer
 62
  256
370
   -1
100
AcDbLine
 10
744.8082326816824
 20
320.1959852974397
 11
775.7294326816824
 21
320.1959852974397
  0
LINE
  5
15E
100
AcDbEntity
  8
back_outsideCutPath
  6
ByLayer
 62
  256
370
   -1
100
AcDbLine
 10
775.7294326816824
 20
320.1959852974397
 11
775.7294326816824
 21
323.1959852974397
  0
LINE
  5
15F
100
AcDbEntity
  8
back_outsideCutPath
  6
ByLayer
 62
  256
370
   -1
100
AcDbLine
 10
775.7294326816824
 20
323.1959852974397
 11
806.2507326816824
 21
323.1959852974397
  0
LINE
  5
160
100
AcDbEntity
  8
back_outsideCutPath
  6
ByLayer
 62
  256
370
   -1
100
AcDbLine
 10
806.2507326816824
 20
323.1959852974397
 11
806.2507326816824
 21
320.1959852974397
  0
LINE
  5
161
100
AcDbEntity
  8
back_outsideCutPath
  6
ByLayer
 62
  256
370
   -1
100
AcDbLine
 10
806.2507326816824
 20
320.1959852974397
 11
837.1720326816825
 21
320.1959852974397
  0
LINE
  5
162
100
AcDbEntity
  8
back_outsideCutPath
  6
ByLayer
 62
  256
370
   -1
100
AcDbLine
 10
837.1720326816825
 20
320.1959852974397
 11
837.1720326816825
 21
323.1959852974397
  0
LINE
  5
163
100
AcDbEntity
  8
back_outsideCutPath
  6
ByLayer
 62
  256
370
   -1
100
AcDbLine
 10
837.1720326816825
 20
323.1959852974397
 11
867.6933326816824
 21
323.1959852974397
  0
LINE
  5
164
100
AcDbEntity
  8
back_outsideCutPath
  6
ByLayer
 62
  256
370
   -1
100
AcDbLine
 10
867.6933326816824
 20
323.1959852974397
 11
867.6933326816824
 21
320.1959852974397
  0
LINE
  5
165
100
AcDbEntity
  8
back_outsideCutPath
  6
ByLayer
 62
  256
370
   -1
100
AcDbLine
 10
867.6933326816824
 20
320.1959852974397
 11
898.6146326816825
 21
320.1959852974397
  0
LINE
  5
166
100
AcDbEntity
  8
back_outsideCutPath
  6
ByLayer
 62
  256
370
   -1
100
AcDbLine
 10
898.6146326816825
 20
320.1959852974397
 11
898.6146326816825
 21
323.1959852974397
  0
LINE
  5
167
100
AcDbEntity
  8
back_outsideCutPath
  6
ByLayer
 62
  256
370
   -1
100
AcDbLine
 10
898.6146326816825
 20
323.1959852974397
 11
929.1360326816824
 21
323.1959852974397
  0
LINE
  5
168
100
AcDbEntity
  8
back_outsideCutPath
  6
ByLayer
 62
  256
370
   -1
100
AcDbLine
 10
929.1360326816824
 20
323.1959852974397
 11
929.1360326816824
 21
320.1959852974397
  0
LINE
  5
169
100
AcDbEntity
  8
back_outsideCutPath
  6
ByLayer
 62
  256
370
   -1
100
AcDbLine
 10
929.1360326816824
 20
320.1959852974397
 11
964.5114326816824
 21
320.1959852974397
  0
LINE
  5
16A
100
AcDbEntity
  8
back_outsideCutPath
  6
ByLayer
 62
  256
370
   -1
100
AcDbLine
 10
964.5114326816824
 20
320.1959852974397
 11
964.5114326816824
 21
339.7853852974397
  0
LINE
  5
16B
100
AcDbEntity
  8
back_outsideCutPath
  6
ByLayer
 62
  256
370
   -1
100
AcDbLine
 10
964.5114326816824
 20
339.7853852974397
 11
961.5114326816824
 21
339.7853852974397
  0
LINE
  5
16C
100
AcDbEntity
  8
back_outsideCutPath
  6
ByLayer
 62
  256
370
   -1
100
AcDbLine
 10
961.5114326816824
 20
339.7853852974397
 11
961.5114326816824
 21
370.3066852974397
  0
LINE
  5
16D
100
AcDbEntity
  8
back_outsideCutPath
  6
ByLayer
 62
  256
370
   -1
100
AcDbLine
 10
961.5114326816824
 20
370.3066852974397
 11
964.5114326816824
 21
370.3066852974397
  0
LINE
  5
16E
100
AcDbEntity
  8
back_outsideCutPath
  6
ByLayer
 62
  256
370
   -1
100
AcDbLine
 10
964.5114326816824
 20
370.3066852974397
 11
964.5114326816824
 21
389.8959852974397
  0
LINE
  5
16F
100
AcDbEntity
  8
back_outsideCutPath
  6
ByLayer
 62
  256
370
   -1
100
AcDbLine
 10
964.5114326816824
 20
389.8959852974397
 11
929.1360326816824
 21
389.8959852974397
  0
LINE
  5
170
100
AcDbEntity
  8
back_outsideCutPath
  6
ByLayer
 62
  256
370
   -1
100
AcDbLine
 10
929.1360326816824
 20
389.8959852974397
 11
929.1360326816824
 21
386.8959852974397
  0
LINE
  5
171
100
AcDbEntity
  8
back_outsideCutPath
  6
ByLayer
 62
  256
370
   -1
100
AcDbLine
 10
929.1360326816824
 20
386.8959852974397
 11
898.6147326816824
 21
386.8959852974397
  0
LINE
  5
172
100
AcDbEntity
  8
back_outsideCutPath
  6
ByLayer
 62
  256
370
   -1
100
AcDbLine
 10
898.6147326816824
 20
386.8959852974397
 11
898.6147326816824
 21
389.8959852974397
  0
LINE
  5
173
100
AcDbEntity
  8
back_outsideCutPath
  6
ByLayer
 62
  256
370
   -1
100
AcDbLine
 10
898.6147326816824
 20
389.8959852974397
 11
867.6934326816825
 21
389.8959852974397
  0
LINE
  5
174
100
AcDbEntity
  8
back_outsideCutPath
  6
ByLayer
 62
  256
370
   -1
100
AcDbLine
 10
867.6934326816825
 20
389.8959852974397
 11
867.6934326816825
 21
386.8959852974397
  0
LINE
  5
175
100
AcDbEntity
  8
back_outsideCutPath
  6
ByLayer
 62
  256
370
   -1
100
AcDbLine
 10
867.6934326816825
 20
386.8959852974397
 11
837.1721326816825
 21
386.8959852974397
  0
LINE
  5
176
100
AcDbEntity
  8
back_outsideCutPath
  6
ByLayer
 62
  256
370
   -1
100
AcDbLine
 10
837.1721326816825
 20
386.8959852974397
 11
837.1721326816825
 21
389.8959852974397
  0
LINE
  5
177
100
AcDbEntity
  8
back_outsideCutPath
  6
ByLayer
 62
  256
370
   -1
100
AcDbLine
 10
837.1721326816825
 20
389.8959852974397
 11
806.2508326816824
 21
389.8959852974397
  0
LINE
  5
178
100
AcDbEntity
  8
back_outsideCutPath
  6
ByLayer
 62
  256
370
   -1
100
AcDbLine
 10
806.2508326816824
 20
389.8959852974397
 11
806.2508326816824
 21
386.8959852974397
  0
LINE
  5
179
100
AcDbEntity
  8
back_outsideCutPath
  6
ByLayer
 62
  256
370
   -1
100
AcDbLine
 10
806.2508326816824
 20
386.8959852974397
 11
775.7295326816824
 21
386.8959852974397
  0
LINE
  5
17A
100
AcDbEntity
  8
back_outsideCutPath
  6
ByLayer
 62
  256
370
   -1
100
AcDbLine
 10
775.7295326816824
 20
386.8959852974397
 11
775.7295326816824
 21
389.8959852974397
  0
LINE
  5
17B
100
AcDbEntity
  8
back_outsideCutPath
  6
ByLayer
 62
  256
370
   -1
100
AcDbLine
 10
775.7295326816824
 20
389.8959852974397
 11
744.8082326816824
 21
389.8959852974397
  0
LINE
  5
17C
100
AcDbEntity
  8
back_outsideCutPath
  6
ByLayer
 62
  256
370
   -1
100
AcDbLine
 10
744.8082326816824
 20
389.8959852974397
 11
744.8082326816824
 21
386.8959852974397
  0
LINE
  5
17D
100
AcDbEntity
  8
back_outsideCutPath
  6
ByLayer
 62
  256
370
   -1
100
AcDbLine
 10
744.8082326816824
 20
386.8959852974397
 11
714.2869326816824
 21
386.8959852974397
  0
LINE
  5
17E
100
AcDbEntity
  8
back_outsideCutPath
  6
ByLayer
 62
  256
370
   -1
100
AcDbLine
 10
714.2869326816824
 20
386.8959852974397
 11
714.2869326816824
 21
389.8959852974397
  0
LINE
  5
17F
100
AcDbEntity
  8
back_outsideCutPath
  6
ByLayer
 62
  256
370
   -1
100
AcDbLine
 10
714.2869326816824
 20
389.8959852974397
 11
678.9114326816824
 21
389.8959852974397
  0
LINE
  5
180
100
AcDbEntity
  8
back_outsideCutPath
  6
ByLayer
 62
  256
370
   -1
100
AcDbLine
 10
678.9114326816824
 20
389.8959852974397
 11
678.9114326816824
 21
370.3066852974397
  0
LINE
  5
181
100
AcDbEntity
  8
back_outsideCutPath
  6
ByLayer
 62
  256
370
   -1
100
AcDbLine
 10
678.9114326816824
 20
370.3066852974397
 11
681.9114326816824
 21
370.3066852974397
  0
LINE
  5
182
100
AcDbEntity
  8
back_outsideCutPath
  6
ByLayer
 62
  256
370
   -1
100
AcDbLine
 10
681.9114326816824
 20
370.3066852974397
 11
681.9114326816824
 21
339.7853852974397
  0
LINE
  5
183
100
AcDbEntity
  8
back_outsideCutPath
  6
ByLayer
 62
  256
370
   -1
100
AcDbLine
 10
681.9114326816824
 20
339.7853852974397
 11
678.9114326816824
 21
339.7853852974397
  0
LINE
  5
184
100
AcDbEntity
  8
back_outsideCutPath
  6
ByLayer
 62
  256
370
   -1
100
AcDbLine
 10
678.9114326816824
 20
339.7853852974397
 11
678.9114326816824
 21
320.1959852974397
  0
LINE
  5
185
100
AcDbEntity
  8
back_outsideCutPath
  6
ByLayer
 62
  256
370
   -1
100
AcDbLine
 10
678.9114326816824
 20
320.1959852974397
 11
714.2869326816824
 21
320.1959852974397
  0
LINE
  5
186
100
AcDbEntity
  8
back_outsideCutPath
  6
ByLayer
 62
  256
370
   -1
100
AcDbLine
 10
714.2869326816824
 20
320.1959852974397
 11
714.2869326816824
 21
323.1959852974397
  0
ENDSEC
  0
SECTION
  2
OBJECTS
  0
DICTIONARY
  5
C
330
0
100
AcDbDictionary
281
    1
  3
ACAD_GROUP
350
D
  0
DICTIONARY
  5
D
330
C
100
AcDbDictionary
281
    1
  0
PLOTSETTINGS
  5
187
100
AcDbPlotSettings
  6
1x1
 40
0
 41
0
 42
0
 43
0
  0
ENDSEC
  0
EOF
