0
SECTION
2
HEADER
9
$INSUNITS
70
1
0
ENDSEC
0
SECTION
2
TABLES
0
TABLE
2
LTYPE
0
LTYPE
72
65
70
64
2
CONTINUOUS
3
______
73
0
40
0
0
ENDTAB
0
TABLE
2
LAYER
0
ENDTAB
0
ENDSEC
0
SECTION
2
ENTITIES
0
LINE
8
front_outsideCutPath
10
1.4048
20
0.243
11
2.5943
21
0.243
0
LINE
8
front_outsideCutPath
10
2.5943
20
0.243
11
2.5943
21
0.125
0
LINE
8
front_outsideCutPath
10
2.5943
20
0.125
11
3.8238
21
0.125
0
LINE
8
front_outsideCutPath
10
3.8238
20
0.125
11
3.8238
21
0.243
0
LINE
8
front_outsideCutPath
10
3.8238
20
0.243
11
5.0133
21
0.243
0
LINE
8
front_outsideCutPath
10
5.0133
20
0.243
11
5.0133
21
0.125
0
LINE
8
front_outsideCutPath
10
5.0133
20
0.125
11
6.2428
21
0.125
0
LINE
8
front_outsideCutPath
10
6.2428
20
0.125
11
6.2428
21
0.243
0
LINE
8
front_outsideCutPath
10
6.2428
20
0.243
11
7.4323
21
0.243
0
LINE
8
front_outsideCutPath
10
7.4323
20
0.243
11
7.4323
21
0.125
0
LINE
8
front_outsideCutPath
10
7.4323
20
0.125
11
8.6618
21
0.125
0
LINE
8
front_outsideCutPath
10
8.6618
20
0.125
11
8.6618
21
0.243
0
LINE
8
front_outsideCutPath
10
8.6618
20
0.243
11
9.8513
21
0.243
0
LINE
8
front_outsideCutPath
10
9.8513
20
0.243
11
9.8513
21
0.125
0
LINE
8
front_outsideCutPath
10
9.8513
20
0.125
11
11.256
21
0.125
0
LINE
8
front_outsideCutPath
10
11.256
20
0.125
11
11.256
21
0.9083
0
LINE
8
front_outsideCutPath
10
11.256
20
0.9083
11
11.138
21
0.9083
0
LINE
8
front_outsideCutPath
10
11.138
20
0.9083
11
11.138
21
2.0978
0
LINE
8
front_outsideCutPath
10
11.138
20
2.0978
11
11.256
21
2.0978
0
LINE
8
front_outsideCutPath
10
11.256
20
2.0978
11
11.256
21
2.881
0
LINE
8
front_outsideCutPath
10
11.256
20
2.881
11
9.8513
21
2.881
0
LINE
8
front_outsideCutPath
10
9.8513
20
2.881
11
9.8513
21
2.763
0
LINE
8
front_outsideCutPath
10
9.8513
20
2.763
11
8.6617
21
2.763
0
LINE
8
front_outsideCutPath
10
8.6617
20
2.763
11
8.6617
21
2.881
0
LINE
8
front_outsideCutPath
10
8.6617
20
2.881
11
7.4322
21
2.881
0
LINE
8
front_outsideCutPath
10
7.4322
20
2.881
11
7.4322
21
2.763
0
LINE
8
front_outsideCutPath
10
7.4322
20
2.763
11
6.2427
21
2.763
0
LINE
8
front_outsideCutPath
10
6.2427
20
2.763
11
6.2427
21
2.881
0
LINE
8
front_outsideCutPath
10
6.2427
20
2.881
11
5.0132
21
2.881
0
LINE
8
front_outsideCutPath
10
5.0132
20
2.881
11
5.0132
21
2.763
0
LINE
8
front_outsideCutPath
10
5.0132
20
2.763
11
3.8237
21
2.763
0
LINE
8
front_outsideCutPath
10
3.8237
20
2.763
11
3.8237
21
2.881
0
LINE
8
front_outsideCutPath
10
3.8237
20
2.881
11
2.5942
21
2.881
0
LINE
8
front_outsideCutPath
10
2.5942
20
2.881
11
2.5942
21
2.763
0
LINE
8
front_outsideCutPath
10
2.5942
20
2.763
11
1.4047
21
2.763
0
LINE
8
front_outsideCutPath
10
1.4047
20
2.763
11
1.4047
21
2.881
0
LINE
8
front_outsideCutPath
10
1.4047
20
2.881
11
0
21
2.881
0
LINE
8
front_outsideCutPath
10
0
20
2.881
11
0
21
2.0978
0
LINE
8
front_outsideCutPath
10
0
20
2.0978
11
0.118
21
2.0978
0
LINE
8
front_outsideCutPath
10
0.118
20
2.0978
11
0.118
21
0.9083
0
LINE
8
front_outsideCutPath
10
0.118
20
0.9083
11
0
21
0.9083
0
LINE
8
front_outsideCutPath
10
0
20
0.9083
11
0
21
0.125
0
LINE
8
front_outsideCutPath
10
0
20
0.125
11
1.4048
21
0.125
0
LINE
8
front_outsideCutPath
10
1.4048
20
0.125
11
1.4048
21
0.243
0
LINE
8
left_outsideCutPath
10
12.3668
20
0.243
11
13.5563
21
0.243
0
LINE
8
left_outsideCutPath
10
13.5563
20
0.243
11
13.5563
21
0.125
0
LINE
8
left_outsideCutPath
10
13.5563
20
0.125
11
14.7858
21
0.125
0
LINE
8
left_outsideCutPath
10
14.7858
20
0.125
11
14.7858
21
0.243
0
LINE
8
left_outsideCutPath
10
14.7858
20
0.243
11
15.9753
21
0.243
0
LINE
8
left_outsideCutPath
10
15.9753
20
0.243
11
15.9753
21
0.125
0
LINE
8
left_outsideCutPath
10
15.9753
20
0.125
11
17.2048
21
0.125
0
LINE
8
left_outsideCutPath
10
17.2048
20
0.125
11
17.2048
21
0.243
0
LINE
8
left_outsideCutPath
10
17.2048
20
0.243
11
18.3943
21
0.243
0
LINE
8
left_outsideCutPath
10
18.3943
20
0.243
11
18.3943
21
0.125
0
LINE
8
left_outsideCutPath
10
18.3943
20
0.125
11
19.6238
21
0.125
0
LINE
8
left_outsideCutPath
10
19.6238
20
0.125
11
19.6238
21
0.243
0
LINE
8
left_outsideCutPath
10
19.6238
20
0.243
11
20.8133
21
0.243
0
LINE
8
left_outsideCutPath
10
20.8133
20
0.243
11
20.8133
21
0.125
0
LINE
8
left_outsideCutPath
10
20.8133
20
0.125
11
22.0428
21
0.125
0
LINE
8
left_outsideCutPath
10
22.0428
20
0.125
11
22.0428
21
0.243
0
LINE
8
left_outsideCutPath
10
22.0428
20
0.243
11
23.2323
21
0.243
0
LINE
8
left_outsideCutPath
10
23.2323
20
0.243
11
23.2323
21
0.125
0
LINE
8
left_outsideCutPath
10
23.2323
20
0.125
11
24.4618
21
0.125
0
LINE
8
left_outsideCutPath
10
24.4618
20
0.125
11
24.4618
21
0.243
0
LINE
8
left_outsideCutPath
10
24.4618
20
0.243
11
25.6513
21
0.243
0
LINE
8
left_outsideCutPath
10
25.6513
20
0.243
11
25.6513
21
0.125
0
LINE
8
left_outsideCutPath
10
25.6513
20
0.125
11
26.519
21
0.125
0
LINE
8
left_outsideCutPath
10
26.519
20
0.125
11
26.519
21
0.8883
0
LINE
8
left_outsideCutPath
10
26.519
20
0.8883
11
26.637
21
0.8883
0
LINE
8
left_outsideCutPath
10
26.637
20
0.8883
11
26.637
21
2.1178
0
LINE
8
left_outsideCutPath
10
26.637
20
2.1178
11
26.519
21
2.1178
0
LINE
8
left_outsideCutPath
10
26.519
20
2.1178
11
26.519
21
2.881
0
LINE
8
left_outsideCutPath
10
26.519
20
2.881
11
25.6513
21
2.881
0
LINE
8
left_outsideCutPath
10
25.6513
20
2.881
11
25.6513
21
2.763
0
LINE
8
left_outsideCutPath
10
25.6513
20
2.763
11
24.4618
21
2.763
0
LINE
8
left_outsideCutPath
10
24.4618
20
2.763
11
24.4618
21
2.881
0
LINE
8
left_outsideCutPath
10
24.4618
20
2.881
11
23.2323
21
2.881
0
LINE
8
left_outsideCutPath
10
23.2323
20
2.881
11
23.2323
21
2.763
0
LINE
8
left_outsideCutPath
10
23.2323
20
2.763
11
22.0427
21
2.763
0
LINE
8
left_outsideCutPath
10
22.0427
20
2.763
11
22.0427
21
2.881
0
LINE
8
left_outsideCutPath
10
22.0427
20
2.881
11
20.8132
21
2.881
0
LINE
8
left_outsideCutPath
10
20.8132
20
2.881
11
20.8132
21
2.763
0
LINE
8
left_outsideCutPath
10
20.8132
20
2.763
11
19.6237
21
2.763
0
LINE
8
left_outsideCutPath
10
19.6237
20
2.763
11
19.6237
21
2.881
0
LINE
8
left_outsideCutPath
10
19.6237
20
2.881
11
18.3942
21
2.881
0
LINE
8
left_outsideCutPath
10
18.3942
20
2.881
11
18.3942
21
2.763
0
LINE
8
left_outsideCutPath
10
18.3942
20
2.763
11
17.2047
21
2.763
0
LINE
8
left_outsideCutPath
10
17.2047
20
2.763
11
17.2047
21
2.881
0
LINE
8
left_outsideCutPath
10
17.2047
20
2.881
11
15.9752
21
2.881
0
LINE
8
left_outsideCutPath
10
15.9752
20
2.881
11
15.9752
21
2.763
0
LINE
8
left_outsideCutPath
10
15.9752
20
2.763
11
14.7857
21
2.763
0
LINE
8
left_outsideCutPath
10
14.7857
20
2.763
11
14.7857
21
2.881
0
LINE
8
left_outsideCutPath
10
14.7857
20
2.881
11
13.5562
21
2.881
0
LINE
8
left_outsideCutPath
10
13.5562
20
2.881
11
13.5562
21
2.763
0
LINE
8
left_outsideCutPath
10
13.5562
20
2.763
11
12.3667
21
2.763
0
LINE
8
left_outsideCutPath
10
12.3667
20
2.763
11
12.3667
21
2.881
0
LINE
8
left_outsideCutPath
10
12.3667
20
2.881
11
11.499
21
2.881
0
LINE
8
left_outsideCutPath
10
11.499
20
2.881
11
11.499
21
2.1178
0
LINE
8
left_outsideCutPath
10
11.499
20
2.1178
11
11.381
21
2.1178
0
LINE
8
left_outsideCutPath
10
11.381
20
2.1178
11
11.381
21
0.8883
0
LINE
8
left_outsideCutPath
10
11.381
20
0.8883
11
11.499
21
0.8883
0
LINE
8
left_outsideCutPath
10
11.499
20
0.8883
11
11.499
21
0.125
0
LINE
8
left_outsideCutPath
10
11.499
20
0.125
11
12.3668
21
0.125
0
LINE
8
left_outsideCutPath
10
12.3668
20
0.125
11
12.3668
21
0.243
0
LINE
8
top_outsideCutPath
10
29.3763
20
0.243
11
30.5658
21
0.243
0
LINE
8
top_outsideCutPath
10
30.5658
20
0.243
11
30.5658
21
0.125
0
LINE
8
top_outsideCutPath
10
30.5658
20
0.125
11
31.7953
21
0.125
0
LINE
8
top_outsideCutPath
10
31.7953
20
0.125
11
31.7953
21
0.243
0
LINE
8
top_outsideCutPath
10
31.7953
20
0.243
11
32.9848
21
0.243
0
LINE
8
top_outsideCutPath
10
32.9848
20
0.243
11
32.9848
21
0.125
0
LINE
8
top_outsideCutPath
10
32.9848
20
0.125
11
34.2143
21
0.125
0
LINE
8
top_outsideCutPath
10
34.2143
20
0.125
11
34.2143
21
0.243
0
LINE
8
top_outsideCutPath
10
34.2143
20
0.243
11
35.4038
21
0.243
0
LINE
8
top_outsideCutPath
10
35.4038
20
0.243
11
35.4038
21
0.125
0
LINE
8
top_outsideCutPath
10
35.4038
20
0.125
11
36.6333
21
0.125
0
LINE
8
top_outsideCutPath
10
36.6333
20
0.125
11
36.6333
21
0.243
0
LINE
8
top_outsideCutPath
10
36.6333
20
0.243
11
37.9
21
0.243
0
LINE
8
top_outsideCutPath
10
37.9
20
0.243
11
37.9
21
1.0908
0
LINE
8
top_outsideCutPath
10
37.9
20
1.0908
11
38.018
21
1.0908
0
LINE
8
top_outsideCutPath
10
38.018
20
1.0908
11
38.018
21
2.3203
0
LINE
8
top_outsideCutPath
10
38.018
20
2.3203
11
37.9
21
2.3203
0
LINE
8
top_outsideCutPath
10
37.9
20
2.3203
11
37.9
21
3.5098
0
LINE
8
top_outsideCutPath
10
37.9
20
3.5098
11
38.018
21
3.5098
0
LINE
8
top_outsideCutPath
10
38.018
20
3.5098
11
38.018
21
4.7393
0
LINE
8
top_outsideCutPath
10
38.018
20
4.7393
11
37.9
21
4.7393
0
LINE
8
top_outsideCutPath
10
37.9
20
4.7393
11
37.9
21
5.9288
0
LINE
8
top_outsideCutPath
10
37.9
20
5.9288
11
38.018
21
5.9288
0
LINE
8
top_outsideCutPath
10
38.018
20
5.9288
11
38.018
21
7.1583
0
LINE
8
top_outsideCutPath
10
38.018
20
7.1583
11
37.9
21
7.1583
0
LINE
8
top_outsideCutPath
10
37.9
20
7.1583
11
37.9
21
8.3478
0
LINE
8
top_outsideCutPath
10
37.9
20
8.3478
11
38.018
21
8.3478
0
LINE
8
top_outsideCutPath
10
38.018
20
8.3478
11
38.018
21
9.5773
0
LINE
8
top_outsideCutPath
10
38.018
20
9.5773
11
37.9
21
9.5773
0
LINE
8
top_outsideCutPath
10
37.9
20
9.5773
11
37.9
21
10.7668
0
LINE
8
top_outsideCutPath
10
37.9
20
10.7668
11
38.018
21
10.7668
0
LINE
8
top_outsideCutPath
10
38.018
20
10.7668
11
38.018
21
11.9963
0
LINE
8
top_outsideCutPath
10
38.018
20
11.9963
11
37.9
21
11.9963
0
LINE
8
top_outsideCutPath
10
37.9
20
11.9963
11
37.9
21
13.1858
0
LINE
8
top_outsideCutPath
10
37.9
20
13.1858
11
38.018
21
13.1858
0
LINE
8
top_outsideCutPath
10
38.018
20
13.1858
11
38.018
21
14.4153
0
LINE
8
top_outsideCutPath
10
38.018
20
14.4153
11
37.9
21
14.4153
0
LINE
8
top_outsideCutPath
10
37.9
20
14.4153
11
37.9
21
15.263
0
LINE
8
top_outsideCutPath
10
37.9
20
15.263
11
36.6333
21
15.263
0
LINE
8
top_outsideCutPath
10
36.6333
20
15.263
11
36.6333
21
15.381
0
LINE
8
top_outsideCutPath
10
36.6333
20
15.381
11
35.4037
21
15.381
0
LINE
8
top_outsideCutPath
10
35.4037
20
15.381
11
35.4037
21
15.263
0
LINE
8
top_outsideCutPath
10
35.4037
20
15.263
11
34.2142
21
15.263
0
LINE
8
top_outsideCutPath
10
34.2142
20
15.263
11
34.2142
21
15.381
0
LINE
8
top_outsideCutPath
10
34.2142
20
15.381
11
32.9847
21
15.381
0
LINE
8
top_outsideCutPath
10
32.9847
20
15.381
11
32.9847
21
15.263
0
LINE
8
top_outsideCutPath
10
32.9847
20
15.263
11
31.7952
21
15.263
0
LINE
8
top_outsideCutPath
10
31.7952
20
15.263
11
31.7952
21
15.381
0
LINE
8
top_outsideCutPath
10
31.7952
20
15.381
11
30.5657
21
15.381
0
LINE
8
top_outsideCutPath
10
30.5657
20
15.381
11
30.5657
21
15.263
0
LINE
8
top_outsideCutPath
10
30.5657
20
15.263
11
29.3762
21
15.263
0
LINE
8
top_outsideCutPath
10
29.3762
20
15.263
11
29.3762
21
15.381
0
LINE
8
top_outsideCutPath
10
29.3762
20
15.381
11
28.1467
21
15.381
0
LINE
8
top_outsideCutPath
10
28.1467
20
15.381
11
28.1467
21
15.263
0
LINE
8
top_outsideCutPath
10
28.1467
20
15.263
11
26.88
21
15.263
0
LINE
8
top_outsideCutPath
10
26.88
20
15.263
11
26.88
21
14.4153
0
LINE
8
top_outsideCutPath
10
26.88
20
14.4153
11
26.762
21
14.4153
0
LINE
8
top_outsideCutPath
10
26.762
20
14.4153
11
26.762
21
13.1858
0
LINE
8
top_outsideCutPath
10
26.762
20
13.1858
11
26.88
21
13.1858
0
LINE
8
top_outsideCutPath
10
26.88
20
13.1858
11
26.88
21
11.9963
0
LINE
8
top_outsideCutPath
10
26.88
20
11.9963
11
26.762
21
11.9963
0
LINE
8
top_outsideCutPath
10
26.762
20
11.9963
11
26.762
21
10.7667
0
LINE
8
top_outsideCutPath
10
26.762
20
10.7667
11
26.88
21
10.7667
0
LINE
8
top_outsideCutPath
10
26.88
20
10.7667
11
26.88
21
9.5772
0
LINE
8
top_outsideCutPath
10
26.88
20
9.5772
11
26.762
21
9.5772
0
LINE
8
top_outsideCutPath
10
26.762
20
9.5772
11
26.762
21
8.3477
0
LINE
8
top_outsideCutPath
10
26.762
20
8.3477
11
26.88
21
8.3477
0
LINE
8
top_outsideCutPath
10
26.88
20
8.3477
11
26.88
21
7.1582
0
LINE
8
top_outsideCutPath
10
26.88
20
7.1582
11
26.762
21
7.1582
0
LINE
8
top_outsideCutPath
10
26.762
20
7.1582
11
26.762
21
5.9287
0
LINE
8
top_outsideCutPath
10
26.762
20
5.9287
11
26.88
21
5.9287
0
LINE
8
top_outsideCutPath
10
26.88
20
5.9287
11
26.88
21
4.7392
0
LINE
8
top_outsideCutPath
10
26.88
20
4.7392
11
26.762
21
4.7392
0
LINE
8
top_outsideCutPath
10
26.762
20
4.7392
11
26.762
21
3.5097
0
LINE
8
top_outsideCutPath
10
26.762
20
3.5097
11
26.88
21
3.5097
0
LINE
8
top_outsideCutPath
10
26.88
20
3.5097
11
26.88
21
2.3202
0
LINE
8
top_outsideCutPath
10
26.88
20
2.3202
11
26.762
21
2.3202
0
LINE
8
top_outsideCutPath
10
26.762
20
2.3202
11
26.762
21
1.0907
0
LINE
8
top_outsideCutPath
10
26.762
20
1.0907
11
26.88
21
1.0907
0
LINE
8
top_outsideCutPath
10
26.88
20
1.0907
11
26.88
21
0.243
0
LINE
8
top_outsideCutPath
10
26.88
20
0.243
11
28.1468
21
0.243
0
LINE
8
top_outsideCutPath
10
28.1468
20
0.243
11
28.1468
21
0.125
0
LINE
8
top_outsideCutPath
10
28.1468
20
0.125
11
29.3763
21
0.125
0
LINE
8
top_outsideCutPath
10
29.3763
20
0.125
11
29.3763
21
0.243
0
LINE
8
back_outsideCutPath
10
1.4048
20
3.124
11
2.5943
21
3.124
0
LINE
8
back_outsideCutPath
10
2.5943
20
3.124
11
2.5943
21
3.006
0
LINE
8
back_outsideCutPath
10
2.5943
20
3.006
11
3.8238
21
3.006
0
LINE
8
back_outsideCutPath
10
3.8238
20
3.006
11
3.8238
21
3.124
0
LINE
8
back_outsideCutPath
10
3.8238
20
3.124
11
5.0133
21
3.124
0
LINE
8
back_outsideCutPath
10
5.0133
20
3.124
11
5.0133
21
3.006
0
LINE
8
back_outsideCutPath
10
5.0133
20
3.006
11
6.2428
21
3.006
0
LINE
8
back_outsideCutPath
10
6.2428
20
3.006
11
6.2428
21
3.124
0
LINE
8
back_outsideCutPath
10
6.2428
20
3.124
11
7.4323
21
3.124
0
LINE
8
back_outsideCutPath
10
7.4323
20
3.124
11
7.4323
21
3.006
0
LINE
8
back_outsideCutPath
10
7.4323
20
3.006
11
8.6618
21
3.006
0
LINE
8
back_outsideCutPath
10
8.6618
20
3.006
11
8.6618
21
3.124
0
LINE
8
back_outsideCutPath
10
8.6618
20
3.124
11
9.8513
21
3.124
0
LINE
8
back_outsideCutPath
10
9.8513
20
3.124
11
9.8513
21
3.006
0
LINE
8
back_outsideCutPath
10
9.8513
20
3.006
11
11.256
21
3.006
0
LINE
8
back_outsideCutPath
10
11.256
20
3.006
11
11.256
21
3.7893
0
LINE
8
back_outsideCutPath
10
11.256
20
3.7893
11
11.138
21
3.7893
0
LINE
8
back_outsideCutPath
10
11.138
20
3.7893
11
11.138
21
4.9788
0
LINE
8
back_outsideCutPath
10
11.138
20
4.9788
11
11.256
21
4.9788
0
LINE
8
back_outsideCutPath
10
11.256
20
4.9788
11
11.256
21
5.762
0
LINE
8
back_outsideCutPath
10
11.256
20
5.762
11
9.8513
21
5.762
0
LINE
8
back_outsideCutPath
10
9.8513
20
5.762
11
9.8513
21
5.644
0
LINE
8
back_outsideCutPath
10
9.8513
20
5.644
11
8.6617
21
5.644
0
LINE
8
back_outsideCutPath
10
8.6617
20
5.644
11
8.6617
21
5.762
0
LINE
8
back_outsideCutPath
10
8.6617
20
5.762
11
7.4322
21
5.762
0
LINE
8
back_outsideCutPath
10
7.4322
20
5.762
11
7.4322
21
5.644
0
LINE
8
back_outsideCutPath
10
7.4322
20
5.644
11
6.2427
21
5.644
0
LINE
8
back_outsideCutPath
10
6.2427
20
5.644
11
6.2427
21
5.762
0
LINE
8
back_outsideCutPath
10
6.2427
20
5.762
11
5.0132
21
5.762
0
LINE
8
back_outsideCutPath
10
5.0132
20
5.762
11
5.0132
21
5.644
0
LINE
8
back_outsideCutPath
10
5.0132
20
5.644
11
3.8237
21
5.644
0
LINE
8
back_outsideCutPath
10
3.8237
20
5.644
11
3.8237
21
5.762
0
LINE
8
back_outsideCutPath
10
3.8237
20
5.762
11
2.5942
21
5.762
0
LINE
8
back_outsideCutPath
10
2.5942
20
5.762
11
2.5942
21
5.644
0
LINE
8
back_outsideCutPath
10
2.5942
20
5.644
11
1.4047
21
5.644
0
LINE
8
back_outsideCutPath
10
1.4047
20
5.644
11
1.4047
21
5.762
0
LINE
8
back_outsideCutPath
10
1.4047
20
5.762
11
0
21
5.762
0
LINE
8
back_outsideCutPath
10
0
20
5.762
11
0
21
4.9788
0
LINE
8
back_outsideCutPath
10
0
20
4.9788
11
0.118
21
4.9788
0
LINE
8
back_outsideCutPath
10
0.118
20
4.9788
11
0.118
21
3.7893
0
LINE
8
back_outsideCutPath
10
0.118
20
3.7893
11
0
21
3.7893
0
LINE
8
back_outsideCutPath
10
0
20
3.7893
11
0
21
3.006
0
LINE
8
back_outsideCutPath
10
0
20
3.006
11
1.4048
21
3.006
0
LINE
8
back_outsideCutPath
10
1.4048
20
3.006
11
1.4048
21
3.124
0
LINE
8
right_outsideCutPath
10
12.3668
20
3.124
11
13.5563
21
3.124
0
LINE
8
right_outsideCutPath
10
13.5563
20
3.124
11
13.5563
21
3.006
0
LINE
8
right_outsideCutPath
10
13.5563
20
3.006
11
14.7858
21
3.006
0
LINE
8
right_outsideCutPath
10
14.7858
20
3.006
11
14.7858
21
3.124
0
LINE
8
right_outsideCutPath
10
14.7858
20
3.124
11
15.9753
21
3.124
0
LINE
8
right_outsideCutPath
10
15.9753
20
3.124
11
15.9753
21
3.006
0
LINE
8
right_outsideCutPath
10
15.9753
20
3.006
11
17.2048
21
3.006
0
LINE
8
right_outsideCutPath
10
17.2048
20
3.006
11
17.2048
21
3.124
0
LINE
8
right_outsideCutPath
10
17.2048
20
3.124
11
18.3943
21
3.124
0
LINE
8
right_outsideCutPath
10
18.3943
20
3.124
11
18.3943
21
3.006
0
LINE
8
right_outsideCutPath
10
18.3943
20
3.006
11
19.6238
21
3.006
0
LINE
8
right_outsideCutPath
10
19.6238
20
3.006
11
19.6238
21
3.124
0
LINE
8
right_outsideCutPath
10
19.6238
20
3.124
11
20.8133
21
3.124
0
LINE
8
right_outsideCutPath
10
20.8133
20
3.124
11
20.8133
21
3.006
0
LINE
8
right_outsideCutPath
10
20.8133
20
3.006
11
22.0428
21
3.006
0
LINE
8
right_outsideCutPath
10
22.0428
20
3.006
11
22.0428
21
3.124
0
LINE
8
right_outsideCutPath
10
22.0428
20
3.124
11
23.2323
21
3.124
0
LINE
8
right_outsideCutPath
10
23.2323
20
3.124
11
23.2323
21
3.006
0
LINE
8
right_outsideCutPath
10
23.2323
20
3.006
11
24.4618
21
3.006
0
LINE
8
right_outsideCutPath
10
24.4618
20
3.006
11
24.4618
21
3.124
0
LINE
8
right_outsideCutPath
10
24.4618
20
3.124
11
25.6513
21
3.124
0
LINE
8
right_outsideCutPath
10
25.6513
20
3.124
11
25.6513
21
3.006
0
LINE
8
right_outsideCutPath
10
25.6513
20
3.006
11
26.519
21
3.006
0
LINE
8
right_outsideCutPath
10
26.519
20
3.006
11
26.519
21
3.7693
0
LINE
8
right_outsideCutPath
10
26.519
20
3.7693
11
26.637
21
3.7693
0
LINE
8
right_outsideCutPath
10
26.637
20
3.7693
11
26.637
21
4.9988
0
LINE
8
right_outsideCutPath
10
26.637
20
4.9988
11
26.519
21
4.9988
0
LINE
8
right_outsideCutPath
10
26.519
20
4.9988
11
26.519
21
5.762
0
LINE
8
right_outsideCutPath
10
26.519
20
5.762
11
25.6513
21
5.762
0
LINE
8
right_outsideCutPath
10
25.6513
20
5.762
11
25.6513
21
5.644
0
LINE
8
right_outsideCutPath
10
25.6513
20
5.644
11
24.4618
21
5.644
0
LINE
8
right_outsideCutPath
10
24.4618
20
5.644
11
24.4618
21
5.762
0
LINE
8
right_outsideCutPath
10
24.4618
20
5.762
11
23.2323
21
5.762
0
LINE
8
right_outsideCutPath
10
23.2323
20
5.762
11
23.2323
21
5.644
0
LINE
8
right_outsideCutPath
10
23.2323
20
5.644
11
22.0427
21
5.644
0
LINE
8
right_outsideCutPath
10
22.0427
20
5.644
11
22.0427
21
5.762
0
LINE
8
right_outsideCutPath
10
22.0427
20
5.762
11
20.8132
21
5.762
0
LINE
8
right_outsideCutPath
10
20.8132
20
5.762
11
20.8132
21
5.644
0
LINE
8
right_outsideCutPath
10
20.8132
20
5.644
11
19.6237
21
5.644
0
LINE
8
right_outsideCutPath
10
19.6237
20
5.644
11
19.6237
21
5.762
0
LINE
8
right_outsideCutPath
10
19.6237
20
5.762
11
18.3942
21
5.762
0
LINE
8
right_outsideCutPath
10
18.3942
20
5.762
11
18.3942
21
5.644
0
LINE
8
right_outsideCutPath
10
18.3942
20
5.644
11
17.2047
21
5.644
0
LINE
8
right_outsideCutPath
10
17.2047
20
5.644
11
17.2047
21
5.762
0
LINE
8
right_outsideCutPath
10
17.2047
20
5.762
11
15.9752
21
5.762
0
LINE
8
right_outsideCutPath
10
15.9752
20
5.762
11
15.9752
21
5.644
0
LINE
8
right_outsideCutPath
10
15.9752
20
5.644
11
14.7857
21
5.644
0
LINE
8
right_outsideCutPath
10
14.7857
20
5.644
11
14.7857
21
5.762
0
LINE
8
right_outsideCutPath
10
14.7857
20
5.762
11
13.5562
21
5.762
0
LINE
8
right_outsideCutPath
10
13.5562
20
5.762
11
13.5562
21
5.644
0
LINE
8
right_outsideCutPath
10
13.5562
20
5.644
11
12.3667
21
5.644
0
LINE
8
right_outsideCutPath
10
12.3667
20
5.644
11
12.3667
21
5.762
0
LINE
8
right_outsideCutPath
10
12.3667
20
5.762
11
11.499
21
5.762
0
LINE
8
right_outsideCutPath
10
11.499
20
5.762
11
11.499
21
4.9988
0
LINE
8
right_outsideCutPath
10
11.499
20
4.9988
11
11.381
21
4.9988
0
LINE
8
right_outsideCutPath
10
11.381
20
4.9988
11
11.381
21
3.7693
0
LINE
8
right_outsideCutPath
10
11.381
20
3.7693
11
11.499
21
3.7693
0
LINE
8
right_outsideCutPath
10
11.499
20
3.7693
11
11.499
21
3.006
0
LINE
8
right_outsideCutPath
10
11.499
20
3.006
11
12.3668
21
3.006
0
LINE
8
right_outsideCutPath
10
12.3668
20
3.006
11
12.3668
21
3.124
0
LINE
8
bottom_outsideCutPath
10
29.3763
20
15.624
11
30.5658
21
15.624
0
LINE
8
bottom_outsideCutPath
10
30.5658
20
15.624
11
30.5658
21
15.506
0
LINE
8
bottom_outsideCutPath
10
30.5658
20
15.506
11
31.7953
21
15.506
0
LINE
8
bottom_outsideCutPath
10
31.7953
20
15.506
11
31.7953
21
15.624
0
LINE
8
bottom_outsideCutPath
10
31.7953
20
15.624
11
32.9848
21
15.624
0
LINE
8
bottom_outsideCutPath
10
32.9848
20
15.624
11
32.9848
21
15.506
0
LINE
8
bottom_outsideCutPath
10
32.9848
20
15.506
11
34.2143
21
15.506
0
LINE
8
bottom_outsideCutPath
10
34.2143
20
15.506
11
34.2143
21
15.624
0
LINE
8
bottom_outsideCutPath
10
34.2143
20
15.624
11
35.4038
21
15.624
0
LINE
8
bottom_outsideCutPath
10
35.4038
20
15.624
11
35.4038
21
15.506
0
LINE
8
bottom_outsideCutPath
10
35.4038
20
15.506
11
36.6333
21
15.506
0
LINE
8
bottom_outsideCutPath
10
36.6333
20
15.506
11
36.6333
21
15.624
0
LINE
8
bottom_outsideCutPath
10
36.6333
20
15.624
11
37.9
21
15.624
0
LINE
8
bottom_outsideCutPath
10
37.9
20
15.624
11
37.9
21
16.4718
0
LINE
8
bottom_outsideCutPath
10
37.9
20
16.4718
11
38.018
21
16.4718
0
LINE
8
bottom_outsideCutPath
10
38.018
20
16.4718
11
38.018
21
17.7013
0
LINE
8
bottom_outsideCutPath
10
38.018
20
17.7013
11
37.9
21
17.7013
0
LINE
8
bottom_outsideCutPath
10
37.9
20
17.7013
11
37.9
21
18.8908
0
LINE
8
bottom_outsideCutPath
10
37.9
20
18.8908
11
38.018
21
18.8908
0
LINE
8
bottom_outsideCutPath
10
38.018
20
18.8908
11
38.018
21
20.1203
0
LINE
8
bottom_outsideCutPath
10
38.018
20
20.1203
11
37.9
21
20.1203
0
LINE
8
bottom_outsideCutPath
10
37.9
20
20.1203
11
37.9
21
21.3098
0
LINE
8
bottom_outsideCutPath
10
37.9
20
21.3098
11
38.018
21
21.3098
0
LINE
8
bottom_outsideCutPath
10
38.018
20
21.3098
11
38.018
21
22.5393
0
LINE
8
bottom_outsideCutPath
10
38.018
20
22.5393
11
37.9
21
22.5393
0
LINE
8
bottom_outsideCutPath
10
37.9
20
22.5393
11
37.9
21
23.7288
0
LINE
8
bottom_outsideCutPath
10
37.9
20
23.7288
11
38.018
21
23.7288
0
LINE
8
bottom_outsideCutPath
10
38.018
20
23.7288
11
38.018
21
24.9583
0
LINE
8
bottom_outsideCutPath
10
38.018
20
24.9583
11
37.9
21
24.9583
0
LINE
8
bottom_outsideCutPath
10
37.9
20
24.9583
11
37.9
21
26.1478
0
LINE
8
bottom_outsideCutPath
10
37.9
20
26.1478
11
38.018
21
26.1478
0
LINE
8
bottom_outsideCutPath
10
38.018
20
26.1478
11
38.018
21
27.3773
0
LINE
8
bottom_outsideCutPath
10
38.018
20
27.3773
11
37.9
21
27.3773
0
LINE
8
bottom_outsideCutPath
10
37.9
20
27.3773
11
37.9
21
28.5668
0
LINE
8
bottom_outsideCutPath
10
37.9
20
28.5668
11
38.018
21
28.5668
0
LINE
8
bottom_outsideCutPath
10
38.018
20
28.5668
11
38.018
21
29.7963
0
LINE
8
bottom_outsideCutPath
10
38.018
20
29.7963
11
37.9
21
29.7963
0
LINE
8
bottom_outsideCutPath
10
37.9
20
29.7963
11
37.9
21
30.644
0
LINE
8
bottom_outsideCutPath
10
37.9
20
30.644
11
36.6333
21
30.644
0
LINE
8
bottom_outsideCutPath
10
36.6333
20
30.644
11
36.6333
21
30.762
0
LINE
8
bottom_outsideCutPath
10
36.6333
20
30.762
11
35.4037
21
30.762
0
LINE
8
bottom_outsideCutPath
10
35.4037
20
30.762
11
35.4037
21
30.644
0
LINE
8
bottom_outsideCutPath
10
35.4037
20
30.644
11
34.2142
21
30.644
0
LINE
8
bottom_outsideCutPath
10
34.2142
20
30.644
11
34.2142
21
30.762
0
LINE
8
bottom_outsideCutPath
10
34.2142
20
30.762
11
32.9847
21
30.762
0
LINE
8
bottom_outsideCutPath
10
32.9847
20
30.762
11
32.9847
21
30.644
0
LINE
8
bottom_outsideCutPath
10
32.9847
20
30.644
11
31.7952
21
30.644
0
LINE
8
bottom_outsideCutPath
10
31.7952
20
30.644
11
31.7952
21
30.762
0
LINE
8
bottom_outsideCutPath
10
31.7952
20
30.762
11
30.5657
21
30.762
0
LINE
8
bottom_outsideCutPath
10
30.5657
20
30.762
11
30.5657
21
30.644
0
LINE
8
bottom_outsideCutPath
10
30.5657
20
30.644
11
29.3762
21
30.644
0
LINE
8
bottom_outsideCutPath
10
29.3762
20
30.644
11
29.3762
21
30.762
0
LINE
8
bottom_outsideCutPath
10
29.3762
20
30.762
11
28.1467
21
30.762
0
LINE
8
bottom_outsideCutPath
10
28.1467
20
30.762
11
28.1467
21
30.644
0
LINE
8
bottom_outsideCutPath
10
28.1467
20
30.644
11
26.88
21
30.644
0
LINE
8
bottom_outsideCutPath
10
26.88
20
30.644
11
26.88
21
29.7963
0
LINE
8
bottom_outsideCutPath
10
26.88
20
29.7963
11
26.762
21
29.7963
0
LINE
8
bottom_outsideCutPath
10
26.762
20
29.7963
11
26.762
21
28.5668
0
LINE
8
bottom_outsideCutPath
10
26.762
20
28.5668
11
26.88
21
28.5668
0
LINE
8
bottom_outsideCutPath
10
26.88
20
28.5668
11
26.88
21
27.3773
0
LINE
8
bottom_outsideCutPath
10
26.88
20
27.3773
11
26.762
21
27.3773
0
LINE
8
bottom_outsideCutPath
10
26.762
20
27.3773
11
26.762
21
26.1477
0
LINE
8
bottom_outsideCutPath
10
26.762
20
26.1477
11
26.88
21
26.1477
0
LINE
8
bottom_outsideCutPath
10
26.88
20
26.1477
11
26.88
21
24.9582
0
LINE
8
bottom_outsideCutPath
10
26.88
20
24.9582
11
26.762
21
24.9582
0
LINE
8
bottom_outsideCutPath
10
26.762
20
24.9582
11
26.762
21
23.7287
0
LINE
8
bottom_outsideCutPath
10
26.762
20
23.7287
11
26.88
21
23.7287
0
LINE
8
bottom_outsideCutPath
10
26.88
20
23.7287
11
26.88
21
22.5392
0
LINE
8
bottom_outsideCutPath
10
26.88
20
22.5392
11
26.762
21
22.5392
0
LINE
8
bottom_outsideCutPath
10
26.762
20
22.5392
11
26.762
21
21.3097
0
LINE
8
bottom_outsideCutPath
10
26.762
20
21.3097
11
26.88
21
21.3097
0
LINE
8
bottom_outsideCutPath
10
26.88
20
21.3097
11
26.88
21
20.1202
0
LINE
8
bottom_outsideCutPath
10
26.88
20
20.1202
11
26.762
21
20.1202
0
LINE
8
bottom_outsideCutPath
10
26.762
20
20.1202
11
26.762
21
18.8907
0
LINE
8
bottom_outsideCutPath
10
26.762
20
18.8907
11
26.88
21
18.8907
0
LINE
8
bottom_outsideCutPath
10
26.88
20
18.8907
11
26.88
21
17.7012
0
LINE
8
bottom_outsideCutPath
10
26.88
20
17.7012
11
26.762
21
17.7012
0
LINE
8
bottom_outsideCutPath
10
26.762
20
17.7012
11
26.762
21
16.4717
0
LINE
8
bottom_outsideCutPath
10
26.762
20
16.4717
11
26.88
21
16.4717
0
LINE
8
bottom_outsideCutPath
10
26.88
20
16.4717
11
26.88
21
15.624
0
LINE
8
bottom_outsideCutPath
10
26.88
20
15.624
11
28.1468
21
15.624
0
LINE
8
bottom_outsideCutPath
10
28.1468
20
15.624
11
28.1468
21
15.506
0
LINE
8
bottom_outsideCutPath
10
28.1468
20
15.506
11
29.3763
21
15.506
0
LINE
8
bottom_outsideCutPath
10
29.3763
20
15.506
11
29.3763
21
15.624
0
ENDSEC
0
EOF